<svg width="0" height="0" class="hidden"> <symbol xmlns="http://www.w3.org/2000/svg" fill="currentColor" viewBox="0 0 22 24" id="node"> <g clip-path="url(#a)"> <mask id="b" width="22" height="24" x="0" y="0" maskUnits="userSpaceOnUse"> <path fill="#fff" d="M0 0h22v24H0V0Z"></path> </mask> <g mask="url(#b)"> <path fill="url(#c)" fill-rule="evenodd" d="M11.111.156a1.135 1.135 0 0 0-1.136 0L.57 5.585a1.135 1.135 0 0 0-.57.984v10.865a1.136 1.136 0 0 0 .568.984l9.405 5.433a1.136 1.136 0 0 0 1.136 0l9.4-5.433a1.136 1.136 0 0 0 .568-.984V6.568a1.136 1.136 0 0 0-.573-.984L11.111.156Z" clip-rule="evenodd"></path> <path fill="url(#d)" d="M20.536 5.585 11.101.156a1.132 1.132 0 0 0-.3-.12L.235 18.123c.075.12.178.221.3.294L9.98 23.85a1.147 1.147 0 0 0 .877.11l9.93-18.18a1.247 1.247 0 0 0-.251-.195Z"></path> <path fill="url(#e)" d="M20.538 18.417a1.081 1.081 0 0 0 .522-.762L10.805.04a1.29 1.29 0 0 0-.851.12l-9.37 5.4 10.122 18.445c.146-.02.287-.068.415-.142l9.417-5.446Z"></path> </g> </g> <defs> <linearGradient id="c" x1="14.353" x2="4.065" y1="4.204" y2="20.391" gradientUnits="userSpaceOnUse"> <stop stop-color="#3F873F"></stop> <stop offset=".33" stop-color="#3F8B3D"></stop> <stop offset=".637" stop-color="#3E9638"></stop> <stop offset=".934" stop-color="#3DA92E"></stop> <stop offset="1" stop-color="#3DAE2B"></stop> </linearGradient> <linearGradient id="d" x1="9.133" x2="34.886" y1="13.264" y2="-.735" gradientUnits="userSpaceOnUse"> <stop offset=".138" stop-color="#3F873F"></stop> <stop offset=".402" stop-color="#52A044"></stop> <stop offset=".713" stop-color="#64B749"></stop> <stop offset=".908" stop-color="#6ABF4B"></stop> </linearGradient> <linearGradient id="e" x1="-.337" x2="21.388" y1="12.009" y2="12.009" gradientUnits="userSpaceOnUse"> <stop offset=".092" stop-color="#6ABF4B"></stop> <stop offset=".287" stop-color="#64B749"></stop> <stop offset=".598" stop-color="#52A044"></stop> <stop offset=".862" stop-color="#3F873F"></stop> </linearGradient> <clipPath id="a"> <path fill="#fff" d="M0 0h22v24H0z"></path> </clipPath> </defs> </symbol> <symbol xmlns="http://www.w3.org/2000/svg" fill="currentColor" viewBox="0 0 58 24" id="npm"> <g clip-path="url(#a)"> <mask id="b" width="58" height="24" x="0" y="0" maskUnits="userSpaceOnUse"> <path fill="#fff" d="M0 0h58v24H0V0Z"></path> </mask> <g mask="url(#b)"> <path fill="#D50000" d="M.078.004h57.6v20.4h-28.8v3.6h-13.2v-3.6H.078V.004Z"></path> <path fill="#fff" d="M3.678 16.804h6v-9.6h3.6v9.6h2.4v-13.2h-12v13.2Zm15.6-13.2v16.8h6v-3.6h6v-13.2h-12Zm9.6 9.6h-3.6v-6h3.6v6Zm6-9.6v13.2h6v-9.6h3.6v9.6h3.6v-9.6h3.6v9.6h2.4v-13.2h-19.2Z"></path> </g> </g> <defs> <clipPath id="a"> <path fill="#fff" d="M0 0h58v24H0z"></path> </clipPath> </defs> </symbol> <symbol xmlns="http://www.w3.org/2000/svg" fill="currentColor" viewBox="0 0 24 24" id="postgre"> <g clip-path="url(#a)"> <mask id="b" width="24" height="24" x="0" y="0" maskUnits="userSpaceOnUse"> <path fill="#fff" d="M0 0h24v24H0V0Z"></path> </mask> <g mask="url(#b)"> <path fill="#000001" d="M17.947 17.474c.155-1.272.108-1.458 1.07-1.253l.243.022a5.636 5.636 0 0 0 2.275-.377c1.218-.559 1.948-1.492.742-1.248-2.75.56-2.94-.36-2.94-.36 2.9-4.245 4.118-9.634 3.07-10.954-2.858-3.599-7.804-1.9-7.887-1.852h-.027a9.943 9.943 0 0 0-1.835-.188 4.58 4.58 0 0 0-2.9.857s-8.83-3.579-8.42 4.505c.088 1.72 2.5 13.019 5.384 9.605 1.053-1.248 2.07-2.3 2.07-2.3a2.7 2.7 0 0 0 1.745.44l.049-.041c-.015.162-.009.325.019.486-.743.816-.524.96-2.008 1.261-1.484.302-.62.848-.044.99a3.076 3.076 0 0 0 3.41-1.089l-.044.172c.29.23.271 1.65.313 2.665-.008.85.1 1.698.32 2.52.208.557.457 2 2.408 1.584 1.63-.344 2.876-.84 2.988-5.446"></path> <path fill="#000001" d="M14.327 24.002a2.579 2.579 0 0 1-1.827-.666c-.407-.416-.7-.93-.851-1.494-.02-.059-.038-.12-.051-.15a9.841 9.841 0 0 1-.384-2.83c-.007-.18-.013-.372-.018-.57 0-.119-.007-.261-.012-.407a4.47 4.47 0 0 1-2.87.168 2.422 2.422 0 0 1-1.258-.708 2.11 2.11 0 0 1-2.07.44 4.128 4.128 0 0 1-2.127-2.182 19.174 19.174 0 0 1-1.316-3.315 30.753 30.753 0 0 1-1.22-5.604c-.136-2.547.563-4.37 2.07-5.42A6.782 6.782 0 0 1 7.454.472c.733.12 1.455.3 2.16.534a5.772 5.772 0 0 1 3.062-.742c.59.007 1.177.06 1.757.158a10.37 10.37 0 0 1 3-.416 7.207 7.207 0 0 1 5.785 2.68c.938 1.181.589 3.508.132 5.253a23.061 23.061 0 0 1-2.5 5.853 7.23 7.23 0 0 0 1.218-.158c1.339-.272 1.7.5 1.789.746.413 1.235-1.34 2.15-1.894 2.4a6.66 6.66 0 0 1-2.75.468h-.044l-.167-.014-.015.12-.023.191a8.687 8.687 0 0 1-1.11 4.828 4.005 4.005 0 0 1-2.68 1.529c-.28.063-.567.097-.855.1h.008Zm-1.767-8.64c.583.46.634 1.3.678 2.865 0 .188.011.372.017.545.003.744.089 1.485.257 2.21.028.073.052.148.078.226.212.64.3.9 1.157.72.756-.16 1.143-.3 1.44-.72.57-1.171.825-2.47.74-3.769l1.023.024-1.014-.12.028-.23c.089-.75.158-1.344.7-1.727.314-.205.691-.29 1.063-.24a1.4 1.4 0 0 1-.39-.691l-.085-.414.244-.35a20.988 20.988 0 0 0 2.87-6.247c.569-2.16.409-3.307.244-3.523-2.28-2.853-6.234-1.686-6.676-1.546l-.077.04-.382.07-.2-.04a8.973 8.973 0 0 0-1.644-.167 3.56 3.56 0 0 0-2.27.652l-.466.348-.541-.22C8.296 2.632 5.19 1.774 3.562 2.91c-.9.626-1.3 1.861-1.218 3.673.233 1.78.627 3.535 1.178 5.243.974 3.11 1.844 3.973 2.088 4.042a.935.935 0 0 0 .311-.274 51.714 51.714 0 0 1 2.116-2.352l.592-.613.715.468c.237.157.51.253.794.277l1.7-1.425-.244 2.482a.866.866 0 0 0 .012.234l.074.47-.323.36-.01.01.793.36.42-.503Z"></path> <path fill="#336791" d="M22.274 14.62c-2.75.56-2.94-.36-2.94-.36 2.9-4.245 4.118-9.634 3.07-10.954-2.857-3.6-7.805-1.9-7.886-1.852h-.027a9.944 9.944 0 0 0-1.835-.188 4.58 4.58 0 0 0-2.9.857S.93-1.457 1.342 6.628c.088 1.72 2.5 13.02 5.384 9.606 1.053-1.248 2.07-2.3 2.07-2.3a2.7 2.7 0 0 0 1.745.44l.049-.042c-.015.16-.008.322.019.48-.743.817-.524.96-2.008 1.262-1.484.302-.62.848-.044.99a3.07 3.07 0 0 0 3.41-1.089l-.044.172c.4.82.559 1.734.46 2.64a7.159 7.159 0 0 0 .171 2.545c.23.614.458 2 2.409 1.585a2.85 2.85 0 0 0 2.592-2.723c.083-1.058.272-.9.284-1.847l.15-.448c.175-1.44.029-1.9 1.031-1.68l.244.022a5.636 5.636 0 0 0 2.275-.377c1.218-.559 1.948-1.493.743-1.248l-.007.005h-.001Z"></path> <path fill="#fff" d="M14.42 23.375a2.476 2.476 0 0 1-2.373-1.8 25.79 25.79 0 0 1-.308-6.14.341.341 0 0 1 .682.018 26.295 26.295 0 0 0 .26 5.878 1.811 1.811 0 0 0 .9 1.181 1.863 1.863 0 0 0 1.493.126 2.317 2.317 0 0 0 2.216-2.21c.185-1.058.553-4.078.6-4.67a.341.341 0 0 1 .68.05c-.048.62-.413 3.634-.61 4.735a2.99 2.99 0 0 1-2.744 2.751c-.263.054-.531.08-.8.08l.004.001ZM5.609 17.18a1.402 1.402 0 0 1-.426-.07c-1.064-.35-2.07-2.05-3.007-5.055a30.016 30.016 0 0 1-1.192-5.44c-.122-2.299.487-3.932 1.792-4.843 2.58-1.8 6.914-.09 7.099-.014a.334.334 0 0 1-.08.65.345.345 0 0 1-.178-.028c-.05-.02-4.175-1.646-6.453-.058-1.1.77-1.609 2.2-1.5 4.26.227 1.792.617 3.56 1.165 5.28.826 2.666 1.763 4.346 2.57 4.611.123.041.5.164 1.046-.48 1.048-1.242 2.012-2.234 2.021-2.244a.345.345 0 0 1 .454.017.332.332 0 0 1 .033.447c-.01.01-.957.984-1.99 2.21a1.787 1.787 0 0 1-1.35.756H5.61l-.001.001Zm13.711-2.62a.342.342 0 0 1-.3-.178.332.332 0 0 1 .017-.345C21.967 9.752 23 4.582 22.121 3.48a5.79 5.79 0 0 0-4.638-2.16 8.876 8.876 0 0 0-2.819.4.345.345 0 0 1-.51-.25.335.335 0 0 1 .17-.335 8.856 8.856 0 0 1 3.074-.488 6.545 6.545 0 0 1 5.26 2.42c.838 1.053.286 3.617.01 4.67a22.378 22.378 0 0 1-3.065 6.68.34.34 0 0 1-.283.148v-.005Z"></path> <path fill="#fff" d="M19.47 16.55a2.61 2.61 0 0 1-1.233-.233.646.646 0 0 1-.348-.523c-.075-1.286.624-1.542 1.012-1.652-.05-.07-.114-.15-.18-.232a4.64 4.64 0 0 1-.75-1.19 7.173 7.173 0 0 0-.277-.511c-.71-1.254-2.192-3.86-1.231-5.205a2.647 2.647 0 0 1 2.576-.738 7.5 7.5 0 0 0-1.375-2.325 6.619 6.619 0 0 0-5.028-2.366 4.13 4.13 0 0 0-3.1 1.144C7.778 4.47 7.838 7.65 7.838 7.683a.341.341 0 0 1-.682.018 8.25 8.25 0 0 1 1.9-5.452 4.788 4.788 0 0 1 3.6-1.346 7.647 7.647 0 0 1 7.158 5.638.375.375 0 0 1-.285.445h-.126c-.852-.136-1.967-.176-2.375.4-.71 1 .677 3.447 1.268 4.499.152.269.262.463.313.583a4 4 0 0 0 .65 1.026c.179.184.315.404.4.646.03.048.408.555 2.543.12.56-.12.9-.013 1 .3.2.6-.915 1.3-1.533 1.582-.7.279-1.447.419-2.2.412l.002-.005-.001.001Zm-.9-.82c.356.149.745.198 1.126.143a5.025 5.025 0 0 0 1.679-.344c.354-.154.683-.362.974-.617h-.016a4.227 4.227 0 0 1-2.948-.12l-.1-.067c-.046.016-.1.029-.145.043-.318.093-.616.175-.577.96l.007.002Zm-9.03 1.773a4.523 4.523 0 0 1-1.085-.139c-.108-.026-1.057-.277-1.045-.876.012-.547.8-.708 1.1-.769 1.048-.212 1.117-.3 1.442-.705.1-.12.217-.271.38-.451a1.02 1.02 0 0 1 1.28-.3 1.366 1.366 0 0 1 .75.885 1.124 1.124 0 0 1-.143 1 3.188 3.188 0 0 1-2.674 1.36l-.004-.005H9.54Zm-1.374-.983c.14.089.293.154.454.193a2.718 2.718 0 0 0 3.044-.96.5.5 0 0 0 .044-.42.715.715 0 0 0-.356-.45c-.185-.076-.287-.12-.51.128-.15.164-.258.3-.353.418-.416.521-.61.7-1.84.948-.167.03-.33.08-.487.146l.004-.003Z"></path> <path fill="#fff" d="M10.542 15.107a.34.34 0 0 1-.336-.284 1.235 1.235 0 0 1-.015-.133 3.129 3.129 0 0 1-2.159-.96 3.462 3.462 0 0 1-.935-2.926c.118-.915.142-1.84.071-2.76a6.102 6.102 0 0 1-.016-.345c0-.1 0-.374.9-.823.515-.26 1.07-.43 1.643-.5a1.8 1.8 0 0 1 1.387.258 1.75 1.75 0 0 1 .758 1.173 6.699 6.699 0 0 1-.364 4.899 5.21 5.21 0 0 0-.2.48l-.051.134c-.22.441-.337.926-.343 1.419a.333.333 0 0 1-.196.355.343.343 0 0 1-.142.03l-.002-.017ZM7.835 7.79c0 .056.007.127.012.209.075.966.05 1.938-.076 2.9a2.8 2.8 0 0 0 .748 2.367 2.44 2.44 0 0 0 1.74.759 8.69 8.69 0 0 1 .32-.95l.05-.133c.065-.173.14-.34.222-.517a6.055 6.055 0 0 0 .318-4.485 1.024 1.024 0 0 0-.8-.88 3.78 3.78 0 0 0-2.54.733l.006-.003Z"></path> <path fill="#fff" d="M9.71 7.642c-.016.11.2.4.487.443a.53.53 0 0 0 .547-.3c.016-.11-.2-.23-.487-.27-.287-.04-.532.018-.547.127Z"></path> <path fill="#fff" d="M10.268 8.202a.57.57 0 0 1-.078 0 .767.767 0 0 1-.487-.3.408.408 0 0 1-.1-.27.211.211 0 0 1 .089-.14.864.864 0 0 1 .586-.082c.14.016.275.056.4.12.184.1.2.216.189.275a.632.632 0 0 1-.6.4l.001-.003Zm-.438-.538a.545.545 0 0 0 .392.31.452.452 0 0 0 .416-.2.674.674 0 0 0-.392-.15.688.688 0 0 0-.416.038v.002Zm8.595-.247c.017.11-.2.4-.486.443a.531.531 0 0 1-.547-.3c-.015-.11.2-.23.487-.27.287-.04.53.018.546.127Z"></path> <path fill="#fff" d="M17.87 7.92a.58.58 0 0 1-.538-.352c-.023-.167.253-.294.538-.334.287-.04.587.008.61.175a.424.424 0 0 1-.148.294.7.7 0 0 1-.392.21.536.536 0 0 1-.068 0l-.002.007Zm.186-.587a1.23 1.23 0 0 0-.169.012c-.3.04-.448.158-.441.208a.489.489 0 0 0 .487.252.583.583 0 0 0 .325-.178.36.36 0 0 0 .122-.2c-.015-.04-.122-.092-.323-.092l-.001-.002Zm.784 6.413a.342.342 0 0 1-.3-.178.33.33 0 0 1 .018-.345c.52-.891.673-1.95.425-2.952a8.315 8.315 0 0 1-.09-1.26c.017-.373.058-.746.122-1.114.079-.403.112-.813.1-1.223a.331.331 0 0 1 .152-.306.345.345 0 0 1 .477.1c.032.051.05.11.052.17a6.22 6.22 0 0 1-.1 1.362c-.06.341-.098.686-.114 1.032 0 .388.028.775.085 1.158a4.56 4.56 0 0 1-.536 3.406.342.342 0 0 1-.284.149h-.007v.001Z"></path> </g> </g> <defs> <clipPath id="a"> <path fill="#fff" d="M0 0h24v24H0z"></path> </clipPath> </defs> </symbol> <symbol xmlns="http://www.w3.org/2000/svg" fill="currentColor" viewBox="0 0 47 24" id="php"> <g clip-path="url(#a)"> <mask id="b" width="47" height="24" x="0" y="0" maskUnits="userSpaceOnUse"> <path fill="#fff" d="M0 0h47v24H0V0Z"></path> </mask> <g mask="url(#b)"> <path fill="url(#c)" d="M.678 12.004c0 6.616 10.214 12 22.814 12s22.814-5.373 22.814-12-10.214-12-22.814-12S.678 5.377.678 12.004Z"></path> <path fill="#777BB3" d="M23.499 23.114c12.107 0 21.922-4.973 21.922-11.11S35.611.894 23.499.894 1.577 5.867 1.577 12.004s9.81 11.11 21.922 11.11Z"></path> <path fill="#000001" d="M13.073 13.382a3.65 3.65 0 0 0 2.208-.545 2.952 2.952 0 0 0 .956-1.843 1.985 1.985 0 0 0-.178-1.68 2.494 2.494 0 0 0-1.807-.47h-1.6l-.883 4.539h1.294l.01-.001Zm-5.2 5.589a.247.247 0 0 1-.244-.291L9.967 6.653a.249.249 0 0 1 .244-.2h5.037a4.433 4.433 0 0 1 3.5 1.278 3.992 3.992 0 0 1 .684 3.54 5.653 5.653 0 0 1-.607 1.685 5.64 5.64 0 0 1-1.116 1.4 4.892 4.892 0 0 1-1.825 1.1 8.313 8.313 0 0 1-2.509.324h-2.04l-.582 3a.246.246 0 0 1-.242.2l-2.638-.01v.001Z"></path> <path fill="#fff" d="M12.865 9.088h1.387c1.106 0 1.492.244 1.622.388a1.825 1.825 0 0 1 .119 1.467 2.723 2.723 0 0 1-.862 1.7 3.42 3.42 0 0 1-2.053.5h-.992l.779-4.055ZM15.244 6.2h-5.037a.5.5 0 0 0-.486.4L7.383 18.627a.5.5 0 0 0 .1.408.498.498 0 0 0 .381.18h2.619a.5.5 0 0 0 .486-.4l.543-2.8h1.825a8.553 8.553 0 0 0 2.6-.335 5.134 5.134 0 0 0 1.928-1.154 5.886 5.886 0 0 0 1.161-1.458 5.898 5.898 0 0 0 .632-1.757 4.224 4.224 0 0 0-.739-3.75 4.665 4.665 0 0 0-3.689-1.373m-3.764 7.426h1.6a3.848 3.848 0 0 0 2.366-.591 3.17 3.17 0 0 0 1.047-1.994 2.182 2.182 0 0 0-.228-1.891 2.68 2.68 0 0 0-1.989-.552h-1.8l-.996 5.028Zm3.764-6.931a4.184 4.184 0 0 1 3.322 1.2 3.744 3.744 0 0 1 .627 3.33 5.382 5.382 0 0 1-.579 1.612c-.282.499-.641.95-1.065 1.335a4.627 4.627 0 0 1-1.743 1.047 8.032 8.032 0 0 1-2.443.313h-2.245l-.621 3.194H7.864l2.338-12.026 5.028-.005Z"></path> <path fill="#000001" d="M25.435 15.772a.246.246 0 0 1-.242-.185.246.246 0 0 1-.002-.109l1.033-5.32c.1-.506.073-.87-.068-1.022-.087-.094-.349-.25-1.122-.25h-1.873l-1.3 6.688a.246.246 0 0 1-.244.2h-2.6a.246.246 0 0 1-.242-.185.246.246 0 0 1-.002-.109l2.338-12.027a.249.249 0 0 1 .244-.2h2.6a.249.249 0 0 1 .244.294l-.563 2.9h2.014a4.679 4.679 0 0 1 3.194.828 2.756 2.756 0 0 1 .573 2.7l-1.088 5.6a.246.246 0 0 1-.244.2h-2.64l-.01-.003Z"></path> <path fill="#fff" d="M23.956 3.006h-2.6a.5.5 0 0 0-.486.4l-2.338 12.027a.5.5 0 0 0 .1.408.5.5 0 0 0 .381.18h2.6a.5.5 0 0 0 .486-.4l1.262-6.488h1.67c.773 0 .935.164.942.17.048.05.11.284 0 .81l-1.033 5.32a.499.499 0 0 0 .1.407.5.5 0 0 0 .381.18h2.639a.5.5 0 0 0 .486-.4l1.088-5.6a2.982 2.982 0 0 0-.648-2.93 4.893 4.893 0 0 0-3.349-.891h-1.716l.506-2.608a.5.5 0 0 0-.1-.408.5.5 0 0 0-.381-.18m0 .5-.621 3.194h2.316a4.508 4.508 0 0 1 3.016.762 2.523 2.523 0 0 1 .5 2.47l-1.088 5.6h-2.64l1.033-5.32a1.446 1.446 0 0 0-.13-1.238 1.825 1.825 0 0 0-1.3-.33h-2.076l-1.339 6.89h-2.6l2.338-12.028h2.591Z"></path> <path fill="#000001" d="M33.522 13.382a3.65 3.65 0 0 0 2.208-.545 2.952 2.952 0 0 0 .956-1.843 1.987 1.987 0 0 0-.178-1.68 2.494 2.494 0 0 0-1.807-.47h-1.6l-.883 4.539h1.294l.01-.001Zm-5.2 5.589a.247.247 0 0 1-.244-.291l2.338-12.027a.25.25 0 0 1 .244-.2h5.037a4.433 4.433 0 0 1 3.5 1.278 3.992 3.992 0 0 1 .684 3.54 5.665 5.665 0 0 1-.607 1.685 5.643 5.643 0 0 1-1.116 1.4 4.892 4.892 0 0 1-1.825 1.1 8.314 8.314 0 0 1-2.51.324h-2.04l-.582 3a.248.248 0 0 1-.244.2l-2.635-.01v.001Z"></path> <path fill="#fff" d="M33.313 9.093H34.7c1.106 0 1.492.244 1.622.388a1.825 1.825 0 0 1 .119 1.467 2.721 2.721 0 0 1-.862 1.7 3.423 3.423 0 0 1-2.053.5h-.992l.779-4.055Zm2.379-2.888h-5.037a.5.5 0 0 0-.486.4l-2.338 12.027a.5.5 0 0 0 .1.408.5.5 0 0 0 .381.18h2.619a.5.5 0 0 0 .486-.4l.543-2.8h1.825a8.56 8.56 0 0 0 2.6-.335 5.139 5.139 0 0 0 1.928-1.154 5.884 5.884 0 0 0 1.161-1.458 5.9 5.9 0 0 0 .632-1.757 4.226 4.226 0 0 0-.73-3.76 4.665 4.665 0 0 0-3.688-1.373m-3.764 7.426h1.6a3.85 3.85 0 0 0 2.359-.582 3.17 3.17 0 0 0 1.047-1.994 2.183 2.183 0 0 0-.228-1.891 2.68 2.68 0 0 0-1.989-.552h-1.8l-.989 5.019Zm3.765-6.93a4.184 4.184 0 0 1 3.317 1.193 3.744 3.744 0 0 1 .627 3.33 5.388 5.388 0 0 1-.579 1.612 5.37 5.37 0 0 1-1.066 1.342 4.628 4.628 0 0 1-1.743 1.047 8.032 8.032 0 0 1-2.443.313h-2.245l-.621 3.194h-2.619l2.338-12.027 5.034-.004Z"></path> </g> </g> <defs> <radialGradient id="c" cx="0" cy="0" r="1" gradientTransform="matrix(37.4405 0 0 37.44 5.26 6.807)" gradientUnits="userSpaceOnUse"> <stop stop-color="#AEB2D5"></stop> <stop offset=".3" stop-color="#AEB2D5"></stop> <stop offset=".75" stop-color="#484C89"></stop> <stop offset="1" stop-color="#484C89"></stop> </radialGradient> <clipPath id="a"> <path fill="#fff" d="M0 0h47v24H0z"></path> </clipPath> </defs> </symbol> <symbol xmlns="http://www.w3.org/2000/svg" fill="currentColor" viewBox="0 0 25 24" id="python"> <g clip-path="url(#a)"> <mask id="b" width="25" height="24" x="0" y="0" maskUnits="userSpaceOnUse"> <path fill="#fff" d="M0 0h25v24H0V0Z"></path> </mask> <g mask="url(#b)"> <path fill="url(#c)" d="M12.783.004a16.7 16.7 0 0 0-2.766.24c-2.449.42-2.9 1.32-2.9 2.97v2.18h5.788v.73H4.95a3.6 3.6 0 0 0-3.62 2.9 10.59 10.59 0 0 0 0 5.817c.411 1.7 1.394 2.9 3.076 2.9h1.995v-2.61a3.659 3.659 0 0 1 3.616-3.557H15.8a2.927 2.927 0 0 0 2.058-.86 2.864 2.864 0 0 0 .836-2.05v-5.45a3.214 3.214 0 0 0-2.9-2.97 18.246 18.246 0 0 0-3.011-.24ZM9.653 1.76a1.09 1.09 0 0 1 1.073.865 1.077 1.077 0 0 1-.646 1.21 1.1 1.1 0 0 1-1.327-.388 1.071 1.071 0 0 1 .125-1.363 1.11 1.11 0 0 1 .775-.324Z"></path> <path fill="url(#d)" d="M19.413 6.124v2.543a3.691 3.691 0 0 1-3.616 3.63h-5.782a2.936 2.936 0 0 0-2.894 2.91v5.45c0 1.552 1.363 2.465 2.894 2.91a9.784 9.784 0 0 0 5.782 0c1.456-.418 2.894-1.258 2.894-2.91v-2.183H12.91v-.727h8.676c1.683 0 2.3-1.16 2.894-2.9a9.723 9.723 0 0 0 0-5.817c-.416-1.656-1.213-2.9-2.894-2.9h-2.173v-.006Zm-3.251 13.805a1.09 1.09 0 0 1 1.07.868 1.077 1.077 0 0 1-.651 1.208 1.1 1.1 0 0 1-1.326-.395 1.07 1.07 0 0 1 .13-1.363 1.11 1.11 0 0 1 .776-.319v.001h.001Z"></path> </g> </g> <defs> <linearGradient id="c" x1="43.305" x2="66.814" y1="22.459" y2="2.409" gradientUnits="userSpaceOnUse"> <stop stop-color="#5A9FD4"></stop> <stop offset="1" stop-color="#306998"></stop> </linearGradient> <linearGradient id="d" x1="75.932" x2="67.481" y1="-9.682" y2="2.048" gradientUnits="userSpaceOnUse"> <stop stop-color="#FFD43B"></stop> <stop offset="1" stop-color="#FFE873"></stop> </linearGradient> <clipPath id="a"> <path fill="#fff" d="M0 0h25v24H0z"></path> </clipPath> </defs> </symbol> <symbol xmlns="http://www.w3.org/2000/svg" fill="currentColor" viewBox="0 0 27 24" id="react"> <g clip-path="url(#a)"> <mask id="b" width="27" height="24" x="0" y="0" maskUnits="userSpaceOnUse"> <path fill="#fff" d="M0 0h27v24H0V0Z"></path> </mask> <g mask="url(#b)"> <path fill="#61DAFB" d="M13.454 14.398a2.399 2.399 0 1 0 0-4.797 2.399 2.399 0 0 0 0 4.797Z"></path> <path fill="#61DAFB" fill-rule="evenodd" d="M11.007 7.762A32.819 32.819 0 0 0 8.56 12a32.857 32.857 0 0 0 2.447 4.238c1.63.122 3.265.122 4.894 0A32.812 32.812 0 0 0 18.348 12a32.75 32.75 0 0 0-2.447-4.238 32.82 32.82 0 0 0-4.894 0Zm-1.5.15a34.456 34.456 0 0 0-1.568 2.714c-.332-.79-.615-1.56-.847-2.3a25.884 25.884 0 0 1 2.414-.415h.001Zm2.38-1.375a34.46 34.46 0 0 1 3.134 0 25.862 25.862 0 0 0-1.567-1.883c-.524.57-1.05 1.2-1.567 1.883Zm.751-2.724c-.82.893-1.58 1.838-2.277 2.829a28.022 28.022 0 0 0-3.589.558 16.562 16.562 0 0 1-.3-1.436c-.19-1.19-.194-2.192-.031-2.955.163-.762.477-1.22.871-1.447.394-.228.948-.271 1.69-.031.742.24 1.607.745 2.542 1.505.36.292.725.618 1.094.977Zm1.632 0c.77.833 1.538 1.783 2.278 2.829 1.207.108 2.405.294 3.588.558.127-.5.226-.98.3-1.436.19-1.19.195-2.192.032-2.955-.164-.762-.477-1.22-.872-1.447-.394-.228-.947-.271-1.69-.031-.741.24-1.607.745-2.542 1.505-.36.292-.725.618-1.094.977Zm7 3.674c.13-.508.236-1.021.32-1.538.205-1.272.226-2.431.022-3.384-.204-.953-.65-1.766-1.43-2.217-.781-.45-1.708-.43-2.635-.13-.928.3-1.921.898-2.92 1.71-.388.315-.78.664-1.173 1.047a17.71 17.71 0 0 0-1.172-1.047c-1-.812-1.993-1.41-2.92-1.71-.928-.3-1.854-.32-2.635.13-.78.45-1.226 1.264-1.43 2.217-.204.953-.183 2.112.02 3.384.08.493.187 1.007.321 1.538a17.88 17.88 0 0 0-1.492.492c-1.204.46-2.218 1.02-2.942 1.674C.481 10.306 0 11.098 0 12c0 .902.48 1.694 1.204 2.347s1.738 1.215 2.942 1.674c.466.178.964.342 1.492.492-.13.507-.236 1.02-.32 1.538-.204 1.272-.225 2.43-.021 3.384.204.954.65 1.766 1.43 2.217.78.45 1.707.43 2.635.13.927-.3 1.92-.898 2.92-1.71.387-.315.779-.665 1.172-1.047.393.383.785.732 1.172 1.047 1 .813 1.993 1.41 2.92 1.71.928.3 1.855.32 2.635-.13.781-.451 1.227-1.264 1.43-2.217.204-.953.184-2.112-.02-3.384a17.56 17.56 0 0 0-.32-1.538c.527-.15 1.026-.314 1.492-.492 1.203-.46 2.217-1.02 2.941-1.674.724-.653 1.204-1.445 1.204-2.347 0-.902-.48-1.694-1.204-2.347S23.966 8.44 22.763 7.98c-.49-.186-.988-.351-1.493-.493Zm-1.454.84a25.878 25.878 0 0 0-2.414-.416c.563.88 1.086 1.787 1.567 2.715.333-.79.616-1.56.847-2.3ZM19.642 12c.51-1.1.947-2.231 1.31-3.387.495.14.961.294 1.393.459 1.126.43 1.996.927 2.575 1.45.579.522.818 1.023.818 1.478 0 .455-.239.956-.818 1.478-.579.523-1.45 1.02-2.575 1.45-.432.165-.897.318-1.392.459A28.012 28.012 0 0 0 19.642 12Zm-.673 1.374a34.408 34.408 0 0 1-1.567 2.715c.85-.107 1.659-.247 2.414-.416a25.839 25.839 0 0 0-.847-2.3Zm1.167 3.426c-1.107.25-2.313.44-3.588.558a28.017 28.017 0 0 1-2.278 2.83c.37.358.735.684 1.094.976.935.76 1.8 1.265 2.543 1.505.742.24 1.295.197 1.69-.03.394-.228.707-.686.87-1.448.164-.763.16-1.765-.031-2.955a16.529 16.529 0 0 0-.3-1.436Zm-6.682 2.546c.524-.57 1.05-1.2 1.567-1.883-1.044.047-2.09.047-3.134 0 .492.652 1.015 1.28 1.567 1.883ZM9.506 16.09a34.408 34.408 0 0 1-1.567-2.714c-.332.79-.615 1.56-.847 2.298.798.176 1.603.315 2.414.416Zm-2.734.71c1.107.25 2.313.44 3.589.559a28.022 28.022 0 0 0 2.277 2.83c-.369.358-.735.684-1.094.976-.934.76-1.8 1.265-2.542 1.505-.742.24-1.296.197-1.69-.03-.394-.228-.708-.686-.871-1.448-.163-.763-.159-1.765.032-2.955.073-.457.172-.937.299-1.436V16.8Zm-.816-1.412c-.495-.14-.96-.294-1.393-.46-1.125-.43-1.996-.926-2.575-1.45-.579-.521-.818-1.022-.818-1.477 0-.455.24-.956.818-1.478.58-.523 1.45-1.02 2.575-1.45.457-.174.922-.327 1.393-.46A28.028 28.028 0 0 0 7.267 12a28.03 28.03 0 0 0-1.311 3.388Z" clip-rule="evenodd"></path> </g> </g> <defs> <clipPath id="a"> <path fill="#fff" d="M0 0h27v24H0z"></path> </clipPath> </defs> </symbol> <symbol xmlns="http://www.w3.org/2000/svg" fill="currentColor" viewBox="0 0 26 24" id="redux"> <path fill="#764ABC" d="M17.517 16.761a1.801 1.801 0 0 0 1.609-1.866 1.807 1.807 0 0 0-1.802-1.737h-.064a1.8 1.8 0 0 0-1.737 1.866c.032.483.225.9.514 1.19-1.093 2.156-2.766 3.732-5.276 5.051-1.705.901-3.474 1.223-5.244.998-1.447-.193-2.573-.837-3.281-1.898-1.03-1.577-1.126-3.282-.258-4.987.612-1.223 1.577-2.123 2.188-2.574a17.348 17.348 0 0 1-.418-1.64C-.917 14.542-.434 19.11.98 21.265c1.062 1.609 3.217 2.606 5.598 2.606a7.9 7.9 0 0 0 1.93-.225c4.118-.804 7.239-3.25 9.008-6.885Z"></path> <path fill="#764ABC" d="M23.18 12.772c-2.445-2.863-6.049-4.44-10.167-4.44H12.5a1.769 1.769 0 0 0-1.577-.965h-.064A1.8 1.8 0 0 0 9.12 9.233a1.807 1.807 0 0 0 1.801 1.737h.064a1.812 1.812 0 0 0 1.577-1.093h.579c2.445 0 4.761.707 6.852 2.09 1.61 1.063 2.767 2.446 3.41 4.119.548 1.351.515 2.67-.064 3.796-.9 1.705-2.413 2.638-4.407 2.638-1.287 0-2.51-.386-3.153-.675a18.98 18.98 0 0 1-1.448 1.158c1.384.643 2.8.997 4.15.997 3.089 0 5.373-1.705 6.242-3.41.933-1.866.868-5.083-1.544-7.818Z"></path> <path fill="#764ABC" d="M6.836 17.308a1.807 1.807 0 0 0 1.802 1.738h.064a1.8 1.8 0 0 0 1.738-1.866 1.807 1.807 0 0 0-1.802-1.738h-.064c-.065 0-.161 0-.226.033-1.319-2.188-1.866-4.569-1.673-7.143.13-1.93.773-3.603 1.899-4.986.933-1.19 2.734-1.77 3.957-1.802 3.41-.064 4.858 4.183 4.954 5.888.418.096 1.126.321 1.609.482C18.708 2.702 15.49 0 12.402 0 9.507 0 6.836 2.091 5.775 5.18c-1.48 4.118-.515 8.075 1.287 11.195-.161.226-.258.58-.226.933Z"></path> </symbol> <symbol xmlns="http://www.w3.org/2000/svg" fill="currentColor" viewBox="0 0 24 24" id="regex"> <path fill="#549DD5" d="M0 0h24v24H0V0Z"></path> <path fill="#fff" d="M13.823 15.309v-4.517l-3.72 2.28-1.312-2.285 3.882-2.124-3.882-2.156 1.319-2.243 3.713 2.27V2h2.65v4.534l3.748-2.27 1.326 2.243-3.9 2.156 3.9 2.124-1.331 2.295-3.743-2.29v4.517h-2.65Zm-6.28 3.42c0-2.126-2.317-3.461-4.16-2.398-1.844 1.062-1.844 3.733 0 4.796 1.843 1.063 4.16-.273 4.16-2.398Z"></path> </symbol> <symbol xmlns="http://www.w3.org/2000/svg" fill="currentColor" viewBox="0 0 25 24" id="sass"> <g clip-path="url(#a)"> <mask id="b" width="25" height="24" x="0" y="0" maskUnits="userSpaceOnUse"> <path fill="#fff" d="M0 0h25v24H0V0Z"></path> </mask> <g mask="url(#b)"> <path fill="#C69" fill-rule="evenodd" d="M12.926.004a12 12 0 1 1 0 24 12 12 0 0 1 0-24Z" clip-rule="evenodd"></path> <path fill="#fff" d="M20.455 5.142c-.544-2.131-4.08-2.832-7.422-1.644a16.8 16.8 0 0 0-5.694 3.266c-1.842 1.723-2.136 3.223-2.015 3.85.427 2.212 3.457 3.656 4.7 4.729-.367.18-3.055 1.54-3.684 2.932-.664 1.468.106 2.52.616 2.662a3.776 3.776 0 0 0 4.067-1.65 4.136 4.136 0 0 0 .4-3.675 4.83 4.83 0 0 1 1.836-.106c2.1.24 2.52 1.56 2.44 2.11a1.389 1.389 0 0 1-.668.945c-.148.09-.193.12-.18.19.018.1.086.1.212.074a1.642 1.642 0 0 0 1.145-1.463c.05-1.29-1.184-2.731-3.372-2.694a5.774 5.774 0 0 0-1.876.259 2.174 2.174 0 0 0-.092-.1c-1.352-1.44-3.852-2.464-3.746-4.4.038-.706.283-2.562 4.8-4.814 3.7-1.846 6.667-1.337 7.18-.212.732 1.608-1.584 4.6-5.43 5.027a2.886 2.886 0 0 1-2.43-.616c-.2-.223-.231-.233-.306-.191-.12.068-.044.265 0 .382a2.28 2.28 0 0 0 1.387 1.1 7.365 7.365 0 0 0 4.507-.445c2.34-.914 4.159-3.421 3.625-5.516Zm-9.912 10.86a3.073 3.073 0 0 1-.02 1.796c-.149.433-.387.83-.7 1.163-.7.76-1.672 1.049-2.09.806-.45-.262-.225-1.334.584-2.19a8.124 8.124 0 0 1 2.12-1.51l.106-.065Z"></path> </g> </g> <defs> <clipPath id="a"> <path fill="#fff" d="M0 0h25v24H0z"></path> </clipPath> </defs> </symbol> <symbol xmlns="http://www.w3.org/2000/svg" fill="currentColor" viewBox="0 0 25 24" id="socketio"> <g clip-path="url(#a)"> <mask id="b" width="25" height="24" x="0" y="0" maskUnits="userSpaceOnUse"> <path fill="#fff" d="M0 0h25v24H0V0Z"></path> </mask> <g mask="url(#b)"> <path fill="#D5D5D5" d="M.926 12.004a12.014 12.014 0 0 1 12-12 12.014 12.014 0 0 1 12 12 12.015 12.015 0 0 1-12 12 12.014 12.014 0 0 1-12-12Zm1.936 0a10.076 10.076 0 0 0 10.064 10.06 10.076 10.076 0 0 0 10.06-10.06 10.076 10.076 0 0 0-10.06-10.06 10.076 10.076 0 0 0-10.06 10.06h-.004Zm9.362.594c1.22 0 2.437 0 3.653.017-2.662 2.149-5.237 4.4-7.945 6.493 1.414-2.174 2.874-4.334 4.294-6.514l-.002.004Zm-2.235-1.2c2.645-2.161 5.23-4.4 7.933-6.493-1.417 2.178-2.875 4.327-4.292 6.5h-1.34c-.77 0-1.536-.004-2.3-.011l-.001.004Z"></path> </g> </g> <defs> <clipPath id="a"> <path fill="#fff" d="M0 0h25v24H0z"></path> </clipPath> </defs> </symbol> <symbol xmlns="http://www.w3.org/2000/svg" fill="currentColor" viewBox="0 0 55 24" id="sqlite"> <g clip-path="url(#a)"> <mask id="b" width="55" height="24" x="0" y="0" maskUnits="userSpaceOnUse"> <path fill="#fff" d="M0 0h55v24H0V0Z"></path> </mask> <g mask="url(#b)"> <path fill="#003B57" d="M21.452 11.834a2.4 2.4 0 0 0-1.747.641 2.217 2.217 0 0 0-.671 1.673c-.002.331.053.66.164.971.114.308.291.588.521.821.425.388.89.728 1.388 1.015.621.34 1.19.768 1.687 1.27a1.609 1.609 0 0 1 .285 1.664c-.083.2-.207.381-.365.53a1.92 1.92 0 0 1-1.3.434 2.15 2.15 0 0 1-1.989-1.33 2.06 2.06 0 0 1-.146-.87h-.26v2.42h.27c.073-.224.194-.343.342-.343.17.024.335.069.494.134.495.195 1.02.306 1.552.329a2.391 2.391 0 0 0 1.791-.746 2.447 2.447 0 0 0 .746-1.791 2.3 2.3 0 0 0-.493-1.448 7.258 7.258 0 0 0-1.902-1.475 6.336 6.336 0 0 1-1.582-1.2 1.68 1.68 0 0 1-.373-1.03 1.183 1.183 0 0 1 .447-.97 1.807 1.807 0 0 1 1.164-.36 1.95 1.95 0 0 1 1.358.492c.374.357.598.843.628 1.358h.27v-2.09h-.255a.56.56 0 0 1-.09.21.199.199 0 0 1-.149.043 1.651 1.651 0 0 1-.463-.1 4.232 4.232 0 0 0-1.327-.252h.005Zm8.7 0a4.642 4.642 0 0 0-2.389.627 4.733 4.733 0 0 0-1.717 1.717 4.622 4.622 0 0 0-.628 2.33 4.484 4.484 0 0 0 1.09 2.97 4.6 4.6 0 0 0 2.628 1.613c.385.254.723.572 1 .94.374.456.794.871 1.254 1.24.336.24.707.426 1.1.553.411.123.839.183 1.269.179a3.36 3.36 0 0 0 1.477-.3l-.09-.254c-.259.09-.531.135-.806.134a2.125 2.125 0 0 1-1.164-.39 7.335 7.335 0 0 1-1.457-1.46 4.127 4.127 0 0 0-.568-.642 4.627 4.627 0 0 0 2.747-1.627 4.509 4.509 0 0 0 1.08-2.957 4.43 4.43 0 0 0-1.388-3.314 4.816 4.816 0 0 0-3.433-1.36l-.005.001Zm5.418 0 .014.283c.582 0 .911.178.985.521.038.227.052.457.044.686v6.3a1.42 1.42 0 0 1-.194.9 1.032 1.032 0 0 1-.656.24l-.014.283h5.823l.149-1.433h-.269a1.13 1.13 0 0 1-.522.82 3.189 3.189 0 0 1-1.478.24H38.9c-.642 0-1.015-.223-1.1-.7a1.84 1.84 0 0 1-.03-.299l.03-6.359a1.72 1.72 0 0 1 .18-.94.88.88 0 0 1 .671-.255l-.014-.283-3.067-.004Zm-5.33.343a2.942 2.942 0 0 1 2.42 1.18 5.055 5.055 0 0 1 .94 3.223 4.786 4.786 0 0 1-.94 3.105 3.058 3.058 0 0 1-2.508 1.164 2.94 2.94 0 0 1-2.433-1.21 5.784 5.784 0 0 1 .014-6.3 3.063 3.063 0 0 1 2.507-1.162Zm13.4 1.356a.4.4 0 0 0-.4.508.665.665 0 0 0 .224.36.59.59 0 0 0 .4.15.4.4 0 0 0 .391-.322.42.42 0 0 0-.004-.188.665.665 0 0 0-.224-.36.607.607 0 0 0-.387-.148Zm3.84.971a1.75 1.75 0 0 1-1.567 1.508l.014.27h.94l-.013 3.149c-.015.361.005.723.06 1.08a.773.773 0 0 0 .85.656 3.084 3.084 0 0 0 2.16-1.254l-.224-.194a2.28 2.28 0 0 1-1.447.84c-.254 0-.418-.15-.48-.448a1.186 1.186 0 0 1-.03-.254l.014-3.553h1.433l-.014-.418h-1.418v-1.365h-.283l.005-.017Zm5.538 1.18a2.256 2.256 0 0 0-1.956 1.164 3.312 3.312 0 0 0-.463 2.582c.081.495.328.948.7 1.284.38.306.857.465 1.344.448a2.7 2.7 0 0 0 1.493-.388c.36-.35.64-.773.821-1.24l-.194-.209a2.19 2.19 0 0 1-1.82 1.105 1.484 1.484 0 0 1-1.539-1.374 2.765 2.765 0 0 1-.06-.373 4.883 4.883 0 0 0 2.255-.84c.508-.4 1.015-.84.925-1.284a1.08 1.08 0 0 0-.4-.642 2.61 2.61 0 0 0-1.1-.234l-.006.001Zm-8.758.03-1.731.4v.32l.6-.075a.457.457 0 0 1 .508.388c.02.12.03.24.03.36l-.014 2.822c0 .388-.044.612-.134.686a1.32 1.32 0 0 1-.7.1l-.014.269h2.732v-.271a1.851 1.851 0 0 1-.732-.09.443.443 0 0 1-.21-.33c-.03-.198-.04-.399-.03-.599l.015-3.986-.32.006Zm8.314.522a.768.768 0 0 1 .493.194.685.685 0 0 1 .283.418c.15.746-.508 1.27-2 1.553a2.52 2.52 0 0 1 .3-1.493 1.061 1.061 0 0 1 .918-.672h.006Z"></path> <path fill="#0F80CC" d="M17.586 1.055H2.732A1.825 1.825 0 0 0 .926 2.876v16.378a1.813 1.813 0 0 0 1.806 1.8h9.778c-.104-4.862 1.568-14.31 5.076-19.999Z"></path> <path fill="#003B57" d="M21.05.518c-1.015-.91-2.255-.538-3.464.538-.18.164-.36.343-.538.522a21.546 21.546 0 0 0-4.614 9.42c.23.493.41 1.008.538 1.537.03.109.055.219.074.33.034.122.058.246.074.372a3.114 3.114 0 0 0-.09-.3c-.014-.044-.03-.09-.044-.149-.014-.014-.014-.044-.03-.074-.134-.313-.508-.985-.672-1.27-.134.418-.269.806-.373 1.164.352.756.608 1.554.762 2.373l-.149-.433c-.1-.3-.642-1.224-.762-1.448a3.582 3.582 0 0 0-.224 1.463c.188.369.329.76.418 1.164.283 1.09.48 2.4.48 2.4s0 .09.014.224c-.04.906-.02 1.814.06 2.717.04.895.206 1.78.493 2.628l.149-.09a11.705 11.705 0 0 1-.4-3.912 29.61 29.61 0 0 1 1.643-8.2c1.7-4.482 4.06-8.082 6.21-9.799-1.97 1.777-4.627 7.525-5.418 9.659a39.276 39.276 0 0 0-1.911 6.762 5.202 5.202 0 0 1 2.772-2.869s1.045-1.284 2.255-3.12c-.789.16-1.567.37-2.33.628-.6.254-.745.33-.745.33a20.425 20.425 0 0 1 3.575-1.7c2.28-3.583 4.747-8.639 2.254-10.869"></path> </g> </g> <defs> <clipPath id="a"> <path fill="#fff" d="M0 0h55v24H0z"></path> </clipPath> </defs> </symbol> <symbol xmlns="http://www.w3.org/2000/svg" fill="currentColor" viewBox="0 0 24 24" id="svgomg"> <path fill="#0097A7" d="M0 .079h24V24H0V.079Z"></path> <path fill="#00BCD4" d="M0 0h24v15.827H0V0Z"></path> <path d="m10.769 21.212 9.991-5.394h-9.991v5.394ZM8.574 3.673H20.76v12.145l-12.186.001V3.673Z" opacity=".22"></path> <path fill="#fff" d="M3.2 13.669h7.568v7.544H3.2v-7.544Z"></path> </symbol> <symbol xmlns="http://www.w3.org/2000/svg" fill="currentColor" viewBox="0 0 28 24" id="svgsprit"> <path fill="#F16262" d="M12.827 6.745 9.57 10a2.8 2.8 0 0 0 0 4l6.511 6.51a2.8 2.8 0 0 0 4 0l6.51-6.51a2.8 2.8 0 0 0 0-4l-6.51-6.51a2.826 2.826 0 0 0-4 0l-3.254 3.255Z"></path> <path fill="#2F446A" d="M11.999 0a1.483 1.483 0 0 1 1.052.436l10.513 10.513a1.487 1.487 0 0 1 0 2.1L13.05 23.566a1.487 1.487 0 0 1-2.1 0L.434 13.053a1.488 1.488 0 0 1 0-2.1L10.946.436A1.483 1.483 0 0 1 12 0Zm8.41 12.001-8.41-8.41-8.41 8.41 8.41 8.41 8.41-8.41Z"></path> </symbol> <symbol xmlns="http://www.w3.org/2000/svg" fill="currentColor" viewBox="0 0 28 24" id="terminal"> <g clip-path="url(#a)"> <mask id="b" width="28" height="24" x="0" y="0" maskUnits="userSpaceOnUse"> <path fill="#fff" d="M0 0h28v24H0V0Z"></path> </mask> <g mask="url(#b)"> <path fill="#736E6E" d="m1.234 4.893-.267.57v16.56a1.841 1.841 0 0 0 1.66 1.979h23.338a1.84 1.84 0 0 0 1.662-1.975V5.463l-.267-.573-26.126.003Z"></path> <path fill="#DDEAFB" d="M10.978 13.496a.433.433 0 0 1-.31-.123l-2.422-2.462a.3.3 0 0 1 0-.43l2.421-2.463a.457.457 0 0 1 .567-.045.3.3 0 0 1 .053.476l-2.209 2.244 2.21 2.244a.295.295 0 0 1 .056.36.41.41 0 0 1-.366.193v.006Zm6.652 0a.412.412 0 0 1-.365-.193.294.294 0 0 1 .057-.36L19.53 10.7l-2.21-2.244a.3.3 0 0 1 .054-.476.457.457 0 0 1 .567.045l2.42 2.462a.299.299 0 0 1 0 .431l-2.42 2.462a.436.436 0 0 1-.311.116Zm-4.717 0a.423.423 0 0 1-.34-.156.29.29 0 0 1-.024-.325l2.759-4.924a.438.438 0 0 1 .535-.162.318.318 0 0 1 .193.45l-2.759 4.923a.412.412 0 0 1-.364.194Z"></path> <path fill="#595454" d="M24.908 4.893v13.892a1.841 1.841 0 0 1-1.661 1.979H.967v1.26a1.84 1.84 0 0 0 1.66 1.98h23.338a1.84 1.84 0 0 0 1.662-1.977V5.463l-.267-.573-2.452.003Z"></path> <path fill="#698ED5" d="M25.965.004H2.628A1.84 1.84 0 0 0 .967 1.983v3.48h26.66v-3.48a1.84 1.84 0 0 0-1.662-1.98v.001Z"></path> <path fill="#4073C8" d="M25.965.004h-1.058v5.46h2.72V1.983a1.84 1.84 0 0 0-1.662-1.98v.001Z"></path> <path fill="#DD636E" d="M3.975 3.622c.412 0 .745-.398.745-.888s-.333-.888-.745-.888c-.411 0-.745.397-.745.888 0 .49.334.888.745.888Z"></path> <path fill="#FFE07D" d="M6.268 3.622c.412 0 .745-.398.745-.888s-.333-.888-.745-.888c-.411 0-.745.397-.745.888 0 .49.334.888.745.888Z"></path> <path fill="#86F1A7" d="M8.562 3.622c.412 0 .745-.398.745-.888s-.333-.888-.745-.888c-.411 0-.745.397-.745.888 0 .49.334.888.745.888Z"></path> <path fill="#FB74C4" d="M5.556 19.552H3.767a.484.484 0 0 1 0-.953h1.79a.484.484 0 0 1-.001.953Z"></path> <path fill="#DDEAFB" d="M10.22 19.552H7.353a.484.484 0 0 1 0-.953h2.867a.484.484 0 0 1 0 .953Z"></path> <path fill="#FFE07D" d="M19.148 19.552h-3.9a.485.485 0 0 1 0-.953h3.9a.484.484 0 0 1 0 .953Z"></path> <path fill="#FB74C4" d="M13.314 19.552h-1.177a.484.484 0 0 1 0-.953h1.177a.484.484 0 0 1 0 .953Z"></path> <path fill="#BED8FB" d="M7.992 21.874H6.203a.484.484 0 0 1 0-.953h1.79a.484.484 0 0 1-.001.953Z"></path> <path fill="#DDEAFB" d="M12.473 21.874H9.784a.484.484 0 0 1 0-.953h2.69a.484.484 0 0 1 0 .953h-.001Z"></path> <path fill="#FB74C4" d="M15.628 21.874h-1.224a.485.485 0 0 1 0-.953h1.224a.484.484 0 0 1 0 .953Zm8.972 0h-1.213a.485.485 0 0 1 0-.953H24.6a.484.484 0 0 1 0 .953Z"></path> <path fill="#FFE07D" d="M21.492 21.874h-3.945a.485.485 0 0 1 0-.953h3.945a.484.484 0 0 1 0 .953Z"></path> </g> </g> <defs> <clipPath id="a"> <path fill="#fff" d="M0 0h28v24H0z"></path> </clipPath> </defs> </symbol> <symbol xmlns="http://www.w3.org/2000/svg" fill="currentColor" viewBox="0 0 23 24" id="typedoc"> <g clip-path="url(#a)"> <mask id="b" width="23" height="24" x="0" y="0" maskUnits="userSpaceOnUse"> <path fill="#fff" d="M0 0h23v24H0V0Z"></path> </mask> <g mask="url(#b)"> <path fill="#B44CFE" d="M.633 18.004v-12l11.143-6v24l-11.143-6Z"></path> <path fill="#9601FE" d="m.633 6.004 11.143 6 11.143-6-11.143-6-11.143 6Z"></path> <path fill="#99CBFE" d="m.633 18.004 11.143-6v12l-11.143-6Z"></path> <path fill="#0C364F" d="m22.92 6.004-11.144 6v12l11.143-6 .001-12Z"></path> </g> </g> <defs> <clipPath id="a"> <path fill="#fff" d="M0 0h23v24H0z"></path> </clipPath> </defs> </symbol> <symbol xmlns="http://www.w3.org/2000/svg" fill="currentColor" viewBox="0 0 25 24" id="typescript"> <g clip-path="url(#a)"> <mask id="b" width="25" height="24" x="0" y="0" maskUnits="userSpaceOnUse"> <path fill="#fff" d="M0 0h25v24H0V0Z"></path> </mask> <g mask="url(#b)"> <path fill="#3178C6" d="M3.263.004h19.312a2.344 2.344 0 0 1 2.344 2.344V21.66a2.344 2.344 0 0 1-2.344 2.344H3.263A2.344 2.344 0 0 1 .92 21.66V2.348A2.344 2.344 0 0 1 3.263.004Z"></path> <path fill="#3178C6" d="M3.263.004h19.312a2.344 2.344 0 0 1 2.344 2.344V21.66a2.344 2.344 0 0 1-2.344 2.344H3.263A2.344 2.344 0 0 1 .92 21.66V2.348A2.344 2.344 0 0 1 3.263.004Z"></path> <path fill="#fff" fill-rule="evenodd" d="M15.775 19.102v2.347c.428.21.884.36 1.354.44.543.1 1.094.148 1.646.146 1.024.05 2.04-.19 2.934-.692a3.019 3.019 0 0 0 .5-4.418 9.265 9.265 0 0 0-2.825-1.6c-.487-.24-1.159-.61-1.159-1.236a.79.79 0 0 1 .12-.437 1.919 1.919 0 0 1 1.643-.628 4.8 4.8 0 0 1 1.92.41c.202.09.395.197.576.323v-2.2a5.719 5.719 0 0 0-1.17-.3 9.51 9.51 0 0 0-1.457-.1 6.755 6.755 0 0 0-1.585.18c-.47.106-.917.296-1.32.56-.373.247-.682.58-.9.972a2.85 2.85 0 0 0-.33 1.41 2.736 2.736 0 0 0 .6 1.79c.5.562 1.132.992 1.837 1.254a8.862 8.862 0 0 1 1.625.785 1.256 1.256 0 0 1 .656 1 .906.906 0 0 1-.444.758 2.5 2.5 0 0 1-1.339.3 4.457 4.457 0 0 1-2.883-1.068l.001.004Zm-3.944-5.782h3.011V11.4H6.45v1.92h3v8.574h2.384l-.003-8.574Z" clip-rule="evenodd"></path> </g> </g> <defs> <clipPath id="a"> <path fill="#fff" d="M0 0h25v24H0z"></path> </clipPath> </defs> </symbol> <symbol xmlns="http://www.w3.org/2000/svg" fill="currentColor" viewBox="0 0 25 24" id="vitejs"> <g clip-path="url(#a)"> <mask id="b" width="25" height="24" x="0" y="0" maskUnits="userSpaceOnUse"> <path fill="#fff" d="M0 0h25v24H0V0Z"></path> </mask> <g mask="url(#b)"> <path fill="#41D1FF" d="M24.841 3.557 13.566 23.693a.613.613 0 0 1-1.067 0L1 3.559a.612.612 0 0 1 .64-.906l11.287 2.015a.612.612 0 0 0 .218 0l11.051-2.011a.612.612 0 0 1 .645.9Z"></path> <path fill="#FFEA83" d="M18.303.01 9.96 1.643a.306.306 0 0 0-.247.282L9.2 10.583a.306.306 0 0 0 .375.316l2.323-.535a.305.305 0 0 1 .369.359l-.69 3.375a.309.309 0 0 0 .389.354l1.435-.435a.305.305 0 0 1 .39.355l-1.101 5.3a.306.306 0 0 0 .557.228l.123-.19 6.8-13.55a.306.306 0 0 0-.331-.438l-2.392.461a.306.306 0 0 1-.352-.385l1.562-5.4a.306.306 0 0 0-.354-.388Z"></path> </g> </g> <defs> <clipPath id="a"> <path fill="#fff" d="M0 0h25v24H0z"></path> </clipPath> </defs> </symbol> <symbol xmlns="http://www.w3.org/2000/svg" fill="currentColor" viewBox="0 0 25 24" id="xampp"> <g clip-path="url(#a)"> <mask id="b" width="25" height="24" x="0" y="0" maskUnits="userSpaceOnUse"> <path fill="#fff" d="M0 0h25v24H0V0Z"></path> </mask> <g mask="url(#b)"> <path fill="#FB7A24" d="M12.912.005h9.344c.39-.008.778.041 1.153.147a1.977 1.977 0 0 1 1.409 1.621c.062.317.091.639.087.961.009 2.165.013 4.33.013 6.495 0 3.942-.002 7.885-.007 11.827a3.286 3.286 0 0 1-.3 1.613 2.31 2.31 0 0 1-1.355 1.193 1.23 1.23 0 0 1-.35.075c-.27 0-.534.067-.8.067-6.1 0-12.2-.003-18.3-.007a3.724 3.724 0 0 1-1.471-.237 1.222 1.222 0 0 1-.271-.136 2.547 2.547 0 0 1-1.1-1.786 7.278 7.278 0 0 1-.044-.827V2.604a3.42 3.42 0 0 1 .119-1.054 2.06 2.06 0 0 1 1.89-1.5 6.41 6.41 0 0 1 .667-.045h9.316Zm.1 15.264c.047.335.123.664.226.985a4.4 4.4 0 0 0 5.28 2.794 4.346 4.346 0 0 0 3.287-4.055 4.25 4.25 0 0 0-.69-2.517.339.339 0 0 1-.026-.377 7.479 7.479 0 0 0 .63-2.025 6.03 6.03 0 0 0 0-2.115 4.474 4.474 0 0 0-4.35-3.446 4.405 4.405 0 0 0-4.241 3.356c-.042.2-.074.4-.12.636-.03-.133-.054-.221-.068-.311a4.422 4.422 0 0 0-8.3-1.152c-.24.479-.383 1-.42 1.535a4.25 4.25 0 0 0 .707 2.784.238.238 0 0 1 .013.277 6.289 6.289 0 0 0-.687 2.26 5.71 5.71 0 0 0 .115 2.22 4.352 4.352 0 0 0 4.677 3.085 4.336 4.336 0 0 0 3.7-2.8c.135-.365.224-.746.266-1.133l.001-.001Z"></path> <path fill="#fff" d="M13.01 15.27c-.041.387-.13.768-.265 1.133a4.443 4.443 0 0 1-8.374-.285 5.7 5.7 0 0 1-.115-2.22c.084-.79.318-1.556.688-2.26a.238.238 0 0 0-.014-.276 4.25 4.25 0 0 1-.707-2.784c.037-.535.18-1.056.42-1.535a4.422 4.422 0 0 1 8.3 1.152c.014.09.039.178.069.311.045-.241.077-.439.119-.636a4.405 4.405 0 0 1 4.24-3.356 4.474 4.474 0 0 1 4.35 3.446 6.03 6.03 0 0 1 0 2.115 7.488 7.488 0 0 1-.626 2.026.338.338 0 0 0 .026.377 4.25 4.25 0 0 1 .69 2.517 4.345 4.345 0 0 1-3.287 4.055 4.4 4.4 0 0 1-5.282-2.794 5.953 5.953 0 0 1-.232-.986Zm4.742-3.338a.736.736 0 0 1 .172-.252 4.2 4.2 0 0 0 .922-2.907 1.46 1.46 0 0 0-2.912.107v.193a1.284 1.284 0 0 1-1.232 1.352c-.13.009-.26.02-.39.02h-2.76c-.4-.006-.799.048-1.183.16a4.322 4.322 0 0 0-3.174 3.557 2.174 2.174 0 0 0-.012 1.095 1.464 1.464 0 0 0 2.53.581c.237-.286.364-.646.36-1.018a1.358 1.358 0 0 1 1.485-1.46c1.376.012 2.75 0 4.127 0 .244 0 .246 0 .248.244 0 .442-.011.884.006 1.326a1.45 1.45 0 0 0 1.41 1.34 1.432 1.432 0 0 0 1.5-1.27c.042-.633.042-1.268 0-1.9a1.18 1.18 0 0 0-.756-1.044c-.113-.05-.227-.086-.341-.124Zm-8.623-1.487h.78c.12 0 .163-.05.162-.165 0-.46.02-.921-.01-1.379a1.377 1.377 0 0 0-.93-1.262 1.472 1.472 0 0 0-1.922 1.854 1.187 1.187 0 0 0 1.03.916c.296.031.593.042.89.03v.006Z"></path> <path fill="#FB7A24" d="M17.75 11.927c.114.043.229.079.337.128a1.182 1.182 0 0 1 .755 1.044c.042.633.042 1.267 0 1.9a1.433 1.433 0 0 1-1.5 1.27 1.45 1.45 0 0 1-1.41-1.34c-.016-.441 0-.884-.005-1.326 0-.24 0-.242-.248-.243-1.376 0-2.751.008-4.127 0a1.357 1.357 0 0 0-1.485 1.46 1.57 1.57 0 0 1-.36 1.018 1.464 1.464 0 0 1-2.53-.582 2.18 2.18 0 0 1 .012-1.094 4.32 4.32 0 0 1 3.173-3.561 4.025 4.025 0 0 1 1.183-.16h2.76c.13 0 .26-.012.39-.021a1.284 1.284 0 0 0 1.232-1.352v-.193a1.46 1.46 0 0 1 2.912-.107 4.2 4.2 0 0 1-.921 2.907.729.729 0 0 0-.168.252ZM9.13 10.44a6.167 6.167 0 0 1-.89-.035 1.185 1.185 0 0 1-1.03-.916 1.472 1.472 0 0 1 1.92-1.854 1.377 1.377 0 0 1 .931 1.262c.03.458.006.919.01 1.379 0 .116-.044.167-.163.165-.242-.004-.483-.001-.779-.001h.001Z"></path> </g> </g> <defs> <clipPath id="a"> <path fill="#fff" d="M0 0h25v24H0z"></path> </clipPath> </defs> </symbol> <symbol xmlns="http://www.w3.org/2000/svg" fill="currentColor" viewBox="0 0 53 24" id="alpinejs"> <g clip-path="url(#a)"> <mask id="b" width="53" height="24" x="0" y="0" maskUnits="userSpaceOnUse"> <path fill="#fff" d="M0 0h53v24H0V0Z"></path> </mask> <g mask="url(#b)"> <path fill="#77C1D2" fill-rule="evenodd" d="m40.697 0 11.624 11.58-11.624 11.576L29.069 11.58 40.697 0Z" clip-rule="evenodd"></path> <path fill="#2D3441" fill-rule="evenodd" d="m11.632 0 24.1 24H12.478L0 11.58 11.632 0Z" clip-rule="evenodd"></path> </g> </g> <defs> <clipPath id="a"> <path fill="#fff" d="M0 0h53v24H0z"></path> </clipPath> </defs> </symbol> <symbol xmlns="http://www.w3.org/2000/svg" fill="currentColor" viewBox="0 0 23 24" id="angular"> <g clip-path="url(#a)"> <mask id="b" width="23" height="24" x="0" y="0" maskUnits="userSpaceOnUse"> <path fill="#fff" d="M0 0h23v24H0V0Z"></path> </mask> <g mask="url(#b)"> <path fill="#B3B3B3" d="M11.613 0 .321 3.974l1.784 14.794L11.624 24l9.569-5.3 1.779-14.796L11.613 0Z"></path> <path fill="#A6120D" d="m21.85 4.758-10.264-3.5V22.75l8.6-4.76 1.662-13.232h.002Z"></path> <path fill="#DD1B16" d="m1.588 4.822 1.527 13.231 8.469 4.7v-21.5l-10 3.564.004.005Z"></path> <path fill="#F2F2F2" d="m14.412 12.7-2.826 1.32H8.609l-1.4 3.5-2.6.049 6.977-15.53 2.826 10.66Zm-.273-.665-2.534-5.016-2.078 4.929h2.059l2.552.086h.001Z"></path> <path fill="#B3B3B3" d="m11.586 2.039.019 4.98 2.358 4.933h-2.371v2.066h3.279l1.533 3.55 2.49.046-7.308-15.575Z"></path> </g> </g> <defs> <clipPath id="a"> <path fill="#fff" d="M0 0h23v24H0z"></path> </clipPath> </defs> </symbol> <symbol xmlns="http://www.w3.org/2000/svg" fill="currentColor" viewBox="0 0 42 24" id="aws"> <g clip-path="url(#a)"> <path fill="#252F3E" d="M12.282 8.716c-.01.4.04.8.149 1.184.118.33.26.652.427.961a.58.58 0 0 1 .093.307.528.528 0 0 1-.254.4l-.841.561a.64.64 0 0 1-.347.12.613.613 0 0 1-.4-.187 4.121 4.121 0 0 1-.481-.627c-.149-.257-.287-.52-.414-.788A4.929 4.929 0 0 1 6.29 12.49a3.655 3.655 0 0 1-2.67-.96 3.427 3.427 0 0 1-.99-2.56 3.436 3.436 0 0 1 1.215-2.75 4.856 4.856 0 0 1 3.27-1.04c.473.003.946.04 1.415.106.494.067 1 .174 1.535.294V4.6a2.958 2.958 0 0 0-.627-2.135 3.073 3.073 0 0 0-2.176-.614c-.486 0-.97.058-1.441.174-.491.116-.973.268-1.443.454a3.832 3.832 0 0 1-.467.173.82.82 0 0 1-.214.04c-.187 0-.28-.133-.28-.413v-.65a.845.845 0 0 1 .093-.467 1 1 0 0 1 .374-.28 7.685 7.685 0 0 1 1.682-.6c.68-.175 1.38-.26 2.082-.254a4.878 4.878 0 0 1 3.5 1.08 4.418 4.418 0 0 1 1.108 3.284v4.324h.026Zm-5.42 2.03a4.322 4.322 0 0 0 1.376-.24c.49-.17.927-.464 1.268-.855.215-.246.37-.538.454-.854.091-.38.136-.77.133-1.16v-.562a11.142 11.142 0 0 0-1.228-.227 9.929 9.929 0 0 0-1.255-.08 3.077 3.077 0 0 0-1.99.532 1.86 1.86 0 0 0-.653 1.535 1.722 1.722 0 0 0 1.9 1.91h-.004l-.001.001Zm10.719 1.441a.745.745 0 0 1-.508-.133 1.088 1.088 0 0 1-.28-.52L13.658 1.215a2.344 2.344 0 0 1-.12-.534.292.292 0 0 1 .32-.334h1.308a.74.74 0 0 1 .52.133c.135.146.228.326.268.52l2.242 8.836L20.277 1a.936.936 0 0 1 .254-.52.918.918 0 0 1 .534-.132h1.066a.8.8 0 0 1 .534.133.9.9 0 0 1 .254.52l2.112 8.942L27.338 1c.043-.194.134-.374.267-.521a.87.87 0 0 1 .521-.133h1.241A.3.3 0 0 1 29.7.68a1.905 1.905 0 0 1-.12.548l-3.217 10.317c-.04.198-.137.379-.28.521a.853.853 0 0 1-.507.133H24.43a.8.8 0 0 1-.534-.133.945.945 0 0 1-.254-.534l-2.069-8.61-2.056 8.6c-.03.199-.12.385-.254.534a.826.826 0 0 1-.534.133l-1.148-.003v.001Zm17.15.36c-.692 0-1.382-.08-2.055-.24a6.066 6.066 0 0 1-1.535-.534.961.961 0 0 1-.41-.373.94.94 0 0 1-.08-.374v-.68c0-.28.106-.415.306-.415a.75.75 0 0 1 .24.04c.08.027.2.08.334.133.471.208.964.364 1.468.467.523.106 1.055.16 1.588.16.676.04 1.35-.113 1.943-.44a1.437 1.437 0 0 0 .694-1.268 1.3 1.3 0 0 0-.36-.934 3.35 3.35 0 0 0-1.348-.694l-1.935-.6a4.071 4.071 0 0 1-2.136-1.362 3.18 3.18 0 0 1-.664-1.933 2.97 2.97 0 0 1 .36-1.481 3.43 3.43 0 0 1 .961-1.1A4.24 4.24 0 0 1 33.49.225 5.818 5.818 0 0 1 35.173 0a6.7 6.7 0 0 1 .894.053c.307.04.587.093.868.147.258.053.512.124.76.214.196.06.384.14.562.24.157.079.294.193.4.334.087.13.129.284.12.44v.627c0 .28-.107.426-.307.426a1.388 1.388 0 0 1-.507-.16A6.106 6.106 0 0 0 35.4 1.8a3.445 3.445 0 0 0-1.775.374 1.29 1.29 0 0 0-.627 1.187 1.26 1.26 0 0 0 .4.948 3.98 3.98 0 0 0 1.468.734l1.9.6a4.06 4.06 0 0 1 2.064 1.284 3.02 3.02 0 0 1 .614 1.872 3.432 3.432 0 0 1-.347 1.548 3.59 3.59 0 0 1-.974 1.175 4.3 4.3 0 0 1-1.482.747 6.32 6.32 0 0 1-1.911.277h.002l-.001.001Z"></path> <path fill="#F90" fill-rule="evenodd" d="M37.256 19.034C32.864 22.278 26.484 24 20.998 24A29.412 29.412 0 0 1 1.15 16.432c-.414-.374-.04-.88.454-.587a39.42 39.42 0 0 0 35.01 2.176c.735-.335 1.362.479.642 1.013Z" clip-rule="evenodd"></path> <path fill="#F90" fill-rule="evenodd" d="M39.084 16.952c-.561-.72-3.711-.347-5.139-.174-.427.053-.494-.32-.107-.6 2.509-1.762 6.634-1.255 7.115-.667.48.588-.133 4.725-2.483 6.7-.36.307-.707.147-.547-.254.534-1.321 1.721-4.297 1.161-5.005Z" clip-rule="evenodd"></path> </g> <defs> <clipPath id="a"> <path fill="#fff" d="M0 0h42v24H0z"></path> </clipPath> </defs> </symbol> <symbol xmlns="http://www.w3.org/2000/svg" fill="currentColor" viewBox="0 0 20 24" id="clickup-solid"> <path fill="#706DFC" d="m0 18.431 3.69-2.827c1.96 2.558 4.04 3.738 6.36 3.738 2.319 0 4.33-1.166 6.197-3.698l3.742 2.758c-2.7 3.66-6.057 5.598-9.943 5.598C6.159 24 2.783 22.073 0 18.431Z"></path> <path fill="#FF5887" d="m10.037 6.146-6.571 5.66L.43 8.286 10.046 0l9.54 8.292-3.049 3.508-6.5-5.654Z"></path> </symbol> <symbol xmlns="http://www.w3.org/2000/svg" fill="currentColor" viewBox="0 0 24 24" id="chatgpt"> <path fill="#74AA9C" d="M0 5.762A5.763 5.763 0 0 1 5.761 0h12.473A5.763 5.763 0 0 1 24 5.762V24H5.764A5.763 5.763 0 0 1 0 18.235V5.762Z"></path> <path fill="#fff" d="M11.045 2.98A4.57 4.57 0 0 0 6.7 6.126a4.554 4.554 0 0 0-2.448 7.508 4.47 4.47 0 0 0 .385 3.684 4.567 4.567 0 0 0 4.908 2.187 4.51 4.51 0 0 0 3.39 1.515 4.571 4.571 0 0 0 4.346-3.146 4.56 4.56 0 0 0 2.448-7.508v-.006a4.486 4.486 0 0 0-.385-3.69 4.568 4.568 0 0 0-4.9-2.181 4.53 4.53 0 0 0-3.399-1.509Zm0 1.173-.006.006a3.39 3.39 0 0 1 2.172.782c-.025.012-.074.043-.11.061l-3.6 2.072a.584.584 0 0 0-.293.513v4.863l-1.548-.892v-4.02a3.386 3.386 0 0 1 3.385-3.39v.005Zm4.335 1.416a3.384 3.384 0 0 1 3.345 3.955c-.025-.018-.073-.043-.1-.061l-3.6-2.078a.6.6 0 0 0-.593 0l-4.217 2.432V8.033l3.481-2.01a3.375 3.375 0 0 1 1.683-.459l.001.005Zm-8.9 1.846v4.27a.591.591 0 0 0 .294.513l4.21 2.425-1.554.9-3.476-2a3.382 3.382 0 0 1 .527-6.1l-.001-.008Zm8.066 1.058 3.482 2a3.374 3.374 0 0 1 1.236 4.618l.006.006a3.379 3.379 0 0 1-1.764 1.483v-4.271a.584.584 0 0 0-.294-.513l-4.216-2.432 1.55-.891Zm-2.558 1.472 1.775 1.026v2.047l-1.775 1.026-1.775-1.026v-2.047l1.775-1.026Zm2.79 1.613 1.548.892v4.014a3.385 3.385 0 0 1-3.384 3.385v-.006a3.38 3.38 0 0 1-2.166-.782c.025-.012.08-.043.11-.061l3.6-2.071a.572.572 0 0 0 .294-.513l-.002-4.858Zm-1.01 2.628v1.784l-3.482 2a3.4 3.4 0 0 1-4.626-1.234h.006a3.35 3.35 0 0 1-.4-2.26c.025.018.074.043.1.061l3.6 2.078a.6.6 0 0 0 .593 0l4.209-2.429Z"></path> </symbol> <symbol xmlns="http://www.w3.org/2000/svg" fill="currentColor" viewBox="0 0 22 24" id="code-wars"> <path fill="#F05656" fill-rule="evenodd" d="M17.374 15.899a.7.7 0 0 1-.533.183.707.707 0 0 1-.167.716.67.67 0 0 1-.716.15.576.576 0 0 1-.333.466.6.6 0 0 1-.6-.083.5.5 0 0 1-.483.283.549.549 0 0 1-.1.317.982.982 0 0 1-1.265.516.825.825 0 0 1-1.4.616.73.73 0 0 1-1.316.067.668.668 0 0 1-.7.25.7.7 0 0 1-.516-.533.565.565 0 0 1-.583-.067.578.578 0 0 1-.217-.55l-.217-.017a.47.47 0 0 1-.316-.55.827.827 0 0 1-.55.233.963.963 0 0 1-1.066-.85.824.824 0 0 1-1.2-.915.719.719 0 0 1-.8-.65.8.8 0 0 1 .118-.482.689.689 0 0 1-.583-.766.645.645 0 0 1 .25-.433.579.579 0 0 1-.09-.83.561.561 0 0 1 .256-.17.482.482 0 0 1 .033-.633h.02A.913.913 0 0 1 4 11.9a1 1 0 0 1 .182-1.365.8.8 0 0 1-.4-.8.823.823 0 0 1 .583-.7.739.739 0 0 1-.05-.783.709.709 0 0 1 .7-.367.669.669 0 0 1 .866-.866.575.575 0 0 1 .933-.382.485.485 0 0 1 .483-.3l.017.05a.98.98 0 0 1 1.332-.9l.052-.285a.818.818 0 0 1 .99-.525c.133.034.256.1.36.192a.727.727 0 0 1 .65-.467.712.712 0 0 1 .683.4.668.668 0 0 1 .7-.25.7.7 0 0 1 .516.533.569.569 0 0 1 .583.083.546.546 0 0 1 .2.55.47.47 0 0 1 .55.367.342.342 0 0 1 0 .183.933.933 0 0 1 .55-.25.971.971 0 0 1 1.05.865.822.822 0 0 1 1.215.916.719.719 0 0 1 .8.65.8.8 0 0 1-.117.483.68.68 0 0 1 .55.5.66.66 0 0 1-.233.7c.115.086.198.21.233.35a.637.637 0 0 1-.383.666.482.482 0 0 1-.033.633.982.982 0 0 1 .483.782 1 1 0 0 1-.383.833.747.747 0 0 1 .217.183.851.851 0 0 1 .167.766.827.827 0 0 1-.55.55.758.758 0 0 1-.122 1v.005Zm2.482-11.362-6.93-4a3.988 3.988 0 0 0-3.999 0L2 4.538A4.008 4.008 0 0 0 0 8v8a4.008 4.008 0 0 0 2 3.464l6.93 4a3.987 3.987 0 0 0 3.999 0l6.93-4A4.008 4.008 0 0 0 21.857 16V7.985a4 4 0 0 0-2-3.448h-.002ZM5.6 10.767a.984.984 0 0 1 .133.933.82.82 0 0 1 .75.75.755.755 0 0 1 .866.45.673.673 0 0 1 .95.15l.032.032.082-.083a.55.55 0 0 1 .683-.033.626.626 0 0 1 .15-.25.478.478 0 0 1 .6-.033.3.3 0 0 1 .25-.217 1.011 1.011 0 0 1-.133-.432v.016a.302.302 0 0 1-.323-.082.3.3 0 0 1-.06-.1c0-.018 0-.018-.017-.034a.5.5 0 0 1-.483.018.52.52 0 0 1-.267-.4.556.556 0 0 1-.716-.683.677.677 0 0 1-.707-.686.663.663 0 0 1 .109-.347.74.74 0 0 1-.533-.566.71.71 0 0 1 .25-.733.82.82 0 0 1-.1-1.1.109.109 0 0 1-.045-.01.06.06 0 0 0-.022-.006.543.543 0 0 1-.283.35.6.6 0 0 1-.45.05.7.7 0 0 1-.666.65.725.725 0 0 1-.417 1.033.818.818 0 0 1-.05 1.1.54.54 0 0 1 .417.263Zm4.914 4.014a.665.665 0 0 0-.6.75.776.776 0 0 0-.85.5.814.814 0 0 0-1.016.283l-.018-.015a.974.974 0 0 0-1.365-.133.833.833 0 0 0-.933-.6.747.747 0 0 0-.683-.866.67.67 0 0 0-.217-.9.57.57 0 0 0 .168-.535.587.587 0 0 0-.167-.317.236.236 0 0 0 .1-.033.834.834 0 0 0 .983.4.75.75 0 0 0 .483.6.732.732 0 0 0 .75-.133.681.681 0 0 0 .483.367.721.721 0 0 0 .582-.167.407.407 0 0 0 .15-.183.528.528 0 0 0 .55.167.563.563 0 0 0 .4-.417.52.52 0 0 0 .516 0 .509.509 0 0 0 .25-.45.268.268 0 0 0 .267-.067.356.356 0 0 0 .117-.2 1 1 0 0 0 .483.133.3.3 0 0 0-.033.167.267.267 0 0 0 .085.167.5.5 0 0 0-.267.533c.014.096.06.185.133.25a.528.528 0 0 0-.317.6l.017.1-.051-.001Zm1.433-6.314a.684.684 0 0 1-.666.75l.017.1a.517.517 0 0 1-.3.6h-.02a.482.482 0 0 1 0 .7.3.3 0 0 1-.116.083.263.263 0 0 1 .067.217.92.92 0 0 1 .5.15.3.3 0 0 1 .35-.167.51.51 0 0 1 .766-.45.4.4 0 0 1 .167-.3.533.533 0 0 1 .765.05.684.684 0 0 1 .916-.283.77.77 0 0 1 .283.283.733.733 0 0 1 .75-.133.748.748 0 0 1 .483.6.8.8 0 0 1 .983.4l.083-.05a.579.579 0 0 1-.033-.816.088.088 0 0 0 .014-.018c.005-.01.009-.015.02-.015a.67.67 0 0 1-.217-.9.672.672 0 0 1-.55-.283.766.766 0 0 1-.15-.6.833.833 0 0 1-.933-.6.976.976 0 0 1-1.366-.15.81.81 0 0 1-1.032.267.69.69 0 0 1-.783.566h.002Zm-3.632.966a.762.762 0 0 0-.067-1A.84.84 0 0 0 8.512 7.4a.992.992 0 0 0 .8-1.132.8.8 0 0 0 .966-.533.743.743 0 0 0 .868.037.736.736 0 0 0 .215-.22.667.667 0 0 0 .9.217.585.585 0 0 0 .383.45.56.56 0 0 0 .367-.033l.017.183a.816.816 0 0 0-.684.631.751.751 0 0 0-.998.448.778.778 0 0 0-.035.402.71.71 0 0 0-.616.333.7.7 0 0 0 0 .7.551.551 0 0 0-.25.95.492.492 0 0 0-.19.664c.04.076.1.14.173.186a.436.436 0 0 0-.083.283l.05.133c-.136.103-.25.233-.333.383a.342.342 0 0 0-.283-.05.48.48 0 0 0-.404-.53.525.525 0 0 0-.243.015.5.5 0 0 0-.383-.533l-.1-.033a.659.659 0 0 0-.337-.917l.002-.001Zm7.863 5.63a.74.74 0 0 1 .45-.417.818.818 0 0 1 .05-1.1.763.763 0 0 1-.433-.317h-.017a.985.985 0 0 1-.13-.93.82.82 0 0 1-.75-.75.744.744 0 0 1-.85-.45.686.686 0 0 1-.533.134.67.67 0 0 1-.45-.317l-.087.084a.552.552 0 0 1-.666.05.66.66 0 0 1-.167.25.477.477 0 0 1-.6.033.322.322 0 0 1-.167.2c.073.144.114.303.117.466h.133a.266.266 0 0 1 .2.216.5.5 0 0 1 .766.4.467.467 0 0 1 .367 0 .556.556 0 0 1 .35.683.676.676 0 0 1 .755.704.686.686 0 0 1-.123.362.73.73 0 0 1 .483.566.768.768 0 0 1-.233.716.82.82 0 0 1 .1 1.1l.083.033a.499.499 0 0 1 .283-.35.534.534 0 0 1 .45-.05.676.676 0 0 1 .666-.65.86.86 0 0 1-.049-.664l.002-.002Zm-2.632-.5a.762.762 0 0 0 .067 1 .862.862 0 0 0-.283 1.016.992.992 0 0 0-.8 1.132.8.8 0 0 0-.965.533.72.72 0 0 0-1.083.167.668.668 0 0 0-.9-.217.584.584 0 0 0-.267-.383.57.57 0 0 0-.467-.05v.017l-.019-.18a.816.816 0 0 0 .683-.632.82.82 0 0 0 .4.033.743.743 0 0 0 .616-.866.755.755 0 0 0 .55-.233.7.7 0 0 0 .167-.583.411.411 0 0 0-.046-.185l-.021-.05a.543.543 0 0 0 .4-.399.562.562 0 0 0-.167-.55.494.494 0 0 0 0-.85l.033-.033a.313.313 0 0 0-.033-.433.926.926 0 0 0 .367-.35.307.307 0 0 0 .267.083.5.5 0 0 0 .2.417.524.524 0 0 0 .467.083v.017a.517.517 0 0 0 .383.533l.1.033a.708.708 0 0 0-.034.55.669.669 0 0 0 .382.382l.003-.002Z" clip-rule="evenodd"></path> </symbol> <symbol xmlns="http://www.w3.org/2000/svg" fill="currentColor" viewBox="0 0 22 24" id="css"> <g clip-path="url(#a)"> <mask id="b" width="22" height="24" x="0" y="0" maskUnits="userSpaceOnUse"> <path fill="#fff" d="M0 0h22v24H0V0Z"></path> </mask> <g mask="url(#b)"> <path fill="#004CE8" d="m21.264 0-1.928 21.6-8.662 2.4-8.64-2.4L.105 0h21.159Z"></path> <path fill="#0065F4" d="m17.688 20.223 1.643-18.454h-8.643v20.4l7-1.946Z"></path> <path fill="#EBEBEB" d="m4.522 9.777.238 2.65h5.93l1.14-1.324-1.14-1.324-6.168-.002Zm6.166-5.369H4.045l.24 2.65h6.4l1.14-1.324-1.137-1.326Zm.002 15.011 1.14-1.4-1.14-1.344h-.012l-2.95-.8-.189-2.116H4.88l.373 4.159 5.428 1.5h.01l-.001.001Z"></path> <path fill="#fff" d="m13.941 12.426-.307 3.435-2.955.8v2.75l5.43-1.506.04-.448.622-6.97.065-.711.478-5.362h-6.637v2.65h3.734l-.24 2.712H10.68v2.65h3.262-.001Z"></path> </g> </g> <defs> <clipPath id="a"> <path fill="#fff" d="M0 0h22v24H0z"></path> </clipPath> </defs> </symbol> <symbol xmlns="http://www.w3.org/2000/svg" fill="currentColor" viewBox="0 0 34 24" id="docker"> <g clip-path="url(#a)"> <mask id="b" width="34" height="24" x="0" y="0" maskUnits="userSpaceOnUse"> <path fill="#fff" d="M0 0h34v24H0V0Z"></path> </mask> <g mask="url(#b)"> <path fill="#2496ED" d="M33.366 9.06a4.452 4.452 0 0 0-2.723-.712 8.444 8.444 0 0 0-1.41.122 5.256 5.256 0 0 0-2.391-3.576l-.478-.276-.314.455a6.482 6.482 0 0 0-.851 1.994 4.72 4.72 0 0 0 .562 3.706 6.51 6.51 0 0 1-2.43.585H1.312a1.043 1.043 0 0 0-1.046 1.04 15.87 15.87 0 0 0 .965 5.658 8.394 8.394 0 0 0 3.356 4.347 14.837 14.837 0 0 0 7.356 1.582c1.368.004 2.735-.12 4.08-.369a16.896 16.896 0 0 0 5.327-1.938 14.752 14.752 0 0 0 3.636-2.976 20.212 20.212 0 0 0 3.558-6.13h.308a5.133 5.133 0 0 0 3.735-1.4c.431-.408.767-.906.983-1.459l.135-.4-.339-.253Z"></path> <path fill="#2496ED" d="M3.35 10.712h2.953a.26.26 0 0 0 .257-.257v-2.63a.257.257 0 0 0-.257-.257H3.35a.259.259 0 0 0-.257.257v2.63a.259.259 0 0 0 .257.257Zm4.069 0h2.949a.26.26 0 0 0 .257-.257v-2.63a.257.257 0 0 0-.257-.257H7.416a.257.257 0 0 0-.257.257v2.63a.259.259 0 0 0 .257.257m4.134 0h2.953a.26.26 0 0 0 .257-.257v-2.63a.257.257 0 0 0-.257-.257H11.55a.26.26 0 0 0-.257.257v2.63a.257.257 0 0 0 .257.257Zm4.082 0h2.952a.26.26 0 0 0 .258-.257v-2.63a.257.257 0 0 0-.257-.257h-2.952a.26.26 0 0 0-.257.257v2.63a.257.257 0 0 0 .256.257ZM7.419 6.931h2.949a.259.259 0 0 0 .257-.257v-2.63a.259.259 0 0 0-.257-.257H7.416a.259.259 0 0 0-.257.258v2.63a.259.259 0 0 0 .257.257m4.134-.001h2.953a.259.259 0 0 0 .257-.257v-2.63a.259.259 0 0 0-.257-.257H11.55a.259.259 0 0 0-.257.258v2.63a.257.257 0 0 0 .257.258m4.082-.002h2.952a.257.257 0 0 0 .258-.258v-2.63a.259.259 0 0 0-.257-.257h-2.952a.26.26 0 0 0-.257.258v2.63a.258.258 0 0 0 .258.258m-.002-3.788h2.952a.259.259 0 0 0 .258-.257V.257A.26.26 0 0 0 18.585 0h-2.952a.26.26 0 0 0-.257.257v2.63a.255.255 0 0 0 .258.257m4.102 7.568h2.952a.26.26 0 0 0 .257-.257v-2.63a.257.257 0 0 0-.257-.257h-2.952a.26.26 0 0 0-.257.257v2.63a.259.259 0 0 0 .257.257Z"></path> </g> </g> <defs> <clipPath id="a"> <path fill="#fff" d="M0 0h34v24H0z"></path> </clipPath> </defs> </symbol> <symbol xmlns="http://www.w3.org/2000/svg" fill="currentColor" viewBox="0 0 25 24" id="expressjs"> <g clip-path="url(#a)"> <mask id="b" width="25" height="24" x="0" y="0" maskUnits="userSpaceOnUse"> <path fill="#fff" d="M0 0h25v24H0V0Z"></path> </mask> <g mask="url(#b)"> <path fill="#D5D5D5" d="M24.703 0h-24v24h24V0Z"></path> <path fill="#040404" d="M23.703 21.937a1.548 1.548 0 0 1-1.738-.54l-3.162-3.574-.456-.495-3.69 4.082a1.482 1.482 0 0 1-1.65.53l4.725-5.187-4.396-4.687a1.633 1.633 0 0 1 1.743.5l3.277 3.62 3.3-3.6a1.45 1.45 0 0 1 1.635-.5l-1.7 1.85-2.31 2.46a.466.466 0 0 0-.19.375.477.477 0 0 0 .206.37l4.406 4.796Zm-22-5.271.391-1.554a4.768 4.768 0 0 1 3.358-3.068 6.28 6.28 0 0 1 4.978.614 4.565 4.565 0 0 1 2.074 4.472H2.72c-.147 3.189 2.658 5.114 6.233 4.136a3.346 3.346 0 0 0 2.365-2.156c.187-.5.5-.582 1.077-.438a4.088 4.088 0 0 1-2.372 2.966 6.75 6.75 0 0 1-6.694-.7 4.48 4.48 0 0 1-1.5-2.872c-.032-.18-.086-.35-.126-.521v-.88Zm1.03-.214h8.849a4.009 4.009 0 0 0-4.207-3.957 5.162 5.162 0 0 0-3.359 1.163 3.416 3.416 0 0 0-1.278 2.8l-.005-.006Z"></path> </g> </g> <defs> <clipPath id="a"> <path fill="#fff" d="M0 0h25v24H0z"></path> </clipPath> </defs> </symbol> <symbol xmlns="http://www.w3.org/2000/svg" fill="currentColor" viewBox="0 0 25 24" id="git"> <g clip-path="url(#a)"> <mask id="b" width="25" height="24" x="0" y="0" maskUnits="userSpaceOnUse"> <path fill="#fff" d="M0 0h25v24H0V0Z"></path> </mask> <g mask="url(#b)"> <path fill="#EE2C37" d="M24.253 10.931 13.773.453a1.543 1.543 0 0 0-2.187 0L9.412 2.626l2.76 2.76a1.836 1.836 0 0 1 2.332 2.34l2.661 2.661a1.838 1.838 0 1 1-1.1 1.04l-2.489-2.482v6.534a1.835 1.835 0 1 1-1.52-.052v-6.6a1.84 1.84 0 0 1-1-2.41L8.342 3.698 1.156 10.88a1.547 1.547 0 0 0 0 2.187l10.48 10.48a1.547 1.547 0 0 0 2.187 0l10.43-10.43a1.546 1.546 0 0 0 0-2.186Z"></path> </g> </g> <defs> <clipPath id="a"> <path fill="#fff" d="M0 0h25v24H0z"></path> </clipPath> </defs> </symbol> <symbol xmlns="http://www.w3.org/2000/svg" fill="currentColor" viewBox="0 0 25 24" id="github"> <g clip-path="url(#a)"> <mask id="b" width="25" height="24" x="0" y="0" maskUnits="userSpaceOnUse"> <path fill="#fff" d="M0 0h25v24H0V0Z"></path> </mask> <g mask="url(#b)"> <path fill="#010101" d="M12.708 0a12.153 12.153 0 0 0-12 12.3 12.28 12.28 0 0 0 8.208 11.672c.6.113.818-.266.818-.593 0-.293-.01-1.065-.017-2.092-3.337.744-4.042-1.647-4.042-1.647a3.231 3.231 0 0 0-1.332-1.8c-1.091-.763.08-.747.08-.747A2.527 2.527 0 0 1 6.26 18.36a2.52 2.52 0 0 0 3.5 1.02c.053-.62.322-1.203.762-1.644-2.664-.311-5.466-1.365-5.466-6.08a4.824 4.824 0 0 1 1.236-3.3 4.52 4.52 0 0 1 .12-3.255s1-.325 3.3 1.27a11.1 11.1 0 0 1 6.01 0c2.291-1.592 3.3-1.262 3.3-1.262a4.525 4.525 0 0 1 .12 3.255 4.814 4.814 0 0 1 1.233 3.3c0 4.725-2.8 5.765-5.479 6.07a2.977 2.977 0 0 1 .812 2.278c0 1.645-.016 2.97-.016 3.373 0 .329.216.713.826.59a12.282 12.282 0 0 0 8.19-11.676 12.154 12.154 0 0 0-12-12.3V0Z"></path> </g> </g> <defs> <clipPath id="a"> <path fill="#fff" d="M0 0h25v24H0z"></path> </clipPath> </defs> </symbol> <symbol xmlns="http://www.w3.org/2000/svg" fill="currentColor" viewBox="0 0 17 24" id="googlemaps"> <path fill="#1A73E8" d="M10.756.385a8.25 8.25 0 0 0-8.85 2.61L5.83 6.287 10.756.385Z"></path> <path fill="#EA4335" d="M1.906 2.995a8.25 8.25 0 0 0-1.905 5.25 9.18 9.18 0 0 0 .818 3.952l5.04-6-3.953-3.202Z"></path> <path fill="#4285F4" d="M8.251 5.117a3.158 3.158 0 0 1 3.173 3.128 3.157 3.157 0 0 1-.75 2.047L15.6 4.495A8.34 8.34 0 0 0 10.756.362L5.83 6.25a3.112 3.112 0 0 1 2.42-1.133Z"></path> <path fill="#FBBC04" d="M8.251 11.447a3.173 3.173 0 0 1-2.422-5.25l-5.04 6a29.68 29.68 0 0 0 3.75 5.378l6.142-7.283a3.142 3.142 0 0 1-2.43 1.155Z"></path> <path fill="#34A853" d="M10.554 19.585c2.767-4.32 6-6.285 6-11.25a8.25 8.25 0 0 0-.953-3.84L4.546 17.605a28.49 28.49 0 0 1 1.403 1.98c1.687 2.602 1.215 4.162 2.302 4.162 1.088 0 .615-1.56 2.303-4.162Z"></path> </symbol> <symbol xmlns="http://www.w3.org/2000/svg" fill="currentColor" viewBox="0 0 26 24" id="griffith"> <path fill="#E92D2E" d="M10.416 0v6.941l1.977 4.926V4.934L10.416 0Zm4.83 0L13.27 4.934v6.935l1.977-4.927V0Zm-7.82 2.349v6.942l4.456 2.853-2.846-4.325v-4.44l-1.61-1.03Zm10.809 0-1.6 1.028v4.442L13.78 12.14l4.456-2.849-.001-6.942ZM4.867 5.173v7.475h6.744L6.358 10.53V5.173h-1.5.009Zm14.445 0v5.357l-5.253 2.121h6.74V5.175h-1.5l.013-.002Zm-5.969 8.291a4.38 4.38 0 0 0-1.943.327 1.266 1.266 0 0 0-.553 1.28v.278h-.534v.736h.534V19h1.37v-2.916h1.433v2.918h1.377v-2.924h1.433v2.923l1.37-.006v-3.647h-2.8v-.587c0-.332.061-.584.673-.584.057 0 .188.01.3.025a1.007 1.007 0 0 1 .34-.7 6.046 6.046 0 0 0-.477-.02 3.47 3.47 0 0 0-1.653.309 1.268 1.268 0 0 0-.56 1.28v.278h-1.436v-.583c0-.4.147-.584.786-.584.06 0 .2.005.327.019.098-.297.293-.551.553-.723a7.885 7.885 0 0 0-.54-.013v-.002Zm-9.958.076c-2.01 0-3.31.993-3.31 2.8a2.725 2.725 0 0 0 3.022 2.739 6.556 6.556 0 0 0 1.717-.252v-2.64H3.425v2.029a1.5 1.5 0 0 1-.327.025c-1.165 0-1.509-1.142-1.509-2.136a1.568 1.568 0 0 1 1.766-1.634c.501-.007.997.099 1.453.308v-1.031a7.39 7.39 0 0 0-1.434-.214l.011.006Zm5.69.088a.642.642 0 1 0 .742.635.692.692 0 0 0-.743-.636Zm8.1 0a.642.642 0 0 0-.522 1.122.643.643 0 0 0 .522.14.642.642 0 1 0 0-1.262Zm1.635.05v1.666h-.542v.736h.534v1.4a1.283 1.283 0 0 0 .553 1.282c.469.235.992.342 1.515.308.107 0 .29 0 .51-.02v-.816a3.276 3.276 0 0 1-.554.05c-.659 0-.654-.458-.654-.974v-1.231h1.207v-.736h-1.2v-1.664h-1.374l.005-.001Zm3.036 0v5.312h1.378v-2.27c0-.378.08-.66.477-.66.35 0 .483.187.483.774v2.156l1.37.006v-2.188a1.583 1.583 0 0 0-.22-1.113 1.413 1.413 0 0 0-1.119-.46 1.378 1.378 0 0 0-.992.334v-1.89h-1.38l.003-.001ZM7.668 15.236c-.508 0-.738.467-.854.88v-.78H5.447v3.652h1.37v-1.754c0-.562.312-1.068.742-1.068.138.005.275.026.409.063v-.97c-.1-.016-.2-.024-.3-.025v.002Zm.717.107v3.652h1.37v-3.652h-1.37Z"></path> <path d="M17.796 20.609a1.176 1.176 0 0 0-.767.236.74.74 0 0 0-.294.607.722.722 0 0 0 .268.581c.181.127.378.228.587.3.199.068.393.149.581.242a.56.56 0 0 1 .313.472.605.605 0 0 1-.214.472.854.854 0 0 1-.58.16 1.565 1.565 0 0 1-.869-.314l-.214.25a1.6 1.6 0 0 0 1.08.382 1.25 1.25 0 0 0 .867-.274.9.9 0 0 0 .281-.7.786.786 0 0 0-.28-.6 1.8 1.8 0 0 0-.5-.281c-.185-.069-.385-.135-.569-.2-.284-.131-.422-.3-.422-.5a.457.457 0 0 1 .191-.383.877.877 0 0 1 .555-.147c.133-.002.264.018.39.058a.94.94 0 0 1 .383.236l.236-.214a1.3 1.3 0 0 0-.51-.313 1.674 1.674 0 0 0-.523-.077l.01.007ZM.002 20.67v1.73c-.007.228.002.456.026.683a.976.976 0 0 0 .287.594c.273.224.62.338.971.32.348.017.69-.094.961-.313.154-.154.255-.353.287-.568.022-.216.03-.434.026-.651v-1.8h-.345l-.006 1.829c0 .169 0 .284.006.345a.9.9 0 0 1-.236.641 1.055 1.055 0 0 1-.683.2 1.128 1.128 0 0 1-.74-.223 1.013 1.013 0 0 1-.2-.728v-2.07l-.354.01Zm3.282 0v3.282h.346V21.26l2 2.694h.409v-3.282h-.35l.006 2.733-2.03-2.733h-.384.003Zm3.456 0v3.282h.363V20.67H6.74Zm.8 0 1.263 3.278h.4l1.282-3.282h-.391L9.01 23.54l-1.06-2.87h-.41Zm3.31 0v3.282h2.353v-.32h-2V22.38h1.709v-.31h-1.71v-1.086h1.901v-.314h-2.254.002Zm2.868 0v3.282h.358v-1.449h.7a.831.831 0 0 1 .562.141.957.957 0 0 1 .16.223c.017.033.057.12.122.25l.4.835h.371l-.543-1.13c-.107-.224-.287-.415-.422-.427a1.03 1.03 0 0 0 .46-.214.78.78 0 0 0 .235-.6.87.87 0 0 0-.287-.671.9.9 0 0 0-.478-.214 4.778 4.778 0 0 0-.543-.02h-1.1l.005-.006Zm5.74 0v3.282h.364V20.67h-.364Zm.811 0v.313h1.01v2.97h.35v-2.97h.945v-.313H20.27Zm2.484 0 1.271 1.954v1.328h.351V22.62l1.259-1.95h-.415l-1.01 1.584-1.035-1.584h-.42Zm-8.678.306h.8c.139-.003.278.005.415.026a.5.5 0 0 1 .281.128.566.566 0 0 1 .2.427.546.546 0 0 1-.172.422.872.872 0 0 1-.472.2 4.568 4.568 0 0 1-.523.019h-.523V20.97l-.006.006Z"></path> </symbol> <symbol xmlns="http://www.w3.org/2000/svg" fill="currentColor" viewBox="0 0 24 24" id="ionic"> <path fill="#1A6DFF" d="M0 12a12.002 12.002 0 0 1 19.141-9.646 2.626 2.626 0 1 1-1.87 2.2 9.093 9.093 0 1 0 3.61 5.346v-.016l-.017-.07v-.006l-.015-.062-.007-.025a.218.218 0 0 0-.012-.047l-.006-.022-.018-.064-.006-.023-.013-.046-.007-.024c-.006-.022-.012-.044-.02-.067a3.426 3.426 0 0 0 2.58-1.387l.02.055v.01l.014.043.006.016a.134.134 0 0 0 .013.04l.006.016.013.038a.128.128 0 0 0 .013.04l.008.026a.13.13 0 0 0 .012.037v.012a11.999 11.999 0 0 1-22.34 8.64 12 12 0 0 1-1.103-5.01L0 12Zm6.75 0a5.252 5.252 0 1 1 10.501 0 5.252 5.252 0 0 1-10.5.001H6.75Z"></path> </symbol> <symbol xmlns="http://www.w3.org/2000/svg" fill="currentColor" viewBox="0 0 18 24" id="html"> <g clip-path="url(#a)"> <mask id="b" width="18" height="24" x="0" y="0" maskUnits="userSpaceOnUse"> <path fill="#fff" d="M0 0h18v24H0V0Z"></path> </mask> <g mask="url(#b)"> <path fill="#000001" d="M2.293 0h1.08v1.069h.994V0h1.08v3.24h-1.08V2.16h-.984v1.08h-1.09V0Zm4.576 1.08h-.952V0h2.986v1.08h-.96v2.16h-1.08l.006-2.16ZM9.373 0h1.129l.694 1.139L11.893 0h1.129v3.24h-1.08V1.631l-.755 1.163-.755-1.163V3.24h-1.06V0h.001Zm4.18 0h1.08v2.16h1.529v1.08h-2.606L13.553 0Z"></path> <path fill="#FF4C1E" d="M2.256 22.08.709 4.715h17.006L16.169 22.07 9.198 24"></path> <path fill="#FF651E" d="M9.212 22.522V6.14h6.952l-1.326 14.813-5.626 1.569Z"></path> <path fill="#EBEBEB" d="M3.869 8.264h5.344l.794 1.064-.794 1.064h-3.01l.2 2.179h2.813l.794 1.1-.794 1.02H4.453l-.584-6.427Zm.676 7.5h2.137l.15 1.7 2.38.637.9 1.062-.9 1.159-4.368-1.219-.299-3.339Z"></path> <path fill="#fff" d="M14.537 8.264H9.203v2.128h5.137l.197-2.128Zm-.39 4.308H9.204V14.7h2.626l-.248 2.76-2.376.637v2.213l4.36-1.21.583-6.528h-.002Z"></path> </g> </g> <defs> <clipPath id="a"> <path fill="#fff" d="M0 0h18v24H0z"></path> </clipPath> </defs> </symbol> <symbol xmlns="http://www.w3.org/2000/svg" fill="currentColor" viewBox="0 0 30 24" id="livewire"> <g clip-path="url(#a)"> <mask id="b" width="30" height="24" x="0" y="0" maskUnits="userSpaceOnUse"> <path fill="#fff" d="M0 0h30v24H0V0Z"></path> </mask> <g mask="url(#b)"> <path fill="#FB70A9" fill-rule="evenodd" d="M27.998 22.165c-.54.822-.956 1.835-2.062 1.835-1.86 0-1.962-2.87-3.824-2.87-1.862 0-1.76 2.87-3.62 2.87-1.862 0-1.963-2.87-3.825-2.87S12.907 24 11.044 24c-1.862 0-1.962-2.87-3.824-2.87-1.862 0-1.762 2.87-3.622 2.87a1.738 1.738 0 0 1-1.34-.672 15.893 15.893 0 0 1-2.1-7.936C.158 6.89 6.724 0 14.824 0c8.1 0 14.668 6.891 14.668 15.392a15.96 15.96 0 0 1-1.494 6.773Z" clip-rule="evenodd"></path> <path fill="#FB70A9" fill-rule="evenodd" d="M27.998 22.165c-.54.822-.956 1.835-2.062 1.835-1.86 0-1.962-2.87-3.824-2.87-1.862 0-1.76 2.87-3.62 2.87-1.862 0-1.963-2.87-3.825-2.87S12.907 24 11.044 24c-1.862 0-1.962-2.87-3.824-2.87-1.862 0-1.762 2.87-3.622 2.87a1.738 1.738 0 0 1-1.34-.672 15.893 15.893 0 0 1-2.1-7.936C.158 6.89 6.724 0 14.824 0c8.1 0 14.668 6.891 14.668 15.392a15.96 15.96 0 0 1-1.494 6.773Z" clip-rule="evenodd"></path> <path fill="#E24CA6" fill-rule="evenodd" d="M24.825 23.693c3.844-5.717 3.944-12.06.3-19.027a15.448 15.448 0 0 1 2.822 17.5c-.564.819-.992 1.829-2.138 1.829a1.673 1.673 0 0 1-.98-.306l-.004.004Z" clip-rule="evenodd"></path> <path fill="#fff" fill-rule="evenodd" d="M14.038 19.23c5.1 0 7.248-2.958 7.248-7.16S18.042 4 14.038 4s-7.247 3.868-7.247 8.07 2.147 7.161 7.248 7.161l-.001-.001Z" clip-rule="evenodd"></path> <path fill="#030776" d="M12.09 12.308a2.87 2.87 0 0 0 2.718-3 2.869 2.869 0 0 0-2.718-3 2.87 2.87 0 0 0-2.718 3 2.869 2.869 0 0 0 2.718 3Z"></path> <path fill="#fff" d="M11.638 10a1.386 1.386 0 1 0 .113-2.77 1.386 1.386 0 0 0-.113 2.77Z"></path> </g> </g> <defs> <clipPath id="a"> <path fill="#fff" d="M0 0h30v24H0z"></path> </clipPath> </defs> </symbol> <symbol xmlns="http://www.w3.org/2000/svg" fill="currentColor" viewBox="0 0 25 24" id="laravel"> <g clip-path="url(#a)"> <mask id="b" width="25" height="24" x="0" y="0" maskUnits="userSpaceOnUse"> <path fill="#fff" d="M0 0h25v24H0V0Z"></path> </mask> <g mask="url(#b)"> <path fill="#FF2D20" fill-rule="evenodd" d="M24.013 5.43a.384.384 0 0 1 .013.1v5.15a.38.38 0 0 1-.189.327l-4.323 2.485v4.933a.379.379 0 0 1-.188.326l-9.025 5.2a.402.402 0 0 1-.066.026c-.008 0-.016.008-.025.01a.379.379 0 0 1-.285-.036l-9.022-5.2a.376.376 0 0 1-.186-.325V2.974a.37.37 0 0 1 .013-.1c0-.011.009-.021.013-.031a.37.37 0 0 1 .024-.057.35.35 0 0 1 .026-.033.382.382 0 0 1 .033-.044.365.365 0 0 1 .037-.028.306.306 0 0 1 .04-.032L5.417.05a.377.377 0 0 1 .376 0l4.511 2.6c.014.01.028.02.041.032a.434.434 0 0 1 .037.028.451.451 0 0 1 .034.044c.01.01.018.02.025.033.01.018.018.038.024.058 0 .01.01.02.013.032a.384.384 0 0 1 .013.1v9.651l3.76-2.164V5.526a.38.38 0 0 1 .013-.1c0-.01.009-.02.013-.032a.419.419 0 0 1 .024-.058.393.393 0 0 1 .025-.037.371.371 0 0 1 .034-.044.355.355 0 0 1 .037-.028.368.368 0 0 1 .04-.032l4.513-2.6a.375.375 0 0 1 .376 0l4.511 2.6c.015.01.029.02.042.032.012.01.025.018.036.028a.451.451 0 0 1 .034.044c.01.01.018.022.025.033.01.019.018.038.024.058.005.01.01.021.013.032l.003.007-.001.001Zm-.739 5.03V6.178l-1.579.91-2.181 1.255v4.283l3.76-2.164v-.002Zm-4.511 7.748v-4.285l-2.149 1.225-6.126 3.5v4.326l8.272-4.763.003-.003ZM1.469 3.624v14.584l8.27 4.762v-4.326l-4.323-2.446-.076-.058a.36.36 0 0 1-.03-.04.417.417 0 0 1-.029-.036.306.306 0 0 1-.02-.047.285.285 0 0 1-.018-.042.36.36 0 0 1-.008-.055.326.326 0 0 1-.006-.042V5.788L3.047 4.533l-1.578-.91v.001ZM5.605.81l-3.76 2.164 3.759 2.163 3.758-2.163L5.605.81ZM7.56 14.308l2.18-1.25V3.624l-1.578.909L5.98 5.788v9.434l1.579-.909.001-.005ZM19.139 3.364 15.38 5.527l3.758 2.164 3.757-2.164-3.756-2.163Zm-.376 4.978-2.18-1.256-1.58-.909v4.284l2.181 1.254 1.579.91V8.341v.001Zm-8.648 9.655 5.514-3.147 2.755-1.573-3.755-2.162-4.326 2.483-3.94 2.273 3.752 2.126Z" clip-rule="evenodd"></path> </g> </g> <defs> <clipPath id="a"> <path fill="#fff" d="M0 0h25v24H0z"></path> </clipPath> </defs> </symbol> <symbol xmlns="http://www.w3.org/2000/svg" fill="currentColor" viewBox="0 0 24 24" id="javascript"> <path fill="#FFDF00" d="M0 0h24v24H0V0Z"></path> <path fill="#000001" d="M16.122 18.748a2.456 2.456 0 0 0 2.225 1.369c.935 0 1.53-.467 1.53-1.112 0-.773-.612-1.048-1.641-1.5l-.564-.24c-1.627-.694-2.708-1.56-2.708-3.4a3.013 3.013 0 0 1 3.3-2.98 3.335 3.335 0 0 1 3.208 1.8l-1.756 1.128a1.534 1.534 0 0 0-1.452-.96.986.986 0 0 0-1.08.966c0 .677.419.95 1.387 1.369l.564.24c1.92.822 3 1.66 3 3.542 0 2.03-1.6 3.143-3.737 3.143a4.333 4.333 0 0 1-4.11-2.306l1.834-1.059Zm-7.967.2c.36.629.677 1.16 1.452 1.16.74 0 1.208-.29 1.208-1.417v-7.669h2.255v7.7a3.064 3.064 0 0 1-3.367 3.4 3.5 3.5 0 0 1-3.383-2.06l1.835-1.114Z"></path> </symbol> <symbol xmlns="http://www.w3.org/2000/svg" fill="currentColor" viewBox="0 0 21 24" id="linux"> <g clip-path="url(#a)"> <path fill="#000001" d="M10.001.001a3.457 3.457 0 0 0-1.68.385 3.021 3.021 0 0 0-1.259 1.31 4.16 4.16 0 0 0-.4 1.788 36.24 36.24 0 0 0 .12 3.695c.043.309.051.621.024.931-.152.778-.833 1.3-1.2 1.985-.34.781-.63 1.583-.87 2.4-.277.731-.666 1.416-.927 2.152a5.832 5.832 0 0 0-.234 3.224 5.574 5.574 0 0 0 1.09 2.225c-.076.136-.148.272-.226.407a6.142 6.142 0 0 0-.672 1.271c-.073.23-.09.474-.052.712.041.24.166.456.352.612.125.098.27.166.425.2a1.9 1.9 0 0 0 .47.041 7.63 7.63 0 0 0 1.753-.346c.343-.09.688-.17 1.034-.24 1.242-.204 2.51-.2 3.75.014.387.059.77.135 1.151.227a8.8 8.8 0 0 0 1.8.346c.16.008.322-.005.48-.037.16-.033.309-.1.437-.2.187-.156.312-.373.352-.613.04-.238.021-.483-.053-.713a5.93 5.93 0 0 0-.682-1.268c-.1-.163-.187-.33-.284-.494a8.109 8.109 0 0 0 1.68-2.85 8.185 8.185 0 0 0 .287-3.6 12.33 12.33 0 0 0-1.042-3.473 27.53 27.53 0 0 1-1.543-3.1c-.415-1.32-.072-2.869-.38-4.06a4.179 4.179 0 0 0-.51-1.147 3.933 3.933 0 0 0-1-1.08 3.853 3.853 0 0 0-2.19-.7l-.001-.004Z"></path> <path fill="#FCFCFA" d="M7.729 6.94a.96.96 0 0 0-.173.36c-.03.13-.047.265-.05.4a3.55 3.55 0 0 1-.066.808 2.467 2.467 0 0 1-.416.757c-.313.394-.56.836-.73 1.31a2.326 2.326 0 0 0-.085.9 9.46 9.46 0 0 0-.84 1.516 8.3 8.3 0 0 0-.683 2.532 6.464 6.464 0 0 0 .455 3.16c.302.72.763 1.36 1.348 1.877.299.26.63.48.985.654a4.416 4.416 0 0 0 3.96-.038 7.682 7.682 0 0 0 1.68-1.327c.32-.29.605-.614.853-.967a5.43 5.43 0 0 0 .712-2.362 7.7 7.7 0 0 0-.454-4.269 4.711 4.711 0 0 0-.854-1.223 6.702 6.702 0 0 0-.541-1.822c-.192-.416-.426-.812-.6-1.235-.073-.174-.137-.35-.217-.52a1.56 1.56 0 0 0-.317-.464 1.309 1.309 0 0 0-.5-.288 2.16 2.16 0 0 0-.568-.1c-.385-.019-.77.031-1.156.016-.306-.012-.612-.066-.918-.048a1.413 1.413 0 0 0-.449.094.9.9 0 0 0-.368.266"></path> <path fill="#E0E0DF" d="M6.523 10.8c.082.12-.052.546 1.861.275a6.602 6.602 0 0 0-.667.114 4.767 4.767 0 0 0-1.31.62c-.342.252-.593.582-.907.864 0 0 .509-.93.636-1.21.127-.28-.022-.269.079-.68a3.23 3.23 0 0 1 .347-.809s-.2.582-.04.825l.001.001Zm6.001-.109a1.87 1.87 0 0 1-1.091.293c-.473.053-1.753.034-1.753.034.201.006.402.03.6.073.58.066 1.156.176 1.72.33.324.1.636.239.93.411.408.258.708.662 1.1.944a1.4 1.4 0 0 0-.14-.655 6.082 6.082 0 0 1-.705-1.134A7.687 7.687 0 0 1 13 9.764a1.516 1.516 0 0 1-.473.926l-.004.001h.001Z"></path> <path fill="#E0E0DF" d="M8.908 10.113a5.179 5.179 0 0 1-.056.35.98.98 0 0 1-.046.169.38.38 0 0 1-.231.224 1.966 1.966 0 0 1-.575.163c.08.005.16.013.24.022.05.005.1.012.148.024a.399.399 0 0 1 .136.061.37.37 0 0 1 .1.12.813.813 0 0 1 .078.316c.011.14.011.28 0 .419a1.3 1.3 0 0 1 .058-.275c.052-.162.138-.31.252-.436a.83.83 0 0 1 .734-.276.908.908 0 0 1-.581-.18.756.756 0 0 1-.209-.24.655.655 0 0 1-.061-.474"></path> <path fill="#000001" d="M8.36 12.858a7.165 7.165 0 0 0-.2 1.153c-.053.551-.04 1.105-.069 1.656a6.19 6.19 0 0 0 0 1.4c.04.22.109.435.206.636.016-.077.027-.154.034-.233a7.626 7.626 0 0 0-.05-1.126c-.006-.66.024-1.318.091-1.974.029-.505.026-1.012-.01-1.517"></path> <path fill="#7D7D7D" d="M6.588 9.136c-.01-.12-.175-.133-.25-.076a.243.243 0 0 0-.067.281c.085.106.325-.043.317-.205Zm8.353 3.168c.1-.014.688.488.607.676-.08.188-.233.074-.342.076-.109.002-.407.137-.456.052-.049-.085.132-.284.227-.45.077-.135-.132-.338-.036-.354Zm-3.613-11.26c-.208.146-.12.33-.028.511.092.182-.2.712-.2.734a2.45 2.45 0 0 0 .72-.456c.18-.223.64.3.616.222-.007-.143-.901-1.158-1.108-1.011Z"></path> <path fill="#838384" d="M12.9 7.186c-.175.16.082.4.2.68.076.174.284.42.487.381.152-.03.247-.248.233-.4-.028-.3-.28-.367-.462-.47-.14-.085-.336-.303-.458-.19Z"></path> <path fill-opacity=".26" d="M7.542 8.376a2.3 2.3 0 0 0 .742 1.006c.108.091.226.168.353.228a.84.84 0 0 0 .41.078.96.96 0 0 0 .385-.133c.12-.067.23-.149.347-.223.2-.126.412-.228.62-.34.251-.132.486-.293.7-.48.091-.093.189-.179.291-.259a.575.575 0 0 1 .36-.12c.096.016.19.039.284.068a.4.4 0 0 0 .144.008.21.21 0 0 0 .186-.228.402.402 0 0 0-.05-.17 2.178 2.178 0 0 1-.178-.31.915.915 0 0 1-.023-.317.635.635 0 0 0-.048-.312.4.4 0 0 0-.172-.167.62.62 0 0 0-.234-.065 3.24 3.24 0 0 0-.48.025c-.215.012-.43-.014-.643 0-.268.016-.53.094-.8.1a5.953 5.953 0 0 0-.914-.052 2.38 2.38 0 0 0-.378.11 1.17 1.17 0 0 1-.384.076c-.149 0-.293-.054-.442-.065a.523.523 0 0 0-.22.026.307.307 0 0 0-.168.14.3.3 0 0 0-.03.12.448.448 0 0 0 .013.127c.025.082.055.162.09.24.113.287.137.6.24.893"></path> <path fill="#000001" d="M7.158 7.24a3.1 3.1 0 0 1 .708.6c.166.231.365.44.589.616a1.3 1.3 0 0 0 .589.194c.247.018.495-.008.733-.078.22-.058.43-.143.629-.254a6.645 6.645 0 0 1 1.092-.659c.09-.03.182-.052.269-.089a.413.413 0 0 0 .209-.173.777.777 0 0 0 .05-.247c.013-.089.044-.175.06-.265a.412.412 0 0 0-.022-.265.36.36 0 0 0-.17-.155.618.618 0 0 0-.24-.053c-.16.005-.32.02-.48.044-.213.018-.43-.007-.643 0-.268.007-.53.064-.8.074-.3.013-.608-.03-.913-.04-.134-.007-.268 0-.4.018a1.01 1.01 0 0 0-.367.128c-.102.071-.2.148-.292.23a.84.84 0 0 1-.158.1.48.48 0 0 1-.184.048h-.1a.212.212 0 0 0-.137.078.18.18 0 0 0-.035.145m8.05 4.683c.489.409.81.984.9 1.615.065.49.037.987-.083 1.465-.12.476-.269.943-.446 1.4a2.774 2.774 0 0 0-.161.565.935.935 0 0 0 .084.572.87.87 0 0 0 .523.4c.215.061.442.064.659.008a1.529 1.529 0 0 0 1.411-1.734 4.61 4.61 0 0 0-.041-1.68c-.137-.757-.35-1.5-.637-2.214a7.718 7.718 0 0 0-.791-1.5c-.311-.458-.752-.815-1.08-1.264-.113-.156-.25-.318-.36-.48-.24-.34-.186-.276-.335-.5a.87.87 0 0 0-.457-.283.842.842 0 0 0-1.116.454c-.101.235-.13.494-.083.745.066.32.19.625.367.9.18.324.413.615.69.86.3.247.654.41.96.652M5.934 9.462a8.867 8.867 0 0 0-1.482 1.98c-.14.364-.255.738-.344 1.118-.127.425-.288.84-.48 1.24-.175.371-.367.732-.56 1.093a2.744 2.744 0 0 0-.332.826 1.7 1.7 0 0 0 .043.7c.063.227.151.447.262.655a6.438 6.438 0 0 0 1.958 2.256c.37.268.765.5 1.18.69.22.114.461.182.709.2a.862.862 0 0 0 .36-.069.643.643 0 0 0 .281-.233.672.672 0 0 0 .094-.437 1.045 1.045 0 0 0-.155-.425 3.067 3.067 0 0 0-.792-.774 24.911 24.911 0 0 1-1.832-1.56 2.393 2.393 0 0 1-.446-.508 1.9 1.9 0 0 1-.215-.622 3.447 3.447 0 0 1 .12-1.788c.084-.22.179-.437.284-.649.162-.377.352-.74.57-1.088.324-.393.625-.806.9-1.235a4.37 4.37 0 0 0 .353-1.237c.06-.33.174-.656.232-.989a9.5 9.5 0 0 1-.7.851l-.008.005Z"></path> <path fill="#838384" d="M16.187 14.993c-.161.59-.395 1.154-.6 1.73a5.52 5.52 0 0 0-.181.591 1.082 1.082 0 0 1 0-.338c.033-.193.087-.383.16-.565.179-.457.328-.924.449-1.4a3.92 3.92 0 0 0 .083-1.465 2.586 2.586 0 0 0-.9-1.615c-.294-.24-.642-.4-.935-.635.34.166.668.354.983.564.528.39.886.969 1 1.615a3.24 3.24 0 0 1-.06 1.523l.001-.005Z"></path> <path fill="#7D7D7D" d="M4.3 13.81a3.448 3.448 0 0 0-.12 1.787c.034.218.107.429.214.622.124.19.274.36.446.508l.077.071h-.034a.681.681 0 0 1-.332-.146 1.034 1.034 0 0 1-.24-.278c-.078-.128-.136-.27-.226-.392a.893.893 0 0 0-.43-.312.566.566 0 0 0 .3-.254.887.887 0 0 0 .087-.467c0-.16-.029-.32-.02-.48.04-.31.131-.612.27-.893.136-.397.303-.783.5-1.154.13-.22.292-.419.48-.592a.286.286 0 0 1 .186-.16 6.158 6.158 0 0 0-.31.408 7.92 7.92 0 0 0-.57 1.088c-.095.207-.199.418-.279.643l.001.001Z"></path> <path fill="#432701" d="M19.888 20.9c-.226.24-.498.434-.8.568a15.63 15.63 0 0 0-1.488.785 6.094 6.094 0 0 0-.877.707 7.058 7.058 0 0 1-.714.648 2.051 2.051 0 0 1-.888.376c-.394.05-.795-.01-1.156-.175a1.389 1.389 0 0 1-.643-.5 1.511 1.511 0 0 1-.18-.8c.016-.49.074-.98.176-1.46.07-.4.139-.8.182-1.21.075-.74.083-1.483.026-2.223a1.689 1.689 0 0 1 0-.372.473.473 0 0 1 .48-.44c.114-.002.23.008.342.03.269.03.536.077.8.138.166.043.326.1.49.146.274.079.559.105.84.077.3-.069.602-.116.908-.143.126.004.25.026.37.065.126.034.24.098.335.186a.732.732 0 0 1 .15.248c.055.136.088.279.1.424.005.129.017.257.035.384.046.208.145.4.286.56.14.159.295.305.46.437.16.139.328.269.5.39.083.056.167.108.24.17.081.059.15.133.2.22a.5.5 0 0 1 .044.393c-.047.14-.12.268-.216.38l-.002-.009Z"></path> <path fill="#E18900" d="M19.864 20.263c-.05.125-.12.242-.208.344a2.25 2.25 0 0 1-.73.51c-.466.211-.92.447-1.36.706-.285.187-.553.4-.8.635a6.416 6.416 0 0 1-.652.582c-.24.175-.518.29-.811.337a1.973 1.973 0 0 1-1.055-.157 1.256 1.256 0 0 1-.588-.452c-.12-.22-.177-.47-.164-.72.014-.44.068-.88.161-1.313.065-.36.127-.72.167-1.087.066-.664.074-1.334.024-2a1.525 1.525 0 0 1 0-.335.43.43 0 0 1 .438-.4c.105 0 .21.007.313.026.245.027.489.067.73.12.151.038.3.091.448.132.251.072.513.096.773.07.273-.062.55-.104.828-.128.115.004.229.024.338.058.112.03.215.088.3.167.06.065.107.14.139.223.052.121.082.25.086.382-.01.137-.013.274-.008.41.018.11.059.214.12.307.06.093.127.18.2.264.132.17.284.324.452.457.2.143.433.227.638.36a.606.606 0 0 1 .163.144.383.383 0 0 1 .05.35"></path> <path fill="#FFC000" d="M19.831 20.121a1.505 1.505 0 0 1-.214.348c-.2.234-.46.412-.75.515-.466.176-.973.2-1.43.4a4.965 4.965 0 0 0-.782.48c-.201.145-.415.27-.64.374a3.278 3.278 0 0 1-.8.217 2.442 2.442 0 0 1-.522.038 1.127 1.127 0 0 1-.5-.139.7.7 0 0 1-.284-.29 1.02 1.02 0 0 1-.079-.463c0-.422.1-.84.092-1.264 0-.368-.076-.73-.1-1.1.04-.705.032-1.413-.022-2.118a1.677 1.677 0 0 1-.049-.335.48.48 0 0 1 .029-.166.278.278 0 0 1 .215-.186.4.4 0 0 1 .132 0c.087.019.173.043.257.073.248.053.498.093.75.12.156.035.306.091.461.133.257.074.527.098.793.07.28-.063.565-.107.851-.13.118.004.235.024.348.06a.719.719 0 0 1 .312.167c.061.066.11.143.143.226.056.12.086.252.089.385 0 .07-.011.138-.017.208a.628.628 0 0 0 .008.206.54.54 0 0 0 .091.184c.04.055.084.106.12.16.109.159.205.326.286.5.081.173.193.329.331.46.208.138.427.258.655.36a.562.562 0 0 1 .168.145.392.392 0 0 1 .052.354"></path> <path fill="#432701" d="M3.276 16.408a.732.732 0 0 1 .412-.038c.138.028.268.083.383.163.223.17.416.377.568.612.378.52.74 1.05 1.07 1.6.268.448.512.91.821 1.33.2.274.428.528.631.8.212.268.372.574.472.9a1.8 1.8 0 0 1-.132 1.29 1.7 1.7 0 0 1-.628.672 1.62 1.62 0 0 1-.89.232 4.363 4.363 0 0 1-1.4-.449c-.936-.373-1.952-.49-2.916-.78-.3-.089-.588-.194-.887-.277a2.617 2.617 0 0 1-.392-.12.678.678 0 0 1-.312-.26.588.588 0 0 1-.076-.306.96.96 0 0 1 .062-.31c.072-.2.19-.38.27-.579a2.43 2.43 0 0 0 .133-1.025c-.017-.347-.073-.69-.1-1.037a1.84 1.84 0 0 1 .014-.463.7.7 0 0 1 .586-.6 1.91 1.91 0 0 1 .427-.028c.143.008.286.008.428 0a.985.985 0 0 0 .41-.12.967.967 0 0 0 .293-.277c.077-.112.148-.228.211-.348.064-.12.138-.235.222-.342a.84.84 0 0 1 .32-.248"></path> <path fill="#EC9A00" d="M3.476 16.631a.632.632 0 0 1 .373-.024c.123.03.238.087.338.166.191.166.351.365.473.587.32.52.635 1.045.93 1.58.211.41.45.807.714 1.186.182.24.39.472.578.714.195.237.343.508.436.8a1.58 1.58 0 0 1-.12 1.15 1.533 1.533 0 0 1-.581.607c-.247.143-.53.213-.815.2a4.562 4.562 0 0 1-1.291-.4c-.816-.3-1.7-.336-2.538-.568-.3-.082-.593-.19-.894-.266a2.72 2.72 0 0 1-.4-.12.642.642 0 0 1-.314-.256.558.558 0 0 1-.068-.3.923.923 0 0 1 .066-.3c.073-.19.187-.36.26-.556.1-.294.133-.607.1-.916-.02-.308-.074-.614-.094-.924a1.575 1.575 0 0 1 .018-.413.71.71 0 0 1 .185-.36.72.72 0 0 1 .4-.186c.149-.018.3-.018.449 0 .149.018.299.026.449.022a.84.84 0 0 0 .426-.13c.11-.08.2-.185.262-.307.061-.12.114-.245.16-.373.046-.126.106-.247.18-.36a.7.7 0 0 1 .307-.262"></path> <path fill="#FFBD00" d="M3.37 16.338a.582.582 0 0 1 .374-.043.8.8 0 0 1 .338.167c.186.172.335.38.438.61.253.52.533 1.027.84 1.518.232.35.5.676.733 1.024.329.465.561.991.683 1.548a1.7 1.7 0 0 1-.11 1.115c-.123.224-.31.404-.54.517a1.38 1.38 0 0 1-.742.138 4.624 4.624 0 0 1-1.14-.37c-.668-.24-1.391-.3-2.08-.48-.29-.078-.575-.178-.87-.24a2.612 2.612 0 0 1-.385-.094.568.568 0 0 1-.3-.24.48.48 0 0 1-.053-.266.84.84 0 0 1 .07-.265c.072-.169.178-.324.234-.5.067-.263.063-.54-.013-.8a6.328 6.328 0 0 1-.178-.788c-.015-.12-.01-.241.016-.36a.63.63 0 0 1 .17-.313.71.71 0 0 1 .427-.176c.157-.01.315 0 .47.028.154.028.311.042.469.04a.771.771 0 0 0 .44-.145.753.753 0 0 0 .24-.384c.038-.148.063-.3.076-.452.012-.152.046-.302.1-.446a.652.652 0 0 1 .3-.34"></path> <path fill="#FFC000" d="M17.326 17.335a.416.416 0 0 0-.22-.14 1.013 1.013 0 0 0-.295-.036c-.2 0-.4.038-.6.026a4.384 4.384 0 0 1-.492-.085 1.435 1.435 0 0 0-.517-.008.786.786 0 0 0-.438.24.6.6 0 0 0-.143.337c-.009.12-.003.24.018.36.01.086.028.172.054.254.029.09.078.173.143.24.116.106.257.18.41.215.268.07.55.066.817-.01a2.142 2.142 0 0 0 1.08-.72c.083-.11.148-.232.192-.36a.5.5 0 0 0 .031-.153.248.248 0 0 0-.044-.15"></path> <path fill="#000001" d="M17.723 17.12c-.04.158-.11.306-.206.437a2.308 2.308 0 0 1-1.158.871c-.284.093-.59.097-.877.013a.92.92 0 0 1-.439-.26 1.014 1.014 0 0 1-.21-.593 1.7 1.7 0 0 1 .133-.84c.048-.105.11-.203.184-.292a.983.983 0 0 1 .1-.1.954.954 0 0 1 .426-.228 1.44 1.44 0 0 1 .554.011c.176.03.352.071.527.1.188.026.373.072.552.137.088.037.17.088.241.15a.598.598 0 0 1 .161.232.652.652 0 0 1 .014.362h-.002Z"></path> <path fill="#454546" d="M17.592 16.951a.58.58 0 0 1-.18.19 1.51 1.51 0 0 1-.589.217c.046-.04.091-.082.133-.12a.839.839 0 0 0 .14-.174.32.32 0 0 0 .042-.215.3.3 0 0 0-.068-.133.578.578 0 0 0-.114-.1 1.656 1.656 0 0 0-.6-.24c-.138-.03-.28-.048-.419-.066a1.443 1.443 0 0 0-.439-.007.746.746 0 0 0-.15.044l-.03.013h-.01l-.035.017-.04.023-.04.026-.039.03a.866.866 0 0 1 .1-.1.955.955 0 0 1 .426-.229 1.44 1.44 0 0 1 .554.011c.176.03.352.071.527.1.189.026.374.072.552.137.06.025.116.056.168.092l.02.017.028.026a.38.38 0 0 1 .112.184.36.36 0 0 1-.049.257Z"></path> <path fill="#454546" d="M17.592 16.951a.58.58 0 0 1-.18.19 1.51 1.51 0 0 1-.589.217c.046-.04.091-.082.133-.12a.839.839 0 0 0 .14-.174.32.32 0 0 0 .042-.215.3.3 0 0 0-.068-.133.578.578 0 0 0-.114-.1 1.656 1.656 0 0 0-.6-.24c-.138-.03-.28-.048-.419-.066a1.443 1.443 0 0 0-.439-.007.746.746 0 0 0-.15.044l-.03.013h-.01l-.035.017-.04.023-.04.026-.039.03a.866.866 0 0 1 .1-.1.955.955 0 0 1 .426-.229 1.44 1.44 0 0 1 .554.011c.176.03.352.071.527.1.189.026.374.072.552.137.06.025.116.056.168.092l.02.017.028.026a.38.38 0 0 1 .112.184.36.36 0 0 1-.049.257Z"></path> <path fill="#D4D4D4" d="M7.837 3.714a.45.45 0 0 0-.334.127.61.61 0 0 0-.17.313c-.04.12-.15.222-.157.352-.004.16.001.32.016.48.005.262.051.52.136.768a1 1 0 0 0 .21.33.72.72 0 0 0 .331.2.672.672 0 0 0 .36-.014.784.784 0 0 0 .311-.188c.126-.128.217-.286.263-.46.046-.172.067-.351.061-.53a2.21 2.21 0 0 0-.1-.66 1.6 1.6 0 0 0-.154-.335c-.053-.085-.173-.088-.24-.16-.067-.072-.168-.07-.264-.12a.484.484 0 0 0-.264-.1"></path> <path fill="#000001" d="M7.506 4.778c-.036.182-.025.37.031.545a.91.91 0 0 0 .192.307c.053.06.117.11.188.148a.348.348 0 0 0 .232.03.342.342 0 0 0 .18-.12.59.59 0 0 0 .1-.2c.06-.21.057-.432-.01-.64a.84.84 0 0 0-.24-.4.487.487 0 0 0-.2-.1.346.346 0 0 0-.222.018.381.381 0 0 0-.174.175.8.8 0 0 0-.072.24"></path> <path fill="#000001" d="M7.891 4.652c.02.052.085.07.12.112a.465.465 0 0 1 .091.131c.037.095-.036.24.041.3a.08.08 0 0 0 .1 0c.092-.084.072-.254.035-.373a.452.452 0 0 0-.216-.263c-.047-.024-.12-.043-.157-.01a.1.1 0 0 0-.01.1l-.004.003Z"></path> <path fill="#7E7E7E" d="M8.609 4.091a2.37 2.37 0 0 0-.334-.058 1.207 1.207 0 0 0-.732.136 1.51 1.51 0 0 0-.366.336c.004-.128.026-.255.065-.378a.882.882 0 0 1 .224-.36.625.625 0 0 1 .388-.173.634.634 0 0 1 .313.068 1 1 0 0 1 .259.193c.07.072.13.151.183.236Z"></path> <path fill="#D4D4D4" d="M10.505 3.798c-.21.145-.594.374-.594.374l-.017.044c-.1.332-.086.688.041 1.01.105.34.315.637.6.85.145.101.312.166.487.188a.89.89 0 0 0 .512-.089.988.988 0 0 0 .425-.467 1.71 1.71 0 0 0 .14-.624 2.24 2.24 0 0 0-.037-.572c-.016-.08-.12-.139-.15-.216-.1-.28-.289-.326-.539-.488a.84.84 0 0 0-.372-.149.442.442 0 0 0-.307.037.765.765 0 0 0-.186.1"></path> <path fill="#000001" d="M10.917 4.27a.521.521 0 0 0-.24.08.628.628 0 0 0-.181.175.91.91 0 0 0-.145.48 1 1 0 0 0 .052.376c.04.122.114.23.211.312a.6.6 0 0 0 .928-.199.86.86 0 0 0 .09-.3.912.912 0 0 0-.085-.534.749.749 0 0 0-.4-.36.563.563 0 0 0-.233-.036"></path> <path fill="#0C0C0B" d="M11.119 4.823c-.07.028-.181.011-.211.08a.1.1 0 0 0 .049.12.215.215 0 0 0 .246-.113.094.094 0 0 0-.043-.109c-.013 0-.027.017-.041.022Z"></path> <path fill="#3A3A3B" d="M11.44 5.004c.094-.094-.067-.342-.192-.444-.091-.073-.36-.15-.343-.07.017.08.13.183.21.261.097.096.28.298.325.253Z"></path> <path fill="#7E7E7E" d="M12.06 4.516c-.117-.1-.24-.193-.368-.28a1.811 1.811 0 0 0-1.484-.184 1.843 1.843 0 0 0-.3.12c.137-.317.391-.569.71-.702.14-.053.29-.07.437-.049.148.022.289.075.413.156.247.17.43.416.523.7.027.078.049.157.065.238l.004.001Z"></path> <path fill="#5C5C5C" d="M8.532 5.49c.143-.162.24-.36.378-.523a.9.9 0 0 1 .24-.21.535.535 0 0 1 .308-.075c.12.014.231.067.318.151a.97.97 0 0 1 .2.293c.042.106.095.207.16.3.082.091.176.172.278.24a.781.781 0 0 1 .132.126.39.39 0 0 1 .08.163.341.341 0 0 1-.014.184.41.41 0 0 1-.1.154.6.6 0 0 1-.334.15 6.612 6.612 0 0 1-.742-.03c-.251.006-.5.1-.748.085a.665.665 0 0 1-.36-.107.45.45 0 0 1-.128-.136.371.371 0 0 1-.018-.352.654.654 0 0 1 .1-.15c.076-.093.169-.17.248-.26"></path> <path fill="#A56201" d="M7.17 7.04a.222.222 0 0 0 .025.067.312.312 0 0 0 .086.09c.034.025.071.046.106.067.186.125.348.28.48.461.162.252.36.477.59.67.174.12.377.192.588.211.248.02.497-.01.733-.085.221-.063.433-.156.63-.276a6.568 6.568 0 0 1 1.091-.72c.092-.028.182-.06.27-.1a.423.423 0 0 0 .208-.187.9.9 0 0 0 .05-.269c.013-.1.044-.19.061-.287a.481.481 0 0 0-.023-.288.372.372 0 0 0-.169-.168.577.577 0 0 0-.24-.058 3.49 3.49 0 0 0-.48.048c-.214.02-.43-.008-.644 0-.268.008-.53.068-.8.082-.3.014-.608-.032-.913-.044a1.888 1.888 0 0 0-.4.018.917.917 0 0 0-.367.142 3.5 3.5 0 0 0-.288.257.736.736 0 0 1-.158.11.41.41 0 0 1-.186.043.3.3 0 0 0-.1 0 .134.134 0 0 0-.052.032.852.852 0 0 0-.108.168"></path> <path fill="#E6B300" d="M8.368 7.363a.535.535 0 0 0 .352.634.637.637 0 0 0 .49-.05.534.534 0 0 0 .216-.193.36.36 0 0 0 .049-.137.3.3 0 0 0-.014-.144.313.313 0 0 0-.092-.128.42.42 0 0 0-.14-.077.875.875 0 0 0-.318-.029 3.139 3.139 0 0 0-.48.061"></path> <path fill="#694200" d="M7.84 6.363a4.063 4.063 0 0 0-.314.208.385.385 0 0 0-.136.137.323.323 0 0 0-.025.134 1.06 1.06 0 0 1 0 .138c0 .03-.012.062-.014.094a.151.151 0 0 0 0 .047.1.1 0 0 0 .023.04.12.12 0 0 0 .053.031c.117.02.225.075.31.158.072.065.138.138.214.2a1.2 1.2 0 0 0 .74.24c.265-.005.528-.041.784-.109.204-.042.404-.097.6-.166.3-.11.577-.276.817-.486.104-.1.216-.192.334-.276.108-.068.23-.113.34-.178a.206.206 0 0 0 .03-.02.081.081 0 0 0 .021-.025.08.08 0 0 0 0-.058.153.153 0 0 0-.029-.052.348.348 0 0 0-.046-.047.73.73 0 0 0-.422-.146 4.086 4.086 0 0 1-.454-.03c-.14-.03-.276-.07-.409-.119a2.88 2.88 0 0 0-1.485-.08c-.328.068-.643.19-.932.36"></path> <path fill="#BE7901" d="M7.806 5.996a1.92 1.92 0 0 0-.415.378.9.9 0 0 0-.163.276 2.073 2.073 0 0 0-.066.341c0 .016.002.033.007.048a.103.103 0 0 0 .024.04c.02.019.044.03.07.035a.73.73 0 0 1 .401.148c.1.067.187.145.287.21a1.5 1.5 0 0 0 .745.211c.262.004.523-.023.778-.08a3.5 3.5 0 0 0 .6-.166c.293-.125.567-.289.817-.486.117-.085.229-.177.334-.276.035-.034.07-.07.107-.1a.39.39 0 0 1 .126-.073.473.473 0 0 1 .222 0c.055.012.111.02.168.02a.248.248 0 0 0 .083-.018.169.169 0 0 0 .068-.048.163.163 0 0 0 .036-.1.21.21 0 0 0-.03-.106.36.36 0 0 0-.17-.137 1.68 1.68 0 0 0-.292-.085 4.177 4.177 0 0 1-.876-.319c-.139-.068-.274-.145-.409-.218a2.411 2.411 0 0 0-.436-.193 1.711 1.711 0 0 0-1.049.047 2.24 2.24 0 0 0-.967.661"></path> <path fill="#FFDA37" d="M10.198 6.072a.145.145 0 0 0-.073-.048.2.2 0 0 0-.088 0 .41.41 0 0 0-.158.074 1.8 1.8 0 0 0-.366.342c-.149.167-.252.37-.3.588a.376.376 0 0 0-.006.112c.004.038.02.073.046.1a.154.154 0 0 0 .088.042c.034.005.068 0 .1-.01a.49.49 0 0 0 .163-.11 1.92 1.92 0 0 0 .61-.877.39.39 0 0 0 .019-.107.166.166 0 0 0-.032-.1"></path> <path fill="#B88901" d="M9.553 5.572c.019.06.12.05.172.08.052.028.089.08.144.081.055.002.134-.018.142-.07.008-.054-.091-.114-.156-.139a.331.331 0 0 0-.27 0c-.017.01-.036.034-.03.053l-.002-.005Zm-.923-.035c-.072-.023-.191.1-.151.168.01.018.043.041.065.03.022-.013.06-.084.1-.11a.052.052 0 0 0-.014-.088Z"></path> <path fill="#EB9B01" d="M12.06 6.484a.3.3 0 0 1-.263.286c-.127 0-.216-.128-.2-.286a.3.3 0 0 1 .263-.286c.123-.005.212.128.2.286Z"></path> </g> <defs> <clipPath id="a"> <path fill="#fff" d="M0 0h21v24H0z"></path> </clipPath> </defs> </symbol> <symbol xmlns="http://www.w3.org/2000/svg" fill="currentColor" viewBox="0 0 36 24" id="myob-solid"> <path fill="#80039A" fill-rule="evenodd" d="M18.016 3.32A9.405 9.405 0 0 0 10.557.005C4.141.004 0 4.502 0 10.455V24h1.958c1.33-.081 3.957-.74 4.048-4.623V10.32a4.3 4.3 0 0 1 4.548-4.455c3.96 0 4.367 3.136 4.367 4.454V24h1.96c1.326-.081 3.94-.738 4.047-4.578v-9.099a4.321 4.321 0 0 1 4.548-4.454c3.96 0 4.416 3.136 4.416 4.454V24h1.951c1.341-.083 3.99-.747 4.052-4.683v-8.861C35.895 4.32 32.029.004 25.476.004a9.75 9.75 0 0 0-7.46 3.317Z" clip-rule="evenodd"></path> </symbol> <symbol xmlns="http://www.w3.org/2000/svg" fill="currentColor" viewBox="0 0 21 24" id="lucidchart"> <path fill="#F96B13" d="M0 6.003v11.998l10.22 6v-3l-7.664-4.506V7.497L0 6.003Z"></path> <path fill="#CC4E00" d="M17.886 7.5v11.998l2.556-1.5V6l-2.556 1.5Z"></path> <path fill="#FFCA73" d="m7.666 1.5 10.22 5.999 2.553-1.5L10.22 0 7.666 1.5ZM0 6.004l2.556 1.5 2.556-1.5-2.556-1.506L0 6.004Z"></path> <path fill="#CC4E00" d="M2.556 7.5v8.998l2.555-1.5V6L2.556 7.5Zm7.664 13.503v2.994l2.556-1.5v-3l-2.556 1.506Z"></path> <path fill="#FFCA73" d="m2.556 16.496 7.665 4.508 2.558-1.506-7.666-4.5-2.557 1.498Z"></path> <path fill="#F96B13" d="M7.666 1.497v3l7.665 4.498V18l2.556 1.5V7.502L7.666 1.497Z"></path> </symbol> <symbol xmlns="http://www.w3.org/2000/svg" fill="currentColor" viewBox="0 0 25 24" id="mermaidjs"> <g clip-path="url(#a)"> <mask id="b" width="25" height="24" x="0" y="0" maskUnits="userSpaceOnUse"> <path fill="#fff" d="M0 0h25v24H0V0Z"></path> </mask> <g mask="url(#b)"> <path fill="#FF3670" d="M24.493 4.143A4.145 4.145 0 0 0 20.35 0H4.636A4.145 4.145 0 0 0 .493 4.143v15.714A4.145 4.145 0 0 0 4.636 24H20.35a4.145 4.145 0 0 0 4.143-4.137V4.143Z"></path> <path fill="#fff" d="M20.445 5.444a8.107 8.107 0 0 0-7.952 5.328A8.107 8.107 0 0 0 4.54 5.444a8.11 8.11 0 0 0 3.528 7.033 4.353 4.353 0 0 1 1.887 3.6v2.49h5.074v-2.49a4.35 4.35 0 0 1 1.886-3.6 8.104 8.104 0 0 0 3.53-7.033Z"></path> </g> </g> <defs> <clipPath id="a"> <path fill="#fff" d="M0 0h25v24H0z"></path> </clipPath> </defs> </symbol> <symbol xmlns="http://www.w3.org/2000/svg" fill="currentColor" viewBox="0 0 36 24" id="moodle"> <path fill="#F98012" d="M29.538 24V12.958c0-2.308-.952-3.462-2.856-3.463-1.904 0-2.858 1.154-2.862 3.463V24h-5.624V12.958c0-2.308-.937-3.462-2.812-3.463-1.907 0-2.86 1.154-2.856 3.463V24H6.902V12.307a6.375 6.375 0 0 1 2.509-5.47 9.73 9.73 0 0 1 5.973-1.657c2.544 0 4.418.652 5.622 1.957 1.037-1.305 2.928-1.957 5.673-1.957a9.722 9.722 0 0 1 5.971 1.657 6.376 6.376 0 0 1 2.51 5.47V24h-5.622Z"></path> <path fill="#333" d="m17.822 4.329 5.583-4.08L23.334 0C13.259 1.24 8.678 2.11 0 7.14l.081.228.689.007a35.377 35.377 0 0 0-.033 4.993c-.963 2.786-.024 4.679.857 6.739a20.138 20.138 0 0 0-.532-6.822A34.26 34.26 0 0 1 1.1 7.379l5.752.055a26.315 26.315 0 0 0 .17 3.372 10.726 10.726 0 0 0 13.055-4.459 21.99 21.99 0 0 0-2.255-2.018Z"></path> </symbol> <symbol xmlns="http://www.w3.org/2000/svg" fill="currentColor" viewBox="0 0 25 24" id="mongodb"> <g clip-path="url(#a)"> <mask id="b" width="25" height="24" x="0" y="0" maskUnits="userSpaceOnUse"> <path fill="#fff" d="M0 0h25v24H0V0Z"></path> </mask> <g mask="url(#b)"> <path fill="#001E2B" d="M12.493 24c6.627 0 12-5.373 12-12s-5.373-12-12-12c-6.628 0-12 5.373-12 12s5.372 12 12 12Z"></path> <path fill="#CFD2AA" d="m13.433 22-.536-.178s.068-2.715-.911-2.9c-.646-.748.1-31.958 2.445-.107-.447.226-.79.615-.955 1.088a10.07 10.07 0 0 0-.043 2.1"></path> <path fill="#5EBC44" d="M12.624 19.55s-4.372-2.983-4.121-8.246a11.1 11.1 0 0 1 3.94-8.32 1.23 1.23 0 0 0 .436-.983c.273.585.227 8.745.256 9.7a31.083 31.083 0 0 1-.512 7.851"></path> <path fill="#3D9439" d="M13.726 19.383a9.445 9.445 0 0 0 3.569-9.446c-1.052-4.632-3.535-6.155-3.8-6.737a7.004 7.004 0 0 1-.59-1.141l.2 12.907s-.41 3.941.624 4.416"></path> </g> </g> <defs> <clipPath id="a"> <path fill="#fff" d="M0 0h25v24H0z"></path> </clipPath> </defs> </symbol> <symbol xmlns="http://www.w3.org/2000/svg" fill="currentColor" viewBox="0 0 25 24" id="naykel"> <g clip-path="url(#a)"> <mask id="b" width="25" height="24" x="0" y="0" maskUnits="userSpaceOnUse"> <path fill="#fff" d="M0 0h25v24H0V0Z"></path> </mask> <g mask="url(#b)"> <path fill="#13365B" d="m6.627 24 10.244-2.7H3.68c-.281 0-.505-.3-.505-.674V9.272l5.209 11.355h2.672V3.372c0-.372.226-.674.508-.674h6.32L12.925 0h-2.5C9.297 0 8.392 1.208 8.392 2.7v12.05L3.172 3.372H.498V21.3c0 1.49.908 2.7 2.029 2.7h4.1Z"></path> <path fill="#D72538" d="m15.397 13.708-1.31 1.992v4.93h-2.52V3.372h2.52v7.82l1.116-2.147 3.12-5.676h3.1l-4.348 7.668 4.472 9.589h-3l-3.144-6.92"></path> <path fill="#D72538" d="M22.467 0h-9.542l4.958 2.7h3.449a.607.607 0 0 1 .51.673v17.26a.61.61 0 0 1-.506.674H16.87L6.627 24h15.84c1.122 0 2.03-1.21 2.03-2.7V2.7c0-1.492-.908-2.7-2.03-2.7Z"></path> </g> </g> <defs> <clipPath id="a"> <path fill="#fff" d="M0 0h25v24H0z"></path> </clipPath> </defs> </symbol> <symbol xmlns="http://www.w3.org/2000/svg" fill="currentColor" viewBox="0 0 25 24" id="mysql"> <g clip-path="url(#a)"> <mask id="b" width="25" height="24" x="0" y="0" maskUnits="userSpaceOnUse"> <path fill="#fff" d="M0 0h25v24H0V0Z"></path> </mask> <g mask="url(#b)"> <path fill="#00758F" fill-rule="evenodd" d="M5.947 4.109a2.56 2.56 0 0 0-.67.083v.027h.032c.157.24.331.468.522.682.132.267.24.532.376.8l.032-.033a.942.942 0 0 0 .344-.831 3.753 3.753 0 0 1-.2-.35c-.1-.166-.31-.245-.442-.383" clip-rule="evenodd"></path> <path fill="#00758F" fill-rule="evenodd" d="M22.6 18.561a7.421 7.421 0 0 0-3.166.466c-.24.1-.636.1-.67.416.132.133.148.348.263.533.222.385.509.728.848 1.015.343.267.685.532 1.045.764.636.4 1.355.632 1.973 1.032.36.232.72.532 1.08.781.18.133.294.35.523.432v-.05c-.12-.149-.148-.367-.26-.533-.163-.165-.326-.315-.49-.482a7.853 7.853 0 0 0-1.7-1.679c-.523-.367-1.666-.866-1.877-1.479l-.034-.034c.383-.055.76-.145 1.127-.268.554-.149 1.06-.116 1.631-.265.262-.067.523-.15.785-.232v-.152c-.3-.3-.506-.7-.817-.978a21.904 21.904 0 0 0-2.687-2.05c-.506-.334-1.16-.549-1.7-.832-.194-.1-.521-.149-.636-.317a6.716 6.716 0 0 1-.666-1.28 41.264 41.264 0 0 1-1.338-2.893 17.943 17.943 0 0 0-.833-1.9 16.6 16.6 0 0 0-6.322-6.213 7.72 7.72 0 0 0-2.085-.682c-.409-.017-.816-.05-1.224-.066a6.527 6.527 0 0 1-.75-.583C3.68.434 1.283-.858.594.853c-.438 1.082.655 2.145 1.03 2.69a7.8 7.8 0 0 1 .833 1.247c.12.282.148.583.262.882.237.758.52 1.501.846 2.226.174.358.375.703.6 1.03.132.186.36.268.41.567a4.855 4.855 0 0 0-.382 1.247 7.45 7.45 0 0 0 .474 5.586c.26.416.882 1.33 1.715.978.734-.3.571-1.247.784-2.078.05-.2.016-.333.114-.466v.035c.228.465.457.913.67 1.38a9.41 9.41 0 0 0 2.123 2.23c.391.3.7.815 1.19 1v-.05h-.03a1.816 1.816 0 0 0-.376-.333 8.123 8.123 0 0 1-.85-1c-.69-.957-1.3-1.969-1.822-3.027-.262-.517-.49-1.082-.7-1.6-.1-.2-.1-.5-.262-.6a6.238 6.238 0 0 0-.782 1.13 9.57 9.57 0 0 0-.457 2.512c-.065.017-.032 0-.065.033-.522-.133-.7-.68-.9-1.146a7.325 7.325 0 0 1-.146-4.441c.114-.348.6-1.446.408-1.78-.1-.317-.425-.5-.6-.748a6.62 6.62 0 0 1-.588-1.06c-.392-.931-.589-1.955-1.012-2.893a8.9 8.9 0 0 0-.815-1.28 8.235 8.235 0 0 1-.9-1.3c-.083-.176-.2-.482-.072-.673a.264.264 0 0 1 .229-.216c.21-.182.816.05 1.027.15a8.235 8.235 0 0 1 1.614.83c.23.166.474.483.767.566h.343c.522.115 1.11.032 1.6.182.829.282 1.619.667 2.35 1.147a14.66 14.66 0 0 1 5.1 5.688c.2.38.278.734.457 1.13.343.817.768 1.648 1.11 2.444.3.784.688 1.53 1.157 2.225.24.348 1.224.532 1.664.715.383.135.76.29 1.127.465.556.348 1.109.748 1.632 1.132.26.2 1.08.611 1.126.948" clip-rule="evenodd"></path> </g> </g> <defs> <clipPath id="a"> <path fill="#fff" d="M0 0h25v24H0z"></path> </clipPath> </defs> </symbol> <symbol xmlns="http://www.w3.org/2000/svg" fill="currentColor" viewBox="0 0 24 24" id="nbw"> <g clip-path="url(#a)"> <mask id="b" width="24" height="24" x="0" y="0" maskUnits="userSpaceOnUse"> <path fill="#fff" d="M0 0h24v24H0V0Z"></path> </mask> <g mask="url(#b)"> <path fill="#252425" d="M11.997 24 .477 18V6l11.52-6 11.52 6v12l-11.52 6Z"></path> <path fill="#F9E24F" d="m6.389 16.411 1.5-8.824a3.488 3.488 0 0 0-.255-1.8h3.571l3.508 6.816.864-5.016a3.672 3.672 0 0 0-.236-1.8h3.107a4.254 4.254 0 0 0-.845 1.8l-1.5 8.824a3.269 3.269 0 0 0 .254 1.8H13.74L9.516 9.763l-1.118 6.648a3.264 3.264 0 0 0 .25 1.8H5.544a4.58 4.58 0 0 0 .844-1.8Zm-.211-10.47c1.444-1.504 3.375-2.396 5.415-2.5a8.016 8.016 0 0 1 5.625 1.938h-1.066a7.386 7.386 0 0 0-4.163-1.287c-1.014 0-2.019.21-2.954.618-.42.188-.823.412-1.205.669a.706.706 0 0 0-.407.065.384.384 0 0 0-.144.164.404.404 0 0 0-.035.218c-1.537 1.28-2.536 3.132-2.786 5.166a8.145 8.145 0 0 0 1.445 5.73l-.02.061-.31.572a8.808 8.808 0 0 1-1.792-5.827 8.735 8.735 0 0 1 2.397-5.586Zm13.4 2.725a8.892 8.892 0 0 1 .496 4.976 8.678 8.678 0 0 1-2.26 4.415 8.019 8.019 0 0 1-2.614 1.836 7.912 7.912 0 0 1-3.202.679c-1.1 0-2.19-.231-3.203-.679a7.935 7.935 0 0 1-2.026-1.274h1.066a7.4 7.4 0 0 0 4.161 1.289 7.398 7.398 0 0 0 4.162-1.289.69.69 0 0 0 .42-.075.41.41 0 0 0 .13-.163.428.428 0 0 0 .034-.209 7.97 7.97 0 0 0 2.612-4.233 8.24 8.24 0 0 0-.36-5.018 7.858 7.858 0 0 0-.91-1.655l.019-.056.045-.117.045-.112.048-.107.144-.279c.492.63.895 1.327 1.195 2.068l-.003.003Z"></path> </g> </g> <defs> <clipPath id="a"> <path fill="#fff" d="M0 0h24v24H0z"></path> </clipPath> </defs> </symbol> </svg>