<svg xmlns="http://www.w3.org/2000/svg" xmlns:xlink="http://www.w3.org/1999/xlink" width="112.419" height="40" viewBox="0 0 112.419 40"> <defs> <radialGradient id="radial-gradient" cx="0.5" cy="0.5" r="0.5" gradientUnits="objectBoundingBox"> <stop offset="0" stop-color="#fef2a9"/> <stop offset="0.594" stop-color="#fbe76b"/> <stop offset="1" stop-color="#f9e040"/> </radialGradient> </defs> <g id="logo" transform="translate(0 0.001)"> <path id="Path_39819" data-name="Path 39819" d="M135.936,48.793c5.337,0,8.776.163,13.2.163,6,0,12.932-1.7,14.168-8.69.564-3.331-1.595-5.739-4.372-6.563a8.116,8.116,0,0,0,5.088-6.162c.716-4-1.074-7.909-9.7-7.909-4.057,0-9.243.152-13.3.152a7.843,7.843,0,0,1,.618,4.21L138,44.583A10.375,10.375,0,0,1,135.936,48.793Zm12.378-13.507c3.439,0,7.138.369,6.314,4.882C153.858,44.625,150.1,45,146.622,45Zm4.254-11.706c3.4,0,3.959,1.91,3.6,3.8-.618,3.656-4.307,4.263-7.236,4.263l1.377-7.746A7.308,7.308,0,0,1,152.568,23.58Z" transform="translate(-96.975 -14.295)" fill="url(#radial-gradient)"/> <path id="Path_39820" data-name="Path 39820" d="M270.493,49.2a8.855,8.855,0,0,1,1.335-4.209L282.611,24.4a16.082,16.082,0,0,1,3.493-4.209h-7.562a7.939,7.939,0,0,1-.868,4.209L270.525,38l-.965,2.311L269.408,38,267.1,24.4a7.147,7.147,0,0,1,.716-4.209H257.138a12.3,12.3,0,0,1,1.291,4.209l1.334,7.963L256.824,38l-.976,2.311L255.76,38l-2.376-13.6a9.831,9.831,0,0,1,.109-4.209H242.666a10.724,10.724,0,0,1,2.062,4.209l3.536,20.591a9.269,9.269,0,0,1-.173,4.209h8.69c-.109-2.1,3.178-8.169,4.22-10.414.436,2.506,1.628,7.952.8,10.414Z" transform="translate(-173.685 -14.7)" fill="url(#radial-gradient)"/> <path id="Path_39821" data-name="Path 39821" d="M6.368,30.288,10.013,9.7a7.842,7.842,0,0,0-.618-4.209h8.68L26.6,21.4,28.707,9.7a8.258,8.258,0,0,0-.575-4.209h7.551A9.76,9.76,0,0,0,33.632,9.7L29.984,30.288A7.346,7.346,0,0,0,30.6,34.5H24.236L13.962,14.785l-2.712,15.5a7.341,7.341,0,0,0,.607,4.209H4.317A10.491,10.491,0,0,0,6.368,30.288ZM5.858,5.858A20,20,0,0,1,32.7,4.544H30.115a19.433,19.433,0,0,0-2.94-1.562,18.6,18.6,0,0,0-14.363,0A19.852,19.852,0,0,0,9.883,4.544a1.777,1.777,0,0,0-.989.152.91.91,0,0,0-.435.892A19.889,19.889,0,0,0,6.94,6.944,18.432,18.432,0,0,0,5.187,31.015l-.044.141-.759,1.334A19.993,19.993,0,0,1,5.858,5.858c5.756-5.754-3.754,3.746,0,0C11.615.1,2.1,9.6,5.858,5.858Zm32.567,6.357A19.974,19.974,0,0,1,34.141,34.13a19.516,19.516,0,0,1-6.357,4.285,19.918,19.918,0,0,1-15.568,0A19.426,19.426,0,0,1,7.29,35.443H9.883A18.935,18.935,0,0,0,12.813,37a18.513,18.513,0,0,0,17.3-1.562,1.741,1.741,0,0,0,1.021-.174.961.961,0,0,0,.4-.868,17.683,17.683,0,0,0,1.508-1.356,18.507,18.507,0,0,0,3.96-20.233,18.118,18.118,0,0,0-2.213-3.861l.044-.131.109-.272.109-.26.119-.25.347-.651a19.987,19.987,0,0,1,2.905,4.827Z" transform="translate(0 0)" fill="url(#radial-gradient)"/> </g> </svg>
