<svg xmlns="http://www.w3.org/2000/svg" xmlns:xlink="http://www.w3.org/1999/xlink" width="100" height="100" viewBox="0 0 100 100"> <defs> <linearGradient id="linear-gradient" x1="-0.042" y1="0.411" x2="0.948" y2="0.411" gradientUnits="objectBoundingBox"> <stop offset="0" stop-color="#ffe815"/> <stop offset="1" stop-color="#8abb2a"/> </linearGradient> <linearGradient id="linear-gradient-2" x1="0.022" y1="0.429" x2="1.063" y2="0.429" xlink:href="#linear-gradient"/> <linearGradient id="linear-gradient-3" x1="0.071" y1="0.466" x2="1.049" y2="0.466" xlink:href="#linear-gradient"/> <linearGradient id="linear-gradient-4" x1="-0.045" y1="0.524" x2="0.933" y2="0.524" xlink:href="#linear-gradient"/> <linearGradient id="linear-gradient-5" x1="-0.057" y1="0.563" x2="0.985" y2="0.563" xlink:href="#linear-gradient"/> <linearGradient id="linear-gradient-6" x1="0.057" y1="0.578" x2="1.048" y2="0.578" xlink:href="#linear-gradient"/> </defs> <g id="Group_174347" data-name="Group 174347" transform="translate(-185.56 -60.246)"> <path id="Path_38751" data-name="Path 38751" d="M235.56,160.246l-50-25v-50l50-25,50,25v50Z" transform="translate(0 0)" fill="#252425"/> <g id="Group_174342" data-name="Group 174342" transform="translate(193.893 68.579)"> <path id="Path_38752" data-name="Path 38752" d="M382,152.161a11.8,11.8,0,0,0-1.334-2.605,7.773,7.773,0,0,0-6.064-3.335c-.441-.037-.911-.049-1.389-.041a34.918,34.918,0,0,0-6.339.993c-.725.165-1.446.325-2.164.463a16.546,16.546,0,0,1-4.275.4c-.165-.014-.339-.032-.5-.06-2.8-.464-4.178-2.9-5.76-5.722a23.751,23.751,0,0,0-4.421-6.134c.152-.467.3-.944.44-1.424a23.108,23.108,0,0,1,1.94-4.9,5.637,5.637,0,0,1,5.213-2.965,11.022,11.022,0,0,1,1.117.041,24.415,24.415,0,0,1,4.9,1.041c2.439.737,5.09,1.766,7.653,2.76,4.358,1.695,8.481,3.294,11.685,3.562a7.356,7.356,0,0,0,3.311-.366A114.756,114.756,0,0,1,382,152.161" transform="translate(-303.359 -112.972)" stroke="#fff" stroke-miterlimit="10" stroke-width="0.25" fill="url(#linear-gradient)"/> <path id="Path_38753" data-name="Path 38753" d="M384.936,223.658a11.773,11.773,0,0,0,1.92-2.321c1.49-2.38,1.334-4.754-.466-7.251a28.593,28.593,0,0,0-4.236-4.307c-.526-.471-1.057-.938-1.557-1.41a11.574,11.574,0,0,1-2.816-3.475c-.962-2.321.738-4.525,2.7-7.073a21.661,21.661,0,0,0,3.81-6.352c.529-.109,1.069-.229,1.608-.351a33.093,33.093,0,0,1,5.892-.943,11.385,11.385,0,0,1,1.154.036,5.7,5.7,0,0,1,4.5,2.48,14.78,14.78,0,0,1,1.984,5.046c.522,2.207.861,4.708,1.194,7.126.782,5.658,1.517,11.026,4.567,12.914a162.208,162.208,0,0,1-20.254,5.882" transform="translate(-321.857 -155.197)" stroke="#fff" stroke-miterlimit="10" stroke-width="0.25" fill="url(#linear-gradient-2)"/> <path id="Path_38754" data-name="Path 38754" d="M305.122,278.109A151.7,151.7,0,0,1,288.969,265.7a18.411,18.411,0,0,0,1.918.267,12.365,12.365,0,0,0,1.358.045,7.681,7.681,0,0,0,6.949-3.887,24.116,24.116,0,0,0,2.108-5.288c.192-.625.383-1.249.587-1.854a10.534,10.534,0,0,1,2.005-3.8c1.787-1.913,4.714-1.706,8.4-1.446a30.1,30.1,0,0,0,8.228-.2c.385.346.779.693,1.168,1.039a27.374,27.374,0,0,1,3.963,4.013c1.408,1.951,1.536,3.638.4,5.458a16.006,16.006,0,0,1-4.008,4c-1.916,1.468-4.223,2.942-6.454,4.364-5.2,3.331-10.147,6.489-10.467,9.7" transform="translate(-262.833 -194.776)" stroke="#fff" stroke-miterlimit="10" stroke-width="0.25" fill="url(#linear-gradient-3)"/> <path id="Path_38755" data-name="Path 38755" d="M274.908,113.814l-1.178-1.057a27.124,27.124,0,0,1-3.956-4c-1.406-1.951-1.523-3.63-.39-5.458a16.282,16.282,0,0,1,4.009-4c1.918-1.466,4.227-2.944,6.465-4.372,5.194-3.318,10.118-6.472,10.454-9.683a151.59,151.59,0,0,1,16.153,12.41,19.158,19.158,0,0,0-1.917-.264c-.471-.039-.929-.058-1.366-.051a7.656,7.656,0,0,0-6.939,3.9,23.963,23.963,0,0,0-2.1,5.267c-.2.635-.388,1.262-.6,1.872a10.618,10.618,0,0,1-2,3.8c-1.8,1.909-4.716,1.7-8.41,1.443a30.18,30.18,0,0,0-8.226.2" transform="translate(-249.265 -85.246)" stroke="#fff" stroke-miterlimit="10" stroke-width="0.25" fill="url(#linear-gradient-4)"/> <path id="Path_38756" data-name="Path 38756" d="M222.8,163.306a5.654,5.654,0,0,1-4.488-2.476,14.742,14.742,0,0,1-2-5.051c-.518-2.2-.859-4.7-1.188-7.11-.785-5.666-1.52-11.042-4.569-12.926a163.081,163.081,0,0,1,20.255-5.882,12.567,12.567,0,0,0-1.92,2.323c-1.478,2.38-1.338,4.752.462,7.238a28.266,28.266,0,0,0,4.237,4.318c.528.466,1.057.937,1.555,1.4a11.52,11.52,0,0,1,2.814,3.474c.967,2.332-.734,4.533-2.7,7.09a21.488,21.488,0,0,0-3.8,6.341c-.523.115-1.057.234-1.6.349a32.8,32.8,0,0,1-5.908.943,10.994,10.994,0,0,1-1.154-.034" transform="translate(-210.56 -114.989)" stroke="#fff" stroke-miterlimit="10" stroke-width="0.25" fill="url(#linear-gradient-5)"/> <path id="Path_38757" data-name="Path 38757" d="M240.148,242.96a24.759,24.759,0,0,1-4.9-1.033c-2.436-.738-5.083-1.771-7.65-2.763-4.358-1.7-8.483-3.3-11.686-3.564a7.241,7.241,0,0,0-3.308.372,115.748,115.748,0,0,1,4-18.291,12.4,12.4,0,0,0,1.35,2.6A7.724,7.724,0,0,0,224,223.622a13,13,0,0,0,1.408.039,34.18,34.18,0,0,0,6.34-1c.723-.162,1.438-.321,2.147-.457a16.307,16.307,0,0,1,4.272-.407c.178.015.343.035.5.062,2.806.46,4.18,2.9,5.77,5.721a23.538,23.538,0,0,0,4.429,6.14c-.159.452-.3.911-.442,1.372a22.65,22.65,0,0,1-1.95,4.944A5.618,5.618,0,0,1,241.265,243a11.024,11.024,0,0,1-1.117-.042" transform="translate(-211.921 -173.536)" stroke="#fff" stroke-miterlimit="10" stroke-width="0.25" fill="url(#linear-gradient-6)"/> </g> </g> </svg>
