<svg xmlns="http://www.w3.org/2000/svg" xmlns:xlink="http://www.w3.org/1999/xlink" width="40" height="39.997" viewBox="0 0 40 39.997"> <defs> <radialGradient id="radial-gradient" cx="0.5" cy="0.5" r="0.5" gradientUnits="objectBoundingBox"> <stop offset="0" stop-color="#fef2a9"/> <stop offset="0.594" stop-color="#fbe76b"/> <stop offset="1" stop-color="#f9e040"/> </radialGradient> </defs> <g id="Group_174587" data-name="Group 174587" transform="translate(-119 -235)"> <path id="Path_38751" data-name="Path 38751" d="M205.56,100.243l-20-10v-20l20-10,20,10v20Z" transform="translate(-66.56 174.754)" fill="#252425"/> <g id="logo" transform="translate(124.714 240.714)"> <path id="Path_39821" data-name="Path 39821" d="M4.548,21.632l2.6-14.706A5.6,5.6,0,0,0,6.71,3.92h6.2L19,15.287l1.5-8.36a5.9,5.9,0,0,0-.411-3.006h5.393a6.97,6.97,0,0,0-1.464,3.006L21.416,21.632a5.247,5.247,0,0,0,.442,3.006H17.31L9.972,10.559,8.035,21.632a5.243,5.243,0,0,0,.434,3.006H3.083A7.493,7.493,0,0,0,4.548,21.632ZM4.184,4.183a14.281,14.281,0,0,1,19.169-.938H21.509a13.879,13.879,0,0,0-2.1-1.116,13.281,13.281,0,0,0-10.259,0A14.179,14.179,0,0,0,7.059,3.245a1.269,1.269,0,0,0-.706.109.65.65,0,0,0-.311.637,14.2,14.2,0,0,0-1.085.968A13.164,13.164,0,0,0,3.7,22.151l-.031.1-.542.953A14.28,14.28,0,0,1,4.184,4.183c4.111-4.109-2.681,2.675,0,0C8.3.074,1.5,6.859,4.184,4.183Zm23.26,4.54a14.266,14.266,0,0,1-3.061,15.652,13.939,13.939,0,0,1-4.541,3.061,14.226,14.226,0,0,1-11.119,0,13.875,13.875,0,0,1-3.518-2.123H7.059a13.524,13.524,0,0,0,2.092,1.116A13.222,13.222,0,0,0,21.51,25.314a1.243,1.243,0,0,0,.729-.124.687.687,0,0,0,.287-.62A12.63,12.63,0,0,0,23.6,23.6,13.218,13.218,0,0,0,26.43,9.15,12.94,12.94,0,0,0,24.85,6.393l.031-.093.078-.194.078-.186.085-.178.248-.465a14.276,14.276,0,0,1,2.075,3.447Z" transform="translate(0 0.001)" fill="url(#radial-gradient)"/> </g> </g> </svg>
