<svg xmlns="http://www.w3.org/2000/svg" xmlns:xlink="http://www.w3.org/1999/xlink" width="145" height="40" viewBox="0 0 145 40">
  <defs>
    <linearGradient id="linear-gradient" x1="-0.042" y1="0.411" x2="0.948" y2="0.411" gradientUnits="objectBoundingBox">
      <stop offset="0" stop-color="#ffe815"/>
      <stop offset="1" stop-color="#8abb2a"/>
    </linearGradient>
    <linearGradient id="linear-gradient-2" x1="0.022" y1="0.429" x2="1.063" y2="0.429" xlink:href="#linear-gradient"/>
    <linearGradient id="linear-gradient-3" x1="0.071" y1="0.466" x2="1.049" y2="0.466" xlink:href="#linear-gradient"/>
    <linearGradient id="linear-gradient-4" x1="-0.045" y1="0.524" x2="0.933" y2="0.524" xlink:href="#linear-gradient"/>
    <linearGradient id="linear-gradient-5" x1="-0.057" y1="0.563" x2="0.985" y2="0.563" xlink:href="#linear-gradient"/>
    <linearGradient id="linear-gradient-6" x1="0.057" y1="0.578" x2="1.048" y2="0.578" xlink:href="#linear-gradient"/>
  </defs>
  <g id="logo" transform="translate(-998 -545)">
    <path id="nbw" d="M26.183-17.48H19.272L10.151-31.428V-17.48H3.24V-42.445h6.911L19.272-28.32V-42.445h6.911Zm19.61-12.853a6.028,6.028,0,0,1,3.491,2.189,6.124,6.124,0,0,1,1.28,3.849,6.186,6.186,0,0,1-2.14,5.032,9.351,9.351,0,0,1-6.139,1.783H30.006v-25H42a9.318,9.318,0,0,1,5.876,1.66A5.732,5.732,0,0,1,50-36.018a5.918,5.918,0,0,1-1.158,3.725A5.317,5.317,0,0,1,45.793-30.333Zm-8.875-2.154H40.39q2.6,0,2.6-2.189,0-2.26-2.631-2.26H36.917Zm3.894,9.428q2.7,0,2.7-2.26,0-2.331-2.7-2.331H36.917v4.59ZM88.24-42.48l-5.788,25h-8.56L70.454-32.911,67.016-17.48h-8.56l-5.788-25h7.437l2.736,17.02,3.824-17.02h7.542l3.859,17.02L80.8-42.48Z" transform="translate(1054.76 595.48)" fill="#e6e6e6"/>
    <g id="favicon" transform="translate(998 545)">
      <path id="Path_38751" data-name="Path 38751" d="M205.56,100.246l-20-10v-20l20-10,20,10v20Z" transform="translate(-185.56 -60.246)" fill="#252425"/>
      <g id="Group_174342" data-name="Group 174342" transform="translate(3.331 3.332)">
        <path id="Path_38752" data-name="Path 38752" d="M362.652,136.96a4.721,4.721,0,0,0-.534-1.042,3.109,3.109,0,0,0-2.426-1.334c-.176-.015-.364-.02-.556-.016a13.97,13.97,0,0,0-2.536.4c-.29.066-.578.13-.866.185a6.62,6.62,0,0,1-1.71.16c-.066-.006-.136-.013-.2-.024-1.12-.186-1.671-1.16-2.3-2.289a9.5,9.5,0,0,0-1.768-2.454c.061-.187.12-.378.176-.57a9.247,9.247,0,0,1,.776-1.96,2.255,2.255,0,0,1,2.085-1.186,4.415,4.415,0,0,1,.447.016,9.768,9.768,0,0,1,1.96.416c.976.295,2.036.706,3.061,1.1a19.256,19.256,0,0,0,4.674,1.425,2.943,2.943,0,0,0,1.324-.146,45.905,45.905,0,0,1-1.605,7.317" transform="translate(-331.194 -121.283)" fill="url(#linear-gradient)"/>
        <path id="Path_38753" data-name="Path 38753" d="M380.477,203.567a4.708,4.708,0,0,0,.768-.928,2.393,2.393,0,0,0-.186-2.9,11.435,11.435,0,0,0-1.694-1.723c-.21-.188-.423-.375-.623-.564a4.632,4.632,0,0,1-1.126-1.39c-.385-.928.3-1.81,1.08-2.829a8.664,8.664,0,0,0,1.524-2.541c.212-.044.428-.092.643-.14a13.24,13.24,0,0,1,2.357-.377,4.563,4.563,0,0,1,.462.014,2.28,2.28,0,0,1,1.8.992,5.912,5.912,0,0,1,.794,2.018c.209.883.344,1.883.478,2.85.313,2.263.607,4.41,1.827,5.166a64.885,64.885,0,0,1-8.1,2.353" transform="translate(-355.243 -176.182)" fill="url(#linear-gradient-2)"/>
        <path id="Path_38754" data-name="Path 38754" d="M295.43,260.966A60.687,60.687,0,0,1,288.969,256a7.364,7.364,0,0,0,.767.107,4.934,4.934,0,0,0,.543.018,3.072,3.072,0,0,0,2.78-1.555,9.649,9.649,0,0,0,.843-2.115c.077-.25.153-.5.235-.742a4.214,4.214,0,0,1,.8-1.52c.715-.765,1.886-.682,3.36-.578a12.039,12.039,0,0,0,3.291-.08c.154.138.312.277.467.416a10.95,10.95,0,0,1,1.585,1.605,1.767,1.767,0,0,1,.16,2.183,6.4,6.4,0,0,1-1.6,1.6c-.766.587-1.689,1.177-2.582,1.746-2.08,1.332-4.059,2.6-4.187,3.88" transform="translate(-278.513 -227.632)" fill="url(#linear-gradient-3)"/>
        <path id="Path_38755" data-name="Path 38755" d="M271.134,96.672l-.471-.423a10.853,10.853,0,0,1-1.582-1.6,1.769,1.769,0,0,1-.156-2.183,6.514,6.514,0,0,1,1.6-1.6c.767-.586,1.691-1.178,2.586-1.749,2.078-1.327,4.047-2.589,4.182-3.873a60.642,60.642,0,0,1,6.461,4.964,7.666,7.666,0,0,0-.767-.106c-.188-.016-.372-.023-.546-.02a3.062,3.062,0,0,0-2.776,1.56,9.585,9.585,0,0,0-.84,2.107c-.08.254-.155.5-.24.749a4.248,4.248,0,0,1-.8,1.52c-.72.764-1.886.68-3.364.577a12.072,12.072,0,0,0-3.29.08" transform="translate(-260.874 -85.244)" fill="url(#linear-gradient-4)"/>
        <path id="Path_38756" data-name="Path 38756" d="M215.453,143.239a2.262,2.262,0,0,1-1.8-.99,5.9,5.9,0,0,1-.8-2.02c-.207-.88-.344-1.88-.475-2.844-.314-2.266-.608-4.417-1.828-5.17a65.232,65.232,0,0,1,8.1-2.353,5.025,5.025,0,0,0-.768.929,2.391,2.391,0,0,0,.185,2.9,11.308,11.308,0,0,0,1.695,1.727c.211.186.423.375.622.56a4.609,4.609,0,0,1,1.126,1.39c.387.933-.294,1.813-1.08,2.836a8.6,8.6,0,0,0-1.52,2.536c-.209.046-.423.094-.64.14a13.119,13.119,0,0,1-2.363.377,4.4,4.4,0,0,1-.462-.014" transform="translate(-210.555 -123.911)" fill="url(#linear-gradient-5)"/>
        <path id="Path_38757" data-name="Path 38757" d="M223.622,227.793a9.9,9.9,0,0,1-1.96-.413c-.974-.3-2.033-.708-3.06-1.105a19.109,19.109,0,0,0-4.674-1.426A2.9,2.9,0,0,0,212.6,225a46.3,46.3,0,0,1,1.6-7.316,4.959,4.959,0,0,0,.54,1.04,3.09,3.09,0,0,0,2.418,1.336,5.193,5.193,0,0,0,.563.016,13.669,13.669,0,0,0,2.536-.4c.289-.065.575-.128.859-.183a6.523,6.523,0,0,1,1.709-.163c.071.006.137.014.2.025,1.122.184,1.672,1.16,2.308,2.288a9.415,9.415,0,0,0,1.772,2.456c-.064.181-.12.364-.177.549a9.059,9.059,0,0,1-.78,1.978,2.247,2.247,0,0,1-2.084,1.186,4.41,4.41,0,0,1-.447-.017" transform="translate(-212.329 -200.022)" fill="url(#linear-gradient-6)"/>
      </g>
    </g>
  </g>
</svg>
