<svg xmlns="http://www.w3.org/2000/svg" width="145.38" height="42.48" viewBox="0 0 145.38 42.48"><path d="M42.48,0H30.66L15.06-23.7V0H3.24V-42.42H15.06l15.6,24v-24H42.48ZM76.02-21.84a10.318,10.318,0,0,1,5.97,3.72,10.362,10.362,0,0,1,2.19,6.54,10.479,10.479,0,0,1-3.66,8.55Q76.86,0,70.02,0h-21V-42.48H69.54q6.42,0,10.05,2.82t3.63,8.16a10.01,10.01,0,0,1-1.98,6.33A9.1,9.1,0,0,1,76.02-21.84ZM60.84-25.5h5.94q4.44,0,4.44-3.72,0-3.84-4.5-3.84H60.84ZM67.5-9.48q4.62,0,4.62-3.84,0-3.96-4.62-3.96H60.84v7.8Zm81.12-33L138.72,0H124.08L118.2-26.22,112.32,0H97.68l-9.9-42.48H100.5l4.68,28.92,6.54-28.92h12.9l6.6,28.92,4.68-28.92Z" transform="translate(-3.24 42.48)" fill="#e6e6e6"/></svg>
