<svg width="0" height="0" class="hidden"> <symbol xmlns="http://www.w3.org/2000/svg" viewBox="0 0 17.006 24" id="html"> <g transform="translate(-74.6)"> <path d="M108.4,0h1.08V1.069h.994V0h1.08V3.24h-1.08V2.16h-.984V3.24H108.4Zm4.576,1.08h-.952V0h2.986V1.08h-.96V3.24h-1.08ZM115.48,0h1.129l.694,1.139L118,0h1.129V3.24h-1.08V1.631l-.755,1.163-.755-1.163V3.24h-1.06Zm4.181,0h1.08V2.16h1.528V3.24h-2.606Z" transform="translate(-32.216)" fill="#000001"></path> <path d="M76.147,117.963,74.6,100.6H91.606L90.06,117.953l-6.971,1.931" transform="translate(0 -95.884)" fill="#ff4c1e"></path> <path d="M256,147.382V131h6.952l-1.326,14.813Z" transform="translate(-172.897 -124.86)" fill="#ff651e"></path> <path d="M142,176.3h5.344l.794,1.064-.794,1.064h-3.01l.2,2.179h2.813l.794,1.1-.794,1.02h-4.763Zm.676,7.5h2.137l.15,1.7,2.381.637.9,1.062-.9,1.159-4.369-1.219Z" transform="translate(-64.24 -168.036)" fill="#ebebeb"></path> <path d="M261.134,176.3H255.8v2.128h5.137Zm-.389,4.308H255.8v2.128h2.626l-.248,2.76-2.376.637v2.213l4.36-1.21Z" transform="translate(-172.706 -168.036)" fill="#fff"></path> </g> </symbol> <symbol xmlns="http://www.w3.org/2000/svg" viewBox="0 0 24.002 23.996" id="ionic"> <path d="M2676.38,1537a12,12,0,0,1,19.139-9.645,2.626,2.626,0,1,1-1.87,2.2,9.092,9.092,0,1,0,3.624,5.411h0a.338.338,0,0,0-.015-.066v-.016l-.017-.07v-.006l-.015-.062-.007-.025a.222.222,0,0,0-.012-.047l-.006-.022-.018-.064-.006-.023-.013-.046-.007-.024c-.006-.022-.012-.044-.019-.067a3.425,3.425,0,0,0,2.579-1.387l.019.055v.01l.015.043.006.016a.137.137,0,0,0,.013.039l.006.017.013.038a.128.128,0,0,0,.013.04l.008.026a.14.14,0,0,0,.012.037v.012a12,12,0,1,1-23.44,3.63Zm6.75,0a5.25,5.25,0,1,1,5.25,5.25,5.25,5.25,0,0,1-5.25-5.25Z" transform="translate(-2676.38 -1525)" fill="#176bff"></path> </symbol> <symbol xmlns="http://www.w3.org/2000/svg" viewBox="0 0 24 24" id="javascript"> <path d="M0,0H24V24H0Z" fill="#ffdf00"></path> <path d="M144.613,240.2a2.456,2.456,0,0,0,2.225,1.369c.935,0,1.531-.467,1.531-1.112,0-.773-.613-1.048-1.642-1.5l-.564-.24c-1.627-.694-2.708-1.56-2.708-3.4a3.013,3.013,0,0,1,3.3-2.98,3.334,3.334,0,0,1,3.208,1.8l-1.756,1.128a1.534,1.534,0,0,0-1.452-.96.982.982,0,0,0-1.08.966c0,.677.419.95,1.387,1.369l.564.24c1.92.822,3,1.66,3,3.542,0,2.03-1.6,3.143-3.737,3.143a4.333,4.333,0,0,1-4.11-2.306Zm-7.967.2c.36.629.677,1.16,1.452,1.16.74,0,1.208-.29,1.208-1.417v-7.669h2.255v7.7a3.062,3.062,0,0,1-3.367,3.4,3.5,3.5,0,0,1-3.383-2.06Z" transform="translate(-128.491 -221.452)" fill="#000001"></path> </symbol> <symbol xmlns="http://www.w3.org/2000/svg" viewBox="0 0 23.313 24.004" id="laravel"> <path d="M23.3,5.43a.38.38,0,0,1,.013.1v5.152a.376.376,0,0,1-.189.326L18.8,13.494v4.934a.377.377,0,0,1-.188.326l-9.026,5.2a.4.4,0,0,1-.066.027c-.008,0-.016.008-.025.01a.378.378,0,0,1-.193,0,.094.094,0,0,1-.03-.012.39.39,0,0,1-.062-.025l-9.024-5.2A.376.376,0,0,1,0,18.429V2.974a.384.384,0,0,1,.013-.1c0-.011.009-.021.013-.031A.37.37,0,0,1,.05,2.786a.351.351,0,0,1,.026-.033.383.383,0,0,1,.033-.044.367.367,0,0,1,.037-.028.306.306,0,0,1,.041-.032h0L4.7.05a.377.377,0,0,1,.376,0l4.512,2.6h0a.46.46,0,0,1,.041.032.444.444,0,0,1,.037.028.439.439,0,0,1,.034.044.346.346,0,0,1,.025.033.392.392,0,0,1,.024.058c0,.011.01.021.013.032a.38.38,0,0,1,.013.1V12.63l3.76-2.165V5.527a.38.38,0,0,1,.013-.1c0-.011.009-.021.013-.032a.424.424,0,0,1,.024-.058A.408.408,0,0,1,13.61,5.3a.386.386,0,0,1,.034-.044.361.361,0,0,1,.037-.028.379.379,0,0,1,.041-.032h0l4.513-2.6a.376.376,0,0,1,.376,0l4.512,2.6a.415.415,0,0,1,.042.032c.012.009.025.018.036.028a.439.439,0,0,1,.034.044.283.283,0,0,1,.025.033.372.372,0,0,1,.024.058.269.269,0,0,1,.013.032Zm-.739,5.032V6.178l-1.579.909L18.8,8.343v4.284l3.761-2.165Zm-4.512,7.749V13.925L15.9,15.15l-6.127,3.5v4.327l8.273-4.763ZM.752,3.624V18.211l8.272,4.762V18.647L4.7,16.2h0l-.076-.058h0a.358.358,0,0,1-.031-.039.4.4,0,0,1-.028-.037h0a.3.3,0,0,1-.02-.047.278.278,0,0,1-.018-.042h0a.36.36,0,0,1-.008-.055.326.326,0,0,1-.006-.042h0V5.789L2.331,4.533.752,3.625ZM4.889.81,1.129,2.974,4.888,5.138,8.647,2.974,4.888.81Zm1.955,13.5,2.181-1.25V3.624l-1.579.909L5.264,5.789v9.435l1.579-.909ZM18.425,3.364,14.666,5.528l3.759,2.164,3.758-2.164Zm-.376,4.979L15.868,7.087l-1.579-.909v4.284l2.181,1.255,1.579.909ZM9.4,18l5.514-3.148,2.756-1.573-3.756-2.163L9.588,13.6,5.647,15.873Z" transform="translate(0 0)" fill="#ff2d20" fill-rule="evenodd"></path> </symbol> <symbol xmlns="http://www.w3.org/2000/svg" xmlns:xlink="http://www.w3.org/1999/xlink" viewBox="0 0 20.128 24.002" id="linux"> <defs> <radialGradient id="a" cx="0.112" cy="0.509" r="0.661" gradientTransform="translate(89.401 271.369) rotate(180) scale(0.936 0.947)" gradientUnits="objectBoundingBox"> <stop offset="0"></stop> <stop offset="1" stop-opacity="0.247"></stop> </radialGradient> <radialGradient id="b" cx="0.47" cy="0.85" r="0.735" gradientTransform="matrix(0.693, 0, 0, -0.763, 0.697, 219.619)" xlink:href="#a"></radialGradient> <radialGradient id="c" cx="0.463" cy="0.99" r="0.468" gradientTransform="matrix(1.069, 0, 0, -1.069, -0.341, 351.701)" xlink:href="#a"></radialGradient> <linearGradient id="d" x1="2.046" y1="49.848" x2="2.098" y2="49.493" gradientUnits="objectBoundingBox"> <stop offset="0"></stop> <stop offset="1" stop-opacity="0"></stop> </linearGradient> <linearGradient id="e" x1="1.901" y1="43.016" x2="2.457" y2="43.89" gradientUnits="objectBoundingBox"> <stop offset="0" stop-color="#422600"></stop> <stop offset="1" stop-color="#be7900"></stop> </linearGradient> <linearGradient id="f" x1="2.267" y1="439.947" x2="2.241" y2="438.517" gradientUnits="objectBoundingBox"> <stop offset="0" stop-color="#ffcd00"></stop> <stop offset="1" stop-color="#ffcd00" stop-opacity="0"></stop> </linearGradient> <linearGradient id="g" x1="0.816" y1="41.455" x2="1.316" y2="40.606" gradientUnits="objectBoundingBox"> <stop offset="0" stop-color="#ca8300"></stop> <stop offset="1" stop-color="#3b2100"></stop> </linearGradient> <linearGradient id="h" x1="2.717" y1="81.146" x2="3.288" y2="80.553" gradientUnits="objectBoundingBox"> <stop offset="0" stop-color="#f8c400"></stop> <stop offset="1" stop-color="#f8c400" stop-opacity="0"></stop> </linearGradient> <radialGradient id="i" cx="0.451" cy="0.433" r="0.782" gradientTransform="matrix(0.827, 0.259, 0.233, -1.014, -25.814, 220.984)" gradientUnits="objectBoundingBox"> <stop offset="0" stop-color="#0b0200"></stop> <stop offset="0.591" stop-color="#bb5a00" stop-opacity="0.8"></stop> <stop offset="1" stop-color="#ff9200" stop-opacity="0"></stop> </radialGradient> <radialGradient id="j" cx="0.451" cy="0.437" r="1.065" gradientTransform="matrix(0.584, 0.334, 0.164, -0.749, -31.126, 307.183)" xlink:href="#i"></radialGradient> <radialGradient id="k" cx="0.816" cy="0.862" r="0.367" gradientTransform="translate(0.248) scale(0.503 1)" gradientUnits="objectBoundingBox"> <stop offset="0" stop-color="#7d7d7d"></stop> <stop offset="1" stop-color="#7d7d7d" stop-opacity="0.329"></stop> </radialGradient> <linearGradient id="l" x1="0.238" y1="0.479" x2="0.324" y2="0.486" gradientTransform="matrix(1, 0, 0, 1, 0, 0)" xlink:href="#k"></linearGradient> <radialGradient id="m" cx="0.518" cy="0.454" r="0.364" gradientTransform="matrix(1.526, -0.024, -0.055, -1.53, 6.931, 306.286)" gradientUnits="objectBoundingBox"> <stop offset="0" stop-color="#fdfdfb"></stop> <stop offset="0.757" stop-color="#fdfdfb"></stop> <stop offset="1" stop-color="#d4d4d4"></stop> </radialGradient> <linearGradient id="n" x1="7.337" y1="501.818" x2="8.449" y2="500.579" gradientUnits="objectBoundingBox"> <stop offset="0" stop-color="#767675" stop-opacity="0"></stop> <stop offset="0.263" stop-color="#767675"></stop> <stop offset="0.5" stop-color="#767675"></stop> <stop offset="1" stop-color="#767675" stop-opacity="0"></stop> </linearGradient> <radialGradient id="o" cx="0.483" cy="0.345" fx="0.45142000913619995" fy="0.2771899998188019" r="0.897" gradientTransform="translate(0.18) scale(0.639 1)" gradientUnits="objectBoundingBox"> <stop offset="0" stop-color="#d4d4d4"></stop> <stop offset="1" stop-color="#7d7d7d"></stop> </radialGradient> <linearGradient id="p" x1="6.59" y1="338.247" x2="7.547" y2="337.223" gradientUnits="objectBoundingBox"> <stop offset="0" stop-color="#646464" stop-opacity="0"></stop> <stop offset="0.306" stop-color="#646464" stop-opacity="0.584"></stop> <stop offset="0.47" stop-color="#646464"></stop> <stop offset="0.728" stop-color="#646464" stop-opacity="0.259"></stop> <stop offset="1" stop-color="#646464" stop-opacity="0"></stop> </linearGradient> <radialGradient id="q" cx="0.525" cy="0.491" r="0.466" gradientTransform="matrix(1.153, -0.032, -0.042, -1.149, 4.045, 255.924)" xlink:href="#m"></radialGradient> <linearGradient id="r" x1="6.549" y1="614.792" x2="7.512" y2="613.635" gradientUnits="objectBoundingBox"> <stop offset="0" stop-color="#949494" stop-opacity="0.392"></stop> <stop offset="0.5" stop-color="#949494"></stop> <stop offset="1" stop-color="#949494" stop-opacity="0.392"></stop> </linearGradient> <radialGradient id="s" cx="0.585" cy="0.566" fx="0.5849999785423279" fy="0.5659999847412109" r="0.923" gradientTransform="translate(0.243) scale(0.514 1)" xlink:href="#o"></radialGradient> <linearGradient id="t" x1="6.004" y1="301.239" x2="6.931" y2="300.29" xlink:href="#p"></linearGradient> <radialGradient id="u" cx="0.382" cy="0.527" r="0.59" gradientTransform="matrix(0.591, -0.588, -0.39, -0.734, 101.821, 394.705)" gradientUnits="objectBoundingBox"> <stop offset="0"></stop> <stop offset="0.734"></stop> <stop offset="1" stop-color="#5c5c5c"></stop> </radialGradient> <radialGradient id="v" cx="0.623" cy="0.182" r="1.043" gradientTransform="matrix(0.457, -0.381, -0.133, -0.649, 30.38, 282.875)" gradientUnits="objectBoundingBox"> <stop offset="0" stop-color="#e59400"></stop> <stop offset="0.751" stop-color="#eb9c00"></stop> <stop offset="0.866" stop-color="#c87f00"></stop> <stop offset="1" stop-color="#a46100"></stop> </radialGradient> <linearGradient id="w" x1="1.626" y1="137.875" x2="2.563" y2="137.89" gradientUnits="objectBoundingBox"> <stop offset="0" stop-color="#be7900"></stop> <stop offset="0.12" stop-color="#ea9e00"></stop> <stop offset="0.255" stop-color="#ffb800"></stop> <stop offset="0.392" stop-color="#f7c800"></stop> <stop offset="0.527" stop-color="#ffd815"></stop> <stop offset="0.769" stop-color="#ffd800"></stop> <stop offset="1" stop-color="#ffcd04"></stop> </linearGradient> <radialGradient id="x" cx="0.43" cy="0.49" r="1.086" gradientTransform="matrix(0.525, 0, 0, -0.583, -1.889, 2965.542)" gradientUnits="objectBoundingBox"> <stop offset="0" stop-color="#3d2400"></stop> <stop offset="0.555" stop-color="#7e5100"></stop> <stop offset="1" stop-color="#b78c00"></stop> </radialGradient> <radialGradient id="y" cx="0.558" cy="0.424" r="0.613" gradientTransform="matrix(1.101, 0, 0, -1.075, 1.056, 3366.075)" xlink:href="#x"></radialGradient> <linearGradient id="z" x1="-14.129" y1="499.056" x2="-14.053" y2="498.667" gradientUnits="objectBoundingBox"> <stop offset="0" stop-color="#ffce00"></stop> <stop offset="1" stop-color="#ea9b00"></stop> </linearGradient> </defs> <g transform="translate(-41.297 0.001)"> <path d="M121.65,0a3.457,3.457,0,0,0-1.68.385,3.021,3.021,0,0,0-1.259,1.31,4.16,4.16,0,0,0-.4,1.788,36.243,36.243,0,0,0,.12,3.695,4.136,4.136,0,0,1,.024.931c-.152.778-.833,1.3-1.2,1.985a20.321,20.321,0,0,0-.871,2.4c-.276.731-.665,1.416-.926,2.152a5.832,5.832,0,0,0-.234,3.224,5.574,5.574,0,0,0,1.09,2.225c-.076.136-.148.272-.226.407a6.141,6.141,0,0,0-.672,1.271,1.525,1.525,0,0,0-.052.712,1.022,1.022,0,0,0,.352.612,1.062,1.062,0,0,0,.425.2,1.9,1.9,0,0,0,.469.041,7.628,7.628,0,0,0,1.754-.346q.514-.134,1.034-.24a11.272,11.272,0,0,1,3.749.014q.581.088,1.152.227a8.807,8.807,0,0,0,1.8.346,1.961,1.961,0,0,0,.48-.037,1.072,1.072,0,0,0,.437-.2,1.022,1.022,0,0,0,.352-.613,1.522,1.522,0,0,0-.053-.713,5.919,5.919,0,0,0-.682-1.268c-.1-.163-.187-.331-.284-.494a8.107,8.107,0,0,0,1.68-2.85,8.185,8.185,0,0,0,.287-3.6,12.325,12.325,0,0,0-1.042-3.473,27.486,27.486,0,0,1-1.543-3.1c-.415-1.32-.072-2.869-.38-4.061a4.178,4.178,0,0,0-.511-1.146,3.933,3.933,0,0,0-1-1.08,3.853,3.853,0,0,0-2.19-.7Z" transform="translate(-70.352)" fill="#000001"></path> <path d="M143.668,140.6a.96.96,0,0,0-.173.36,1.943,1.943,0,0,0-.05.4,3.55,3.55,0,0,1-.066.809,2.482,2.482,0,0,1-.416.757,4.594,4.594,0,0,0-.73,1.309,2.326,2.326,0,0,0-.085.9,9.536,9.536,0,0,0-.84,1.517,8.3,8.3,0,0,0-.683,2.532,6.464,6.464,0,0,0,.455,3.159,5.176,5.176,0,0,0,1.348,1.878,4.609,4.609,0,0,0,.985.654,4.415,4.415,0,0,0,3.96-.038,7.68,7.68,0,0,0,1.68-1.327,5.848,5.848,0,0,0,.853-.967,5.429,5.429,0,0,0,.712-2.362,7.7,7.7,0,0,0-.454-4.269,4.708,4.708,0,0,0-.854-1.223,6.7,6.7,0,0,0-.541-1.822c-.192-.416-.426-.812-.6-1.235-.073-.174-.137-.35-.217-.521a1.56,1.56,0,0,0-.317-.463,1.307,1.307,0,0,0-.5-.288,2.159,2.159,0,0,0-.568-.1c-.385-.019-.77.031-1.156.016-.306-.012-.612-.066-.918-.048a1.413,1.413,0,0,0-.449.094.9.9,0,0,0-.368.266" transform="translate(-94.642 -133.662)" fill="#fcfcfa"></path> <path d="M156.53,213.575c.082.12-.052.547,1.861.276a6.591,6.591,0,0,0-.667.114,4.766,4.766,0,0,0-1.309.62c-.343.252-.594.582-.908.864,0,0,.509-.931.636-1.211s-.022-.268.079-.679a3.231,3.231,0,0,1,.347-.809S156.369,213.332,156.53,213.575Z" transform="translate(-108.859 -202.777)" opacity="0.25" fill="url(#a)"></path> <path d="M250.714,209.155a1.874,1.874,0,0,1-1.091.293c-.473.053-1.753.034-1.753.034a3.377,3.377,0,0,1,.6.073,11.4,11.4,0,0,1,1.72.329,4.456,4.456,0,0,1,.93.412c.408.258.708.662,1.1.944a1.4,1.4,0,0,0-.139-.655,6.082,6.082,0,0,1-.706-1.134,7.688,7.688,0,0,1-.184-1.223,1.513,1.513,0,0,1-.473.926Z" transform="translate(-196.893 -198.465)" opacity="0.42" fill="url(#b)"></path> <path d="M211.99,215.618q-.022.176-.056.35a.979.979,0,0,1-.046.169.38.38,0,0,1-.1.145.5.5,0,0,1-.131.079,1.967,1.967,0,0,1-.575.163q.12.008.24.022a1.062,1.062,0,0,1,.148.024.4.4,0,0,1,.136.061.37.37,0,0,1,.1.12.813.813,0,0,1,.078.316,2.582,2.582,0,0,1,0,.419,1.3,1.3,0,0,1,.058-.275,1.193,1.193,0,0,1,.252-.436.934.934,0,0,1,.15-.133.831.831,0,0,1,.584-.143.908.908,0,0,1-.581-.18.755.755,0,0,1-.209-.24.655.655,0,0,1-.061-.474" transform="translate(-161.834 -205.511)" opacity="0.2" fill="url(#c)"></path> <path d="M213.308,274.286a7.164,7.164,0,0,0-.2,1.153c-.052.551-.04,1.105-.068,1.656a6.191,6.191,0,0,0,0,1.4,2.413,2.413,0,0,0,.206.636,2.175,2.175,0,0,0,.034-.233,7.626,7.626,0,0,0-.05-1.126,17.522,17.522,0,0,1,.091-1.974,12.062,12.062,0,0,0-.01-1.517h0" transform="translate(-163.652 -261.429)" fill="#000001" opacity="0.11"></path> <path d="M175.05,192.683c-.01-.12-.175-.133-.25-.076a.243.243,0,0,0-.067.281C174.818,192.994,175.058,192.845,175.05,192.683Z" transform="translate(-127.165 -183.548)" fill="#7d7d7d" opacity="0.25"></path> <path d="M356.1,262.459c.1-.014.688.488.607.676s-.233.074-.342.076-.407.137-.456.052.132-.284.227-.451c.077-.134-.132-.336-.036-.352Z" transform="translate(-299.862 -250.156)" fill="#7d7d7d" opacity="0.75"></path> <path d="M278.42,21.961c-.208.146-.12.329-.028.511s-.2.712-.2.734a2.452,2.452,0,0,0,.72-.456c.181-.223.64.3.616.222C279.521,22.829,278.627,21.815,278.42,21.961Z" transform="translate(-225.795 -20.918)" fill="#7d7d7d"></path> <path d="M315.337,152.627c-.175.16.082.4.2.679.076.175.284.42.487.382.152-.03.247-.248.233-.4-.028-.3-.28-.367-.462-.47C315.654,152.733,315.459,152.516,315.337,152.627Z" transform="translate(-261.14 -145.442)" fill="#838384"></path> <path d="M195.288,143.264a2.287,2.287,0,0,0,.742,1.006,1.626,1.626,0,0,0,.353.228.84.84,0,0,0,.409.078.96.96,0,0,0,.386-.133c.12-.067.23-.149.347-.223.2-.126.412-.228.619-.341a3.565,3.565,0,0,0,.7-.48,3.177,3.177,0,0,1,.292-.258.575.575,0,0,1,.36-.12,2.038,2.038,0,0,1,.283.068.4.4,0,0,0,.145.008.209.209,0,0,0,.186-.228.4.4,0,0,0-.05-.17,2.188,2.188,0,0,1-.178-.31.92.92,0,0,1-.024-.317.634.634,0,0,0-.048-.312.4.4,0,0,0-.172-.167.619.619,0,0,0-.233-.065,3.239,3.239,0,0,0-.48.025c-.215.012-.43-.014-.644,0-.268.016-.529.094-.8.1a5.952,5.952,0,0,0-.913-.052,2.379,2.379,0,0,0-.378.109,1.17,1.17,0,0,1-.384.077c-.149,0-.293-.054-.442-.065a.523.523,0,0,0-.221.026.307.307,0,0,0-.167.14.3.3,0,0,0-.031.12.448.448,0,0,0,.014.127,1.972,1.972,0,0,0,.09.24c.113.287.137.6.24.893" transform="translate(-146.449 -134.889)" fill="rgba(0,0,0,0.26)"></path> <path d="M193.98,137.531a3.1,3.1,0,0,1,.708.6,3.065,3.065,0,0,0,.589.617,1.3,1.3,0,0,0,.589.194,2.094,2.094,0,0,0,.733-.078,2.7,2.7,0,0,0,.629-.254,6.651,6.651,0,0,1,1.092-.659c.09-.03.182-.052.269-.089a.413.413,0,0,0,.209-.173.776.776,0,0,0,.05-.247c.013-.089.044-.175.061-.265a.412.412,0,0,0-.023-.265.36.36,0,0,0-.169-.155.618.618,0,0,0-.24-.053,3.775,3.775,0,0,0-.48.044c-.214.018-.43-.007-.644,0-.268.007-.53.064-.8.074-.3.013-.608-.031-.913-.041a2.061,2.061,0,0,0-.4.019,1.01,1.01,0,0,0-.367.128,3.264,3.264,0,0,0-.292.23.841.841,0,0,1-.158.1.479.479,0,0,1-.184.048h-.1a.212.212,0,0,0-.137.078.18.18,0,0,0-.035.145h0" transform="translate(-145.525 -130.293)" fill="#000001" opacity="0.3"></path> <path d="M324.19,179.385a2.587,2.587,0,0,1,.9,1.616,3.914,3.914,0,0,1-.083,1.465,11.925,11.925,0,0,1-.446,1.4,2.776,2.776,0,0,0-.161.565.935.935,0,0,0,.084.572.871.871,0,0,0,.523.4,1.257,1.257,0,0,0,.659.008,1.529,1.529,0,0,0,1.411-1.734,4.61,4.61,0,0,0-.041-1.68,11.335,11.335,0,0,0-.637-2.214,7.718,7.718,0,0,0-.791-1.5c-.311-.458-.752-.815-1.08-1.264-.113-.156-.25-.318-.36-.48-.24-.34-.186-.276-.335-.5a.87.87,0,0,0-.457-.283.842.842,0,0,0-1.116.454,1.287,1.287,0,0,0-.083.745,2.66,2.66,0,0,0,.367.9,3.242,3.242,0,0,0,.69.86c.3.247.654.409.96.652" transform="translate(-267.698 -167.467)" fill="#000001"></path> <path d="M102.459,184.534a8.869,8.869,0,0,0-1.482,1.98,8.557,8.557,0,0,0-.344,1.118,8.472,8.472,0,0,1-.48,1.24c-.175.371-.367.732-.56,1.093a2.746,2.746,0,0,0-.332.826,1.7,1.7,0,0,0,.043.7,3.228,3.228,0,0,0,.262.655,6.438,6.438,0,0,0,1.958,2.256,6.883,6.883,0,0,0,1.18.689,1.811,1.811,0,0,0,.709.2.863.863,0,0,0,.36-.068.642.642,0,0,0,.281-.233.672.672,0,0,0,.094-.437,1.045,1.045,0,0,0-.155-.425,3.068,3.068,0,0,0-.792-.774c-.634-.491-1.246-1.008-1.832-1.56a2.392,2.392,0,0,1-.446-.508,1.9,1.9,0,0,1-.215-.622,3.447,3.447,0,0,1,.12-1.788q.126-.331.284-.649a7.964,7.964,0,0,1,.57-1.088,12.749,12.749,0,0,0,.9-1.235,4.366,4.366,0,0,0,.353-1.237c.06-.331.174-.656.232-.989a9.4,9.4,0,0,1-.7.851Z" transform="translate(-55.228 -175.073)" fill="#000001"></path> <path d="M347.506,244.417c-.161.59-.395,1.154-.6,1.729a5.54,5.54,0,0,0-.181.592,1.08,1.08,0,0,1,0-.338,2.769,2.769,0,0,1,.161-.565,11.912,11.912,0,0,0,.448-1.4,3.92,3.92,0,0,0,.083-1.465,2.586,2.586,0,0,0-.9-1.615c-.294-.24-.642-.4-.935-.635a8.326,8.326,0,0,1,.983.564,2.561,2.561,0,0,1,1,1.615,3.24,3.24,0,0,1-.059,1.523Z" transform="translate(-290.022 -229.425)" fill="#838384"></path> <path d="M120.041,250.925a3.448,3.448,0,0,0-.12,1.788,1.905,1.905,0,0,0,.215.622,2.4,2.4,0,0,0,.446.508l.077.071h-.034a.682.682,0,0,1-.332-.146,1.034,1.034,0,0,1-.24-.278c-.078-.128-.136-.271-.226-.392a.892.892,0,0,0-.431-.312.566.566,0,0,0,.3-.254.887.887,0,0,0,.088-.467c0-.161-.029-.32-.02-.48a2.858,2.858,0,0,1,.269-.893,8.062,8.062,0,0,1,.5-1.154,2.654,2.654,0,0,1,.48-.592.287.287,0,0,1,.187-.161c-.108.133-.215.268-.311.409a7.917,7.917,0,0,0-.57,1.088C120.225,250.489,120.121,250.7,120.041,250.925Z" transform="translate(-74.445 -237.117)" fill="#7d7d7d" opacity="0.95"></path> <path d="M318.9,379.457a1.32,1.32,0,0,1-.17.36,2.451,2.451,0,0,1-.641.6c-.407.288-.83.552-1.208.88a6.061,6.061,0,0,0-.7.72,6.982,6.982,0,0,1-.564.65,1.968,1.968,0,0,1-.726.446,1.76,1.76,0,0,1-.982.02,1.015,1.015,0,0,1-.569-.331,1.192,1.192,0,0,1-.2-.65,7.3,7.3,0,0,1,.067-1.259c.037-.349.072-.7.086-1.048a10.543,10.543,0,0,0-.1-1.88,1.416,1.416,0,0,1-.022-.314.457.457,0,0,1,.38-.443,1.451,1.451,0,0,1,.289-.026,5.954,5.954,0,0,1,.68,0c.142.012.28.038.421.052a1.9,1.9,0,0,0,.72-.059,5.979,5.979,0,0,1,.755-.253,1.1,1.1,0,0,1,.316,0,.6.6,0,0,1,.29.108.536.536,0,0,1,.142.187,1.185,1.185,0,0,1,.1.344,3.009,3.009,0,0,0,.049.319.94.94,0,0,0,.271.431,2.634,2.634,0,0,0,.412.3,4.647,4.647,0,0,0,.44.257c.072.035.146.067.215.108a.556.556,0,0,1,.179.156.443.443,0,0,1,.068.322h0" transform="translate(-259.097 -359.243)" opacity="0.2" fill="url(#d)"></path> <path d="M328.468,362.372a2.484,2.484,0,0,1-.8.568,15.8,15.8,0,0,0-1.488.785,6.1,6.1,0,0,0-.877.707,7.061,7.061,0,0,1-.714.648,2.052,2.052,0,0,1-.888.376,2.128,2.128,0,0,1-1.156-.175,1.387,1.387,0,0,1-.643-.5,1.511,1.511,0,0,1-.18-.8,8.338,8.338,0,0,1,.176-1.461c.071-.4.139-.8.182-1.21a12.463,12.463,0,0,0,.026-2.222,1.688,1.688,0,0,1,0-.372.473.473,0,0,1,.48-.44,1.72,1.72,0,0,1,.342.029,7.217,7.217,0,0,1,.8.139c.166.043.326.1.491.146a2.253,2.253,0,0,0,.84.077,6.572,6.572,0,0,1,.907-.143,1.344,1.344,0,0,1,.371.065.793.793,0,0,1,.334.186.733.733,0,0,1,.151.248,1.5,1.5,0,0,1,.1.424,3.669,3.669,0,0,0,.034.384,1.264,1.264,0,0,0,.286.56,3.621,3.621,0,0,0,.461.437,6.09,6.09,0,0,0,.5.39c.082.056.166.108.24.169a.768.768,0,0,1,.2.22.5.5,0,0,1,.043.394,1.125,1.125,0,0,1-.216.379Z" transform="translate(-267.283 -341.473)" fill="url(#e)"></path> <path d="M335.631,364.179a1.239,1.239,0,0,1-.208.344,2.25,2.25,0,0,1-.73.51,14.306,14.306,0,0,0-1.36.706,5.579,5.579,0,0,0-.8.635,6.409,6.409,0,0,1-.652.582,1.888,1.888,0,0,1-.811.337,1.973,1.973,0,0,1-1.055-.157,1.255,1.255,0,0,1-.588-.452,1.351,1.351,0,0,1-.164-.72,7.322,7.322,0,0,1,.161-1.313c.065-.36.127-.72.167-1.087a11.439,11.439,0,0,0,.024-2,1.525,1.525,0,0,1,0-.335.429.429,0,0,1,.438-.4,1.59,1.59,0,0,1,.313.026,6.921,6.921,0,0,1,.73.12c.151.038.3.091.448.132a2.083,2.083,0,0,0,.773.07,6.04,6.04,0,0,1,.828-.128,1.258,1.258,0,0,1,.338.058.72.72,0,0,1,.3.167.693.693,0,0,1,.139.223,1.05,1.05,0,0,1,.086.382,3.611,3.611,0,0,0-.008.41.778.778,0,0,0,.12.307,2.429,2.429,0,0,0,.2.264,2.663,2.663,0,0,0,.452.457c.2.143.433.227.638.36a.607.607,0,0,1,.163.144.384.384,0,0,1,.05.35h0" transform="translate(-274.47 -343.917)" fill="#e18900"></path> <path d="M340.913,354.134a1.506,1.506,0,0,1-.214.348,1.768,1.768,0,0,1-.75.515c-.466.176-.973.2-1.43.4a4.949,4.949,0,0,0-.782.48,3.945,3.945,0,0,1-.64.374,3.282,3.282,0,0,1-.8.217,2.443,2.443,0,0,1-.522.038,1.127,1.127,0,0,1-.5-.139.7.7,0,0,1-.284-.29,1.022,1.022,0,0,1-.079-.463c0-.422.1-.84.092-1.264,0-.368-.076-.731-.1-1.1a16.058,16.058,0,0,0-.022-2.118,1.681,1.681,0,0,1-.049-.335.479.479,0,0,1,.029-.166.306.306,0,0,1,.095-.133.276.276,0,0,1,.12-.053.4.4,0,0,1,.132,0,1.97,1.97,0,0,1,.257.073,7.593,7.593,0,0,0,.75.12c.156.035.306.091.461.133a2.094,2.094,0,0,0,.793.07,6.084,6.084,0,0,1,.851-.13,1.337,1.337,0,0,1,.348.059.719.719,0,0,1,.312.168.733.733,0,0,1,.143.226.96.96,0,0,1,.089.385c0,.07-.011.138-.017.208a.629.629,0,0,0,.008.206.54.54,0,0,0,.091.184c.04.055.084.106.12.16a3.5,3.5,0,0,1,.286.5,1.549,1.549,0,0,0,.331.46,4.558,4.558,0,0,0,.655.36.559.559,0,0,1,.168.145.391.391,0,0,1,.068.17.4.4,0,0,1-.016.184h0" transform="translate(-279.785 -334.014)" fill="#ffc000"></path> <path d="M333.393,359.358c.265-.072.49.13.682.281a.7.7,0,0,0,.455.084c.252-.01.5.042.755.011.5-.042.983-.164,1.482-.185a1.128,1.128,0,0,1,.712.11c.084.058.2.3.288.21a.7.7,0,0,0-.48-.574c-.2-.031-.4.024-.6,0-.6-.014-1.2-.12-1.8-.094-.419,0-.84-.016-1.254-.032-.164-.034-.222.113-.311.168" transform="translate(-278.338 -342.334)" fill="url(#f)"></path> <path d="M44.573,348.971a.733.733,0,0,1,.412-.038,1.018,1.018,0,0,1,.383.163,2.437,2.437,0,0,1,.568.612c.378.52.74,1.05,1.07,1.6.268.448.512.91.821,1.33.2.274.428.528.631.8a2.76,2.76,0,0,1,.472.9,1.8,1.8,0,0,1-.132,1.289,1.7,1.7,0,0,1-.628.673,1.62,1.62,0,0,1-.89.232,4.363,4.363,0,0,1-1.4-.449c-.936-.373-1.952-.49-2.916-.78-.3-.089-.588-.194-.887-.277a2.62,2.62,0,0,1-.392-.12.678.678,0,0,1-.312-.26.588.588,0,0,1-.076-.306.96.96,0,0,1,.062-.311c.072-.2.19-.38.269-.578a2.429,2.429,0,0,0,.134-1.025c-.017-.347-.073-.69-.1-1.037a1.793,1.793,0,0,1,.014-.463.7.7,0,0,1,.586-.6,1.878,1.878,0,0,1,.427-.028,4.086,4.086,0,0,0,.428,0,.984.984,0,0,0,.409-.12.967.967,0,0,0,.294-.277,3.407,3.407,0,0,0,.211-.348,2.237,2.237,0,0,1,.222-.342.84.84,0,0,1,.319-.248" transform="translate(0 -332.564)" fill="url(#g)"></path> <path d="M51.029,353.924a.632.632,0,0,1,.373-.024.877.877,0,0,1,.338.166,2.138,2.138,0,0,1,.473.587c.32.52.635,1.045.93,1.58a10.474,10.474,0,0,0,.714,1.186c.182.24.391.472.578.714a2.409,2.409,0,0,1,.436.8,1.58,1.58,0,0,1-.12,1.15,1.533,1.533,0,0,1-.581.607,1.494,1.494,0,0,1-.815.2,4.562,4.562,0,0,1-1.291-.4c-.816-.3-1.7-.336-2.538-.568-.3-.082-.593-.19-.894-.266a2.719,2.719,0,0,1-.4-.12.642.642,0,0,1-.314-.256.558.558,0,0,1-.068-.3.923.923,0,0,1,.066-.3c.073-.191.187-.36.26-.556a2.143,2.143,0,0,0,.1-.916c-.02-.308-.074-.614-.094-.924a1.575,1.575,0,0,1,.018-.413.711.711,0,0,1,.185-.36.72.72,0,0,1,.4-.186,1.871,1.871,0,0,1,.449,0,3.037,3.037,0,0,0,.449.022.84.84,0,0,0,.426-.13.854.854,0,0,0,.262-.307,3.259,3.259,0,0,0,.16-.373,1.763,1.763,0,0,1,.18-.36.7.7,0,0,1,.307-.262" transform="translate(-6.256 -337.294)" fill="#ec9a00"></path> <path d="M55.88,347.382a.583.583,0,0,1,.373-.043.8.8,0,0,1,.338.167,1.853,1.853,0,0,1,.438.61,16.569,16.569,0,0,0,.84,1.518c.232.35.5.676.733,1.024a4.242,4.242,0,0,1,.683,1.548,1.693,1.693,0,0,1-.11,1.115,1.243,1.243,0,0,1-.539.517,1.394,1.394,0,0,1-.743.138,4.621,4.621,0,0,1-1.14-.37c-.668-.24-1.391-.3-2.08-.48-.29-.078-.575-.178-.869-.24a2.6,2.6,0,0,1-.386-.094.568.568,0,0,1-.3-.24.48.48,0,0,1-.053-.266.84.84,0,0,1,.07-.265c.072-.169.178-.324.234-.5a1.513,1.513,0,0,0-.013-.8,6.321,6.321,0,0,1-.178-.788,1.091,1.091,0,0,1,.016-.36.631.631,0,0,1,.17-.313.711.711,0,0,1,.427-.176,1.982,1.982,0,0,1,.47.028,2.512,2.512,0,0,0,.469.04.77.77,0,0,0,.44-.145.752.752,0,0,0,.24-.384,2.653,2.653,0,0,0,.076-.452,1.663,1.663,0,0,1,.1-.446.652.652,0,0,1,.3-.341" transform="translate(-11.212 -331.045)" fill="#ffbd00"></path> <path d="M143.7,375.782c.21.38.34.817.548,1.2.192.353.41.72.6,1.043.086.145.289.368.494.714.186.313.373.751.48.9-.06-.172-.184-.634-.332-.96a4.619,4.619,0,0,0-.4-.649c-.2-.325-.406-.618-.6-.929-.277-.428-.487-.907-.791-1.32Z" transform="translate(-97.61 -358.166)" fill="url(#h)"></path> <path d="M355.947,367.8a.431.431,0,0,0-.221-.194.745.745,0,0,0-.294-.05c-.2,0-.4.054-.6.036a3.343,3.343,0,0,1-.492-.12,1.043,1.043,0,0,0-.517-.012.761.761,0,0,0-.438.326,1.027,1.027,0,0,0-.143.467,2.728,2.728,0,0,0,.018.492,2.515,2.515,0,0,0,.054.352.935.935,0,0,0,.143.324.876.876,0,0,0,.409.3,1.138,1.138,0,0,0,.818-.015,2.257,2.257,0,0,0,1.08-.993,2.115,2.115,0,0,0,.192-.5.925.925,0,0,0,.031-.21.444.444,0,0,0-.044-.206" transform="translate(-297.324 -350.21)" opacity="0.35" fill="url(#i)"></path> <path d="M355.947,364.414a.416.416,0,0,0-.221-.14,1.007,1.007,0,0,0-.294-.036c-.2,0-.4.038-.6.026a4.418,4.418,0,0,1-.492-.085,1.433,1.433,0,0,0-.517-.008.786.786,0,0,0-.438.24.6.6,0,0,0-.143.337,1.43,1.43,0,0,0,.018.36,1.347,1.347,0,0,0,.054.254.6.6,0,0,0,.143.24.918.918,0,0,0,.409.215,1.547,1.547,0,0,0,.818-.011,2.142,2.142,0,0,0,1.08-.72,1.312,1.312,0,0,0,.192-.36.5.5,0,0,0,.031-.152.248.248,0,0,0-.044-.149" transform="translate(-297.324 -347.08)" opacity="0.35" fill="url(#j)"></path> <path d="M360.483,344.487a1.268,1.268,0,0,1-.206.437,2.308,2.308,0,0,1-1.158.871,1.485,1.485,0,0,1-.877.013.92.92,0,0,1-.439-.26,1.014,1.014,0,0,1-.21-.593,1.7,1.7,0,0,1,.133-.84,1.249,1.249,0,0,1,.184-.292.973.973,0,0,1,.1-.1.953.953,0,0,1,.426-.228,1.441,1.441,0,0,1,.554.011c.176.03.352.071.527.1a2.668,2.668,0,0,1,.552.137.9.9,0,0,1,.168.092.658.658,0,0,1,.073.058.6.6,0,0,1,.161.232.652.652,0,0,1,.014.362Z" transform="translate(-301.463 -327.368)" fill="#000001"></path> <path d="M366.924,344.318a.58.58,0,0,1-.181.19,1.51,1.51,0,0,1-.588.217c.046-.04.091-.082.133-.12a.814.814,0,0,0,.139-.174.319.319,0,0,0,.043-.215.3.3,0,0,0-.068-.133.578.578,0,0,0-.114-.1,1.657,1.657,0,0,0-.6-.24c-.138-.03-.28-.048-.419-.066a1.441,1.441,0,0,0-.439-.007.741.741,0,0,0-.151.044l-.029.013h-.011l-.034.017h0l-.04.023-.041.026-.038.029a.992.992,0,0,1,.1-.1.954.954,0,0,1,.426-.228,1.44,1.44,0,0,1,.554.011c.176.03.352.071.527.1a2.674,2.674,0,0,1,.552.137.9.9,0,0,1,.168.092l.019.017.029.026a.341.341,0,0,1,.026.028.379.379,0,0,1,.086.156A.36.36,0,0,1,366.924,344.318Z" transform="translate(-308.035 -327.368)" fill="url(#k)"></path> <path d="M366.924,344.318a.58.58,0,0,1-.181.19,1.51,1.51,0,0,1-.588.217c.046-.04.091-.082.133-.12a.814.814,0,0,0,.139-.174.319.319,0,0,0,.043-.215.3.3,0,0,0-.068-.133.578.578,0,0,0-.114-.1,1.657,1.657,0,0,0-.6-.24c-.138-.03-.28-.048-.419-.066a1.441,1.441,0,0,0-.439-.007.741.741,0,0,0-.151.044l-.029.013h-.011l-.034.017h0l-.04.023-.041.026-.038.029h0a.992.992,0,0,1,.1-.1.954.954,0,0,1,.426-.228,1.44,1.44,0,0,1,.554.011c.176.03.352.071.527.1a2.674,2.674,0,0,1,.552.137.9.9,0,0,1,.168.092l.019.017.029.026a.341.341,0,0,1,.026.028.379.379,0,0,1,.086.156A.36.36,0,0,1,366.924,344.318Z" transform="translate(-308.035 -327.368)" fill="url(#l)"></path> <path d="M195.06,79.208a.45.45,0,0,0-.334.127.611.611,0,0,0-.17.313c-.041.12-.151.222-.157.352a4.052,4.052,0,0,0,.016.48,2.528,2.528,0,0,0,.136.768,1,1,0,0,0,.209.329.72.72,0,0,0,.332.2.672.672,0,0,0,.36-.013.784.784,0,0,0,.311-.188,1.043,1.043,0,0,0,.263-.46,1.823,1.823,0,0,0,.061-.53,2.207,2.207,0,0,0-.1-.66,1.6,1.6,0,0,0-.154-.335c-.053-.085-.173-.088-.24-.16s-.168-.071-.264-.12a.484.484,0,0,0-.264-.1" transform="translate(-145.926 -75.495)" fill="url(#m)"></path> <g transform="translate(48.783 4.34)"> <path d="M201.089,93a1.087,1.087,0,0,0,.031.545.911.911,0,0,0,.192.307A.636.636,0,0,0,201.5,94a.348.348,0,0,0,.232.03.342.342,0,0,0,.179-.12.59.59,0,0,0,.1-.2,1.088,1.088,0,0,0-.01-.64.84.84,0,0,0-.24-.4.487.487,0,0,0-.2-.1.346.346,0,0,0-.221.018.381.381,0,0,0-.174.175.8.8,0,0,0-.072.24" transform="translate(-201.069 -92.563)" fill="#000001"></path> <path d="M209.493,96.766c.019.052.085.07.12.112a.465.465,0,0,1,.091.131c.037.095-.036.24.041.3a.08.08,0,0,0,.1,0c.092-.084.072-.254.035-.373a.452.452,0,0,0-.216-.263c-.047-.024-.12-.043-.157-.01a.1.1,0,0,0-.01.1Z" transform="translate(-209.088 -96.455)" fill="url(#n)"></path> </g> <path d="M195.892,77.053a2.37,2.37,0,0,0-.334-.058,1.207,1.207,0,0,0-.732.136,1.51,1.51,0,0,0-.366.336,1.378,1.378,0,0,1,.065-.378.882.882,0,0,1,.224-.36.625.625,0,0,1,.388-.173.634.634,0,0,1,.313.068.949.949,0,0,1,.259.193,1.321,1.321,0,0,1,.183.236Z" transform="translate(-145.986 -72.963)" fill="url(#o)"></path> <path d="M207.758,66.1a1.91,1.91,0,0,1,.455.671,1.144,1.144,0,0,0-.293-.671,1.373,1.373,0,0,0-.373-.256,1.006,1.006,0,0,0-.337-.091h-.11c-.016,0-.029,0,.022.007a1.152,1.152,0,0,1,.286.091,1.352,1.352,0,0,1,.35.249Z" transform="translate(-158.015 -62.669)" fill="url(#p)"></path> <path d="M251.669,77.957c-.21.145-.594.374-.594.374l-.017.044a1.537,1.537,0,0,0,.041,1.01,1.68,1.68,0,0,0,.6.85,1.092,1.092,0,0,0,.487.188.889.889,0,0,0,.512-.089.988.988,0,0,0,.425-.467,1.711,1.711,0,0,0,.14-.624,2.257,2.257,0,0,0-.037-.572c-.016-.08-.12-.139-.15-.216-.1-.281-.289-.326-.539-.488a.84.84,0,0,0-.372-.149.442.442,0,0,0-.307.037.764.764,0,0,0-.186.1" transform="translate(-199.867 -74.16)" fill="url(#q)"></path> <g transform="translate(51.646 4.268)"> <path d="M262.779,91.01a.521.521,0,0,0-.24.08.626.626,0,0,0-.181.176.91.91,0,0,0-.145.48,1.01,1.01,0,0,0,.052.376.708.708,0,0,0,.211.312.611.611,0,0,0,.36.139.6.6,0,0,0,.368-.106.661.661,0,0,0,.2-.232.863.863,0,0,0,.091-.3.912.912,0,0,0-.086-.534.749.749,0,0,0-.4-.36.563.563,0,0,0-.233-.036" transform="translate(-262.211 -91.01)" fill="#000001"></path> <path d="M274.148,102.489c-.07.028-.181.011-.211.079a.1.1,0,0,0,.049.12.215.215,0,0,0,.246-.112.094.094,0,0,0-.043-.109C274.176,102.467,274.162,102.484,274.148,102.489Z" transform="translate(-273.378 -101.935)" fill="#0c0c0b"></path> <path d="M274.517,95.563c.094-.094-.067-.342-.192-.444-.091-.073-.36-.151-.343-.071s.13.184.21.262C274.289,95.406,274.473,95.608,274.517,95.563Z" transform="translate(-273.426 -94.828)" fill="url(#r)"></path> </g> <path d="M254.958,73.863a4.242,4.242,0,0,0-.368-.28,1.811,1.811,0,0,0-1.484-.184,1.841,1.841,0,0,0-.3.12,1.335,1.335,0,0,1,.488-.582,1.088,1.088,0,0,1,.222-.12.886.886,0,0,1,.437-.049,1.027,1.027,0,0,1,.413.156,1.358,1.358,0,0,1,.523.7,1.8,1.8,0,0,1,.065.238Z" transform="translate(-201.601 -69.348)" fill="url(#s)"></path> <path d="M277.807,62.37a.838.838,0,0,0-.1.16,1.426,1.426,0,0,1,.487.208,1.961,1.961,0,0,1,.656.778.8.8,0,0,0,.1-.128,1.977,1.977,0,0,0-.672-.81,1.44,1.44,0,0,0-.467-.206Z" transform="translate(-225.33 -59.447)" fill="url(#t)"></path> <path d="M215.6,100.609c.143-.161.24-.36.378-.522a.9.9,0,0,1,.24-.211.535.535,0,0,1,.308-.074.543.543,0,0,1,.318.151.97.97,0,0,1,.2.293,1.533,1.533,0,0,0,.16.3,1.553,1.553,0,0,0,.278.24.78.78,0,0,1,.132.126.39.39,0,0,1,.08.163.341.341,0,0,1-.014.184.411.411,0,0,1-.1.154.6.6,0,0,1-.334.15,6.609,6.609,0,0,1-.742-.031c-.251.007-.5.1-.748.086a.665.665,0,0,1-.36-.107.45.45,0,0,1-.128-.136.371.371,0,0,1-.054-.178.407.407,0,0,1,.036-.174.654.654,0,0,1,.1-.151c.076-.092.169-.17.248-.259" transform="translate(-165.771 -95.121)" fill="url(#u)"></path> <path d="M194.279,132.511a.222.222,0,0,0,.026.068.312.312,0,0,0,.086.09c.034.025.071.046.106.067a1.913,1.913,0,0,1,.48.461,3.009,3.009,0,0,0,.589.67,1.243,1.243,0,0,0,.589.211,1.93,1.93,0,0,0,.733-.085,2.591,2.591,0,0,0,.629-.276,6.573,6.573,0,0,1,1.092-.72,2.228,2.228,0,0,0,.269-.1.422.422,0,0,0,.209-.187.9.9,0,0,0,.05-.269c.013-.1.044-.191.061-.287a.48.48,0,0,0-.023-.288.372.372,0,0,0-.169-.168.577.577,0,0,0-.24-.058,3.49,3.49,0,0,0-.48.048c-.214.019-.43-.008-.644,0-.268.008-.53.068-.8.082-.3.014-.608-.032-.913-.044a1.888,1.888,0,0,0-.4.018.917.917,0,0,0-.367.142,3.521,3.521,0,0,0-.288.257.736.736,0,0,1-.158.109.41.41,0,0,1-.186.044.3.3,0,0,0-.1,0,.134.134,0,0,0-.052.032.3.3,0,0,0-.038.048.853.853,0,0,0-.07.12" transform="translate(-145.813 -125.473)" fill="url(#v)"></path> <path d="M219.5,154.521a.535.535,0,0,0,.352.634.637.637,0,0,0,.49-.05.534.534,0,0,0,.216-.193.36.36,0,0,0,.049-.137.3.3,0,0,0-.014-.144.313.313,0,0,0-.092-.128.42.42,0,0,0-.14-.077.875.875,0,0,0-.318-.029,3.137,3.137,0,0,0-.48.061" transform="translate(-169.835 -147.159)" fill="#e6b300"></path> <path d="M198.576,127.094c-.108.064-.212.134-.314.208a.385.385,0,0,0-.136.137.323.323,0,0,0-.025.134,1.153,1.153,0,0,1,0,.138c0,.031-.012.062-.014.094a.151.151,0,0,0,0,.047.1.1,0,0,0,.023.041.12.12,0,0,0,.053.03.283.283,0,0,1,.06.013.587.587,0,0,1,.25.145c.072.065.138.138.214.2a1.2,1.2,0,0,0,.74.24,3.337,3.337,0,0,0,.784-.109,4.73,4.73,0,0,0,.6-.166,2.64,2.64,0,0,0,.817-.486,2.8,2.8,0,0,1,.334-.276c.108-.068.229-.113.34-.178a.211.211,0,0,0,.029-.019.082.082,0,0,0,.022-.026.079.079,0,0,0,0-.058.154.154,0,0,0-.029-.052.358.358,0,0,0-.046-.047.73.73,0,0,0-.422-.146,4.09,4.09,0,0,1-.454-.029,2.952,2.952,0,0,1-.409-.12,3.026,3.026,0,0,0-.436-.106,2.88,2.88,0,0,0-1.049.026,3.062,3.062,0,0,0-.932.36" transform="translate(-149.439 -120.732)" fill="#694200"></path> <path d="M194.749,112.249a1.92,1.92,0,0,0-.415.378.9.9,0,0,0-.163.276,2.074,2.074,0,0,0-.053.247.469.469,0,0,0-.013.094.152.152,0,0,0,.007.047.107.107,0,0,0,.024.041.132.132,0,0,0,.07.035.6.6,0,0,1,.078.01.729.729,0,0,1,.323.138c.1.067.187.145.287.209a1.5,1.5,0,0,0,.745.212,3.335,3.335,0,0,0,.778-.08,3.5,3.5,0,0,0,.6-.166,3.6,3.6,0,0,0,.817-.486,3.423,3.423,0,0,0,.334-.276c.035-.034.07-.07.107-.1a.39.39,0,0,1,.126-.073.473.473,0,0,1,.222,0,.825.825,0,0,0,.168.019.248.248,0,0,0,.083-.017.169.169,0,0,0,.068-.048.163.163,0,0,0,.036-.1.209.209,0,0,0-.03-.106.36.36,0,0,0-.17-.137,1.681,1.681,0,0,0-.292-.085,4.177,4.177,0,0,1-.876-.319c-.139-.068-.274-.145-.409-.218a2.412,2.412,0,0,0-.436-.193,1.711,1.711,0,0,0-1.049.047,2.24,2.24,0,0,0-.967.661h0" transform="translate(-145.646 -106.254)" fill="url(#w)"></path> <path d="M238.752,128.393a.145.145,0,0,0-.073-.048.2.2,0,0,0-.088,0,.41.41,0,0,0-.158.074,1.8,1.8,0,0,0-.366.342,1.307,1.307,0,0,0-.3.588.376.376,0,0,0-.006.112.171.171,0,0,0,.046.1.154.154,0,0,0,.088.042.212.212,0,0,0,.1-.011.49.49,0,0,0,.163-.108,1.92,1.92,0,0,0,.611-.878.391.391,0,0,0,.018-.107.166.166,0,0,0-.032-.1" transform="translate(-187.257 -122.322)" fill="#ffda37"></path> <g transform="translate(49.767 5.494)"> <path d="M245.1,117.231c.019.06.12.05.172.079s.089.08.144.082.134-.018.142-.071-.091-.113-.156-.138a.331.331,0,0,0-.269,0c-.018.01-.037.034-.031.053Z" transform="translate(-244.017 -117.154)" opacity="0.8" fill="url(#x)"></path> <path d="M222.194,118.059c-.072-.023-.191.1-.151.168.011.018.043.041.065.029s.06-.083.1-.109a.052.052,0,0,0-.014-.088Z" transform="translate(-222.034 -118.017)" opacity="0.8" fill="url(#y)"></path> </g> <path d="M289.1,132.491a.3.3,0,0,1-.263.286h0c-.127,0-.216-.128-.2-.286a.3.3,0,0,1,.263-.286C289.023,132.2,289.112,132.333,289.1,132.491Z" transform="translate(-235.743 -126.008)" fill="url(#z)"></path> </g> </symbol> <symbol xmlns="http://www.w3.org/2000/svg" viewBox="0 0 29.335 24" id="livewire"> <g transform="translate(0)"> <path d="M27.84,22.165C27.3,22.987,26.884,24,25.778,24c-1.861,0-1.962-2.87-3.824-2.87S20.194,24,18.333,24s-1.962-2.87-3.824-2.87S12.748,24,10.886,24s-1.962-2.87-3.824-2.87S5.3,24,3.44,24a1.738,1.738,0,0,1-1.34-.672A15.893,15.893,0,0,1,0,15.392C0,6.89,6.566,0,14.666,0S29.334,6.891,29.334,15.392a15.96,15.96,0,0,1-1.493,6.773Z" fill="#fb70a9" fill-rule="evenodd"></path> <path d="M27.84,22.165C27.3,22.987,26.884,24,25.778,24c-1.861,0-1.962-2.87-3.824-2.87S20.194,24,18.333,24s-1.962-2.87-3.824-2.87S12.748,24,10.886,24s-1.962-2.87-3.824-2.87S5.3,24,3.44,24a1.738,1.738,0,0,1-1.34-.672A15.893,15.893,0,0,1,0,15.392C0,6.89,6.566,0,14.666,0S29.334,6.891,29.334,15.392a15.96,15.96,0,0,1-1.493,6.773Z" fill="#fb70a9" fill-rule="evenodd"></path> <path d="M30.834,24.86q5.765-8.576.3-19.027a15.449,15.449,0,0,1,2.822,17.5c-.564.819-.992,1.829-2.138,1.829a1.673,1.673,0,0,1-.981-.306Z" transform="translate(-6.167 -1.167)" fill="#e24ca6" fill-rule="evenodd"></path> <path d="M15.538,20.23c5.1,0,7.248-2.958,7.248-7.16S19.542,5,15.538,5,8.291,8.868,8.291,13.07s2.147,7.161,7.248,7.161Z" transform="translate(-1.658 -1)" fill="#fff" fill-rule="evenodd"></path> <path d="M14.236,13.885a2.87,2.87,0,0,0,2.718-3,2.869,2.869,0,0,0-2.718-3,2.869,2.869,0,0,0-2.718,3,2.869,2.869,0,0,0,2.718,3Z" transform="translate(-2.304 -1.577)" fill="#030776"></path> <path d="M14.01,11.808a1.385,1.385,0,1,0-1.36-1.385,1.385,1.385,0,0,0,1.36,1.385Z" transform="translate(-2.53 -1.808)" fill="#fff"></path> </g> </symbol> <symbol xmlns="http://www.w3.org/2000/svg" viewBox="0 0 20.445 24.004" id="lucidchart"> <path d="M0,6.755v12l10.222,6v-3L2.556,17.249v-9Z" transform="translate(0 -0.751)" fill="#f96b13"></path> <path d="M20.125,8.252v12l2.556-1.5v-12Z" transform="translate(-2.236 -0.751)" fill="#cc4e00"></path> <path d="M8.625,1.5l10.222,6L21.4,6,11.181,0Z" transform="translate(-0.958)" fill="#ffca73"></path> <path d="M0,6.567l2.556,1.5,2.556-1.5L2.556,5.061Z" transform="translate(0 -0.562)" fill="#ffca73"></path> <path d="M2.875,8.252v9l2.556-1.5v-9Z" transform="translate(-0.319 -0.751)" fill="#cc4e00"></path> <path d="M11.5,23.444v2.994l2.556-1.5v-3Z" transform="translate(-1.278 -2.438)" fill="#cc4e00"></path> <path d="M2.875,18.374l7.667,4.508L13.1,21.376l-7.667-4.5Z" transform="translate(-0.319 -1.875)" fill="#ffca73"></path> <path d="M8.625,1.684v3l7.667,4.5V18.19l2.556,1.5v-12Z" transform="translate(-0.958 -0.187)" fill="#f96b13"></path> </symbol> <symbol xmlns="http://www.w3.org/2000/svg" viewBox="0 0 24.004 24.001" id="mysql"> <g transform="translate(0.002 -4.702)"> <path d="M102.8,90.811a2.56,2.56,0,0,0-.67.083v.027h.032a5.6,5.6,0,0,0,.522.682c.132.267.24.532.376.8l.032-.033a.942.942,0,0,0,.344-.831,3.759,3.759,0,0,1-.2-.35c-.1-.166-.311-.245-.442-.383" transform="translate(-97.347 -82)" fill="#00758f" fill-rule="evenodd"></path> <path d="M22.107,23.264a7.419,7.419,0,0,0-3.167.466c-.24.1-.636.1-.67.416.132.133.148.348.263.533a3.865,3.865,0,0,0,.848,1.015c.343.267.685.532,1.045.764.636.4,1.355.632,1.974,1.032.36.232.72.532,1.08.781.179.133.293.35.522.432v-.05c-.12-.149-.148-.367-.26-.533-.163-.165-.326-.315-.49-.482a7.847,7.847,0,0,0-1.7-1.679c-.523-.367-1.666-.866-1.877-1.479l-.034-.034a6.462,6.462,0,0,0,1.127-.268c.554-.149,1.061-.116,1.632-.265.262-.067.523-.15.785-.232v-.152c-.3-.3-.506-.7-.817-.978A21.892,21.892,0,0,0,19.68,20.5c-.506-.333-1.159-.548-1.7-.831-.194-.1-.521-.149-.636-.317a6.716,6.716,0,0,1-.666-1.28c-.473-.913-.931-1.928-1.338-2.894a17.951,17.951,0,0,0-.833-1.9A16.6,16.6,0,0,0,8.185,7.065,7.72,7.72,0,0,0,6.1,6.383c-.409-.017-.816-.05-1.224-.066a6.528,6.528,0,0,1-.751-.583C3.187,5.136.789,3.844.1,5.555-.338,6.637.755,7.7,1.131,8.245a7.8,7.8,0,0,1,.832,1.247c.12.282.148.583.262.882A20.054,20.054,0,0,0,3.072,12.6a7.9,7.9,0,0,0,.6,1.031c.132.185.36.267.409.566A4.834,4.834,0,0,0,3.7,15.444a7.451,7.451,0,0,0,.474,5.587c.26.416.882,1.33,1.715.978.734-.3.571-1.247.784-2.078.049-.2.016-.333.114-.466V19.5c.228.465.457.913.67,1.38A9.413,9.413,0,0,0,9.58,23.11c.391.3.7.815,1.19,1v-.05h-.03a1.81,1.81,0,0,0-.376-.333,8.137,8.137,0,0,1-.85-1A21.362,21.362,0,0,1,7.692,19.7c-.262-.517-.49-1.082-.7-1.6-.1-.2-.1-.5-.262-.6a6.237,6.237,0,0,0-.782,1.13,9.572,9.572,0,0,0-.457,2.512c-.065.017-.032,0-.065.033-.522-.133-.7-.681-.9-1.146a7.325,7.325,0,0,1-.146-4.442c.114-.348.6-1.446.408-1.779-.1-.318-.425-.5-.6-.749A6.62,6.62,0,0,1,3.6,12c-.392-.932-.589-1.956-1.012-2.894a8.9,8.9,0,0,0-.816-1.28,8.234,8.234,0,0,1-.9-1.3C.789,6.35.673,6.044.8,5.853a.264.264,0,0,1,.229-.216c.211-.182.816.05,1.027.149a8.235,8.235,0,0,1,1.615.831c.229.166.474.483.767.566h.343c.522.115,1.11.032,1.6.182a10.357,10.357,0,0,1,2.35,1.147,14.661,14.661,0,0,1,5.1,5.688c.2.381.278.734.457,1.13.343.817.768,1.648,1.11,2.445A11,11,0,0,0,16.555,20c.24.348,1.224.532,1.664.715a11.561,11.561,0,0,1,1.127.465c.556.348,1.109.748,1.632,1.132.26.2,1.08.611,1.126.948" fill="#00758f" fill-rule="evenodd"></path> </g> </symbol> <symbol xmlns="http://www.w3.org/2000/svg" viewBox="0 0 24 24" id="naykel"> <path d="M6.13,24l10.244-2.7H3.185c-.282,0-.506-.3-.506-.674h0V9.272L7.888,20.627H10.56V3.372c0-.372.226-.674.508-.674h6.32L12.428,0h-2.5C8.8,0,7.895,1.208,7.895,2.7h0V14.75L2.676,3.372H0V21.3C0,22.79.908,24,2.029,24Z" fill="#13365b"></path> <path d="M14.9,13.708,13.59,15.7v4.93H11.07V3.372h2.52v7.82l1.116-2.147,3.12-5.676h3.1l-4.348,7.668,4.472,9.589h-3l-3.144-6.92" fill="#d72538"></path> <path d="M21.97,0H12.428l4.958,2.7h3.449a.607.607,0,0,1,.51.673v17.26a.611.611,0,0,1-.506.674H16.374L6.13,24H21.97C23.092,24,24,22.79,24,21.3V2.7C24,1.208,23.092,0,21.97,0Z" fill="#d72538"></path> </symbol> <symbol xmlns="http://www.w3.org/2000/svg" viewBox="0 0 24 24" id="nbw"> <g transform="translate(-119 -234.998)"> <path d="M197.56,84.244l-12-6v-12l12-6,12,6v12Z" transform="translate(-66.56 174.754)" fill="#252425"></path> <g transform="translate(122.429 238.429)"> <path d="M2.729,12.979,4.291,4.155a3.361,3.361,0,0,0-.265-1.8h3.72L11.4,9.171l.9-5.016a3.539,3.539,0,0,0-.246-1.8H15.29a4.182,4.182,0,0,0-.879,1.8l-1.563,8.824a3.148,3.148,0,0,0,.265,1.8H10.386l-4.4-8.448L4.821,12.979a3.146,3.146,0,0,0,.26,1.8H1.85a4.5,4.5,0,0,0,.879-1.8ZM2.51,2.51a8.569,8.569,0,0,1,11.5-.563H12.9a8.328,8.328,0,0,0-1.26-.669,7.969,7.969,0,0,0-6.155,0,8.507,8.507,0,0,0-1.255.669.762.762,0,0,0-.424.065.39.39,0,0,0-.186.382,8.523,8.523,0,0,0-.651.581A7.9,7.9,0,0,0,2.223,13.29l-.019.061-.325.572A8.568,8.568,0,0,1,2.51,2.51c2.467-2.466-1.61,1.605,0,0C4.977.044.9,4.115,2.51,2.51ZM16.467,5.234a8.56,8.56,0,0,1-1.836,9.391,8.363,8.363,0,0,1-2.724,1.836,8.536,8.536,0,0,1-6.671,0,8.325,8.325,0,0,1-2.111-1.274h1.11a8.114,8.114,0,0,0,1.255.669,7.933,7.933,0,0,0,7.415-.669.746.746,0,0,0,.437-.075.412.412,0,0,0,.172-.372,7.578,7.578,0,0,0,.646-.581,7.931,7.931,0,0,0,1.7-8.67,7.764,7.764,0,0,0-.948-1.655l.019-.056.047-.117.047-.112.051-.107.149-.279A8.565,8.565,0,0,1,16.47,5.231Z" transform="translate(0 0.001)" fill="#f9e24f"></path> </g> </g> </symbol> <symbol xmlns="http://www.w3.org/2000/svg" xmlns:xlink="http://www.w3.org/1999/xlink" viewBox="0 0 21.078 24.001" id="node"> <defs> <linearGradient id="a" x1="0.681" y1="0.175" x2="0.278" y2="0.897" gradientUnits="objectBoundingBox"> <stop offset="0" stop-color="#3f873f"></stop> <stop offset="0.33" stop-color="#3f8b3d"></stop> <stop offset="0.637" stop-color="#3e9638"></stop> <stop offset="0.934" stop-color="#3da92e"></stop> <stop offset="1" stop-color="#3dae2b"></stop> </linearGradient> <linearGradient id="b" x1="0.433" y1="0.552" x2="1.591" y2="-0.182" gradientUnits="objectBoundingBox"> <stop offset="0.138" stop-color="#3f873f"></stop> <stop offset="0.402" stop-color="#52a044"></stop> <stop offset="0.713" stop-color="#64b749"></stop> <stop offset="0.908" stop-color="#6abf4b"></stop> </linearGradient> <linearGradient id="c" x1="-0.045" y1="0.5" x2="1.016" y2="0.5" gradientUnits="objectBoundingBox"> <stop offset="0.092" stop-color="#6abf4b"></stop> <stop offset="0.287" stop-color="#64b749"></stop> <stop offset="0.598" stop-color="#52a044"></stop> <stop offset="0.862" stop-color="#3f873f"></stop> </linearGradient> </defs> <g transform="translate(-31.095 0)"> <path d="M42.207.152a1.136,1.136,0,0,0-1.136,0L31.664,5.581a1.135,1.135,0,0,0-.569.984V17.431a1.136,1.136,0,0,0,.568.984l9.406,5.433a1.136,1.136,0,0,0,1.136,0l9.4-5.433a1.138,1.138,0,0,0,.568-.984V6.564A1.135,1.135,0,0,0,51.6,5.58Z" fill-rule="evenodd" fill="url(#a)"></path> <path d="M56.383,6.286,46.948.857a1.128,1.128,0,0,0-.3-.12L36.08,18.825a.889.889,0,0,0,.3.294l9.446,5.432a1.147,1.147,0,0,0,.877.11L56.634,6.48a1.239,1.239,0,0,0-.251-.194Z" transform="translate(-4.751 -0.705)" fill="url(#b)"></path> <path d="M63.544,18.613a1.08,1.08,0,0,0,.522-.762L53.81.234a1.291,1.291,0,0,0-.851.12l-9.37,5.4L53.711,24.2a1.138,1.138,0,0,0,.415-.142Z" transform="translate(-11.91 -0.199)" fill="url(#c)"></path> </g> </symbol> <symbol xmlns="http://www.w3.org/2000/svg" viewBox="0 0 57.6 24" id="npm"> <g transform="translate(0 -15)"> <path d="M0,15H57.6V35.4H28.8V39H15.6V35.4H0Z" fill="#d50000"></path> <path d="M3,31.2H9V21.6h3.6v9.6H15V18H3ZM18.6,18V34.8h6V31.2h6V18Zm9.6,9.6H24.6v-6h3.6Zm6-9.6V31.2h6V21.6h3.6v9.6h3.6V21.6H51v9.6h2.4V18Z" transform="translate(0.6 0.6)" fill="#fff"></path> </g> </symbol> <symbol xmlns="http://www.w3.org/2000/svg" xmlns:xlink="http://www.w3.org/1999/xlink" viewBox="0 0 45.628 24" id="php"> <defs> <radialGradient id="a" cx="0.3" cy="0.177" r="1.56" gradientTransform="translate(-0.533 2.555) scale(0.526 1)" gradientUnits="objectBoundingBox"> <stop offset="0" stop-color="#aeb2d5"></stop> <stop offset="0.3" stop-color="#aeb2d5"></stop> <stop offset="0.75" stop-color="#484c89"></stop> <stop offset="1" stop-color="#484c89"></stop> </radialGradient> </defs> <g transform="translate(0 -121.188)"> <g transform="translate(0 121.188)"> <path d="M4.4-261.111c0,6.616,10.214,12,22.814,12s22.814-5.373,22.814-12-10.214-12-22.814-12S4.4-267.738,4.4-261.111" transform="translate(-4.4 273.111)" fill="none"></path> <path d="M4.4-261.111c0,6.616,10.214,12,22.814,12s22.814-5.373,22.814-12-10.214-12-22.814-12S4.4-267.738,4.4-261.111" transform="translate(-4.4 273.111)" fill="url(#a)"></path> <g transform="translate(0.899 0.89)"> <path d="M-323.687-206.707c12.107,0,21.922-4.973,21.922-11.11s-9.81-11.11-21.922-11.11-21.922,4.973-21.922,11.11,9.81,11.11,21.922,11.11" transform="translate(345.609 228.927)" fill="#777bb3"></path> </g> <g transform="translate(6.696 3.002)"> <g transform="translate(0.246 3.425)"> <path d="M-114.491-12.278a3.65,3.65,0,0,0,2.208-.545,2.952,2.952,0,0,0,.956-1.843,1.985,1.985,0,0,0-.178-1.679,2.494,2.494,0,0,0-1.807-.47h-1.6l-.883,4.538h1.294Zm-5.2,5.589a.246.246,0,0,1-.192-.091.246.246,0,0,1-.052-.2l2.338-12.027a.249.249,0,0,1,.244-.2h5.037a4.433,4.433,0,0,1,3.5,1.278,3.992,3.992,0,0,1,.684,3.541,5.654,5.654,0,0,1-.607,1.684,5.64,5.64,0,0,1-1.116,1.4,4.891,4.891,0,0,1-1.825,1.1,8.311,8.311,0,0,1-2.509.324h-2.04l-.582,3a.246.246,0,0,1-.242.2Z" transform="translate(119.944 19.229)" fill="#000001"></path> </g> <g transform="translate(0 3.179)"> <path d="M-114.087,45.9h1.387c1.106,0,1.492.244,1.622.388a1.825,1.825,0,0,1,.119,1.467,2.722,2.722,0,0,1-.862,1.7,3.422,3.422,0,0,1-2.053.5h-.992Zm2.379-2.888h-5.037a.5.5,0,0,0-.486.4l-2.338,12.027a.5.5,0,0,0,.1.408.5.5,0,0,0,.381.18h2.619a.5.5,0,0,0,.486-.4l.543-2.8h1.825a8.555,8.555,0,0,0,2.6-.335,5.138,5.138,0,0,0,1.928-1.154,5.887,5.887,0,0,0,1.161-1.458,5.9,5.9,0,0,0,.632-1.757,4.223,4.223,0,0,0-.739-3.751A4.665,4.665,0,0,0-111.722,43m-3.764,7.426h1.6a3.849,3.849,0,0,0,2.366-.591,3.171,3.171,0,0,0,1.047-1.994,2.183,2.183,0,0,0-.228-1.891,2.681,2.681,0,0,0-1.989-.552h-1.8Zm3.764-6.931a4.184,4.184,0,0,1,3.322,1.2,3.744,3.744,0,0,1,.627,3.331,5.384,5.384,0,0,1-.579,1.611,5.373,5.373,0,0,1-1.065,1.335,4.627,4.627,0,0,1-1.743,1.047,8.031,8.031,0,0,1-2.443.313h-2.245l-.621,3.194h-2.619L-116.75,43.5Z" transform="translate(119.578 -42.997)" fill="#fff"></path> </g> <g transform="translate(11.395 0.246)"> <path d="M-175.592-78.787a.246.246,0,0,1-.192-.089.246.246,0,0,1-.052-.205l1.033-5.32c.1-.506.073-.869-.068-1.022-.087-.094-.349-.251-1.122-.251h-1.873l-1.3,6.689a.246.246,0,0,1-.244.2h-2.6a.246.246,0,0,1-.192-.089.246.246,0,0,1-.052-.205l2.338-12.027a.249.249,0,0,1,.244-.2h2.6a.249.249,0,0,1,.192.089.246.246,0,0,1,.052.205l-.563,2.9h2.014a4.679,4.679,0,0,1,3.194.828,2.756,2.756,0,0,1,.573,2.7l-1.088,5.6a.246.246,0,0,1-.244.2h-2.64Z" transform="translate(182.258 91.307)" fill="#000001"></path> </g> <g transform="translate(11.154)"> <path d="M-157.2,99.357h-2.6a.5.5,0,0,0-.486.4l-2.338,12.027a.5.5,0,0,0,.1.408.5.5,0,0,0,.381.18h2.6a.5.5,0,0,0,.486-.4l1.262-6.488h1.67c.773,0,.935.164.942.171.048.05.11.283,0,.808l-1.033,5.32a.5.5,0,0,0,.1.408.5.5,0,0,0,.381.18h2.639a.5.5,0,0,0,.486-.4l1.088-5.6a2.982,2.982,0,0,0-.648-2.929,4.893,4.893,0,0,0-3.349-.892h-1.716l.506-2.608a.5.5,0,0,0-.1-.408.5.5,0,0,0-.381-.18m0,.5-.621,3.194h2.316a4.508,4.508,0,0,1,3.016.762,2.523,2.523,0,0,1,.5,2.471l-1.088,5.6h-2.64l1.033-5.32a1.444,1.444,0,0,0-.13-1.239,1.825,1.825,0,0,0-1.3-.331H-158.2l-1.339,6.89h-2.6l2.338-12.027Z" transform="translate(162.628 -99.357)" fill="#fff"></path> </g> <g transform="translate(20.696 3.425)"> <path d="M-195.079-12.279a3.65,3.65,0,0,0,2.208-.545,2.952,2.952,0,0,0,.956-1.843,1.985,1.985,0,0,0-.178-1.679,2.494,2.494,0,0,0-1.807-.47h-1.6l-.883,4.538h1.294Zm-5.2,5.589a.246.246,0,0,1-.192-.091.246.246,0,0,1-.052-.2l2.338-12.027a.249.249,0,0,1,.244-.2h5.037a4.433,4.433,0,0,1,3.5,1.278,3.992,3.992,0,0,1,.684,3.541,5.661,5.661,0,0,1-.607,1.684,5.639,5.639,0,0,1-1.116,1.4,4.891,4.891,0,0,1-1.825,1.1,8.311,8.311,0,0,1-2.51.324h-2.04l-.582,3a.249.249,0,0,1-.244.2Z" transform="translate(200.531 19.23)" fill="#000001"></path> </g> <g transform="translate(20.448 3.17)"> <path d="M-194.675,45.91h1.387c1.106,0,1.492.244,1.622.388a1.825,1.825,0,0,1,.119,1.467,2.721,2.721,0,0,1-.862,1.7,3.422,3.422,0,0,1-2.053.5h-.992Zm2.379-2.888h-5.037a.5.5,0,0,0-.486.4l-2.338,12.027a.5.5,0,0,0,.1.408.5.5,0,0,0,.381.18h2.619a.5.5,0,0,0,.486-.4l.543-2.8h1.825a8.555,8.555,0,0,0,2.6-.335,5.138,5.138,0,0,0,1.928-1.154,5.884,5.884,0,0,0,1.161-1.458,5.9,5.9,0,0,0,.632-1.757,4.223,4.223,0,0,0-.73-3.76A4.666,4.666,0,0,0-192.3,43m-3.764,7.426h1.6a3.849,3.849,0,0,0,2.359-.582,3.169,3.169,0,0,0,1.047-1.994,2.183,2.183,0,0,0-.228-1.891,2.68,2.68,0,0,0-1.989-.552h-1.8Zm3.765-6.93a4.184,4.184,0,0,1,3.317,1.193,3.744,3.744,0,0,1,.627,3.331,5.388,5.388,0,0,1-.579,1.611A5.371,5.371,0,0,1-190,50.973a4.627,4.627,0,0,1-1.743,1.047,8.03,8.03,0,0,1-2.443.313h-2.245l-.621,3.194h-2.619l2.338-12.027Z" transform="translate(200.166 -42.993)" fill="#fff"></path> </g> </g> </g> </g> </symbol> <symbol xmlns="http://www.w3.org/2000/svg" viewBox="0 0 24 24.004" id="postgre"> <g transform="translate(0 0.003)"> <g transform="translate(0.384 -0.002)"> <path d="M46.079,37.935c.155-1.272.108-1.458,1.07-1.253l.244.022a5.636,5.636,0,0,0,2.275-.377c1.218-.559,1.948-1.493.742-1.248-2.751.559-2.94-.36-2.94-.36,2.9-4.246,4.118-9.636,3.07-10.956-2.858-3.6-7.805-1.9-7.888-1.853h-.027a9.946,9.946,0,0,0-1.835-.188,4.58,4.58,0,0,0-2.9.857S29.058,19,29.468,27.085c.088,1.721,2.5,13.021,5.385,9.607,1.053-1.248,2.07-2.3,2.07-2.3a2.7,2.7,0,0,0,1.745.439l.049-.041a1.857,1.857,0,0,0,.019.486c-.743.817-.524.96-2.008,1.262s-.62.848-.044.99a3.076,3.076,0,0,0,3.41-1.089l-.044.172c.291.229.272,1.65.313,2.665a9.456,9.456,0,0,0,.32,2.52c.209.558.458,2,2.409,1.585,1.631-.344,2.876-.84,2.989-5.447" transform="translate(-28.438 -20.463)" fill="#000001"></path> <path d="M22.007,24a2.579,2.579,0,0,1-1.827-.666,3.394,3.394,0,0,1-.852-1.494c-.019-.059-.038-.12-.051-.151a9.842,9.842,0,0,1-.384-2.829c-.007-.18-.013-.373-.018-.57,0-.12-.007-.262-.012-.408a4.47,4.47,0,0,1-2.87.168,2.422,2.422,0,0,1-1.258-.708,2.113,2.113,0,0,1-2.07.44A4.129,4.129,0,0,1,10.537,15.6a19.179,19.179,0,0,1-1.316-3.316A30.761,30.761,0,0,1,8,6.679c-.135-2.547.564-4.371,2.07-5.421A6.783,6.783,0,0,1,15.134.466,14.133,14.133,0,0,1,17.294,1,5.773,5.773,0,0,1,20.357.258a11.353,11.353,0,0,1,1.757.158,10.371,10.371,0,0,1,3-.416A7.208,7.208,0,0,1,30.9,2.681c.938,1.181.589,3.508.132,5.253a23.063,23.063,0,0,1-2.5,5.854,7.242,7.242,0,0,0,1.218-.158c1.339-.272,1.7.5,1.789.746.414,1.236-1.339,2.15-1.894,2.4a6.663,6.663,0,0,1-2.751.469h-.043l-.167-.014-.015.12-.023.191a8.688,8.688,0,0,1-1.111,4.829,4.007,4.007,0,0,1-2.68,1.529A4.119,4.119,0,0,1,22,24ZM20.24,15.358c.583.46.634,1.3.678,2.866,0,.188.011.372.017.545a9.907,9.907,0,0,0,.257,2.21c.028.073.052.148.078.226.212.64.3.9,1.157.72.756-.16,1.143-.3,1.441-.72a7.5,7.5,0,0,0,.74-3.769l1.022.024-1.014-.12.028-.23c.089-.751.158-1.344.7-1.727a1.557,1.557,0,0,1,1.064-.24,1.4,1.4,0,0,1-.391-.692l-.085-.414.244-.35a20.994,20.994,0,0,0,2.871-6.248c.569-2.16.409-3.307.244-3.523-2.28-2.854-6.235-1.687-6.677-1.547l-.077.041-.382.07-.2-.04a8.976,8.976,0,0,0-1.644-.168,3.56,3.56,0,0,0-2.271.653l-.466.348-.541-.22c-1.058-.426-4.165-1.285-5.793-.149-.9.626-1.3,1.861-1.218,3.673A29.651,29.651,0,0,0,11.2,11.821c.974,3.11,1.844,3.974,2.088,4.043a.938.938,0,0,0,.312-.274c1.063-1.259,2.07-2.308,2.116-2.353l.592-.613.715.468a1.7,1.7,0,0,0,.794.277l1.7-1.425-.244,2.482a.868.868,0,0,0,.012.234l.074.47-.323.36-.009.01.793.36Z" transform="translate(-7.986 0.001)" fill="#000001"></path> </g> <path d="M50.4,35.08c-2.751.559-2.94-.36-2.94-.36,2.9-4.246,4.118-9.636,3.071-10.956-2.858-3.6-7.807-1.9-7.888-1.853h-.027a9.949,9.949,0,0,0-1.835-.188,4.58,4.58,0,0,0-2.9.857S29.053,19,29.464,27.086c.088,1.721,2.5,13.021,5.385,9.608,1.053-1.248,2.07-2.3,2.07-2.3a2.7,2.7,0,0,0,1.745.439l.049-.041a1.867,1.867,0,0,0,.019.48c-.743.817-.524.96-2.008,1.262s-.62.848-.044.99a3.07,3.07,0,0,0,3.41-1.089l-.044.172a4.822,4.822,0,0,1,.46,2.64,7.162,7.162,0,0,0,.172,2.546c.229.614.458,2,2.409,1.585a2.852,2.852,0,0,0,2.592-2.724c.083-1.058.272-.9.284-1.847l.151-.448c.174-1.44.028-1.9,1.031-1.68l.244.022a5.636,5.636,0,0,0,2.275-.377c1.218-.559,1.948-1.493.743-1.248h0Z" transform="translate(-28.047 -20.464)" fill="#336791"></path> <g transform="translate(1.042 0.638)"> <path d="M250.332,330.123a2.476,2.476,0,0,1-2.373-1.8,25.791,25.791,0,0,1-.308-6.142.341.341,0,1,1,.682.019,26.3,26.3,0,0,0,.259,5.879,1.814,1.814,0,0,0,.9,1.181,1.862,1.862,0,0,0,1.494.126,2.318,2.318,0,0,0,2.216-2.21c.185-1.059.553-4.079.6-4.671a.341.341,0,0,1,.68.05c-.047.62-.413,3.634-.609,4.735a2.989,2.989,0,0,1-2.745,2.752,3.864,3.864,0,0,1-.8.079Z" transform="translate(-236.876 -307.389)" fill="#fff"></path> <path d="M26.525,36.35a1.357,1.357,0,0,1-.426-.07c-1.064-.35-2.07-2.051-3.007-5.055a30.021,30.021,0,0,1-1.192-5.44c-.122-2.3.487-3.933,1.792-4.845,2.58-1.8,6.915-.089,7.1-.014a.334.334,0,0,1,.087.583.345.345,0,0,1-.345.039c-.05-.02-4.176-1.646-6.454-.058-1.1.77-1.609,2.2-1.5,4.262a29.747,29.747,0,0,0,1.165,5.279c.826,2.667,1.763,4.348,2.571,4.613.122.041.5.164,1.046-.48,1.048-1.243,2.012-2.235,2.021-2.245a.345.345,0,0,1,.454.017.332.332,0,0,1,.033.447c-.01.01-.957.985-1.99,2.21a1.789,1.789,0,0,1-1.35.757Z" transform="translate(-21.882 -19.813)" fill="#fff"></path> <path d="M304.135,27.518a.342.342,0,0,1-.3-.178.332.332,0,0,1,.018-.345c2.93-4.285,3.962-9.456,3.084-10.559a5.79,5.79,0,0,0-4.639-2.16,8.878,8.878,0,0,0-2.819.4.345.345,0,0,1-.468-.125.335.335,0,0,1,.127-.461,8.857,8.857,0,0,1,3.075-.488,6.546,6.546,0,0,1,5.262,2.421c.837,1.053.285,3.617.009,4.671a22.378,22.378,0,0,1-3.065,6.679.341.341,0,0,1-.283.149Z" transform="translate(-285.779 -13.601)" fill="#fff"></path> <path d="M164.068,34.7a2.611,2.611,0,0,1-1.234-.232.646.646,0,0,1-.348-.523c-.074-1.287.625-1.543,1.013-1.653-.05-.07-.114-.15-.181-.232a4.642,4.642,0,0,1-.749-1.189c-.035-.084-.147-.283-.278-.512-.71-1.254-2.192-3.862-1.231-5.206a2.648,2.648,0,0,1,2.577-.738,7.5,7.5,0,0,0-1.376-2.325,6.62,6.62,0,0,0-5.028-2.367,4.131,4.131,0,0,0-3.1,1.145c-1.76,1.749-1.7,4.931-1.7,4.964a.341.341,0,0,1-.682.018,8.25,8.25,0,0,1,1.9-5.453,4.789,4.789,0,0,1,3.6-1.346,7.648,7.648,0,0,1,7.16,5.639.375.375,0,0,1-.285.445H164c-.852-.136-1.968-.176-2.376.4-.71,1,.677,3.448,1.269,4.5.152.269.262.463.313.583a4,4,0,0,0,.65,1.026,1.775,1.775,0,0,1,.4.646c.029.048.408.556,2.543.12.561-.12.9-.013,1,.3.2.6-.915,1.3-1.533,1.583a5.816,5.816,0,0,1-2.2.412Zm-.9-.819a2.135,2.135,0,0,0,1.126.143,5.031,5.031,0,0,0,1.679-.344,3.782,3.782,0,0,0,.974-.617h-.016a4.227,4.227,0,0,1-2.948-.12l-.1-.068c-.046.016-.1.029-.145.043-.318.094-.616.175-.577.96Z" transform="translate(-145.561 -18.793)" fill="#fff"></path> <path d="M159.368,304.874a4.534,4.534,0,0,1-1.086-.139c-.108-.026-1.057-.277-1.045-.876.012-.547.8-.708,1.1-.769,1.048-.212,1.117-.3,1.442-.706.1-.12.217-.271.381-.451a1.02,1.02,0,0,1,1.28-.3,1.367,1.367,0,0,1,.75.885,1.126,1.126,0,0,1-.144,1,3.189,3.189,0,0,1-2.674,1.361Zm-1.375-.983a1.52,1.52,0,0,0,.454.193,2.719,2.719,0,0,0,3.044-.96.5.5,0,0,0,.044-.421.713.713,0,0,0-.356-.45c-.185-.076-.287-.12-.51.128h0c-.15.164-.258.3-.353.419-.416.521-.609.7-1.84.948a2.246,2.246,0,0,0-.487.146ZM160.418,302.159Z" transform="translate(-150.792 -288.013)" fill="#fff"></path> <path d="M153.323,143.842a.339.339,0,0,1-.336-.284,1.262,1.262,0,0,1-.015-.134,3.129,3.129,0,0,1-2.159-.96,3.463,3.463,0,0,1-.935-2.926,13.49,13.49,0,0,0,.071-2.76c-.01-.156-.016-.268-.016-.346,0-.1,0-.374.9-.823a5.007,5.007,0,0,1,1.643-.5,1.8,1.8,0,0,1,1.387.258,1.749,1.749,0,0,1,.759,1.173,6.7,6.7,0,0,1-.365,4.9,5.183,5.183,0,0,0-.2.48l-.051.134a3.287,3.287,0,0,0-.343,1.419.333.333,0,0,1-.079.269.343.343,0,0,1-.259.117Zm-2.707-7.319c0,.056.007.127.012.209a14.1,14.1,0,0,1-.076,2.9A2.8,2.8,0,0,0,151.3,142a2.442,2.442,0,0,0,1.74.759,8.672,8.672,0,0,1,.32-.95l.05-.133c.065-.173.141-.34.222-.517a6.056,6.056,0,0,0,.318-4.486,1.024,1.024,0,0,0-.8-.879,3.784,3.784,0,0,0-2.541.732Z" transform="translate(-143.746 -129.377)" fill="#fff"></path> <g transform="translate(8.632 6.748)"> <path d="M205.514,159.89c-.016.11.2.4.487.443a.53.53,0,0,0,.547-.3c.016-.11-.2-.23-.487-.27S205.529,159.781,205.514,159.89Z" transform="translate(-205.401 -159.64)" fill="#fff"></path> <path d="M203.8,158.176a.571.571,0,0,1-.078,0,.767.767,0,0,1-.487-.3.408.408,0,0,1-.1-.27.211.211,0,0,1,.089-.14.864.864,0,0,1,.586-.082,1.185,1.185,0,0,1,.4.12c.184.1.2.216.189.275a.631.631,0,0,1-.6.4Zm-.438-.538a.545.545,0,0,0,.392.31.452.452,0,0,0,.416-.2.674.674,0,0,0-.392-.15.688.688,0,0,0-.416.038Z" transform="translate(-203.129 -157.366)" fill="#fff"></path> </g> <g transform="translate(16.366 6.578)"> <path d="M367.842,155.117c.016.11-.2.4-.487.443a.531.531,0,0,1-.547-.3c-.015-.11.2-.23.487-.27S367.826,155.008,367.842,155.117Z" transform="translate(-366.746 -154.922)" fill="#fff"></path> <path d="M366.15,154.482a.58.58,0,0,1-.539-.352c-.023-.167.253-.294.539-.334s.587.008.609.175h0a.424.424,0,0,1-.147.294.7.7,0,0,1-.392.211.537.537,0,0,1-.069,0Zm.186-.587a1.23,1.23,0,0,0-.169.012c-.3.041-.449.158-.442.208a.489.489,0,0,0,.487.252.583.583,0,0,0,.325-.178.359.359,0,0,0,.122-.2c-.015-.04-.122-.092-.323-.092Z" transform="translate(-365.609 -153.784)" fill="#fff"></path> </g> <path d="M390.478,142.024a.342.342,0,0,1-.3-.178.332.332,0,0,1,.018-.345,3.969,3.969,0,0,0,.425-2.952,8.311,8.311,0,0,1-.09-1.26,8.633,8.633,0,0,1,.122-1.115,5.57,5.57,0,0,0,.1-1.223.334.334,0,0,1,.152-.306.345.345,0,0,1,.345-.018.336.336,0,0,1,.184.288,6.177,6.177,0,0,1-.1,1.362,8.112,8.112,0,0,0-.114,1.033,7.688,7.688,0,0,0,.085,1.158,4.56,4.56,0,0,1-.536,3.406.342.342,0,0,1-.284.149Z" transform="translate(-372.601 -128.921)" fill="#fff"></path> </g> <path fill="none" stroke="#fff" stroke-linecap="round" stroke-linejoin="round" stroke-width="3"></path> </g> </symbol> <symbol xmlns="http://www.w3.org/2000/svg" xmlns:xlink="http://www.w3.org/1999/xlink" viewBox="0 0 24.002 24.001" id="python"> <defs> <linearGradient id="a" x1="2.385" y1="1.266" x2="3.71" y2="0.138" gradientUnits="objectBoundingBox"> <stop offset="0" stop-color="#5a9fd4"></stop> <stop offset="1" stop-color="#306998"></stop> </linearGradient> <linearGradient id="b" x1="3.865" y1="-0.884" x2="3.393" y2="-0.226" gradientUnits="objectBoundingBox"> <stop offset="0" stop-color="#ffd43b"></stop> <stop offset="1" stop-color="#ffe873"></stop> </linearGradient> </defs> <g transform="translate(-2.793 0)"> <g transform="translate(2.796)"> <path d="M14.652,0a16.7,16.7,0,0,0-2.766.24c-2.449.421-2.9,1.32-2.9,2.97V5.391h5.788V6.12H6.82A3.6,3.6,0,0,0,3.2,9.02a10.591,10.591,0,0,0,0,5.818c.411,1.7,1.394,2.9,3.076,2.9H8.271v-2.61a3.659,3.659,0,0,1,3.616-3.557h5.782a2.927,2.927,0,0,0,2.058-.86,2.864,2.864,0,0,0,.836-2.05V3.21a3.213,3.213,0,0,0-2.9-2.97A18.247,18.247,0,0,0,14.652,0Zm-3.13,1.756a1.089,1.089,0,0,1,1.073.865,1.077,1.077,0,0,1-.646,1.211,1.1,1.1,0,0,1-1.327-.389,1.071,1.071,0,0,1,.125-1.363,1.109,1.109,0,0,1,.775-.323Z" transform="translate(-2.796)" fill="url(#a)"></path> <path d="M145.833,130.549v2.543a3.691,3.691,0,0,1-3.616,3.63h-5.782a2.936,2.936,0,0,0-2.894,2.91v5.451c0,1.552,1.363,2.465,2.894,2.91a9.785,9.785,0,0,0,5.782,0c1.456-.418,2.894-1.258,2.894-2.91V142.9H139.33v-.727h8.676c1.683,0,2.3-1.16,2.894-2.9a9.723,9.723,0,0,0,0-5.818c-.416-1.656-1.213-2.9-2.894-2.9h-2.173Zm-3.251,13.806a1.089,1.089,0,0,1,1.07.868,1.077,1.077,0,0,1-.651,1.208,1.1,1.1,0,0,1-1.326-.395,1.071,1.071,0,0,1,.131-1.363,1.109,1.109,0,0,1,.775-.319Z" transform="translate(-127.347 -124.429)" fill="url(#b)"></path> </g> </g> </symbol> <symbol xmlns="http://www.w3.org/2000/svg" viewBox="0 0 24 24" id="regex"> <path d="M24,0V24H0V0ZM8.924,15.011H4.418v4.506H8.924ZM16.535,8.4l4.8-1.511L19.918,4.412,15.87,7.643,16.957,2.9H14.119l1.056,4.74L11.159,4.41,9.739,6.888l4.892,1.571-3.654,2.748L13,13.17l2.6-4.228,2.538,4.138,2.023-1.963Z" fill="#70b0e0"></path> </symbol> <symbol xmlns="http://www.w3.org/2000/svg" viewBox="0 0 24 24" id="sass"> <path d="M12,0A12,12,0,1,1,0,12,12,12,0,0,1,12,0Z" fill="#c69" fill-rule="evenodd"></path> <g transform="translate(4.374 2.918)"> <path d="M108.432,64.444c-.544-2.131-4.08-2.832-7.422-1.644a16.8,16.8,0,0,0-5.694,3.266c-1.842,1.723-2.136,3.223-2.015,3.85.427,2.212,3.457,3.656,4.7,4.729h0c-.367.181-3.055,1.541-3.684,2.932-.664,1.468.106,2.52.616,2.662A3.775,3.775,0,0,0,99,78.59a4.135,4.135,0,0,0,.4-3.676,4.833,4.833,0,0,1,1.836-.106c2.1.24,2.52,1.56,2.44,2.111a1.388,1.388,0,0,1-.668.944c-.148.091-.193.12-.18.191.018.1.086.1.212.073a1.642,1.642,0,0,0,1.145-1.463c.05-1.289-1.184-2.731-3.372-2.694a5.775,5.775,0,0,0-1.876.259c-.03-.035-.061-.068-.092-.1-1.352-1.44-3.852-2.464-3.746-4.4.038-.706.283-2.562,4.8-4.814,3.7-1.846,6.667-1.337,7.18-.212.732,1.608-1.584,4.6-5.43,5.027a2.888,2.888,0,0,1-2.429-.616c-.2-.223-.232-.233-.307-.191-.12.068-.044.265,0,.382a2.28,2.28,0,0,0,1.387,1.1,7.364,7.364,0,0,0,4.507-.445C107.147,69.046,108.966,66.539,108.432,64.444ZM98.52,75.305A3.072,3.072,0,0,1,98.5,77.1a3.24,3.24,0,0,1-.7,1.163c-.7.761-1.672,1.049-2.089.806-.451-.262-.226-1.334.583-2.189a8.124,8.124,0,0,1,2.12-1.511h0Z" transform="translate(-93.277 -62.224)" fill="#fff"></path> </g> </symbol> <symbol xmlns="http://www.w3.org/2000/svg" viewBox="0 0 54.035 24.002" id="sqlite"> <g transform="translate(-10 -9.956)"> <path d="M133.633,89.2a2.4,2.4,0,0,0-1.747.642,2.215,2.215,0,0,0-.672,1.673,2.88,2.88,0,0,0,.164.971,2.322,2.322,0,0,0,.522.821,7.917,7.917,0,0,0,1.388,1.015,7.336,7.336,0,0,1,1.687,1.27,1.608,1.608,0,0,1,.4,1.031,1.541,1.541,0,0,1-.48,1.164,1.92,1.92,0,0,1-1.3.433,2.15,2.15,0,0,1-1.493-.6,2.06,2.06,0,0,1-.642-1.6h-.26v2.42h.269c.074-.224.194-.343.343-.343a2.039,2.039,0,0,1,.493.134,4.817,4.817,0,0,0,1.553.329,2.39,2.39,0,0,0,1.791-.746,2.447,2.447,0,0,0,.746-1.791,2.3,2.3,0,0,0-.493-1.448A7.262,7.262,0,0,0,134,93.1a6.337,6.337,0,0,1-1.583-1.2,1.68,1.68,0,0,1-.373-1.03,1.183,1.183,0,0,1,.448-.971,1.807,1.807,0,0,1,1.164-.36,1.95,1.95,0,0,1,1.358.493,2.04,2.04,0,0,1,.628,1.358h.269V89.3h-.254a.562.562,0,0,1-.09.209.2.2,0,0,1-.149.044,1.65,1.65,0,0,1-.463-.1,4.231,4.231,0,0,0-1.327-.253Zm8.7,0a4.641,4.641,0,0,0-2.389.628,4.733,4.733,0,0,0-1.717,1.717,4.622,4.622,0,0,0-.628,2.329,4.484,4.484,0,0,0,1.09,2.971,4.6,4.6,0,0,0,2.628,1.613,4.019,4.019,0,0,1,1,.941,8.629,8.629,0,0,0,1.254,1.24,4.033,4.033,0,0,0,1.1.552,4.273,4.273,0,0,0,1.269.179,3.36,3.36,0,0,0,1.478-.3l-.09-.254a2.4,2.4,0,0,1-.806.134,2.126,2.126,0,0,1-1.165-.389A7.335,7.335,0,0,1,143.9,99.1a4.135,4.135,0,0,0-.568-.642,4.627,4.627,0,0,0,2.747-1.627,4.509,4.509,0,0,0,1.08-2.957,4.43,4.43,0,0,0-1.388-3.314,4.816,4.816,0,0,0-3.433-1.36Zm5.419,0,.014.283c.582,0,.911.179.985.522a3.46,3.46,0,0,1,.044.686v6.3a1.423,1.423,0,0,1-.194.9,1.032,1.032,0,0,1-.656.24l-.014.283h5.823l.149-1.433h-.269a1.13,1.13,0,0,1-.522.821,3.189,3.189,0,0,1-1.478.24h-.552c-.642,0-1.015-.224-1.1-.7a1.84,1.84,0,0,1-.03-.3l.03-6.359a1.721,1.721,0,0,1,.179-.941.88.88,0,0,1,.672-.254l-.014-.283Zm-5.33.343a2.942,2.942,0,0,1,2.419,1.18,5.055,5.055,0,0,1,.941,3.224,4.786,4.786,0,0,1-.941,3.105,3.061,3.061,0,0,1-2.508,1.164,2.939,2.939,0,0,1-2.433-1.21,5.784,5.784,0,0,1,.014-6.3,3.062,3.062,0,0,1,2.508-1.163Zm13.4,1.357a.4.4,0,0,0-.4.508.665.665,0,0,0,.224.36.589.589,0,0,0,.4.149.4.4,0,0,0,.313-.149.421.421,0,0,0,.074-.36.665.665,0,0,0-.224-.36.607.607,0,0,0-.387-.148Zm3.84.971a1.751,1.751,0,0,1-1.567,1.508l.014.269h.941l-.014,3.15a5.623,5.623,0,0,0,.06,1.08.773.773,0,0,0,.851.656,3.084,3.084,0,0,0,2.16-1.254l-.224-.194a2.28,2.28,0,0,1-1.448.84c-.254,0-.418-.149-.48-.448a1.182,1.182,0,0,1-.03-.254l.014-3.553h1.433l-.014-.418H159.94V91.888h-.283Zm5.539,1.18a2.256,2.256,0,0,0-1.956,1.164,3.312,3.312,0,0,0-.463,2.582,2.21,2.21,0,0,0,.7,1.284,2.028,2.028,0,0,0,1.344.448,2.7,2.7,0,0,0,1.493-.388,3.49,3.49,0,0,0,.821-1.24l-.194-.209a2.19,2.19,0,0,1-1.821,1.105,1.485,1.485,0,0,1-1.538-1.374,2.779,2.779,0,0,1-.06-.373,4.883,4.883,0,0,0,2.255-.84c.508-.4,1.015-.84.925-1.284a1.08,1.08,0,0,0-.4-.642,2.611,2.611,0,0,0-1.1-.234Zm-8.759.03-1.731.4V93.8l.6-.074a.457.457,0,0,1,.508.388,2.142,2.142,0,0,1,.03.36l-.014,2.822c0,.388-.044.612-.134.686a1.32,1.32,0,0,1-.7.1l-.014.269h2.732V98.08a1.851,1.851,0,0,1-.732-.09.443.443,0,0,1-.209-.329,3.012,3.012,0,0,1-.03-.6l.014-3.986Zm8.315.522a.768.768,0,0,1,.493.194.685.685,0,0,1,.283.418c.149.746-.508,1.27-2,1.553a2.52,2.52,0,0,1,.3-1.493,1.062,1.062,0,0,1,.918-.672Z" transform="translate(-103.105 -67.414)" fill="#003b57"></path> <path d="M26.661,17H11.806A1.825,1.825,0,0,0,10,18.821V35.2A1.813,1.813,0,0,0,11.806,37h9.779C21.481,32.138,23.153,22.688,26.661,17Z" transform="translate(0 -5.993)" fill="#0f80cc"></path> <path d="M29.1,20.6H14.784A1.293,1.293,0,0,0,13.5,21.884V37.068A35.749,35.749,0,0,1,24.981,34.8,103.312,103.312,0,0,1,29.1,20.6Z" transform="translate(-2.978 -9.055)" fill="rgba(0,0,0,0)"></path> <path d="M90.459,10.47c-1.015-.911-2.255-.538-3.464.538-.179.164-.36.343-.538.522a21.547,21.547,0,0,0-4.614,9.42,8.22,8.22,0,0,1,.538,1.538,3.366,3.366,0,0,1,.074.329,2.621,2.621,0,0,1,.074.373,3.082,3.082,0,0,0-.09-.3c-.014-.044-.03-.09-.044-.149-.014-.014-.014-.044-.03-.074-.134-.313-.508-.985-.672-1.27-.134.418-.269.806-.373,1.164a9.993,9.993,0,0,1,.762,2.373s-.03-.09-.149-.433c-.1-.3-.642-1.224-.762-1.448a3.582,3.582,0,0,0-.224,1.463,4.864,4.864,0,0,1,.418,1.164c.283,1.09.48,2.4.48,2.4s0,.09.014.224a20.467,20.467,0,0,0,.06,2.717,9.522,9.522,0,0,0,.493,2.628l.149-.09a11.707,11.707,0,0,1-.4-3.912,29.586,29.586,0,0,1,1.643-8.2c1.7-4.483,4.06-8.083,6.211-9.8-1.97,1.777-4.628,7.525-5.419,9.659a39.261,39.261,0,0,0-1.911,6.763A5.2,5.2,0,0,1,85.457,25.2s1.045-1.284,2.255-3.12a19.265,19.265,0,0,0-2.329.628c-.6.254-.746.329-.746.329a20.418,20.418,0,0,1,3.575-1.7c2.28-3.583,4.748-8.639,2.255-10.869" transform="translate(-60.334)" fill="#003b57"></path> </g> </symbol> <symbol xmlns="http://www.w3.org/2000/svg" viewBox="0 0 27.43 23.998" id="svgsprit"> <g transform="translate(-46.427 -29.325)"> <path d="M83.246,43.373,79.99,46.628a2.8,2.8,0,0,0,0,4l6.51,6.51a2.8,2.8,0,0,0,4,0l6.51-6.51a2.8,2.8,0,0,0,0-4l-6.51-6.51a2.826,2.826,0,0,0-4,0Z" transform="translate(-23.993 -7.304)" fill="#f16262"></path> <path d="M58.425,29.325a1.483,1.483,0,0,1,1.052.436L69.989,40.273a1.487,1.487,0,0,1,0,2.1L59.477,52.889a1.487,1.487,0,0,1-2.1,0L46.861,42.377a1.488,1.488,0,0,1,0-2.1L57.373,29.761A1.483,1.483,0,0,1,58.425,29.325Zm8.409,12-8.409-8.409-8.409,8.409,8.409,8.409Z" fill="#2f446a"></path> </g> </symbol> <symbol xmlns="http://www.w3.org/2000/svg" viewBox="0 0 26.673 24.001" id="terminal"> <g transform="translate(0.006 -62.54)"> <g transform="translate(0 67.426)"> <path d="M.267,141.342l-.267.57v16.561a1.841,1.841,0,0,0,1.661,1.979H25a1.84,1.84,0,0,0,1.661-1.975V141.912l-.267-.573Z" transform="translate(0 -141.339)" fill="#736e6e"></path> </g> <g transform="translate(7.187 70.433)"> <path d="M140.856,195.534a.434.434,0,0,1-.311-.123l-2.421-2.462a.3.3,0,0,1,0-.431l2.421-2.462a.457.457,0,0,1,.567-.045.3.3,0,0,1,.053.476l-2.209,2.244,2.209,2.244a.294.294,0,0,1,.057.36.412.412,0,0,1-.366.193Z" transform="translate(-138.031 -189.934)" fill="#ddeafb"></path> <g transform="translate(9.069 0.007)"> <path d="M312.6,195.532a.412.412,0,0,1-.366-.193.294.294,0,0,1,.057-.36l2.209-2.244-2.209-2.244a.3.3,0,0,1,.053-.476.457.457,0,0,1,.567.045l2.421,2.462a.3.3,0,0,1,0,.431l-2.421,2.462A.437.437,0,0,1,312.6,195.532Z" transform="translate(-312.191 -189.939)" fill="#ddeafb"></path> </g> <g transform="translate(4.356 0.001)"> <path d="M222.127,195.532a.424.424,0,0,1-.341-.156.29.29,0,0,1-.023-.325l2.759-4.924a.438.438,0,0,1,.535-.162.317.317,0,0,1,.193.449l-2.759,4.924a.412.412,0,0,1-.364.194Z" transform="translate(-221.723 -189.933)" fill="#ddeafb"></path> </g> </g> <g transform="translate(0 67.426)"> <path d="M23.942,141.342v13.893a1.841,1.841,0,0,1-1.661,1.979H0v1.261a1.841,1.841,0,0,0,1.661,1.979H25a1.841,1.841,0,0,0,1.661-1.977V141.912l-.267-.573Z" transform="translate(0 -141.339)" fill="#595454"></path> </g> <g transform="translate(0 62.54)"> <path d="M25,62.54H1.661A1.841,1.841,0,0,0,0,64.519V68H26.661V64.519A1.841,1.841,0,0,0,25,62.54Z" transform="translate(0 -62.54)" fill="#698ed5"></path> </g> <g transform="translate(23.941 62.54)"> <path d="M460.824,62.54h-1.059V68h2.72V64.519a1.841,1.841,0,0,0-1.661-1.979Z" transform="translate(-459.765 -62.54)" fill="#4073c8"></path> </g> <g transform="translate(2.264 64.382)"> <ellipse cx="0.745" cy="0.888" rx="0.745" ry="0.888" transform="translate(0 0)" fill="#dd636e"></ellipse> <g transform="translate(2.293)"> <ellipse cx="0.745" cy="0.888" rx="0.745" ry="0.888" transform="translate(0 0)" fill="#ffe07d"></ellipse> </g> <g transform="translate(4.587)"> <ellipse cx="0.745" cy="0.888" rx="0.745" ry="0.888" transform="translate(0 0)" fill="#86f1a7"></ellipse> </g> </g> <g transform="translate(2.401 81.136)"> <path d="M48.238,363.188H46.449a.484.484,0,0,1,0-.953h1.789a.484.484,0,0,1,0,.953Z" transform="translate(-46.049 -362.235)" fill="#fb74c4"></path> <g transform="translate(3.586)"> <path d="M118.183,363.188h-2.867a.484.484,0,0,1,0-.953h2.867a.484.484,0,0,1,0,.953Z" transform="translate(-114.916 -362.235)" fill="#ddeafb"></path> </g> <g transform="translate(11.484)"> <path d="M270.944,363.188h-3.9a.484.484,0,0,1,0-.953h3.9a.484.484,0,0,1,0,.953Z" transform="translate(-266.647 -362.235)" fill="#ffe07d"></path> </g> <g transform="translate(8.37)"> <path d="M208.494,363.188h-1.177a.484.484,0,0,1,0-.953h1.177a.484.484,0,0,1,0,.953Z" transform="translate(-206.917 -362.235)" fill="#fb74c4"></path> </g> <g transform="translate(2.436 2.322)"> <path d="M95.01,400.628H93.221a.484.484,0,0,1,0-.953H95.01a.484.484,0,0,1,0,.953Z" transform="translate(-92.821 -399.675)" fill="#bed8fb"></path> </g> <g transform="translate(6.017 2.322)"> <path d="M164.772,400.628h-2.689a.484.484,0,0,1,0-.953h2.689a.484.484,0,0,1,0,.953Z" transform="translate(-161.683 -399.675)" fill="#ddeafb"></path> </g> <g transform="translate(10.637 2.322)"> <path d="M251.961,400.628h-1.224a.484.484,0,0,1,0-.953h1.224a.484.484,0,0,1,0,.953Z" transform="translate(-250.337 -399.675)" fill="#fb74c4"></path> </g> <g transform="translate(19.62 2.322)"> <path d="M424.462,400.628h-1.213a.484.484,0,0,1,0-.953h1.213a.484.484,0,0,1,0,.953Z" transform="translate(-422.849 -399.675)" fill="#fb74c4"></path> </g> <g transform="translate(13.78 2.322)"> <path d="M315.066,400.628h-3.945a.484.484,0,0,1,0-.953h3.945a.484.484,0,0,1,0,.953Z" transform="translate(-310.721 -399.675)" fill="#ffe07d"></path> </g> </g> </g> </symbol> <symbol xmlns="http://www.w3.org/2000/svg" viewBox="0 0 24 24" id="typescript"> <path d="M2.344,0H21.656A2.344,2.344,0,0,1,24,2.344V21.656A2.344,2.344,0,0,1,21.656,24H2.344A2.344,2.344,0,0,1,0,21.656V2.344A2.344,2.344,0,0,1,2.344,0Z" fill="#3178c6"></path> <path d="M2.344,0H21.656A2.344,2.344,0,0,1,24,2.344V21.656A2.344,2.344,0,0,1,21.656,24H2.344A2.344,2.344,0,0,1,0,21.656V2.344A2.344,2.344,0,0,1,2.344,0Z" fill="#3178c6"></path> <path d="M127.325,245.942v2.347a4.972,4.972,0,0,0,1.354.44,8.913,8.913,0,0,0,1.646.146,5.432,5.432,0,0,0,2.934-.692,3.017,3.017,0,0,0,.5-4.418,9.267,9.267,0,0,0-2.825-1.6c-.487-.24-1.159-.61-1.159-1.236a.791.791,0,0,1,.12-.437,1.92,1.92,0,0,1,1.643-.628,4.8,4.8,0,0,1,1.92.41,3.535,3.535,0,0,1,.576.323v-2.2a5.728,5.728,0,0,0-1.17-.3,9.532,9.532,0,0,0-1.457-.1,6.769,6.769,0,0,0-1.585.18,4.03,4.03,0,0,0-1.32.56,2.8,2.8,0,0,0-.9.972,2.849,2.849,0,0,0-.33,1.411,2.737,2.737,0,0,0,.6,1.789,4.606,4.606,0,0,0,1.837,1.254,8.869,8.869,0,0,1,1.625.785,1.256,1.256,0,0,1,.656,1,.906.906,0,0,1-.444.758,2.5,2.5,0,0,1-1.339.3,4.458,4.458,0,0,1-1.511-.268,4.509,4.509,0,0,1-1.372-.8Zm-3.944-5.782h3.011v-1.92H118v1.92h3v8.574h2.384Z" transform="translate(-112.469 -226.844)" fill="#fff" fill-rule="evenodd"></path> </symbol> <symbol xmlns="http://www.w3.org/2000/svg" viewBox="0 0 24.004 24.002" id="xampp"> <g transform="translate(0.003 0.001)"> <path d="M11.993,0h9.345a3.954,3.954,0,0,1,1.153.147A1.977,1.977,0,0,1,23.9,1.769a4.674,4.674,0,0,1,.087.961Q24,5.977,24,9.225q0,5.914-.007,11.828a3.284,3.284,0,0,1-.3,1.613,2.309,2.309,0,0,1-1.355,1.193,1.239,1.239,0,0,1-.351.075c-.27,0-.533.067-.8.067q-9.15,0-18.3-.007a3.724,3.724,0,0,1-1.472-.237,1.223,1.223,0,0,1-.271-.136,2.548,2.548,0,0,1-1.1-1.786A7.281,7.281,0,0,1,0,21.008Q0,11.806,0,2.6A3.42,3.42,0,0,1,.119,1.545a2.061,2.061,0,0,1,1.89-1.5A6.411,6.411,0,0,1,2.676,0Zm.1,15.266a6,6,0,0,0,.226.985A4.4,4.4,0,0,0,17.6,19.045a4.345,4.345,0,0,0,3.287-4.056,4.256,4.256,0,0,0-.69-2.517.339.339,0,0,1-.026-.377A7.479,7.479,0,0,0,20.8,10.07a6.028,6.028,0,0,0,0-2.115,4.474,4.474,0,0,0-4.35-3.446,4.405,4.405,0,0,0-4.241,3.356c-.042.2-.074.4-.119.636-.03-.133-.055-.221-.069-.311a4.422,4.422,0,0,0-8.3-1.152A4.037,4.037,0,0,0,3.3,8.573a4.251,4.251,0,0,0,.707,2.784.238.238,0,0,1,.014.277,6.289,6.289,0,0,0-.688,2.26,5.711,5.711,0,0,0,.115,2.22A4.352,4.352,0,0,0,8.126,19.2a4.336,4.336,0,0,0,3.7-2.8,4.752,4.752,0,0,0,.266-1.134Z" fill="#fb7a24"></path> <path d="M28.116,37.538a4.745,4.745,0,0,1-.266,1.134,4.444,4.444,0,0,1-8.375-.285,5.7,5.7,0,0,1-.115-2.22,6.292,6.292,0,0,1,.688-2.26.238.238,0,0,0-.014-.277,4.251,4.251,0,0,1-.707-2.784,4.037,4.037,0,0,1,.421-1.535,4.422,4.422,0,0,1,8.3,1.152c.014.09.039.178.069.311.045-.241.077-.439.119-.636a4.405,4.405,0,0,1,4.241-3.356,4.474,4.474,0,0,1,4.35,3.446,6.028,6.028,0,0,1,0,2.115,7.485,7.485,0,0,1-.626,2.026.338.338,0,0,0,.026.377,4.256,4.256,0,0,1,.69,2.517,4.345,4.345,0,0,1-3.287,4.056,4.4,4.4,0,0,1-5.283-2.794A5.961,5.961,0,0,1,28.116,37.538ZM32.857,34.2a.735.735,0,0,1,.173-.252,4.2,4.2,0,0,0,.922-2.907,1.46,1.46,0,0,0-2.913.107v.193a1.286,1.286,0,0,1-1.232,1.352c-.13.009-.259.021-.389.021H26.657a4.02,4.02,0,0,0-1.183.16A4.322,4.322,0,0,0,22.3,36.431a2.174,2.174,0,0,0-.012,1.094,1.464,1.464,0,0,0,2.53.582,1.569,1.569,0,0,0,.36-1.018,1.357,1.357,0,0,1,1.485-1.46c1.376.011,2.751,0,4.127,0,.244,0,.246,0,.248.243,0,.442-.011.884.006,1.326a1.45,1.45,0,0,0,1.41,1.341,1.433,1.433,0,0,0,1.5-1.271,14.248,14.248,0,0,0,0-1.9,1.179,1.179,0,0,0-.755-1.044C33.085,34.274,32.971,34.238,32.857,34.2Zm-8.623-1.487h.779c.12,0,.164-.049.163-.165,0-.46.02-.921-.01-1.379a1.377,1.377,0,0,0-.931-1.262,1.472,1.472,0,0,0-1.921,1.854,1.187,1.187,0,0,0,1.03.916,6.2,6.2,0,0,0,.89.031Z" transform="translate(-16.024 -22.272)" fill="#fff"></path> <path d="M47.1,48.7c.114.043.228.079.337.128a1.179,1.179,0,0,1,.755,1.044,14.275,14.275,0,0,1,0,1.9,1.433,1.433,0,0,1-1.5,1.271,1.451,1.451,0,0,1-1.41-1.341c-.017-.441,0-.884-.006-1.326,0-.239,0-.242-.248-.243-1.376,0-2.751.008-4.127,0a1.357,1.357,0,0,0-1.485,1.46,1.57,1.57,0,0,1-.36,1.018,1.464,1.464,0,0,1-2.53-.582,2.174,2.174,0,0,1,.012-1.094,4.322,4.322,0,0,1,3.173-3.561,4.019,4.019,0,0,1,1.183-.16h2.761c.13,0,.26-.012.389-.021a1.286,1.286,0,0,0,1.232-1.352v-.193a1.46,1.46,0,0,1,2.913-.107,4.2,4.2,0,0,1-.922,2.907.726.726,0,0,0-.167.252Z" transform="translate(-30.268 -36.777)" fill="#fb7a24"></path> <path d="M38.544,47.589a6.172,6.172,0,0,1-.89-.035,1.187,1.187,0,0,1-1.03-.916,1.472,1.472,0,0,1,1.921-1.854,1.377,1.377,0,0,1,.931,1.262c.03.458.006.919.01,1.379,0,.116-.044.167-.163.165C39.081,47.586,38.84,47.589,38.544,47.589Z" transform="translate(-30.334 -37.153)" fill="#fb7a24"></path> </g> </symbol> <symbol xmlns="http://www.w3.org/2000/svg" viewBox="0 0 52.321 24" id="alpinejs"> <g transform="translate(-9.968 -10.3)"> <path d="M121.276,10.3,132.9,21.88,121.276,33.456,109.648,21.88Z" transform="translate(-70.611)" fill="#77c1d2" fill-rule="evenodd"></path> <path d="M21.6,10.3l24.1,24H22.446L9.968,21.88Z" fill="#2d3441" fill-rule="evenodd"></path> </g> </symbol> <symbol xmlns="http://www.w3.org/2000/svg" viewBox="0 0 22.651 24" id="angular"> <g transform="translate(-0.849 -0.341)"> <path d="M12.141.341.849,4.315,2.633,19.109l9.519,5.232,9.569-5.3L23.5,4.245Z" fill="#b3b3b3"></path> <path d="M137.574,17.966l-10.264-3.5V35.958l8.6-4.761,1.662-13.231Z" transform="translate(-115.196 -12.867)" fill="#a6120d"></path> <path d="M15.073,18.026,16.6,31.257l8.469,4.7v-21.5l-10,3.564Z" transform="translate(-12.957 -12.863)" fill="#dd1b16"></path> <path d="M58.746,33.888,55.92,35.209H52.943l-1.4,3.5-2.6.048,6.977-15.53,2.825,10.661Zm-.273-.665-2.534-5.016-2.078,4.929H55.92l2.552.086Z" transform="translate(-43.806 -20.847)" fill="#f2f2f2"></path> <path d="M127.309,23.226l.019,4.98,2.358,4.933h-2.371v2.066h3.279l1.533,3.55,2.491.046Z" transform="translate(-115.195 -20.846)" fill="#b3b3b3"></path> </g> </symbol> <symbol xmlns="http://www.w3.org/2000/svg" viewBox="0 0 40.134 24.001" id="aws"> <g transform="translate(-1.668 -1.099)"> <path d="M23.751,9.816A4.039,4.039,0,0,0,23.9,11a7.145,7.145,0,0,0,.427.961.581.581,0,0,1,.093.307.528.528,0,0,1-.254.4l-.841.561a.64.64,0,0,1-.347.12.614.614,0,0,1-.4-.187,4.13,4.13,0,0,1-.481-.627c-.133-.227-.267-.481-.414-.788a4.931,4.931,0,0,1-3.924,1.842,3.657,3.657,0,0,1-2.67-.961A3.429,3.429,0,0,1,14.1,10.07a3.436,3.436,0,0,1,1.215-2.75,4.856,4.856,0,0,1,3.27-1.041A10.568,10.568,0,0,1,20,6.386c.494.067,1,.174,1.535.294V5.7a2.958,2.958,0,0,0-.627-2.136,3.073,3.073,0,0,0-2.176-.614,6.07,6.07,0,0,0-1.441.174,10.636,10.636,0,0,0-1.443.454,3.83,3.83,0,0,1-.467.174.819.819,0,0,1-.214.04c-.187,0-.28-.133-.28-.414v-.65a.845.845,0,0,1,.093-.467,1,1,0,0,1,.374-.28,7.685,7.685,0,0,1,1.682-.6,8.093,8.093,0,0,1,2.082-.254,4.878,4.878,0,0,1,3.5,1.081,4.417,4.417,0,0,1,1.108,3.284V9.816Zm-5.419,2.029a4.326,4.326,0,0,0,1.375-.24,2.974,2.974,0,0,0,1.268-.854,2.119,2.119,0,0,0,.454-.854,4.792,4.792,0,0,0,.133-1.161V8.175a11.147,11.147,0,0,0-1.228-.227,10.058,10.058,0,0,0-1.255-.08A3.077,3.077,0,0,0,17.09,8.4a1.86,1.86,0,0,0-.654,1.535,1.722,1.722,0,0,0,1.9,1.909ZM29.05,13.287a.745.745,0,0,1-.507-.133,1.088,1.088,0,0,1-.28-.521L25.126,2.315a2.338,2.338,0,0,1-.12-.534.293.293,0,0,1,.32-.334h1.308a.74.74,0,0,1,.521.133,1.092,1.092,0,0,1,.267.521l2.242,8.836L31.746,2.1A.936.936,0,0,1,32,1.581a.918.918,0,0,1,.534-.133H33.6a.8.8,0,0,1,.534.133.9.9,0,0,1,.254.521L36.5,11.044,38.807,2.1a1.145,1.145,0,0,1,.267-.521.871.871,0,0,1,.521-.133h1.241a.3.3,0,0,1,.334.334,1.331,1.331,0,0,1-.027.214,1.9,1.9,0,0,1-.093.334L37.833,12.646a1.024,1.024,0,0,1-.28.521.854.854,0,0,1-.507.133H35.9a.8.8,0,0,1-.534-.133.946.946,0,0,1-.254-.534l-2.069-8.61-2.056,8.6a1.042,1.042,0,0,1-.254.534.827.827,0,0,1-.534.133Zm17.152.36a8.833,8.833,0,0,1-2.056-.24,6.072,6.072,0,0,1-1.535-.534A.962.962,0,0,1,42.2,12.5a.942.942,0,0,1-.08-.374v-.681c0-.28.107-.414.307-.414a.756.756,0,0,1,.24.04c.08.027.2.08.334.133a7.261,7.261,0,0,0,1.468.467,8.016,8.016,0,0,0,1.588.16A3.6,3.6,0,0,0,48,11.391a1.437,1.437,0,0,0,.694-1.268,1.3,1.3,0,0,0-.36-.934,3.349,3.349,0,0,0-1.348-.694l-1.935-.6a4.071,4.071,0,0,1-2.136-1.362A3.18,3.18,0,0,1,42.251,4.6a2.971,2.971,0,0,1,.36-1.482,3.432,3.432,0,0,1,.961-1.1,4.237,4.237,0,0,1,1.388-.694A5.818,5.818,0,0,1,46.643,1.1a6.7,6.7,0,0,1,.894.053c.307.04.587.093.868.147a5.618,5.618,0,0,1,.761.214,2.913,2.913,0,0,1,.561.24,1.154,1.154,0,0,1,.4.334.719.719,0,0,1,.12.44v.627c0,.28-.107.427-.307.427a1.388,1.388,0,0,1-.507-.16A6.107,6.107,0,0,0,46.87,2.9a3.445,3.445,0,0,0-1.775.374,1.289,1.289,0,0,0-.627,1.188,1.26,1.26,0,0,0,.4.948,3.987,3.987,0,0,0,1.468.734l1.9.6A4.06,4.06,0,0,1,50.3,8.028,3.02,3.02,0,0,1,50.914,9.9a3.431,3.431,0,0,1-.347,1.548,3.59,3.59,0,0,1-.974,1.175,4.3,4.3,0,0,1-1.482.747,6.347,6.347,0,0,1-1.911.277Z" transform="translate(-10.773)" fill="#252f3e"></path> <g transform="translate(1.668 16.062)"> <path d="M37.953,122.421c-4.392,3.244-10.772,4.966-16.258,4.966a29.413,29.413,0,0,1-19.849-7.568c-.414-.374-.04-.881.454-.587a39.421,39.421,0,0,0,35.012,2.176C38.046,121.073,38.673,121.887,37.953,122.421Z" transform="translate(-1.668 -118.349)" fill="#f90" fill-rule="evenodd"></path> <path d="M251.488,115.182c-.561-.721-3.711-.347-5.139-.174-.427.053-.494-.32-.107-.6,2.509-1.762,6.634-1.255,7.115-.667s-.133,4.725-2.483,6.7c-.36.307-.707.147-.547-.254C250.861,118.866,252.048,115.89,251.488,115.182Z" transform="translate(-213.375 -113.192)" fill="#f90" fill-rule="evenodd"></path> </g> </g> </symbol> <symbol xmlns="http://www.w3.org/2000/svg" viewBox="0 0 24 24" id="chatgpt"> <g transform="translate(-1 -1)"> <path d="M1,6.762A5.763,5.763,0,0,1,6.762,1H19.234A5.763,5.763,0,0,1,25,6.762V25H6.764A5.763,5.763,0,0,1,1,19.236Z" fill="#74aa9c"></path> <path d="M317.039,299.1a4.57,4.57,0,0,0-4.345,3.146,4.554,4.554,0,0,0-2.448,7.508,4.47,4.47,0,0,0,.385,3.684,4.567,4.567,0,0,0,4.908,2.187,4.511,4.511,0,0,0,3.39,1.515,4.572,4.572,0,0,0,4.346-3.146,4.559,4.559,0,0,0,2.448-7.508v-.006a4.486,4.486,0,0,0-.385-3.69,4.568,4.568,0,0,0-4.9-2.181A4.531,4.531,0,0,0,317.039,299.1Zm0,1.173-.006.006a3.391,3.391,0,0,1,2.172.782c-.025.012-.074.043-.11.061l-3.6,2.072a.584.584,0,0,0-.293.513v4.863l-1.548-.892v-4.02a3.386,3.386,0,0,1,3.385-3.39Zm4.335,1.416a3.384,3.384,0,0,1,3.345,3.955c-.025-.018-.073-.043-.1-.061l-3.6-2.078a.6.6,0,0,0-.593,0l-4.217,2.432v-1.784l3.481-2.01a3.375,3.375,0,0,1,1.683-.459Zm-8.9,1.846v4.27a.591.591,0,0,0,.294.513l4.21,2.425-1.554.9-3.476-2a3.382,3.382,0,0,1,.527-6.1Zm8.066,1.058,3.482,2a3.373,3.373,0,0,1,1.236,4.618l.006.006A3.379,3.379,0,0,1,323.5,312.7v-4.271a.584.584,0,0,0-.294-.513l-4.216-2.432Zm-2.558,1.472,1.775,1.026v2.047l-1.775,1.026-1.775-1.026v-2.047Zm2.79,1.613,1.548.892v4.014a3.386,3.386,0,0,1-3.384,3.385v-.006a3.381,3.381,0,0,1-2.166-.782c.025-.012.08-.043.11-.061l3.6-2.071a.572.572,0,0,0,.294-.513Zm-1.01,2.628v1.784l-3.482,2a3.4,3.4,0,0,1-4.626-1.234h.006a3.351,3.351,0,0,1-.4-2.26c.025.018.074.043.1.061l3.6,2.078a.6.6,0,0,0,.593,0Z" transform="translate(-304.994 -295.12)" fill="#fff"></path> </g> </symbol> <symbol xmlns="http://www.w3.org/2000/svg" xmlns:xlink="http://www.w3.org/1999/xlink" viewBox="0 0 19.997 24.01" id="clickup"> <defs> <linearGradient id="a" x1="0.5" x2="0.5" y2="1" gradientUnits="objectBoundingBox"> <stop offset="0" stop-color="#8930fd"></stop> <stop offset="1" stop-color="#49ccf9"></stop> </linearGradient> <linearGradient id="b" x1="0.5" x2="0.5" y2="1" gradientUnits="objectBoundingBox"> <stop offset="0" stop-color="#ff02f0"></stop> <stop offset="1" stop-color="#ffc800"></stop> </linearGradient> </defs> <g transform="translate(-0.8 -0.32)"> <path d="M.8,45.957l3.692-2.828c1.96,2.559,4.042,3.739,6.362,3.739s4.332-1.166,6.2-3.7l3.743,2.76c-2.7,3.661-6.059,5.6-9.947,5.6S3.584,49.6.8,45.957Z" transform="translate(0 -27.198)" fill="url(#a)"></path> <path d="M11.6,6.469,5.026,12.131,1.99,8.609,11.609.32l9.544,8.295-3.05,3.51Z" transform="translate(-0.759)" fill="url(#b)"></path> </g> </symbol> <symbol xmlns="http://www.w3.org/2000/svg" viewBox="0 0 21.158 24" id="css"> <g transform="translate(-74.632 -4.716)"> <path d="M95.79,100.62l-1.928,21.6-8.662,2.4-8.641-2.4-1.927-21.6Z" transform="translate(0 -95.904)" fill="#004ce8"></path> <path d="M263,149.349l1.643-18.454H256v20.4Z" transform="translate(-170.786 -124.41)" fill="#0065f4"></path> <g transform="translate(78.571 9.124)"> <path d="M150.31,268.217l.238,2.65h5.929l1.14-1.324-1.14-1.324Z" transform="translate(-149.833 -262.848)" fill="#ebebeb"></path> <path d="M148.775,176.3h-6.643l.24,2.65h6.4l1.14-1.324Z" transform="translate(-142.132 -176.3)" fill="#ebebeb"></path> <path d="M162.22,342l1.14-1.4-1.14-1.344h-.012l-2.951-.8-.188-2.116h-2.66l.373,4.159,5.428,1.5Z" transform="translate(-155.575 -326.989)" fill="#ebebeb"></path> </g> <path d="M259.105,184.315l-.307,3.435-2.955.8v2.75l5.43-1.506.04-.448.622-6.97.065-.711.478-5.362h-6.637v2.65h3.734l-.24,2.712h-3.492v2.65Z" transform="translate(-170.638 -167.173)" fill="#fff"></path> </g> </symbol> <symbol xmlns="http://www.w3.org/2000/svg" viewBox="0 0 33.439 24" id="docker"> <g transform="translate(0.001 -72.32)"> <path d="M33.1,147.495a4.452,4.452,0,0,0-2.723-.712,8.391,8.391,0,0,0-1.409.122,5.254,5.254,0,0,0-2.392-3.576l-.478-.276-.314.455a6.483,6.483,0,0,0-.851,1.994,4.719,4.719,0,0,0,.562,3.706,6.521,6.521,0,0,1-2.429.585H1.046A1.043,1.043,0,0,0,0,150.832a15.869,15.869,0,0,0,.965,5.659,8.394,8.394,0,0,0,3.355,4.347,14.838,14.838,0,0,0,7.356,1.582,22.061,22.061,0,0,0,4.081-.369,16.9,16.9,0,0,0,5.326-1.938,14.754,14.754,0,0,0,3.636-2.976,20.214,20.214,0,0,0,3.558-6.13h.308a5.132,5.132,0,0,0,3.735-1.4,4.027,4.027,0,0,0,.983-1.459l.135-.4Z" transform="translate(0 -66.115)" fill="#2496ed"></path> <path d="M43.561,191.348h2.952a.259.259,0,0,0,.257-.257h0v-2.63a.257.257,0,0,0-.257-.257H43.561a.259.259,0,0,0-.257.257h0v2.63a.259.259,0,0,0,.257.257h0" transform="translate(-40.476 -108.316)" fill="#2496ed"></path> <path d="M105.841,191.348h2.949a.259.259,0,0,0,.257-.257h0v-2.63a.257.257,0,0,0-.257-.257h-2.952a.257.257,0,0,0-.257.257v2.63a.259.259,0,0,0,.257.257" transform="translate(-98.688 -108.316)" fill="#2496ed"></path> <path d="M169.12,191.348h2.952a.259.259,0,0,0,.257-.257h0v-2.63a.257.257,0,0,0-.257-.257H169.12a.259.259,0,0,0-.257.257h0v2.63a.257.257,0,0,0,.257.257h0" transform="translate(-157.835 -108.316)" fill="#2496ed"></path> <path d="M231.613,191.348h2.952a.259.259,0,0,0,.258-.257v-2.63a.257.257,0,0,0-.257-.257h-2.952a.259.259,0,0,0-.257.257h0v2.63a.257.257,0,0,0,.257.257h0" transform="translate(-216.247 -108.316)" fill="#2496ed"></path> <path d="M105.841,133.441h2.949a.259.259,0,0,0,.257-.257v-2.63a.259.259,0,0,0-.257-.257h-2.952a.259.259,0,0,0-.257.258v2.63a.259.259,0,0,0,.257.257" transform="translate(-98.688 -54.19)" fill="#2496ed"></path> <path d="M169.12,133.441h2.952a.259.259,0,0,0,.257-.257v-2.63a.259.259,0,0,0-.257-.257H169.12a.259.259,0,0,0-.257.258h0v2.63a.257.257,0,0,0,.257.258" transform="translate(-157.835 -54.19)" fill="#2496ed"></path> <path d="M231.613,133.441h2.952a.257.257,0,0,0,.258-.258v-2.63a.259.259,0,0,0-.257-.257h-2.952a.259.259,0,0,0-.257.258h0v2.63a.257.257,0,0,0,.258.258" transform="translate(-216.247 -54.19)" fill="#2496ed"></path> <path d="M231.613,75.464h2.952a.259.259,0,0,0,.258-.257v-2.63a.259.259,0,0,0-.257-.257h-2.952a.259.259,0,0,0-.257.257h0v2.63a.254.254,0,0,0,.258.257" transform="translate(-216.247)" fill="#2496ed"></path> <path d="M294.6,191.348h2.952a.259.259,0,0,0,.257-.257v-2.63a.257.257,0,0,0-.257-.257H294.6a.259.259,0,0,0-.257.257h0v2.63a.259.259,0,0,0,.257.257" transform="translate(-275.13 -108.316)" fill="#2496ed"></path> </g> </symbol> <symbol xmlns="http://www.w3.org/2000/svg" viewBox="0 0 24 24" id="expressjs"> <g transform="translate(-549 -55)"> <rect width="24" height="24" transform="translate(549 55)" fill="#d5d5d5"></rect> <path d="M22,14.371a1.549,1.549,0,0,1-1.739-.539L17.1,10.257l-.456-.495-3.69,4.082a1.482,1.482,0,0,1-1.65.531l4.724-5.188L11.633,4.5a1.633,1.633,0,0,1,1.743.5l3.277,3.62,3.3-3.6a1.449,1.449,0,0,1,1.634-.5l-1.7,1.85-2.31,2.46a.468.468,0,0,0-.19.375.476.476,0,0,0,.206.37ZM0,9.1.391,7.546A4.769,4.769,0,0,1,3.749,4.478a6.28,6.28,0,0,1,4.977.614A4.562,4.562,0,0,1,10.8,9.564H1.017C.87,12.753,3.675,14.678,7.25,13.7a3.345,3.345,0,0,0,2.364-2.156c.187-.5.5-.582,1.077-.438a4.088,4.088,0,0,1-2.372,2.966,6.749,6.749,0,0,1-6.693-.7A4.481,4.481,0,0,1,.126,10.5C.094,10.32.04,10.15,0,9.979Zm1.029-.214H9.878A4.007,4.007,0,0,0,5.672,4.929,5.162,5.162,0,0,0,2.313,6.092a3.416,3.416,0,0,0-1.278,2.8Z" transform="translate(550 62.566)" fill="#040404"></path> </g> </symbol> <symbol xmlns="http://www.w3.org/2000/svg" viewBox="0 0 24.003 24" id="git"> <g transform="translate(0.001 -0.001)"> <path d="M23.549,10.932,13.069.454a1.546,1.546,0,0,0-2.187,0L8.708,2.627l2.76,2.76A1.836,1.836,0,0,1,13.8,7.727l2.661,2.661a1.838,1.838,0,1,1-1.1,1.04L12.872,8.946V15.48a1.884,1.884,0,0,1,.48.348,1.835,1.835,0,1,1-2-.4v-6.6a1.841,1.841,0,0,1-1-2.411L7.638,3.7.452,10.882a1.547,1.547,0,0,0,0,2.187l10.48,10.479a1.546,1.546,0,0,0,2.187,0L23.55,13.118a1.546,1.546,0,0,0,0-2.186Z" fill="#ee2c37"></path> </g> </symbol> <symbol xmlns="http://www.w3.org/2000/svg" viewBox="0 0 24.002 23.999" id="github"> <g transform="translate(0.001 -5.329)"> <g transform="translate(-0.001 5.329)"> <path d="M12,5.329a12.153,12.153,0,0,0-12,12.3A12.28,12.28,0,0,0,8.208,29.3c.6.113.818-.266.818-.593,0-.293-.011-1.065-.017-2.092-3.337.744-4.042-1.647-4.042-1.647a3.231,3.231,0,0,0-1.332-1.8c-1.091-.763.08-.747.08-.747a2.527,2.527,0,0,1,1.837,1.268,2.52,2.52,0,0,0,3.5,1.021,2.647,2.647,0,0,1,.762-1.645C7.15,22.754,4.348,21.7,4.348,16.986a4.824,4.824,0,0,1,1.236-3.3,4.519,4.519,0,0,1,.12-3.255s1-.325,3.3,1.269a11.1,11.1,0,0,1,6.01,0c2.291-1.591,3.3-1.261,3.3-1.261a4.525,4.525,0,0,1,.12,3.255,4.814,4.814,0,0,1,1.232,3.3c0,4.724-2.8,5.764-5.478,6.069A2.976,2.976,0,0,1,15,25.341c0,1.645-.016,2.971-.016,3.373,0,.329.216.713.826.591A12.282,12.282,0,0,0,24,17.629a12.154,12.154,0,0,0-12-12.3Z" transform="translate(0.001 -5.329)"></path> </g> </g> </symbol> <symbol xmlns="http://www.w3.org/2000/svg" viewBox="0 0 25.632 23.999" id="griffith"> <g transform="translate(0.002)"> <path d="M62.516,0V6.941l1.977,4.926V4.934Zm4.831,0L65.37,4.934v6.935l1.977-4.927ZM59.526,2.349V9.291l4.456,2.853L61.136,7.819V3.379Zm10.809,0-1.6,1.028V7.819L65.88,12.14l4.456-2.849V2.349ZM56.967,5.173v7.475h6.744L58.458,10.53V5.173h-1.5Zm14.445,0V10.53l-5.253,2.121H72.9V5.175H71.4Z" transform="translate(-52.103)" fill="#e92d2e"></path> <path d="M14.175,157.585a4.379,4.379,0,0,0-1.943.327,1.266,1.266,0,0,0-.553,1.281v.277h-.534v.736h.534v2.916h1.37v-2.916h1.433v2.918h1.377V160.2h1.433v2.923l1.37-.006V159.47h-2.8v-.587c0-.332.061-.584.673-.584.057,0,.188.011.3.025a1.006,1.006,0,0,1,.34-.7c-.18-.015-.361-.019-.477-.019a3.469,3.469,0,0,0-1.653.308,1.267,1.267,0,0,0-.56,1.281v.277H13.049v-.583c0-.4.147-.584.786-.584.06,0,.2.005.327.019a1.388,1.388,0,0,1,.553-.723c-.157-.011-.33-.013-.54-.013Zm-9.957.076c-2.011,0-3.311.993-3.311,2.8A2.725,2.725,0,0,0,3.93,163.2a6.555,6.555,0,0,0,1.716-.252v-2.64H4.258v2.029a1.5,1.5,0,0,1-.327.025c-1.165,0-1.509-1.142-1.509-2.136a1.568,1.568,0,0,1,1.766-1.634,3.38,3.38,0,0,1,1.452.308v-1.031a7.428,7.428,0,0,0-1.433-.214Zm5.689.088a.641.641,0,1,0,.742.635.692.692,0,0,0-.743-.636Zm8.1,0a.641.641,0,1,0,0,1.263.641.641,0,1,0,0-1.263Zm1.635.05v1.666H19.1v.736h.534v1.4a1.282,1.282,0,0,0,.553,1.282,2.947,2.947,0,0,0,1.515.308c.107,0,.29,0,.509-.019v-.817a3.286,3.286,0,0,1-.553.05c-.659,0-.654-.458-.654-.974V160.2h1.207v-.736h-1.2V157.8H19.637Zm3.036,0v5.312h1.377v-2.269c0-.379.08-.66.477-.66.351,0,.484.186.484.773v2.156l1.37.006v-2.188a1.583,1.583,0,0,0-.22-1.113,1.412,1.412,0,0,0-1.119-.459,1.378,1.378,0,0,0-.993.333V157.8h-1.38ZM8.5,159.357c-.508,0-.738.467-.854.88v-.78H6.279v3.652h1.37v-1.754c0-.562.312-1.068.742-1.068a1.835,1.835,0,0,1,.409.063v-.969a1.984,1.984,0,0,0-.3-.026Zm.717.107v3.652h1.37v-3.652Z" transform="translate(-0.835 -144.122)" fill="#e92d2e"></path> <path d="M17.793,241.238a1.175,1.175,0,0,0-.767.236.741.741,0,0,0-.294.607.721.721,0,0,0,.268.581,2.377,2.377,0,0,0,.587.3,4.74,4.74,0,0,1,.581.242.56.56,0,0,1,.313.472.606.606,0,0,1-.214.472.854.854,0,0,1-.581.159,1.565,1.565,0,0,1-.868-.313l-.214.249a1.6,1.6,0,0,0,1.079.383,1.25,1.25,0,0,0,.868-.274.9.9,0,0,0,.281-.7.785.785,0,0,0-.281-.6,1.781,1.781,0,0,0-.5-.281c-.184-.069-.384-.135-.568-.2-.284-.131-.422-.3-.422-.5a.457.457,0,0,1,.191-.383.877.877,0,0,1,.555-.147,1.245,1.245,0,0,1,.39.058.941.941,0,0,1,.383.236l.236-.214a1.3,1.3,0,0,0-.51-.313,1.673,1.673,0,0,0-.523-.077ZM0,241.3v1.73a4.987,4.987,0,0,0,.026.683.976.976,0,0,0,.287.594,1.417,1.417,0,0,0,.971.32,1.416,1.416,0,0,0,.961-.313,1.022,1.022,0,0,0,.287-.568,5.651,5.651,0,0,0,.026-.651v-1.8H2.213l-.006,1.829c0,.169,0,.284.006.345a.9.9,0,0,1-.236.641,1.056,1.056,0,0,1-.683.2,1.128,1.128,0,0,1-.741-.223,1.013,1.013,0,0,1-.2-.728V241.29Zm3.282,0v3.282h.345v-2.694l2,2.694h.409V241.3h-.35l.006,2.733L3.663,241.3H3.279Zm3.455,0v3.282H7.1V241.3Zm.8,0L8.8,244.578h.4l1.282-3.282h-.391L9.007,244.17l-1.06-2.87Zm3.311,0v3.282H13.2v-.32h-2V243.01h1.709v-.31H11.2v-1.086h1.9V241.3H10.846Zm2.867,0v3.282h.358v-1.449h.7a.831.831,0,0,1,.562.141.954.954,0,0,1,.16.223c.017.033.057.119.122.249l.4.836h.371l-.543-1.13c-.107-.224-.287-.415-.422-.427a1.026,1.026,0,0,0,.459-.214.78.78,0,0,0,.236-.6.871.871,0,0,0-.287-.671.9.9,0,0,0-.478-.214,4.76,4.76,0,0,0-.543-.019h-1.1Zm5.74,0v3.282h.364V241.3Zm.811,0v.313h1.009v2.969h.351v-2.969h.945V241.3Zm2.484,0,1.271,1.954v1.328h.351V243.25l1.258-1.95h-.415l-1.009,1.584L23.171,241.3Zm-8.678.306h.8a2.4,2.4,0,0,1,.415.026.5.5,0,0,1,.281.128.565.565,0,0,1,.2.427.546.546,0,0,1-.172.422.872.872,0,0,1-.472.2,4.565,4.565,0,0,1-.523.019h-.523V241.6Z" transform="translate(0 -220.63)"></path> </g> </symbol> </svg>
