<svg width="0" height="0" class="hidden"> <symbol xmlns="http://www.w3.org/2000/svg" viewBox="0 0 6 10" id="caret-left"> <path d="M9.139,54.253,5,58.763.862,54.252a.476.476,0,0,0-.714,0,.587.587,0,0,0,0,.778l4.5,4.9h0a.475.475,0,0,0,.713,0l4.5-4.9a.587.587,0,0,0,0-.779A.475.475,0,0,0,9.139,54.253Z" transform="translate(60.091) rotate(90)"></path> </symbol> <symbol xmlns="http://www.w3.org/2000/svg" viewBox="0 0 20 20" id="minus-round"> <path d="M10,0A10,10,0,1,0,20,10,10.011,10.011,0,0,0,10,0Zm4.808,10.769H5.192a.769.769,0,0,1,0-1.538h9.615a.769.769,0,1,1,0,1.538Z"></path> </symbol> <symbol xmlns="http://www.w3.org/2000/svg" viewBox="0 0 20 20" id="minus-round-o"> <path d="M10,0A10,10,0,1,0,20,10,10.011,10.011,0,0,0,10,0Zm0,19.231A9.231,9.231,0,1,1,19.231,10,9.242,9.242,0,0,1,10,19.231Z"></path> <path d="M22.385,25h-10a.385.385,0,1,0,0,.769h10a.385.385,0,1,0,0-.769Z" transform="translate(-7.385 -15.385)"></path> </symbol> <symbol xmlns="http://www.w3.org/2000/svg" viewBox="0 0 20 20" id="minus-square"> <path d="M0,0V20H20V0ZM17,10.667H3V9.333H17Z"></path> </symbol> <symbol xmlns="http://www.w3.org/2000/svg" viewBox="0 0 20 20" id="minus-square-o"> <path d="M0,0V20H20V0ZM19.333,19.333H.667V.667H19.333Z"></path> <rect width="14" height="0.667" transform="translate(3 9.667)"></rect> </symbol> <symbol xmlns="http://www.w3.org/2000/svg" viewBox="0 0 14.762 20" id="next"> <path d="M19.786,0a.476.476,0,0,0-.476.476V9.093L6.247.084A.476.476,0,0,0,5.5.476V19.524a.476.476,0,0,0,.747.392L19.31,10.907v8.617a.476.476,0,0,0,.952,0V.476A.476.476,0,0,0,19.786,0Z" transform="translate(-5.5)"></path> </symbol> <symbol xmlns="http://www.w3.org/2000/svg" viewBox="0 0 14.762 20" id="next-o"> <path d="M19.786,0a.476.476,0,0,0-.476.476V9.093L6.247.084A.476.476,0,0,0,5.5.476V19.524a.476.476,0,0,0,.747.392L19.31,10.907v8.617a.476.476,0,0,0,.952,0V.476A.476.476,0,0,0,19.786,0ZM6.452,18.617V1.383L18.947,10Z" transform="translate(-5.5)"></path> </symbol> <symbol xmlns="http://www.w3.org/2000/svg" viewBox="0 0 20 20" id="plus-round"> <path d="M10,0A10,10,0,1,0,20,10,10.011,10.011,0,0,0,10,0Zm4.808,10.769H10.769V15a.769.769,0,0,1-1.538,0V10.769H5.192a.769.769,0,0,1,0-1.538H9.231V5.385a.769.769,0,1,1,1.538,0V9.231h4.038a.769.769,0,1,1,0,1.538Z"></path> </symbol> <symbol xmlns="http://www.w3.org/2000/svg" viewBox="0 0 20 20" id="plus-round-o"> <path d="M10,0A10,10,0,1,0,20,10,10.011,10.011,0,0,0,10,0Zm0,19.231A9.231,9.231,0,1,1,19.231,10,9.242,9.242,0,0,1,10,19.231Z"></path> <path d="M22.5,17.615H18.077V13.385a.385.385,0,1,0-.769,0v4.231H12.885a.385.385,0,0,0,0,.769h4.423V23a.385.385,0,1,0,.769,0V18.385H22.5a.385.385,0,1,0,0-.769Z" transform="translate(-7.692 -8)"></path> </symbol> <symbol xmlns="http://www.w3.org/2000/svg" viewBox="0 0 20 20" id="plus-square"> <path d="M0,0V20H20V0ZM17,10.667H10.667V17H9.333V10.667H3V9.333H9.333V3h1.333V9.333H17Z"></path> </symbol> <symbol xmlns="http://www.w3.org/2000/svg" viewBox="0 0 20 20" id="plus-square-o"> <path d="M0,0V20H20V0ZM19.333,19.333H.667V.667H19.333Z"></path> <path d="M15.667,23h.667V16.333H23v-.667H16.333V9h-.667v6.667H9v.667h6.667Z" transform="translate(-6 -6)"></path> </symbol> <symbol xmlns="http://www.w3.org/2000/svg" viewBox="0 0 20 18" id="redo"> <g transform="translate(0 -30.864)"> <g transform="translate(0 30.864)"> <path d="M19.756,38.829l-7.5-7.714a.817.817,0,0,0-.908-.186.857.857,0,0,0-.514.792v3.432a11.28,11.28,0,0,0-10.312,8.3A14.429,14.429,0,0,0,.008,47.84l0,.166a.854.854,0,0,0,.611.826.819.819,0,0,0,.937-.387c3.3-5.707,7.67-5.869,9.279-5.708V47.15a.857.857,0,0,0,.514.792.814.814,0,0,0,.908-.186l7.5-7.714A.874.874,0,0,0,19.756,38.829Z" transform="translate(0 -30.864)"></path> </g> </g> </symbol> <symbol xmlns="http://www.w3.org/2000/svg" viewBox="0 0 20 18" id="redo-o"> <g transform="translate(0 -32.109)"> <g transform="translate(0 32.109)"> <path d="M19.756,40.075l-7.5-7.713a.83.83,0,0,0-1.422.606V36.4A11.315,11.315,0,0,0,.527,44.7,13.81,13.81,0,0,0,.006,49c0,.165.006.213.006.247a.829.829,0,0,0,1.549.438A13.072,13.072,0,0,1,4.7,45.929a8.388,8.388,0,0,1,6.142-1.942v4.407A.83.83,0,0,0,12.26,49l7.5-7.713A.875.875,0,0,0,19.756,40.075ZM12.5,46.325V43.252a.853.853,0,0,0-.629-.831,4.853,4.853,0,0,0-.5-.094,9.931,9.931,0,0,0-7.7,2.245,13.068,13.068,0,0,0-1.823,1.772l.013-.069c.066-.352.151-.715.259-1.1a9.619,9.619,0,0,1,9.382-7.071l.133,0a.844.844,0,0,0,.862-.856V35.037l5.485,5.644Z" transform="translate(0 -32.109)"></path> </g> </g> </symbol> <symbol xmlns="http://www.w3.org/2000/svg" viewBox="0 0 6 10" id="caret-right"> <path d="M9.139,54.253,5,58.763.862,54.252a.476.476,0,0,0-.714,0,.587.587,0,0,0,0,.778l4.5,4.9h0a.475.475,0,0,0,.713,0l4.5-4.9a.587.587,0,0,0,0-.779A.475.475,0,0,0,9.139,54.253Z" transform="translate(-54.091 10) rotate(-90)"></path> </symbol> <symbol xmlns="http://www.w3.org/2000/svg" viewBox="0 0 20 20" id="save"> <g transform="translate(-0.5)"> <rect width="2.5" height="4.082" transform="translate(11.75 2.041)"></rect> <path d="M16.923,0H.5V20h20V3.5ZM4.667.816H15.5V7.347H4.667ZM16.75,19.184H3.833V10.612H16.75Z"></path> <path d="M12.917,30.816h2.917a.408.408,0,1,0,0-.816H12.917a.408.408,0,1,0,0,.816Z" transform="translate(-7 -17.755)"></path> <path d="M12.917,34.816h4.167a.408.408,0,1,0,0-.816H12.917a.408.408,0,1,0,0,.816Z" transform="translate(-7 -20.122)"></path> <path d="M25.917,34.824a.435.435,0,0,0,.3-.118.408.408,0,0,0,0-.58.438.438,0,0,0-.588,0,.4.4,0,0,0-.125.29.415.415,0,0,0,.121.29A.433.433,0,0,0,25.917,34.824Z" transform="translate(-14.583 -20.13)"></path> </g> </symbol> <symbol xmlns="http://www.w3.org/2000/svg" viewBox="0 0 20 20" id="save-o"> <g transform="translate(-0.5)"> <path d="M16.922,0H.5V20h20V3.5ZM15.083.816V6.531h-10V.816ZM4.25,19.184V11.429H16.333v7.755Zm15.417,0h-2.5V10.612H3.417v8.571H1.333V.816H4.25V7.347H15.917V.816h.661l3.089,3.026Z"></path> <path d="M12.917,31.816h2.917a.408.408,0,1,0,0-.816H12.917a.408.408,0,1,0,0,.816Z" transform="translate(-7 -18.347)"></path> <path d="M17.083,35H12.917a.408.408,0,1,0,0,.816h4.167a.408.408,0,1,0,0-.816Z" transform="translate(-7 -20.714)"></path> <path d="M25.621,35.126a.408.408,0,0,0,0,.58.433.433,0,0,0,.3.118.443.443,0,0,0,.3-.118.408.408,0,0,0,0-.58A.443.443,0,0,0,25.621,35.126Z" transform="translate(-14.583 -20.722)"></path> <path d="M30,4H27.5V8.082H30Zm-.833,3.265h-.833V4.816h.833Z" transform="translate(-15.75 -2.367)"></path> </g> </symbol> <symbol xmlns="http://www.w3.org/2000/svg" viewBox="0 0 20 20" id="settings"> <path d="M18.97,7.778H17.1a.718.718,0,0,1-.508-1.226l1.323-1.323a1.031,1.031,0,0,0,0-1.457L16.228,2.086a1.054,1.054,0,0,0-1.457,0L13.449,3.409a.7.7,0,0,1-.5.213.747.747,0,0,1-.505-.2.694.694,0,0,1-.22-.521V1.03A1.031,1.031,0,0,0,11.193,0H8.807a1.031,1.031,0,0,0-1.03,1.03V2.9a.716.716,0,0,1-.726.72.7.7,0,0,1-.5-.213L5.229,2.086a1.054,1.054,0,0,0-1.457,0L2.086,3.772a1.031,1.031,0,0,0,0,1.457L3.409,6.551A.718.718,0,0,1,2.9,7.778H1.03A1.031,1.031,0,0,0,0,8.807v2.384a1.031,1.031,0,0,0,1.03,1.03H2.9a.718.718,0,0,1,.508,1.226L2.086,14.771a1.031,1.031,0,0,0,0,1.457l1.686,1.686a1.054,1.054,0,0,0,1.457,0l1.323-1.323a.7.7,0,0,1,.5-.213.717.717,0,0,1,.726.72V18.97A1.031,1.031,0,0,0,8.807,20h2.385a1.031,1.031,0,0,0,1.03-1.03V17.1a.716.716,0,0,1,.726-.72.7.7,0,0,1,.5.213l1.323,1.323a1.054,1.054,0,0,0,1.457,0l1.686-1.686a1.031,1.031,0,0,0,0-1.457l-1.323-1.323a.718.718,0,0,1,.508-1.226H18.97A1.031,1.031,0,0,0,20,11.192V8.807A1.031,1.031,0,0,0,18.97,7.778ZM12.593,10A2.593,2.593,0,1,1,10,7.407,2.6,2.6,0,0,1,12.593,10Z"></path> </symbol> <symbol xmlns="http://www.w3.org/2000/svg" viewBox="0 0 20 20" id="settings-o"> <path d="M18.97,7.778H17.1a.718.718,0,0,1-.508-1.226l1.323-1.323a1.031,1.031,0,0,0,0-1.457L16.228,2.086a1.054,1.054,0,0,0-1.457,0L13.449,3.409A.718.718,0,0,1,12.222,2.9V1.03A1.031,1.031,0,0,0,11.193,0H8.807a1.031,1.031,0,0,0-1.03,1.03V2.9a.718.718,0,0,1-1.226.508L5.229,2.086a1.054,1.054,0,0,0-1.457,0L2.086,3.772a1.031,1.031,0,0,0,0,1.457L3.409,6.551A.718.718,0,0,1,2.9,7.778H1.03A1.031,1.031,0,0,0,0,8.807v2.385a1.031,1.031,0,0,0,1.03,1.03H2.9a.718.718,0,0,1,.508,1.226L2.086,14.771a1.031,1.031,0,0,0,0,1.457l1.686,1.686a1.054,1.054,0,0,0,1.457,0l1.323-1.323a.718.718,0,0,1,1.226.508V18.97A1.031,1.031,0,0,0,8.807,20h2.385a1.031,1.031,0,0,0,1.03-1.03V17.1a.718.718,0,0,1,1.226-.508l1.323,1.323a1.054,1.054,0,0,0,1.457,0l1.686-1.686a1.031,1.031,0,0,0,0-1.457l-1.323-1.323a.718.718,0,0,1,.509-1.226H18.97A1.031,1.031,0,0,0,20,11.193V8.807A1.031,1.031,0,0,0,18.97,7.778Zm.289,3.415a.289.289,0,0,1-.289.289H17.1a1.459,1.459,0,0,0-1.032,2.491L17.39,15.3a.289.289,0,0,1,0,.409L15.7,17.39a.289.289,0,0,1-.409,0l-1.323-1.323A1.459,1.459,0,0,0,11.481,17.1V18.97a.289.289,0,0,1-.289.289H8.807a.289.289,0,0,1-.289-.289V17.1a1.436,1.436,0,0,0-.9-1.348,1.476,1.476,0,0,0-.568-.115,1.439,1.439,0,0,0-1.023.431L4.7,17.39a.289.289,0,0,1-.409,0L2.61,15.7a.289.289,0,0,1,0-.409l1.323-1.323A1.459,1.459,0,0,0,2.9,11.481H1.03a.289.289,0,0,1-.289-.289V8.807a.289.289,0,0,1,.289-.289H2.9A1.459,1.459,0,0,0,3.933,6.027L2.61,4.7a.289.289,0,0,1,0-.409L4.3,2.61a.289.289,0,0,1,.409,0L6.027,3.932A1.459,1.459,0,0,0,8.519,2.9V1.03A.289.289,0,0,1,8.807.741h2.385a.289.289,0,0,1,.289.289V2.9a1.459,1.459,0,0,0,2.491,1.032L15.3,2.61a.289.289,0,0,1,.409,0L17.39,4.3a.289.289,0,0,1,0,.409L16.067,6.028A1.459,1.459,0,0,0,17.1,8.519H18.97a.289.289,0,0,1,.289.289Z"></path> <path d="M21.333,18a3.333,3.333,0,1,0,3.333,3.333A3.337,3.337,0,0,0,21.333,18Zm0,5.926a2.593,2.593,0,1,1,2.593-2.593A2.6,2.6,0,0,1,21.333,23.926Z" transform="translate(-11.333 -11.333)"></path> </symbol> <symbol xmlns="http://www.w3.org/2000/svg" viewBox="0 0 20 20" id="tick-round"> <path d="M10,0A10,10,0,1,0,20,10,10.011,10.011,0,0,0,10,0Zm5.575,6.665L9.421,13.588a.77.77,0,0,1-1.056.09L4.519,10.6A.769.769,0,0,1,5.48,9.4l3.276,2.62,5.669-6.377a.769.769,0,0,1,1.15,1.023Z"></path> </symbol> <symbol xmlns="http://www.w3.org/2000/svg" viewBox="0 0 20 20" id="tick-round-o"> <path d="M10,0A10,10,0,1,0,20,10,10.011,10.011,0,0,0,10,0Zm0,19.231A9.231,9.231,0,1,1,19.231,10,9.242,9.242,0,0,1,10,19.231Z"></path> <path d="M22.1,15.129l-5.911,6.65L12.625,18.93a.385.385,0,0,0-.48.6l3.846,3.077a.385.385,0,0,0,.528-.045l6.154-6.923a.385.385,0,0,0-.575-.511Z" transform="translate(-7.385 -9.23)"></path> </symbol> <symbol xmlns="http://www.w3.org/2000/svg" viewBox="0 0 20 20" id="tick-square"> <path d="M0,0V20H20V0ZM14.832,7.443l-5.333,6a.667.667,0,0,1-.915.078L5.25,10.854a.667.667,0,0,1,.833-1.041l2.839,2.271,4.913-5.527a.667.667,0,0,1,1,.886Z"></path> </symbol> <symbol xmlns="http://www.w3.org/2000/svg" viewBox="0 0 20 20" id="tick-square-o"> <path d="M19.459,26.594a.334.334,0,0,0,.458-.039l5.333-6a.333.333,0,0,0-.5-.443l-5.123,5.763-3.086-2.469a.333.333,0,0,0-.416.521Z" transform="translate(-10.667 -13.333)"></path> <path d="M0,0V20H20V0ZM19.333,19.333H.667V.667H19.333Z"></path> </symbol> <symbol xmlns="http://www.w3.org/2000/svg" viewBox="0 0 16.272 20" id="trash"> <path d="M18.169,2.034H13.408A2.7,2.7,0,0,0,12.8.437,1.439,1.439,0,0,0,11.729,0H8.339A1.439,1.439,0,0,0,7.273.437a2.688,2.688,0,0,0-.614,1.6H2.576a.339.339,0,1,0,0,.678h.692l.649,15.6A1.645,1.645,0,0,0,5.581,20h9.583a1.644,1.644,0,0,0,1.664-1.681l.65-15.607h.691a.339.339,0,1,0,0-.678ZM7.322,16.949a.339.339,0,1,1-.678,0V5.763a.339.339,0,1,1,.678,0Zm3.39,0a.339.339,0,1,1-.678,0V5.763a.339.339,0,1,1,.678,0Zm3.39,0a.339.339,0,1,1-.678,0V5.763a.339.339,0,1,1,.678,0ZM7.76.909A.767.767,0,0,1,8.339.678h3.39a.765.765,0,0,1,.578.231,2,2,0,0,1,.421,1.125H7.34A1.994,1.994,0,0,1,7.76.909Z" transform="translate(-2.237)"></path> </symbol> <symbol xmlns="http://www.w3.org/2000/svg" viewBox="0 0 16.271 20" id="trash-o"> <g transform="translate(-5.5)"> <path d="M28.839,27.864a.339.339,0,0,0,.339-.339V16.339a.339.339,0,1,0-.678,0V27.525A.339.339,0,0,0,28.839,27.864Z" transform="translate(-15.203 -10.576)"></path> <path d="M18.839,27.864a.339.339,0,0,0,.339-.339V16.339a.339.339,0,1,0-.678,0V27.525A.339.339,0,0,0,18.839,27.864Z" transform="translate(-8.593 -10.576)"></path> <path d="M38.839,27.864a.339.339,0,0,0,.339-.339V16.339a.339.339,0,1,0-.678,0V27.525A.339.339,0,0,0,38.839,27.864Z" transform="translate(-21.814 -10.576)"></path> <path d="M21.432,2.034H16.672a2.694,2.694,0,0,0-.615-1.6A1.434,1.434,0,0,0,14.991,0H11.6a1.434,1.434,0,0,0-1.066.437,2.694,2.694,0,0,0-.615,1.6H5.839a.339.339,0,1,0,0,.678h.692l.649,15.6A1.645,1.645,0,0,0,8.844,20h9.584a1.643,1.643,0,0,0,1.663-1.681L20.74,2.712h.692a.339.339,0,1,0,0-.678ZM11.023.909A.768.768,0,0,1,11.6.678h3.389a.768.768,0,0,1,.579.231,2,2,0,0,1,.42,1.125H10.6A2,2,0,0,1,11.023.909ZM19.413,18.3a.984.984,0,0,1-.986,1.024H8.844a1,1,0,0,1-.986-1.031L7.209,2.712H20.062Z"></path> </g> </symbol> <symbol xmlns="http://www.w3.org/2000/svg" viewBox="0 0 20 18" id="undo"> <g transform="translate(0 -32.446)"> <g transform="translate(0 32.446)"> <path d="M19.381,44.967A11.254,11.254,0,0,0,9.166,36.749V33.305a.859.859,0,0,0-.514-.793.814.814,0,0,0-.908.186l-7.5,7.729a.876.876,0,0,0,0,1.214l7.5,7.729a.814.814,0,0,0,.908.186.859.859,0,0,0,.514-.793V44.344c1.618-.169,5.984,0,9.283,5.718a.773.773,0,0,0,.685.385.947.947,0,0,0,.252-.035A.905.905,0,0,0,20,49.544,15.883,15.883,0,0,0,19.381,44.967Z" transform="translate(0 -32.446)"></path> </g> </g> </symbol> <symbol xmlns="http://www.w3.org/2000/svg" viewBox="0 0 20 18" id="undo-o"> <g transform="translate(-0.001 -31.986)"> <g transform="translate(0.001 31.986)"> <path d="M19.929,47.359a15.941,15.941,0,0,0-.548-2.877A11.257,11.257,0,0,0,9.166,36.277V32.845a.831.831,0,0,0-1.422-.606l-7.5,7.713a.874.874,0,0,0,0,1.212l7.5,7.713a.831.831,0,0,0,1.422-.606V43.863a8.4,8.4,0,0,1,6.145,1.942,13.073,13.073,0,0,1,3.138,3.76A.83.83,0,0,0,20,49.128c0-.039,0-.039,0-.109A14.644,14.644,0,0,0,19.929,47.359Zm-3.6-2.911a9.939,9.939,0,0,0-7.7-2.245,4.858,4.858,0,0,0-.5.094.853.853,0,0,0-.63.831V46.2L2.012,40.558,7.5,34.914V37.13a.844.844,0,0,0,.862.856l.13,0a9.556,9.556,0,0,1,9.291,6.986q.166.576.278,1.144A13.006,13.006,0,0,0,16.33,44.449Z" transform="translate(-0.001 -31.986)"></path> </g> </g> </symbol> <symbol xmlns="http://www.w3.org/2000/svg" viewBox="0 0 10 6" id="caret-up"> <path d="M9.139,54.253,5,58.763.862,54.252a.476.476,0,0,0-.714,0,.587.587,0,0,0,0,.778l4.5,4.9h0a.475.475,0,0,0,.713,0l4.5-4.9a.587.587,0,0,0,0-.779A.475.475,0,0,0,9.139,54.253Z" transform="translate(10 60.091) rotate(180)"></path> </symbol> <symbol xmlns="http://www.w3.org/2000/svg" viewBox="0 0 20 20" id="warning"> <path d="M4000.026,1689a2.024,2.024,0,0,1-1.81-2.929l7.974-15.951a2.024,2.024,0,0,1,3.621,0l7.975,15.951a2.025,2.025,0,0,1-1.811,2.929Zm7.561-18.183-7.974,15.952a.462.462,0,0,0,.413.669h15.948a.462.462,0,0,0,.412-.669l-7.973-15.952a.462.462,0,0,0-.826,0Zm-.642,13.659a1.055,1.055,0,1,1,1.055,1.055A1.055,1.055,0,0,1,4006.945,1684.476Zm.274-2.735v-4.926a.781.781,0,1,1,1.562,0v4.926a.781.781,0,1,1-1.562,0Z" transform="translate(-3998 -1669)"></path> </symbol> <symbol xmlns="http://www.w3.org/2000/svg" viewBox="0 0 20 20" id="warning-round"> <path d="M5004,1998a10,10,0,1,1,10,10A9.994,9.994,0,0,1,5004,1998Zm1.562,0a8.438,8.438,0,1,0,8.438-8.438A8.433,8.433,0,0,0,5005.563,1998Zm7.382,3.639a1.055,1.055,0,1,1,1.055,1.055A1.055,1.055,0,0,1,5012.945,2001.639Zm.273-2.793v-5.031a.781.781,0,0,1,1.563,0v5.031a.781.781,0,1,1-1.562,0Z" transform="translate(-5004 -1988)"></path> </symbol> <symbol xmlns="http://www.w3.org/2000/svg" viewBox="0 0 14.762 20" id="back"> <path d="M20.007.054a.478.478,0,0,0-.492.03L6.452,9.093V.476a.476.476,0,0,0-.952,0V19.524a.476.476,0,0,0,.952,0V10.907l13.063,9.009a.479.479,0,0,0,.492.03.477.477,0,0,0,.255-.422V.476A.477.477,0,0,0,20.007.054Z" transform="translate(-5.5)"></path> </symbol> <symbol xmlns="http://www.w3.org/2000/svg" viewBox="0 0 14.762 20" id="back-o"> <path d="M20.007.054a.478.478,0,0,0-.492.03L6.452,9.093V.476a.476.476,0,0,0-.952,0V19.524a.476.476,0,0,0,.952,0V10.907l13.063,9.009a.479.479,0,0,0,.492.03.477.477,0,0,0,.255-.422V.476A.477.477,0,0,0,20.007.054Zm-.7,18.563L6.815,10,19.31,1.383Z" transform="translate(-5.5)"></path> </symbol> <symbol xmlns="http://www.w3.org/2000/svg" viewBox="0 0 20 20" id="close"> <path d="M4.488,4.488a1.667,1.667,0,0,1,2.357,0L14,11.643l7.155-7.155a1.667,1.667,0,1,1,2.357,2.357L16.357,14l7.155,7.155a1.667,1.667,0,1,1-2.357,2.357L14,16.357,6.845,23.512a1.667,1.667,0,1,1-2.357-2.357L11.643,14,4.488,6.845a1.667,1.667,0,0,1,0-2.357Z" transform="translate(-4 -4)"></path> </symbol> <symbol xmlns="http://www.w3.org/2000/svg" viewBox="0 0 20 20" id="cross-round"> <g transform="translate(0 0)"> <path d="M17.074,2.926a10,10,0,1,0,0,14.149A10.016,10.016,0,0,0,17.074,2.926Zm-3.129,11.02a.769.769,0,0,1-1.088,0L10,11.088,7.007,14.081a.769.769,0,0,1-1.088-1.088L8.912,10,6.055,7.143A.769.769,0,0,1,7.143,6.055L10,8.912l2.721-2.721a.769.769,0,0,1,1.088,1.088L11.088,10l2.857,2.857A.769.769,0,0,1,13.945,13.945Z" transform="translate(0 0)"></path> </g> </symbol> <symbol xmlns="http://www.w3.org/2000/svg" viewBox="0 0 20 20" id="cross-round-o"> <path d="M10,0A10,10,0,1,0,20,10,10.011,10.011,0,0,0,10,0Zm0,19.231A9.231,9.231,0,1,1,19.231,10,9.242,9.242,0,0,1,10,19.231Z"></path> <path d="M23.579,16.113a.384.384,0,0,0-.544,0l-3.19,3.19-3.19-3.19a.385.385,0,1,0-.544.544l3.19,3.19-3.19,3.19a.385.385,0,1,0,.544.544l3.19-3.19,3.19,3.19a.385.385,0,0,0,.544-.544l-3.19-3.19,3.19-3.19A.384.384,0,0,0,23.579,16.113Z" transform="translate(-9.846 -9.846)"></path> </symbol> <symbol xmlns="http://www.w3.org/2000/svg" viewBox="0 0 20 20" id="cross-square"> <path d="M0,0V20H20V0ZM15.471,14.428l-.943.943L10.05,10.892,5.572,15.371l-.943-.943L9.108,9.95,4.629,5.471l.943-.943L10.05,9.007l4.478-4.478.943.943L10.993,9.95Z"></path> </symbol> <symbol xmlns="http://www.w3.org/2000/svg" viewBox="0 0 20 20" id="cross-square-o"> <path d="M0,0V20H20V0ZM19.333,19.333H.667V.667H19.333Z"></path> <path d="M15.066,24.664,19.78,19.95l4.714,4.714.471-.471-4.714-4.714,4.714-4.714-.471-.471L19.78,19.007l-4.714-4.714-.471.471,4.714,4.714L14.6,24.192Z" transform="translate(-9.73 -9.529)"></path> </symbol> <symbol xmlns="http://www.w3.org/2000/svg" viewBox="0 0 10 6" id="caret-down"> <path d="M9.139,54.253,5,58.763.862,54.252a.476.476,0,0,0-.714,0,.587.587,0,0,0,0,.778l4.5,4.9h0a.475.475,0,0,0,.713,0l4.5-4.9a.587.587,0,0,0,0-.779A.475.475,0,0,0,9.139,54.253Z" transform="translate(0 -54.091)"></path> </symbol> <symbol xmlns="http://www.w3.org/2000/svg" viewBox="0 0 20 20" id="help"> <path d="M5004,1998a10,10,0,1,1,10,10A9.994,9.994,0,0,1,5004,1998Zm1.4,0a8.6,8.6,0,1,0,8.6-8.6A8.614,8.614,0,0,0,5005.4,1998Zm7.308,3.667a1.012,1.012,0,0,1,1-1.014,1.014,1.014,0,0,1,0,2.027A1.011,1.011,0,0,1,5012.7,2001.667Zm.264-2.8a2.408,2.408,0,0,1,.881-2c.435-.369,1.171-.777,1.171-1.488,0-.605-.525-.9-1.184-.9-1.343,0-1.054,1.014-1.764,1.014a.756.756,0,0,1-.791-.75c0-.711.817-1.764,2.594-1.764,1.685,0,2.8.934,2.8,2.172a3.371,3.371,0,0,1-1.474,2.408,1.652,1.652,0,0,0-.738,1.646c0,.25-.132.54-.776.54C5013.152,1999.745,5012.968,1999.548,5012.968,1998.864Z" transform="translate(-5004 -1988)"></path> </symbol> <symbol xmlns="http://www.w3.org/2000/svg" viewBox="0 0 20 20" id="home"> <path d="M20.573,8.972,17.234,5.944v-3.8H14.476v1.3L10.683,0,.793,8.972a.332.332,0,0,0-.018.476.351.351,0,0,0,.488.018L2.752,8.115V20H8.269V11.893a.66.66,0,0,1,.668-.653h3.492a.66.66,0,0,1,.668.653V20h5.517V8.115L20.1,9.466a.351.351,0,0,0,.487-.018A.332.332,0,0,0,20.573,8.972Z" transform="translate(-0.683)"></path> </symbol> <symbol xmlns="http://www.w3.org/2000/svg" viewBox="0 0 20 20" id="home-o"> <path d="M20.073,9.126,17.079,6.364V1.838H13.631V3.182L10.183,0,.293,9.126a.342.342,0,0,0-.018.485.347.347,0,0,0,.488.018L1.907,8.572V20H18.459V8.572L19.6,9.628a.344.344,0,1,0,.469-.5Zm-5.752-6.6H16.39v3.2L14.321,3.818ZM8.114,19.315V12.1a.322.322,0,0,1,.323-.321h3.492a.322.322,0,0,1,.323.321v7.218H8.114Zm9.655,0H12.941V12.1a1.011,1.011,0,0,0-1.013-1.006H8.437A1.011,1.011,0,0,0,7.424,12.1v7.218H2.6V7.936l7.586-7,4.924,4.544L17.079,7.3h0l.69.636Z" transform="translate(-0.183)"></path> </symbol> <symbol xmlns="http://www.w3.org/2000/svg" viewBox="0 0 20 20" id="info"> <path d="M5004,1998a10,10,0,1,1,10,10A9.994,9.994,0,0,1,5004,1998Zm1.562,0a8.438,8.438,0,1,0,8.438-8.438A8.433,8.433,0,0,0,5005.563,1998Zm7.656,4.185v-5.031a.781.781,0,1,1,1.563,0v5.031a.781.781,0,0,1-1.562,0Zm-.273-7.824a1.055,1.055,0,1,1,1.055,1.054A1.056,1.056,0,0,1,5012.945,1994.361Z" transform="translate(-5004 -1988)"></path> </symbol> </svg>
