<svg xmlns="http://www.w3.org/2000/svg" xmlns:xlink="http://www.w3.org/1999/xlink" width="150" height="150" viewBox="0 0 150 150"><pattern width="28.8" height="28.8" patternUnits="userSpaceOnUse" id="aU" viewBox="2.9 -31.7 28.8 28.8" overflow="visible"><path fill="none" d="M2.9-2.9h28.8v-28.8H2.9z"/><path fill="none" d="M2.9-2.9h28.8v-28.8H2.9z"/><path d="M31.7-34.6c1.6 0 2.9 1.3 2.9 2.9s-1.3 2.9-2.9 2.9c-1.6 0-2.9-1.3-2.9-2.9s1.3-2.9 2.9-2.9zm-14.4 0c1.6 0 2.9 1.3 2.9 2.9s-1.3 2.9-2.9 2.9c-1.6 0-2.9-1.3-2.9-2.9s1.3-2.9 2.9-2.9zm14.4 14.4c1.6 0 2.9 1.3 2.9 2.9 0 1.6-1.3 2.9-2.9 2.9-1.6 0-2.9-1.3-2.9-2.9 0-1.6 1.3-2.9 2.9-2.9zm-14.4 0c1.6 0 2.9 1.3 2.9 2.9 0 1.6-1.3 2.9-2.9 2.9-1.6 0-2.9-1.3-2.9-2.9 0-1.6 1.3-2.9 2.9-2.9zm-7.2-7.2c1.6 0 2.9 1.3 2.9 2.9s-1.3 2.9-2.9 2.9-2.9-1.3-2.9-2.9 1.3-2.9 2.9-2.9zm14.4 0c1.6 0 2.9 1.3 2.9 2.9s-1.3 2.9-2.9 2.9-2.9-1.3-2.9-2.9 1.3-2.9 2.9-2.9zM10.1-13c1.6 0 2.9 1.3 2.9 2.9s-1.3 2.9-2.9 2.9-2.9-1.3-2.9-2.9S8.5-13 10.1-13zm14.4 0c1.6 0 2.9 1.3 2.9 2.9s-1.3 2.9-2.9 2.9-2.9-1.3-2.9-2.9 1.3-2.9 2.9-2.9zM2.9-34.6c1.6 0 2.9 1.3 2.9 2.9s-1.3 2.9-2.9 2.9S0-30.1 0-31.7s1.3-2.9 2.9-2.9zm0 14.4c1.6 0 2.9 1.3 2.9 2.9 0 1.6-1.3 2.9-2.9 2.9S0-15.7 0-17.3c0-1.6 1.3-2.9 2.9-2.9zM31.7-5.8c1.6 0 2.9 1.3 2.9 2.9 0 1.6-1.3 2.9-2.9 2.9-1.6 0-2.9-1.3-2.9-2.9 0-1.6 1.3-2.9 2.9-2.9zm-14.4 0c1.6 0 2.9 1.3 2.9 2.9 0 1.6-1.3 2.9-2.9 2.9-1.6 0-2.9-1.3-2.9-2.9 0-1.6 1.3-2.9 2.9-2.9zm-14.4 0c1.6 0 2.9 1.3 2.9 2.9C5.8-1.3 4.5 0 2.9 0S0-1.3 0-2.9c0-1.6 1.3-2.9 2.9-2.9z" fill="#231F20"/></pattern><radialGradient id="a" cx="74.258" cy="73.893" r="74.063" gradientTransform="matrix(1.0101 0 0 1.0152 -.008 -.018)" gradientUnits="userSpaceOnUse"><stop offset="0" stop-color="#2484c6" stop-opacity="0"/><stop offset=".003" stop-color="#2784c4" stop-opacity=".003"/><stop offset=".048" stop-color="#4290b2" stop-opacity=".048"/><stop offset=".095" stop-color="#549aa0" stop-opacity=".097"/><stop offset=".149" stop-color="#63a48e" stop-opacity=".151"/><stop offset=".206" stop-color="#6fac7d" stop-opacity=".209"/><stop offset=".269" stop-color="#79b36b" stop-opacity=".273"/><stop offset=".34" stop-color="#81b95a" stop-opacity=".345"/><stop offset=".421" stop-color="#86be4e" stop-opacity=".427"/><stop offset=".52" stop-color="#8ac245" stop-opacity=".528"/><stop offset=".654" stop-color="#8cc540" stop-opacity=".664"/><stop offset=".985" stop-color="#8dc63f"/></radialGradient><path fill="url(#a)" d="M0 0h150v150H0z"/><radialGradient id="b" cx="-228.66" cy="-2784.848" r="24.946" gradientTransform="matrix(.6667 0 0 -.0619 204.663 -37.63)" gradientUnits="userSpaceOnUse"><stop offset="0" stop-color="#424143"/><stop offset="1" stop-color="#424143" stop-opacity="0"/></radialGradient><ellipse fill="url(#b)" cx="52.264" cy="134.819" rx="23.5" ry="1.5"/><radialGradient id="c" cx="-160.19" cy="-2784.848" r="24.921" gradientTransform="matrix(.6667 0 0 -.0619 204.663 -37.63)" gradientUnits="userSpaceOnUse"><stop offset="0" stop-color="#424143"/><stop offset="1" stop-color="#424143" stop-opacity="0"/></radialGradient><ellipse fill="url(#c)" cx="97.864" cy="134.819" rx="23.5" ry="1.5"/><radialGradient id="d" cx="-1190.577" cy="-5230.436" r="24.954" gradientTransform="matrix(1.1005 0 0 -.0345 1385.895 -45.466)" gradientUnits="userSpaceOnUse"><stop offset="0" stop-color="#424143"/><stop offset="1" stop-color="#424143" stop-opacity="0"/></radialGradient><ellipse opacity=".25" fill="url(#d)" cx="75.664" cy="134.82" rx="38.7" ry=".9"/><linearGradient id="e" gradientUnits="userSpaceOnUse" x1="-314.908" y1="255.852" x2="-278.106" y2="255.852" gradientTransform="matrix(1 0 0 -1 379.04 354.34)"><stop offset="0" stop-color="#1a1a1a"/><stop offset="1" stop-color="#010101"/></linearGradient><path fill="url(#e)" d="M74.564 77.42c-1.7 1.199-3.9 5.6-3.9 6.5 0 .899 3.4 7.6 4 9.199.6 1.5.6 5.2.2 6.7-.4 1.5-5.5 8.601-9.3 12-3.9 3.4 1.399 8.7 1.399 8.7s11.1-5.1 15.2-5.3c4.1-.2 10.1.7 10.7 3.3.6 2.6.5 4.3.5 4.3l6.899-.7s.4-4.6.601-6.6c.199-1.9-.7-3.3-2-4.5-2.5-2.1-4.4-1.2-7.801-4.8 0 0-2.8.6-1.399-2.9 1.6-4.1 4.3-12.2 3.899-14.8-.5-2.6 2.4-20.6-4.199-12.1-1.601 2.1-9.2-.101-9.7 0-.499.101-5.099 1.001-5.099 1.001z"/><linearGradient id="f" gradientUnits="userSpaceOnUse" x1="-304.476" y1="259.293" x2="-294.996" y2="259.293" gradientTransform="matrix(1 0 0 -1 379.04 354.34)"><stop offset="0" stop-color="#676767"/><stop offset="1" stop-color="#010101"/></linearGradient><path fill="url(#f)" d="M74.564 92.72c1.1 1.3.8 6.3.6 6.8 1-.2 5.3 1.1 8.899 1.2-2.899-.9-4.699-1.3-5.899-2s3.6-1.101.899-1.5c-2.6-.4.101-1.3-1.3-1.601-1.5-.3.101-1.3-.899-1.3s-1.8-5.5-1.8-4.899c-.2 1.5-.5 3.3-.5 3.3z"/><linearGradient id="g" gradientUnits="userSpaceOnUse" x1="-337.198" y1="159.363" x2="-314.983" y2="159.363" gradientTransform="scale(1 -1) rotate(1.559 10300.145 14117.719)"><stop offset="0" stop-color="#1a1a1a"/><stop offset="1" stop-color="#010101"/></linearGradient><path fill="url(#g)" d="M60.164 113.319c.4-.2 7.1 1.4 8 5.8.3 1.301.5 1.601.4 1.7-.2.101-6.5 4.7-7.2 6.101-.7 1.399-.601 4.199-.2 5.199s0 2.101-.9 3c-.899.9-9.199.5-11 .301-1.8-.2-2.5-1.601-2.6-2.7-.1-1.101.9-2.601 1.8-3.5.9-.8 3.601-3 4.5-4.601.9-1.6 1.8-2 2.9-3.699 1.2-1.7 3.1-5.301 3.3-6.101s1-1.5 1-1.5z"/><linearGradient id="h" gradientUnits="userSpaceOnUse" x1="-331.841" y1="222.994" x2="-318.322" y2="223.362" gradientTransform="matrix(1 0 0 -1 379.04 354.34)"><stop offset="0" stop-color="#676767"/><stop offset="1" stop-color="#010101"/></linearGradient><path fill="url(#h)" d="M47.564 131.619c-.301.7-.5 1.301-.101 2.101.4.7.601.899 1.7.6s1.1-.6 2.1-.5c1 .101 1.101.3 2.101-.3 1-.5 1.3-.4 2-.3.6.1 1.1.399 1.7-.101.699-.5 1.5-1.1 2.5-.5.899.601.8 1 1.1.101.3-.9.4-2.4-2.1-4.101-2.7-1.699-9.9.2-11 3z"/><linearGradient id="i" gradientUnits="userSpaceOnUse" x1="-329.212" y1="227.203" x2="-318.789" y2="227.487" gradientTransform="matrix(1 0 0 -1 379.04 354.34)"><stop offset="0" stop-color="#676767"/><stop offset="1" stop-color="#010101"/></linearGradient><path fill="url(#i)" d="M52.264 126.42c1.101-1.4 1.9-1.301 3.601-1.301s3.3.7 3.7 1.101c.399.399.8 1.1.8 1.7 0 .6-.7-.101-2.7-.2-2.1-.101-4.7-.101-7.4 1.2-1.101.5.899-1.101 1.999-2.5z"/><linearGradient id="j" gradientUnits="userSpaceOnUse" x1="-325.49" y1="233.947" x2="-311.023" y2="234.341" gradientTransform="matrix(1 0 0 -1 379.04 354.34)"><stop offset="0" stop-color="#676767"/><stop offset="1" stop-color="#010101"/></linearGradient><path fill="url(#j)" d="M53.664 124.619c.1-.899.2-.899.8-1.6.601-.6 3-3.8 3.8-5.4.801-1.6 1.301-3 1.601-3.399.3-.4 4.6-.101 5.899 1.899 1.2 2 2.2 3.4 2.2 4 0 .601-3.8 2.801-5.399 4.5-1.601 1.7-2.101 2-2.601 1.5-.399-.5-3.5-1.6-4.8-1.699-.3 0-1.5.199-1.5.199z"/><linearGradient id="k" gradientUnits="userSpaceOnUse" x1="-321.335" y1="234.213" x2="-314.702" y2="233.291" gradientTransform="matrix(1 0 0 -1 379.04 354.34)"><stop offset="0" stop-color="#b4b4b4"/><stop offset=".495" stop-color="#676767"/><stop offset="1" stop-color="#010101"/></linearGradient><path fill="url(#k)" d="M58.864 116.02c-.4.3-.8.4-.5.7s4.8 8.2 5.1 8.399c.3.301.5-.1.5-.399-.2-.3-5.1-8.7-5.1-8.7z"/><linearGradient id="l" gradientUnits="userSpaceOnUse" x1="-321.746" y1="234.214" x2="-315.111" y2="233.291" gradientTransform="matrix(1 0 0 -1 379.04 354.34)"><stop offset="0" stop-color="#b4b4b4"/><stop offset=".495" stop-color="#676767"/><stop offset="1" stop-color="#010101"/></linearGradient><path fill="url(#l)" d="M58.464 116.02c-.399.3-.8.4-.5.7s4.8 8.2 5.101 8.399c.3.301.5-.1.5-.399-.201-.3-5.101-8.7-5.101-8.7z"/><linearGradient id="m" gradientUnits="userSpaceOnUse" x1="-619.782" y1="-849.268" x2="-611.656" y2="-850.398" gradientTransform="scale(1 -1) rotate(24.935 -1917.53 1033.511)"><stop offset="0" stop-color="#b4b4b4"/><stop offset=".495" stop-color="#676767"/><stop offset="1" stop-color="#010101"/></linearGradient><path fill="url(#m)" d="M52.764 123.72c-.3.2-.699.399-.399.7.3.3 8 1.399 8.6 2.3.3.399.9.5.601-.101-.7-1.399-8-2.899-7.9-2.8-.402-.099-.902-.099-.902-.099z"/><linearGradient id="n" gradientUnits="userSpaceOnUse" x1="-620.195" y1="-849.635" x2="-612.069" y2="-850.765" gradientTransform="scale(1 -1) rotate(24.935 -1917.53 1033.511)"><stop offset="0" stop-color="#b4b4b4"/><stop offset=".495" stop-color="#676767"/><stop offset="1" stop-color="#010101"/></linearGradient><path fill="url(#n)" d="M52.564 124.22c-.301.2-.7.399-.4.7.3.3 8 1.399 8.6 2.3.301.399.9.5.601-.101-.7-1.6-7.4-2.8-7.9-2.8-.401-.099-.901-.099-.901-.099z"/><linearGradient id="o" gradientUnits="userSpaceOnUse" x1="-330.688" y1="226.481" x2="-318.334" y2="224.763" gradientTransform="matrix(1 0 0 -1 379.04 354.34)"><stop offset="0" stop-color="#b4b4b4"/><stop offset=".495" stop-color="#676767"/><stop offset="1" stop-color="#010101"/></linearGradient><path fill="url(#o)" d="M48.764 128.92c-.699.199-.699.8-.6.699.1-.1 9-2.699 12.3-.3.3.2.5-.5.3-.7-3-3.099-12 .301-12 .301z"/><linearGradient id="p" gradientUnits="userSpaceOnUse" x1="-330.372" y1="226.877" x2="-318.017" y2="225.159" gradientTransform="matrix(1 0 0 -1 379.04 354.34)"><stop offset="0" stop-color="#b4b4b4"/><stop offset=".495" stop-color="#676767"/><stop offset="1" stop-color="#010101"/></linearGradient><path fill="url(#p)" d="M49.064 128.52c-.7.2-.7.8-.601.7.101-.101 9-2.7 12.3-.3.301.199.5-.5.301-.7-3-3.101-12 .3-12 .3z"/><linearGradient id="q" gradientUnits="userSpaceOnUse" x1="-324.631" y1="228.612" x2="-310.955" y2="228.984" gradientTransform="matrix(1 0 0 -1 379.04 354.34)"><stop offset="0" stop-color="#676767"/><stop offset="1" stop-color="#010101"/></linearGradient><path opacity=".5" fill="url(#q)" d="M65.464 115.319c-.2.2-5.6 7.7-7 9.101-1.5 1.399-1.8 2.1-2 2.899s-1.6 2.8-1.7 3.601c-.199.8 0 2.3 0 3.199 0 .9.9 1.4.9 1.4s3.1.8 4.4-.6c1.3-1.4.8-3.7.699-5-.1-1.2 0-1.9.301-2.5.199-.601.5-1.2.5-1.4-.101-.2-.4-.7 1.899-1.8 2.3-1.101 3.7-2.8 4.101-3.2.399-.3.899-.7.399-1.6-.5-.9-.7-2.101-1.3-2.601-.799-.598-1.199-1.499-1.199-1.499z"/><linearGradient id="r" gradientUnits="userSpaceOnUse" x1="-304.688" y1="253.435" x2="-290.489" y2="251.46" gradientTransform="matrix(1 0 0 -1 379.04 354.34)"><stop offset="0" stop-color="#8dc641"/><stop offset=".5" stop-color="#bad642"/><stop offset="1" stop-color="#415a29"/></linearGradient><path fill="url(#r)" d="M73.564 102.319c.1.101.3.2.5.3.399.2.8.301 1.199.5 1 .301 1.9.601 2.9.801 1.899.5 8.5 1.199 11.2.3.399 0 1.6-3.101 1.399-3.601-6.3 1.9-15.8-1.699-16.199-.6-.099.401-.699 1.3-.999 2.3 0-.099 0 0 0 0z"/><linearGradient id="s" gradientUnits="userSpaceOnUse" x1="-285.477" y1="282.295" x2="-277.147" y2="282.295" gradientTransform="matrix(1 0 0 -1 379.04 354.34)"><stop offset="0" stop-color="#676767"/><stop offset="1" stop-color="#010101"/></linearGradient><path fill="url(#s)" d="M93.563 70.72c.801-.8 1.9-1.8 3.601-1.7s4.1.5 4.6.8c.5.3-1 4.1-1.6 4.4-.601.4-3.4 1.3-4.3.6-.801-.501-2.301-4.1-2.301-4.1z"/><linearGradient id="t" gradientUnits="userSpaceOnUse" x1="-153.009" y1="255.994" x2="-143.535" y2="255.994" gradientTransform="scale(1 -1) rotate(-13.315 -1438.501 -942.665)"><stop offset="0" stop-color="#676767"/><stop offset="1" stop-color="#010101"/></linearGradient><path fill="url(#t)" d="M89.364 69.919l2.399-1.9s.101-.4 1 0c.8.4 5.101 3 5 6.1-.2 3.1-4 4.6-4.6 4.5-.7 0-1.101 0-1.5-1.6-.4-1.6-1.3-3.8-2.2-4.6-1.499-1.199-.099-2.5-.099-2.5z"/><linearGradient id="u" gradientUnits="userSpaceOnUse" x1="-154.427" y1="254.444" x2="-145.725" y2="254.444" gradientTransform="scale(1 -1) rotate(-13.315 -1438.501 -942.665)"><stop offset="0" stop-color="#676767"/><stop offset="1" stop-color="#010101"/></linearGradient><path fill="url(#u)" d="M87.664 71.22l2.2-1.7s.1-.3.899 0 4.7 2.7 4.601 5.6c-.2 2.9-3.7 4.2-4.301 4.2-.6 0-1 0-1.399-1.399-.4-1.4-1.2-3.5-2-4.2-1.4-1.302 0-2.501 0-2.501z"/><linearGradient id="v" gradientUnits="userSpaceOnUse" x1="-155.303" y1="253.116" x2="-147.525" y2="253.116" gradientTransform="scale(1 -1) rotate(-13.315 -1438.501 -942.665)"><stop offset="0" stop-color="#676767"/><stop offset="1" stop-color="#010101"/></linearGradient><path fill="url(#v)" d="M86.264 72.72l1.9-1.5s.1-.3.8 0c.7.3 4.2 2.4 4.1 4.8-.1 2.5-3.199 3.6-3.8 3.5-.5 0-.899 0-1.2-1.2-.399-1.2-1.1-3-1.8-3.6-1.1-.901 0-2 0-2z"/><linearGradient id="w" gradientUnits="userSpaceOnUse" x1="-156.284" y1="251.878" x2="-149.472" y2="251.878" gradientTransform="scale(1 -1) rotate(-13.315 -1438.501 -942.665)"><stop offset="0" stop-color="#676767"/><stop offset="1" stop-color="#010101"/></linearGradient><path fill="url(#w)" d="M84.964 73.919l1.7-1.3s.1-.3.7 0 3.699 2.1 3.6 4.2c-.1 2.2-2.8 3.101-3.3 3.101s-.8 0-1.101-1.101c-.3-1.1-1-2.6-1.6-3.2-.999-.899.001-1.7.001-1.7z"/><linearGradient id="x" gradientUnits="userSpaceOnUse" x1="-392.566" y1="1800.539" x2="-391.804" y2="1800.539" gradientTransform="scale(1 -1) rotate(-36.407 -2993.873 125.917)"><stop offset="0" stop-color="#676767"/><stop offset="1" stop-color="#010101"/></linearGradient><path fill="url(#x)" d="M94.464 70.12c.1.2-.1.4-.4.6-.3.2-.6.2-.699 0-.101-.2.1-.4.399-.6.299-.1.6-.1.7 0z"/><radialGradient id="y" cx="-241.778" cy="1798.248" r="1.143" gradientTransform="matrix(.5365 .3957 .3957 -.5365 -488.269 1130.306)" gradientUnits="userSpaceOnUse"><stop offset="0" stop-color="#8dc641"/><stop offset=".5" stop-color="#bad642"/><stop offset="1" stop-color="#415a29"/></radialGradient><path fill="url(#y)" d="M94.364 70.12c.1.1-.101.3-.301.4-.199.1-.5.1-.5 0-.1-.1.101-.3.301-.4.199-.1.4-.1.5 0z"/><linearGradient id="z" gradientUnits="userSpaceOnUse" x1="-335.573" y1="1633.063" x2="-334.81" y2="1633.063" gradientTransform="scale(1 -1) rotate(-32.163 -3078.568 40.64)"><stop offset="0" stop-color="#676767"/><stop offset="1" stop-color="#010101"/></linearGradient><path fill="url(#z)" d="M91.964 71.319c.1.1-.1.4-.3.6-.2.2-.601.2-.7.1s.1-.4.3-.6c.4-.199.7-.199.7-.1z"/><radialGradient id="A" cx="-186.091" cy="1618.405" r="1.144" gradientTransform="matrix(.5643 .3549 .3549 -.5643 -378.265 1050.437)" gradientUnits="userSpaceOnUse"><stop offset="0" stop-color="#8dc641"/><stop offset=".5" stop-color="#bad642"/><stop offset="1" stop-color="#415a29"/></radialGradient><path fill="url(#A)" d="M91.864 71.319c.1.1 0 .3-.301.5-.3.2-.5.2-.5 0-.1-.1 0-.3.301-.5.199-.099.4-.099.5 0z"/><linearGradient id="B" gradientUnits="userSpaceOnUse" x1="-336.561" y1="1631.025" x2="-335.799" y2="1631.025" gradientTransform="scale(1 -1) rotate(-32.163 -3078.568 40.64)"><stop offset="0" stop-color="#676767"/><stop offset="1" stop-color="#010101"/></linearGradient><path fill="url(#B)" d="M90.063 72.52c.101.1-.1.4-.3.6-.2.2-.6.2-.7.1-.1-.1.101-.4.301-.6.3-.201.6-.201.699-.1z"/><radialGradient id="C" cx="-187.574" cy="1615.303" r="1.141" gradientTransform="matrix(.5643 .3549 .3549 -.5643 -378.265 1050.437)" gradientUnits="userSpaceOnUse"><stop offset="0" stop-color="#8dc641"/><stop offset=".5" stop-color="#bad642"/><stop offset="1" stop-color="#415a29"/></radialGradient><path fill="url(#C)" d="M89.964 72.52c.1.1 0 .3-.3.5-.2.1-.5.2-.5 0-.101-.1 0-.3.3-.5.2-.101.4-.101.5 0z"/><linearGradient id="D" gradientUnits="userSpaceOnUse" x1="-337.725" y1="1628.823" x2="-336.962" y2="1628.823" gradientTransform="scale(1 -1) rotate(-32.163 -3078.568 40.64)"><stop offset="0" stop-color="#676767"/><stop offset="1" stop-color="#010101"/></linearGradient><path fill="url(#D)" d="M87.964 73.819c.1.1-.1.4-.3.6-.3.2-.601.2-.7.1s.1-.4.3-.6c.299-.299.6-.299.7-.1z"/><radialGradient id="E" cx="-189.317" cy="1612.035" r="1.143" gradientTransform="matrix(.5643 .3549 .3549 -.5643 -378.265 1050.437)" gradientUnits="userSpaceOnUse"><stop offset="0" stop-color="#8dc641"/><stop offset=".5" stop-color="#bad642"/><stop offset="1" stop-color="#415a29"/></radialGradient><path fill="url(#E)" d="M87.764 73.72c.101.1 0 .3-.3.5-.2.1-.5.2-.5 0-.1-.1 0-.3.3-.5.2-.1.5-.1.5 0z"/><linearGradient id="F" gradientUnits="userSpaceOnUse" x1="-222.632" y1="615.342" x2="-219.076" y2="615.342" gradientTransform="scale(1 -1) rotate(-8.592 -4661.258 -1864.093)"><stop offset="0" stop-color="#676767"/><stop offset="1" stop-color="#010101"/></linearGradient><path fill="url(#F)" d="M98.264 74.52c-.3.5-.3.6.3 1.9.601 1.3.4 1.1.301 1.899-.101.8-.5 1 .199 1.4.7.399 1.4-.101 1.801-.4.399-.3.399-1.1.399-1.899-.1-.801 0-1.2-.3-1.7s-1.4-3.6-1.4-3.9c-.1-.2-.8 2.099-1.3 2.7z"/><linearGradient id="G" gradientUnits="userSpaceOnUse" x1="-279.991" y1="279.785" x2="-266.904" y2="279.785" gradientTransform="matrix(1 0 0 -1 379.04 354.34)"><stop offset="0" stop-color="#efc7b1"/><stop offset="1" stop-color="#cfa38c"/></linearGradient><path fill="url(#G)" d="M99.164 72.319c-.4.8.3 3.7 1.2 4.7.899 1 1.8 2.6 2.6 2.9.8.3 2.3.6 2.4.1.1-.5.1-.6.899-.5s1.4-.4 1.3-.6c-.1-.101.801-.7 1.5-.801.601-.1 1.2-.5 1.4-.8s-.1.2.9-.1.8-1.2.5-2.9c-.301-1.7-1.2-3.5-1.9-4.4s-3-1.4-4.2-.9-4.7 1.8-5 2.1c-.499.502-1.599 1.201-1.599 1.201z"/><linearGradient id="H" gradientUnits="userSpaceOnUse" x1="-280.003" y1="279.32" x2="-266.915" y2="279.32" gradientTransform="matrix(1 0 0 -1 379.04 354.34)"><stop offset="0" stop-color="#efc7b1"/><stop offset="1" stop-color="#cfa38c"/></linearGradient><path opacity=".5" fill="url(#H)" d="M111.864 74.419c-.301-1.5-.801-2.8-1.5-3.6l-.9.6c-.6.4-1.2.8-1.9 1.1.2.9.7 1.1.5 2.3-.199 1.5-.399 2.9-.699 4.4.1-.101.199-.2.1-.2-.1-.1.8-.7 1.5-.8.6-.101 1.2-.5 1.4-.8.199-.301-.101.199.899-.101 1.1-.298.9-1.199.6-2.899z"/><linearGradient id="I" gradientUnits="userSpaceOnUse" x1="-277.196" y1="276.769" x2="-273.617" y2="276.769" gradientTransform="matrix(1 0 0 -1 379.04 354.34)"><stop offset="0" stop-color="#efc7b1"/><stop offset="1" stop-color="#cfa38c"/></linearGradient><path opacity=".5" fill="url(#I)" d="M102.364 74.919h-.2c-.101 0-.101 0-.2.1.1.4.2.9.5 1.5.6 1 2.1 3.2 2.5 3.7 0 0 .8-.2.3-.9-.201-.299-2-3.099-2.9-4.4z"/><linearGradient id="J" gradientUnits="userSpaceOnUse" x1="-236.165" y1="453.011" x2="-232.655" y2="453.011" gradientTransform="scale(1 -1) rotate(-4.629 -6616.759 -4022.26)"><stop offset="0" stop-color="#efc7b1"/><stop offset="1" stop-color="#cfa38c"/></linearGradient><path opacity=".5" fill="url(#J)" d="M104.764 74.02c-.1 0-.2.1-.2.1.101.4.2.9.5 1.5.5 1.101 1.9 3.2 2.301 3.7 0 0 .399-.2.1-.5s-2.001-3.6-2.701-4.8z"/><linearGradient id="K" gradientUnits="userSpaceOnUse" x1="-4581.569" y1="814.57" x2="-4578.209" y2="814.57" gradientTransform="scale(-1 1) rotate(-16.619 -4878.311 -14858.844)"><stop offset="0" stop-color="#efc7b1"/><stop offset="1" stop-color="#cfa38c"/></linearGradient><path opacity=".5" fill="url(#K)" d="M109.063 71.62c-.1.1-.199.1-.399.2.2.4 1.7 5.601 1.7 5.601.1-.101 0-.9-.2-2.101-.101-1.001-.8-3.001-1.101-3.7z"/><linearGradient id="L" gradientUnits="userSpaceOnUse" x1="-279.647" y1="276.57" x2="-267.347" y2="276.57" gradientTransform="matrix(1 0 0 -1 379.04 354.34)"><stop offset="0" stop-color="#efc7b1"/><stop offset="1" stop-color="#cfa38c"/></linearGradient><path opacity=".5" fill="url(#L)" d="M101.563 75.119c-.6.2-1.3.301-1.899.5.1.601.3 1 .7 1.5.899 1 1.8 2.601 2.6 2.9.5.2 1.5.4 2 .4-.4-.5-.9-1.101-1.3-1.601-.9-1.298-1.5-2.398-2.101-3.699z"/><linearGradient id="M" gradientUnits="userSpaceOnUse" x1="-276.898" y1="277.463" x2="-265.874" y2="277.463" gradientTransform="matrix(1 0 0 -1 379.04 354.34)"><stop offset="0" stop-color="#efc7b1"/><stop offset="1" stop-color="#cfa38c"/></linearGradient><path opacity=".5" fill="url(#M)" d="M104.164 74.22c-.3.1-.5.2-.8.3-.101 0-.101.1-.2.1-.3.1-.5.2-.8.3.199.6.399 1 .699 1.4.801.9 1.801 2.8 2.4 3.101.5.199 1.1.1 1.5 0-.4-.5-.8-1-1.1-1.5-.599-1.302-1.199-2.302-1.699-3.701z"/><linearGradient id="N" gradientUnits="userSpaceOnUse" x1="-280.002" y1="283.07" x2="-266.916" y2="283.07" gradientTransform="matrix(1 0 0 -1 379.04 354.34)"><stop offset="0" stop-color="#efc7b1"/><stop offset="1" stop-color="#cfa38c"/></linearGradient><path opacity=".5" fill="url(#N)" d="M103.464 71.02c.1-.1.1-.2.2-.3.6-.5 1.6-.2 1.6.7v2.1c.2-1 .5-2.1.7-3.2.1-.4.2-.8.2-1.3-.101 0-.3.1-.4.1-.5.3-1.6.7-2.6 1.1.2.3.3.5.3.8z"/><path fill="#010101" d="M106.264 68.419c1.4-.1 2.9.5 2.5.7-2.2.9-1.6 4.3-1.6 5.1 0 .8 1.2 3.5 1.399 4.2.2.699-.8.6-.899.399-.101-.2-.7-3-1.9-4-1.2-1.1-2.7-2.6-4.3-2.7s-5.2 1.7-2.8-.7c1.2-1.198 4-2.698 7.6-2.999z"/><path opacity=".25" fill="#010101" d="M106.664 68.419c1.399-.1 2.899.5 2.5.7-2.2.9-1.601 4.3-1.601 5.1 0 .8 1.2 3.5 1.4 4.2.2.699-.8.6-.9.399-.1-.2-.699-3-1.899-4-1.2-1.1-2.7-2.6-4.3-2.7-1.601-.1-5.2 1.7-2.801-.7 1.201-1.198 4-2.698 7.601-2.999z"/><path opacity=".5" fill="#010101" d="M83.764 75.52c1.101 1.8 3.5 6.4 3.5 6.4s1.4-2.301 3.601-4.301c2.3-2 3.6-3.1 4.8-4s.899-2.6-.4-3.5c-1.3-1-1.899-1.9-3.3-1.4-1.4.6-4.9 2.2-5.4 2.5-.502.301-2.801 4.301-2.801 4.301z"/><linearGradient id="O" gradientUnits="userSpaceOnUse" x1="-302.92" y1="274.369" x2="-288.404" y2="274.369" gradientTransform="matrix(1 0 0 -1 379.04 354.34)"><stop offset="0" stop-color="#4e4e4e"/><stop offset="1" stop-color="#010101"/></linearGradient><path fill="url(#O)" d="M78.364 72.52c-1.101 1.1-2.601 1.8-2.2 4.1.3 1.4 2.1 4 3.5 5 1.7 1.101 4.1 1.7 5.6 2.7s3.2 2.101 3.8 2.9c.601.8 1.7.2 1.601-.8-.101-1-1.3-5-1.7-6.301-1.5-4.399-5-6.7-5.5-7-.5-.3-1.7-.5-2.3-.7-.602-.199-2.801.101-2.801.101z"/><path fill="#010101" d="M79.864 73.52c-1 .7-2.2 1.2-1.5 3 .699 1.8 2.8 3.6 4.6 4.6 1.7.9 3.5 2.101 4.6 3.2 1.101 1.101 2.5 3 2.4 2.5-.2-.5-2.1-5.399-3.1-6.899s-2.9-4.2-3.101-4.801c-.2-.7-2-2-2.6-1.899-.799.098-1.299.299-1.299.299z"/><linearGradient id="P" gradientUnits="userSpaceOnUse" x1="-299.986" y1="274.158" x2="-289.244" y2="274.158" gradientTransform="matrix(1 0 0 -1 379.04 354.34)"><stop offset="0" stop-color="#4e4e4e"/><stop offset="1" stop-color="#010101"/></linearGradient><path fill="url(#P)" d="M79.464 74.22c0 1 .2 1.3-.3 2.1-.601.8 2.3 3.3 4.3 4.7 1.6 1.1 5.1 4.1 6.1 5.7 1 1.5-1-5.8-3.5-7.7-1.899-1.4-2.199-2.9-2.399-3.8-.2-.9-1.7-2.1-2.5-1.7-.801.2-1.701.7-1.701.7z"/><linearGradient id="Q" gradientUnits="userSpaceOnUse" x1="-302.456" y1="274.971" x2="-290.81" y2="274.971" gradientTransform="matrix(1 0 0 -1 379.04 354.34)"><stop offset="0" stop-color="#fff"/><stop offset="1" stop-color="#fff" stop-opacity="0"/></linearGradient><path opacity=".5" fill="url(#Q)" d="M78.063 73.22c-.3.3-2 1.3-1.399 3.2.6 2 2.8 4.1 4.8 4.8 3.2 1.1 6 3.8 6.7 4.3-.9-.9-3.9-3.7-6-4.4-2-.699-3.5-2.6-4.3-4.1-.801-1.5-.601-2.3.899-3.4.201-.201-.7-.4-.7-.4z"/><linearGradient id="R" gradientUnits="userSpaceOnUse" x1="-295.576" y1="275.426" x2="-289.585" y2="275.426" gradientTransform="matrix(1 0 0 -1 379.04 354.34)"><stop offset="0" stop-color="#fff"/><stop offset="1" stop-color="#fff" stop-opacity="0"/></linearGradient><path opacity=".5" fill="url(#R)" d="M83.464 74.02c0 .2 0 .5 1.4 1.7 1.699 1.399 4 6.2 4.6 8.3 0 0-1.5-4.5-2-5.7-.7-1.5-3.3-4.2-3.4-4.4-.3-.3-.6.1-.6.1z"/><path fill="#010101" d="M60.864 52.12c-1.3 1.6-10.2 10.9-7 21.1.899 2.7 5.2 7 7 7.899 1.8.9 3.399 1.301 3.399 1.301l-1.699-3.301 3.199-2s-4.5.5-7-2c-7.3-7.1 2.301-20.6 2.801-22.2s-.7-.799-.7-.799z"/><linearGradient id="S" gradientUnits="userSpaceOnUse" x1="-333.376" y1="281.019" x2="-317.365" y2="281.019" gradientTransform="matrix(1 0 0 -1 379.04 354.34)"><stop offset="0" stop-color="#4e4e4e"/><stop offset="1" stop-color="#010101"/></linearGradient><path fill="url(#S)" d="M60.964 50.72c-2.5 3.4-12 7-11.6 19.8.1 4.2 2.1 12.4.5 15.6-1 1.801-2.2 3.5-4.2 4.7 8-4.899 10.6-1.3 8.8 5.101 6.8-5.5 1.2-17.7-.399-25.7-1.5-7 5.3-13.9 6.899-16.2 1.6-2.301 0-3.301 0-3.301z"/><linearGradient id="T" gradientUnits="userSpaceOnUse" x1="-319.937" y1="302.121" x2="-313.803" y2="302.121" gradientTransform="matrix(1 0 0 -1 379.04 354.34)"><stop offset="0" stop-color="#4e4e4e"/><stop offset="1" stop-color="#010101"/></linearGradient><circle fill="url(#T)" cx="62.164" cy="52.219" r="3.1"/><linearGradient id="U" gradientUnits="userSpaceOnUse" x1="-318.291" y1="309.334" x2="-275.141" y2="309.334" gradientTransform="matrix(1 0 0 -1 379.04 354.34)"><stop offset="0" stop-color="#4e4e4e"/><stop offset="1" stop-color="#010101"/></linearGradient><path fill="url(#U)" d="M88.063 13.72s-12.6 3.6-13.899 4.5c-1.4.9-1.9 1.7-2 2-.1.3-1.4 1.2-2.3 2-.9.8-1.4 1.5-1.4 1.7 0 .2.4-1.2-1.2 1s-2.3 3.5-2.3 3.6c0 .2.2-.3-1.1 1.5s-2 2.7-2 3.5-.3 1.5-.5 2.5.1 1.8 0 2.4c-.101.6-.5 6.3-.601 8.7-.1 2.4.301 7.8 1.101 10 .7 2.2 5.3 11 7.5 13.3 2.2 2.3 8.8 4.2 11.3 5.3 2.5 1.1 5.2.8 8-1.6s10.2-10 11.2-12.2c1-2.3 3.899-7.1 4-11.3.199-4.2-.5-8.2-.7-9.5-.2-1.4-2.2-11.4-2.8-12.8-.7-1.4-7.7-8.8-8.9-10.2s-2.4-3.6-2.6-4.1c-.301-.5-.801-.3-.801-.3z"/><linearGradient id="V" gradientUnits="userSpaceOnUse" x1="-318.253" y1="304.269" x2="-275.106" y2="304.269" gradientTransform="matrix(1 0 0 -1 379.04 354.34)"><stop offset="0" stop-color="#4e4e4e"/><stop offset="1" stop-color="#010101"/></linearGradient><path fill="url(#V)" d="M102.764 38.819c-.8.2-1.6.3-2.399.4l-9.601 1.5c-3.5.5-7 .8-10.5.4-1.899-.2-3.8-.5-5.699-1-1.601-.4-3.101-1-4.7-1.5-1.5-.5-2.9-1.1-4.4-1.5-.2-.1-.399-.1-.6-.2-.2 0-.4 0-.601.1-1 .2-2.1.3-3.1.6v.8c-.1.6-.5 6.3-.6 8.7-.101 2.4.3 7.8 1.1 10 .3 1 1.5 3.5 2.9 6.1 2.699-1.4 5.8-2 8.699-2.7 3.4-.9 7-1.3 10.5-1.5 3.2-.2 6.4-.1 9.601.2 1.899.2 3.899.5 5.8.9l1.2.3c1.199-2.5 3.199-6.4 3.399-9.8.2-4.2-.5-8.2-.7-9.5.101-.3 0-1.2-.299-2.3z"/><linearGradient id="W" gradientUnits="userSpaceOnUse" x1="-317.419" y1="307.815" x2="-308.983" y2="307.815" gradientTransform="matrix(1 0 0 -1 379.04 354.34)"><stop offset="0" stop-color="#010101"/><stop offset="1" stop-color="#010101" stop-opacity="0"/></linearGradient><path opacity=".5" fill="url(#W)" d="M67.564 39.919c-3.601.6-4.301-.2-5 1.4-.7 1.6-1 5.7-.801 7.9.2 2.2.2 2.1.5 3.7.301 1.5 0-5.5.2-7 .2-1.6.2-3.5 1.2-4.2 1-.7 2.1-.9 3.7-1.1 1.6-.2 1.6-.5 2.6-.2 1.001.301-2.399-.5-2.399-.5z"/><linearGradient id="X" gradientUnits="userSpaceOnUse" x1="-317.308" y1="328.291" x2="-289.695" y2="328.291" gradientTransform="matrix(1 0 0 -1 379.04 354.34)"><stop offset="0" stop-color="#fff" stop-opacity="0"/><stop offset="1" stop-color="#fff"/></linearGradient><path opacity=".5" fill="url(#X)" d="M73.764 18.819c1.5-1.2 11.2-3.7 12-4 .8-.3 4.2-1.8 1.2 0-1 .6-3.8 5.5-4.2 6.4-2.399 4.7-2.1 6.9-2 7.8 0 1-5 1.1-5.8 2.5-.5.8 1.7.8 5.5.7 3.8-.1 2.9-.3.2.9-2.7 1.2-2 .5.8 1.2s3 1 .9 1.4c-2.101.4-.301 1.2.699 1.4 1 .2 3.9.4 5.601 0s1.2.8-1.8 1c-3 .2-13.7-.6-17.601-1.3-3.899-.8-7.699 2.8-7.199 0 .3-1.6.199-2.7.5-3.6.3-.6 1.3-1.1 1.899-2.8.5-1.3 2.5-2.7 2.4-3-.101-.3-.4 0 .2-1.1.6-1.1 1.3-1.8 2.399-2.8 1-1 1.601-1.6 2.3-2.1.502-.6 1.402-2.1 2.002-2.6z"/><linearGradient id="Y" gradientUnits="userSpaceOnUse" x1="-303.606" y1="328.221" x2="-277.087" y2="328.221" gradientTransform="matrix(1 0 0 -1 379.04 354.34)"><stop offset="0" stop-color="#010101"/><stop offset="1" stop-color="#010101" stop-opacity="0"/></linearGradient><path fill="url(#Y)" d="M88.264 14.12c-.6.5-1.399.9-1.7 1.3-.3.4-3.399 5.6-3.6 6s-1.9 6.3-2.1 6.8c-.2.6 2.1 1.6-2.301 2.3-4.399.7-4.3 1.4.9 1.3 5.2-.1 4-.2 4.3-.1.3.1-2.3 1.3-3 1.6-.7.4 1.601.3 2.7 1.1 1.1.8-.1 1.2-.8 1.3-1.8.3-.5 1-.101 1 4.601.5 5-.4 7.101-.7 2.1-.3 2.2 1 .1 1.7-2.1.6-1.6.3-.8.4.9 0 6-.2 8.3-.3 2.3 0 4.601-.2 4.601-.2s-1.2-7.8-1.601-8.5c-.399-.6-5.3-7-6.5-7.8-1.2-.9-4.399-5.2-4.7-5.8-.3-.6-.5-1.3-.6-1.4h-.199z"/><linearGradient id="Z" gradientUnits="userSpaceOnUse" x1="-316.15" y1="304.865" x2="-275.941" y2="304.865" gradientTransform="matrix(1 0 0 -1 379.04 354.34)"><stop offset="0" stop-color="#efc7b1"/><stop offset="1" stop-color="#cfa38c"/></linearGradient><path fill="url(#Z)" d="M70.564 40.919c-1.4-.5-6.5.9-7 3.4s-1 8-.4 9.6c.7 1.6 2.3 5.1 5.9 4 3.6-1.1 10.6-4.3 11.899-5.1 1.3-.7 1.6-.8 2.6 0 .9.8 4.101 2.3 7.5 3 3.301.7 7.801 2.7 9.4 1 1.6-1.7 3.1-7.3 2.5-10-.6-2.7-4.7-5.5-7.3-4.6-2.601.9-8.4 2.5-12.4 2-3.999-.599-12.699-3.3-12.699-3.3z"/><linearGradient id="aa" gradientUnits="userSpaceOnUse" x1="-316.168" y1="305.244" x2="-275.956" y2="305.244" gradientTransform="matrix(1 0 0 -1 379.04 354.34)"><stop offset="0" stop-color="#efc7b1"/><stop offset="1" stop-color="#cfa38c"/></linearGradient><path opacity=".5" fill="url(#aa)" d="M102.964 46.72c-.6-2.7-4.7-5.5-7.3-4.6-2.601.9-8.4 2.5-12.4 2s-12.699-3.3-12.699-3.3c-1.4-.5-6.5.9-7 3.4-.101.6-.301 1.4-.4 2.3 1.3-.9 2.8-1.5 4.4-1.7 4.5-.7 8.6.8 12.999 1.2 4.7.4 9.4-1.5 14.101-.4 3 .7 7 3.5 5.1 7.1-.2.3-.3.6-.5.8-.8 1.5-2.399 2.8-4 3.4 2.2.6 4.3.9 5.3-.1 1.498-1.7 2.998-7.3 2.399-10.1z"/><linearGradient id="ab" gradientUnits="userSpaceOnUse" x1="-316.24" y1="304.721" x2="-275.651" y2="304.721" gradientTransform="matrix(1 0 0 -1 379.04 354.34)"><stop offset="0" stop-color="#010101"/><stop offset=".995" stop-color="#333"/></linearGradient><path fill="url(#ab)" d="M70.564 40.919c-.101 0-.2 0-.301-.1h-.899c-.4 0-.9.1-1.4.3-.5.1-1.2.3-1.8.6-.3.2-.7.3-1 .5-.3.2-.7.5-1 .8-.1.2-.3.3-.4.5l-.3.6c-.1.5-.2.9-.2 1.4-.1 1-.3 2.1-.3 3.2v1.7c0 .6 0 1.2.101 1.8v.8c0 .1 0 .2.1.2l.1.2c0 .1.101.1.101.2l.1.2c.3.6.601 1.2.9 1.7.399.5.8 1 1.399 1.4.5.4 1.2.6 1.9.6.3 0 .7 0 1-.1.1 0 .2 0 .3-.1h.201c.2-.1.3-.1.5-.2.3-.1.7-.2 1-.4.3-.2.7-.3 1-.4.2-.1.3-.1.5-.2s.3-.1.5-.2c.3-.1.7-.3 1-.4l2.1-.9c1.4-.6 2.8-1.3 4.2-2 .3-.2.7-.4 1-.6l.6-.3c.2-.1.4-.2.7-.1.3 0 .5.1.7.2.2.1.4.2.5.4h.1l.101.1.2.2.5.3.1.1.1.1.301.1c.199.1.399.2.5.3.399.2.699.3 1.1.5.4.1.7.3 1.1.4.4.1.801.3 1.2.4l1.2.3 1.2.3 2.399.6c.801.2 1.601.5 2.4.6.8.2 1.6.3 2.3.3.4 0 .7-.1 1.101-.2.199-.1.3-.2.399-.3l.101-.1v-.1l.199-.2c.101-.2.2-.3.301-.5.1-.2.199-.3.3-.5.1-.2.2-.4.3-.5l.2-.5c.6-1.5 1-3 1.2-4.6.1-.8.1-1.5.1-2.3-.1-.7-.4-1.4-.8-2-.8-1.2-2.101-2.2-3.4-2.7-.7-.3-1.399-.4-2.1-.4-.2 0-.3 0-.5.1-.101 0-.2 0-.2.1-.1 0-.2.1-.3.1-.3.1-.7.2-1 .3-1.4.4-2.7.7-4 1s-2.601.5-3.8.5c-1.2.1-2.4.1-3.601-.1-.6-.1-1.1-.2-1.6-.3l-1.5-.3c-.5-.1-1-.2-1.4-.4-.5-.1-.899-.2-1.3-.3-.8-.2-1.6-.4-2.3-.6-1.4-.4-2.5-.7-3.2-1-.503.001-.903-.1-.903-.1zm0 0s.399.1 1.1.3c.7.2 1.8.5 3.2.9.699.2 1.5.4 2.3.6.399.1.899.2 1.3.3.5.1.9.2 1.4.3l1.5.3c.5.1 1.1.2 1.6.3 1.1.2 2.3.1 3.5 0s2.5-.3 3.8-.6c1.3-.3 2.601-.6 4-1.1.3-.1.7-.2 1-.3.101 0 .2-.1.3-.1.101 0 .2-.1.301-.1.199 0 .399-.1.6-.1.8-.1 1.5.1 2.3.4.7.3 1.4.6 2 1.1.601.5 1.2 1 1.7 1.7.2.3.4.7.6 1.1 0 .1.101.2.101.3 0 .1.1.2.1.3v.3l.101.3c.1.8.1 1.6 0 2.4-.101.8-.2 1.6-.4 2.4-.2.8-.4 1.6-.7 2.4l-.3.7-.3.6-.3.6c-.101.2-.2.4-.4.6l-.2.2-.1.1-.101.1c-.199.2-.399.3-.6.4-.4.2-.9.3-1.3.3-.9 0-1.7-.1-2.5-.3l-2.4-.6c-.799-.2-1.6-.5-2.399-.7l-1.2-.3-1.2-.3c-.4-.1-.8-.3-1.2-.4-.399-.1-.8-.3-1.2-.4-.399-.1-.8-.3-1.1-.5l-.6-.3-.301-.1-.1-.1-.1-.1-.601-.3-.2-.2-.1-.1h-.1l-.101-.1c-.3-.2-.6-.4-.899-.4-.301 0-.601.2-1 .3-.301.2-.7.4-1.101.6-1.399.7-2.899 1.3-4.3 2l-2.1.9c-.4.1-.7.3-1.101.4-.199.1-.3.1-.5.2-.199.1-.399.1-.5.2-.399.1-.699.3-1 .4-.3.1-.699.2-1 .3-.199.1-.3.1-.5.2h-.2c-.101 0-.2 0-.301.1-.399.1-.699.1-1.1.1-.7 0-1.5-.3-2-.7-.6-.4-1-.9-1.4-1.5-.399-.6-.699-1.2-.899-1.8-.101-.2-.101-.3-.2-.5l-.1-.2v-2.8c0-.6.1-1.2.1-1.7.1-1.1.2-2.2.4-3.2.1-.5.199-1 .3-1.4.1-.5.399-.9.7-1.2.3-.3.6-.6 1-.8.3-.2.699-.4 1-.5.699-.3 1.3-.5 1.8-.6s1-.2 1.399-.2h.9c-.298-.5-.198-.5-.098-.4z"/><path opacity=".2" fill="#55250E" d="M100.164 42.22c.3-1.3.399-2.5.399-2.7-.1-.3-9.699-3.3-10.1-1.4s-1.3 3.2-.2 3.1c5.901-.5 9.901 1 9.901 1z"/><path fill="#8DC641" d="M100.563 41.919c.301-1.3.4-2.5.4-2.7-.1-.3-9.7-3.3-10.1-1.4-.4 1.9-1.301 3.2-.2 3.1 5.9-.5 9.9 1 9.9 1z"/><path opacity=".25" fill="#FFF" d="M90.764 38.62c1.5.1 2.9.4 4.4.7 1 .2 2 .4 3 .7.3.1.7.2 1 .3.2.1 2.1.7 1.1.3-2-.9-4.1-1.3-6.2-1.7-1-.2-2.199-.3-3.3-.5 0-.1 0-.1.101-.2 3.3.5 6.8 1.1 9.8 2.5v.2c-2-.6-4-1.1-6-1.5-1-.2-2-.4-3-.5-.401-.2-.701-.2-.901-.3-.1 0 0 0 0 0zm-.4 1.199h.899c-.299 0-.599-.099-.899 0 0-.1.1-.2.1-.2 1.5.2 3 .4 4.4.6.399.1.8.1 1.199.2 1.5.3 3 .6 4.4 1v.1c-1.7-.5-3.4-.9-5.1-1.2h-.301c-1.598-.199-3.198-.4-4.698-.5z"/><path opacity=".25" fill="#FFF" d="M90.563 39.22c1.301.1 2.7.4 3.9.5 1.8.3 3.5.6 5.3 1.1h-.1c-1.3-.4-2.601-.7-3.9-1-1.7-.4-3.399-.5-5.2-.8v-.2h.101c3.3.5 6.6 1.1 9.8 2.2v.1c-2.5-.7-5-1.2-7.6-1.5-.7-.1-1.301-.2-2-.2h-.5l.199-.2zm.301-1.401c.3 0 .6.1.899.1h.601c-.5-.1-1-.2-1.5-.4v-.1c.1 0 .3.1.5.1.5.1 1 .2 1.6.4.5 0 1 .1 1.5.2-.5-.1-.9-.2-1.4-.3-.3-.1-1.5-.3-2.199-.4v-.1c1.6.2 3.199.6 4.8 1 .5.1 1 .2 1.399.3 1.2.3 2.5.5 3.7 1v.1c-.3-.1-.6-.2-.7-.3-.8-.3-1.699-.4-2.5-.6-.3-.1-.5-.1-.8-.2 1.101.3 2.101.6 3.2 1 .3.1.5.2.8.3v.1c-1.399-.3-2.8-.9-4.2-1.3l-1.199-.3c-.601-.1-1.101-.2-1.7-.2 2.399.5 4.8 1.1 7 2.1v.1l-.9-.3c-1-.4-2.1-.7-3.1-1-1.2-.3-2.5-.6-3.7-.9h-.6c2.8.5 5.6 1.4 8.199 2.2 0 0 .101 0 .101.1v.1c-1.8-.6-3.7-1.2-5.5-1.6-1.101-.3-2.2-.5-3.3-.7-.301-.1-.7-.1-1-.1l-.001-.4z"/><path opacity=".25" fill="#FFF" d="M90.764 38.22c1.5.1 2.9.4 4.4.7 1 .2 2 .4 3 .7.3.1.7.2 1 .3.2.1 2.1.7 1.1.3-2-.9-4.1-1.3-6.2-1.7-1-.2-2.199-.3-3.3-.5 0-.1 0-.1.101-.2 3.3.5 6.8 1.1 9.8 2.5v.2c-2-.6-4-1.1-6-1.5-1-.2-2-.4-3-.5-.401-.201-.701-.201-.901-.3 0 .099 0 0 0 0zm-.4 1.199h.899-.899c0-.1.1-.2.1-.2 1.5.2 3 .4 4.4.6.399.1.8.1 1.199.2 1.5.3 3 .6 4.4 1v.1c-1.7-.5-3.4-.9-5.1-1.2-.101 0-.2 0-.301-.1-1.598-.099-3.198-.299-4.698-.4zm-.2.9h.899a1.398 1.398 0 0 0-.899 0c0-.1.1-.2.1-.2 1.5.1 3 .1 4.5.3.4 0 .8.1 1.2.1 1.5.2 3 .4 4.5.7v.1c-1.7-.3-3.5-.6-5.2-.8h-.3c-1.7-.2-3.3-.2-4.8-.2-.101 0 0 0 0 0z"/><path opacity=".25" fill="#FFF" d="M90.563 38.919c1.301.1 2.7.4 3.9.5 1.8.3 3.5.6 5.3 1.1h-.1c-1.3-.4-2.601-.7-3.9-1-1.7-.4-3.399-.5-5.2-.8v-.2h.101c3.3.5 6.6 1.1 9.8 2.2v.1c-2.5-.7-5-1.2-7.6-1.5-.7-.1-1.301-.2-2-.2h-.5c.1-.099.199-.2.199-.2zm9.601.201c.1 0 .399.2.7.3v-.1c-1.2-.5-2.4-.7-3.7-1-.5-.1-1-.2-1.4-.3-1.399-.4-2.7-.7-4.1-.9 0 0-.101 0-.101.1.601.1 1.4.3 1.601.3.5.1.899.2 1.399.3-.5-.1-1-.1-1.5-.2s-1-.2-1.6-.4h-.1s-.101 0-.101.1l1.2.3h-.6c-.2 0-.5-.1-.7-.1 0 0 0 .1-.101.1.301 0 .601.1.9.1 1.1.2 2.2.5 3.3.7 1.9.5 3.7 1 5.5 1.6v-.1c-.1 0-.1 0-.1-.1-2.601-.9-5.4-1.8-8.2-2.3h.6c1.2.3 2.5.6 3.7.9 1 .3 2.101.6 3.101 1l.899.3v-.1c-2.2-1-4.6-1.5-7-2.1.601.1 1.101.1 1.7.2l1.2.3c1.399.4 2.8 1 4.2 1.3v-.1c-.301-.1-.5-.2-.801-.3-1.1-.3-2.1-.6-3.199-1 .3.1.6.1.8.2.902.5 1.703.699 2.503 1z"/><path fill="#55250E" d="M94.164 37.72c-1-.1-2.101-.2-3.2-.3 1.1-1.4 9.9 1.4 9.9 1.7v.8c-2-1.3-4.6-1.9-6.7-2.2z"/><path opacity=".2" fill="#55250E" d="M66.464 42.22c-.3-1.3-.399-2.5-.399-2.7.1-.3 9.699-3.3 10.1-1.4.399 1.9 1.3 3.2.2 3.1-5.801-.5-9.901 1-9.901 1z"/><path fill="#8DC641" d="M66.164 41.919c-.3-1.3-.4-2.5-.4-2.7.101-.3 9.7-3.3 10.101-1.4.399 1.9 1.3 3.2.199 3.1-5.9-.5-9.9 1-9.9 1z"/><path opacity=".25" fill="#FFF" d="M75.964 38.62c-1.5.1-2.899.4-4.399.7-1 .2-2 .4-3 .7-.301.1-.7.2-1 .3-.2.1-2.101.7-1.101.3 2-.9 4.101-1.3 6.2-1.7 1-.2 2.2-.3 3.3-.5 0-.1 0-.1-.1-.2-3.3.5-6.8 1.1-9.8 2.5v.2c2-.6 4-1.1 6-1.5 1-.2 2-.4 3-.5.4-.2.7-.2.9-.3zm.4 1.199h-.9c.3 0 .599-.099.9 0 0-.1-.101-.2-.101-.2-1.5.2-3 .4-4.399.6-.4.1-.8.1-1.2.2-1.5.3-3 .6-4.4 1v.1c1.7-.5 3.4-.9 5.101-1.2h.3c1.599-.199 3.099-.4 4.699-.5z"/><path opacity=".25" fill="#FFF" d="M76.164 39.22c-1.3.1-2.7.4-3.9.5-1.8.3-3.5.6-5.3 1.1h.101c1.3-.4 2.6-.7 3.899-1 1.7-.4 3.4-.5 5.2-.8v-.2h-.101c-3.3.5-6.6 1.1-9.8 2.2v.1c2.5-.7 5-1.2 7.601-1.5.7-.1 1.3-.2 2-.2h.5c-.1-.101-.2-.101-.2-.2zm-.4-1.401c-.3 0-.6.1-.899.1h-.601c.5-.1 1-.2 1.5-.4v-.1c-.1 0-.3.1-.5.1-.5.1-1 .2-1.6.4-.5 0-1 .1-1.5.2.5-.1.9-.2 1.4-.3.3-.1 1.5-.3 2.199-.4v-.1c-1.6.2-3.199.6-4.8 1-.5.1-1 .2-1.399.3-1.2.3-2.5.5-3.7 1v.1c.3-.1.6-.2.7-.3.8-.3 1.699-.4 2.5-.6.3-.1.5-.1.8-.2-1.101.3-2.101.6-3.2 1-.3.1-.5.2-.8.3v.1c1.399-.3 2.8-.9 4.2-1.3l1.199-.3c.601-.1 1.101-.2 1.7-.2-2.399.5-4.8 1.1-7 2.1v.1l.9-.3c1-.4 2.1-.7 3.1-1 1.2-.3 2.5-.6 3.7-.9h.6c-2.8.5-5.6 1.4-8.199 2.2 0 0-.101 0-.2.1v.1c1.8-.6 3.7-1.2 5.5-1.6 1.1-.3 2.2-.5 3.3-.7.3-.1.7-.1 1-.1.2-.3.1-.4.1-.4z"/><path opacity=".25" fill="#FFF" d="M75.964 38.22c-1.5.1-2.899.4-4.399.7-1 .2-2 .4-3 .7-.301.1-.7.2-1 .3-.2.1-2.101.7-1.101.3 2-.9 4.101-1.3 6.2-1.7 1-.2 2.2-.3 3.3-.5v-.2c-3.3.5-6.8 1.1-9.8 2.5v.2c2-.6 4-1.1 6-1.5 1-.2 2-.4 3-.5.3-.201.6-.201.8-.3 0 .099 0 0 0 0zm.4 1.199h-.9.9c0-.1-.101-.2-.101-.2-1.5.2-3 .4-4.399.6-.4.1-.8.1-1.2.2-1.5.3-3 .6-4.4 1v.1c1.7-.5 3.4-.9 5.101-1.2.1 0 .2 0 .3-.1 1.599-.099 3.099-.299 4.699-.4zm.199.9h-.899c.3-.099.6-.099.899 0 0-.1-.1-.2-.1-.2-1.5.1-3 .1-4.5.3-.399 0-.8.1-1.2.1-1.5.2-3 .4-4.5.7v.1c1.7-.3 3.4-.6 5.2-.8h.3c1.701-.2 3.301-.2 4.8-.2z"/><path opacity=".25" fill="#FFF" d="M76.164 38.919c-1.3.1-2.7.4-3.9.5-1.8.3-3.5.6-5.3 1.1h.101c1.3-.4 2.6-.7 3.899-1 1.7-.4 3.5-.5 5.2-.8v-.2h-.101c-3.3.5-6.6 1.1-9.8 2.2v.1c2.5-.7 5-1.2 7.601-1.5.7-.1 1.3-.2 2-.2h.5c-.2-.099-.2-.2-.2-.2zm-.601-1.399c-.199 0-.399 0-.6.1h-.6c.3-.1.7-.2 1-.2 0 0-.101 0-.101-.1l-1.5.3c-.5 0-1 .1-1.5.2.5-.1.9-.2 1.4-.3.2 0 .8-.2 1.3-.3 0 0-.1 0-.1-.1-1.3.2-2.5.5-3.8.9-.5.1-1 .2-1.4.3-1.2.3-2.5.5-3.7 1v.1c.3-.1.601-.2.7-.3.8-.3 1.7-.4 2.5-.6.3-.1.5-.1.8-.2-1.1.3-2.1.6-3.2 1-.3.1-.5.2-.8.3v.1c1.4-.3 2.8-.9 4.2-1.3l1.2-.3c.6-.1 1.1-.2 1.7-.2-2.4.5-4.801 1.1-7 2.1v.1l.899-.3c1-.4 2.101-.7 3.101-1 1.199-.3 2.5-.6 3.699-.9h.601c-2.8.5-5.601 1.4-8.2 2.3 0 0-.1 0-.2.1v.1c1.8-.6 3.7-1.2 5.5-1.6 1.101-.3 2.2-.5 3.3-.7.301-.1.601-.1.9-.1.002-.5-.099-.5-.099-.5z"/><path fill="#55250E" d="M72.564 37.72c1-.1 2.1-.2 3.1-.3-1.1-1.4-9.9 1.4-9.9 1.7v.8c2-1.3 4.7-1.9 6.8-2.2z"/><linearGradient id="ac" gradientUnits="userSpaceOnUse" x1="-314.384" y1="289.912" x2="-290.988" y2="289.912" gradientTransform="matrix(1 0 0 -1 379.04 354.34)"><stop offset="0" stop-color="#fff" stop-opacity="0"/><stop offset="1" stop-color="#fff"/></linearGradient><path opacity=".5" fill="url(#ac)" d="M64.764 57.319c.601.7 2.4 3.5 6.801 1.3 4.399-2.2 9.899-4.9 10.899-5.1s-1.6 4.4.9 11.1c-7.101.1-7.4-.1-11.101-1.4 3.3 5.5 11.5 6.9 15.3 5.9 1.601-.4-.699 1.6-2.199 1.9-2.4.5-3.801-.3-4.801-.4s1.9 2.4 3.5 2.4c1.601 0 .5 2 .101 2.3-.4.3-9.5-2.3-12.4-4.5-2.699-2.1-4.6-4.5-6-7.6-1.399-3.1-1-5.6-1-5.6"/><linearGradient id="ad" gradientUnits="userSpaceOnUse" x1="-308.288" y1="291.707" x2="-307.078" y2="291.707" gradientTransform="matrix(1 0 0 -1 379.04 354.34)"><stop offset="0" stop-color="#4e4e4e"/><stop offset="1" stop-color="#010101"/></linearGradient><path fill="url(#ad)" d="M71.264 61.62c-.5.7-.6 1.1-.399 1.7.2.6 0 .3.399-.3.4-.6.4-.7.7-1s-.7-.4-.7-.4z"/><linearGradient id="ae" gradientUnits="userSpaceOnUse" x1="-290.167" y1="293.313" x2="-283.264" y2="284.721" gradientTransform="matrix(1 0 0 -1 379.04 354.34)"><stop offset="0" stop-color="#010101" stop-opacity="0"/><stop offset="1" stop-color="#4e4e4e"/></linearGradient><path fill="url(#ae)" d="M93.063 58.02c2.101.7 4.7 1.1 5.7.8 1-.3 1.101 2-.399 3.8-1.4 1.8-3.801 4.5-3.801 4.3.4-1.4-.3-.8-.699.3-.4 1-1.2 1.8-2.5 3.3-1.301 1.5-2.601 2.9-3.4 3.3-.9.5-.7 1.4 1.5-2.2s3-5.8 1.9-4.8c-1.101 1 1.199-2.1 1.3-2.5.1-.4-1.7.7-3.8 1-2.101.3 2.199-2.1 2.8-3.1.6-.9.399-1.8-.5-2-.9-.1-2.9-1.9-3.7-2.9s-.9-1 1.3-.3 4.299 1 4.299 1z"/><linearGradient id="af" gradientUnits="userSpaceOnUse" x1="-295.307" y1="336.604" x2="-292.785" y2="336.604" gradientTransform="matrix(1 0 0 -1 379.04 354.34)"><stop offset="0" stop-color="#d9e028"/><stop offset=".979" stop-color="#8dc641"/></linearGradient><path fill="url(#af)" d="M84.264 16.62c-.399.1-.7.3-.5.6.3.2 1 .4 1.4 1.2.5.8.7.3.899 0 .2-.3-.3-1.2-.6-1.4-.099-.3-1.199-.4-1.199-.4z"/><linearGradient id="ag" gradientUnits="userSpaceOnUse" x1="-295.243" y1="336.377" x2="-293.327" y2="336.377" gradientTransform="matrix(1 0 0 -1 379.04 354.34)"><stop offset=".016" stop-color="#4e4e4e"/><stop offset="1" stop-color="#010101"/></linearGradient><path fill="url(#ag)" d="M83.864 17.02c0 .1-.101.1 0 .1.199.1 1.199.8 1.399 1.1.2.3.2.4.3.5.101.1.2.3.2.1-.1-.2-.3-.8-.6-1-.3-.3-.4-.4-.7-.5-.299-.3-.599-.3-.599-.3z"/><linearGradient id="ah" gradientUnits="userSpaceOnUse" x1="-298.859" y1="328.205" x2="-296.337" y2="328.205" gradientTransform="matrix(1 0 0 -1 379.04 354.34)"><stop offset="0" stop-color="#d9e028"/><stop offset=".984" stop-color="#8dc641"/></linearGradient><path fill="url(#ah)" d="M80.764 25.02c-.399.1-.7.3-.5.6.3.2 1 .4 1.4 1.2.5.8.7.3.899 0 .2-.3-.3-1.2-.6-1.4-.199-.3-1.199-.4-1.199-.4z"/><linearGradient id="ai" gradientUnits="userSpaceOnUse" x1="-298.795" y1="328.078" x2="-296.88" y2="328.078" gradientTransform="matrix(1 0 0 -1 379.04 354.34)"><stop offset=".016" stop-color="#4e4e4e"/><stop offset="1" stop-color="#010101"/></linearGradient><path fill="url(#ai)" d="M80.264 25.319c0 .1-.1.1 0 .1.2.1 1.2.8 1.4 1.1s.2.4.3.5.2.3.2.1c-.101-.2-.3-.8-.601-1-.3-.3-.399-.4-.699-.5-.301-.2-.6-.3-.6-.3z"/><linearGradient id="aj" gradientUnits="userSpaceOnUse" x1="-663.617" y1="451.238" x2="-661.095" y2="451.238" gradientTransform="rotate(-144.429 -358.58 116.113)"><stop offset="0" stop-color="#d9e028"/><stop offset=".984" stop-color="#8dc641"/></linearGradient><path fill="url(#aj)" d="M84.664 19.72c.3.3.399.7.1.7s-1-.2-1.899.2c-.9.4-.801-.2-.801-.5 0-.4.9-.8 1.301-.8.399-.001 1.299.4 1.299.4z"/><linearGradient id="ak" gradientUnits="userSpaceOnUse" x1="-663.554" y1="451.152" x2="-661.638" y2="451.152" gradientTransform="rotate(-144.429 -358.58 116.113)"><stop offset=".016" stop-color="#4e4e4e"/><stop offset="1" stop-color="#010101"/></linearGradient><path fill="url(#ak)" d="M84.864 20.22c0 .1.1.1-.101.1s-1.399-.1-1.7.1c-.3.1-.399.2-.5.2-.1 0-.3.1-.199 0 .1-.1.699-.4 1.1-.5s.6-.1.9 0c.199 0 .5.1.5.1z"/><linearGradient id="al" gradientUnits="userSpaceOnUse" x1="-1033.446" y1="887.641" x2="-1030.925" y2="887.641" gradientTransform="rotate(-105.861 -801.377 34.473)"><stop offset="0" stop-color="#d9e028"/><stop offset=".984" stop-color="#8dc641"/></linearGradient><path fill="url(#al)" d="M83.664 23.72c0 .5-.101.8-.4.6-.3-.2-.6-.8-1.6-1.1-.9-.2-.5-.6-.3-.9.3-.3 1.199 0 1.5.2.4.2.8 1.2.8 1.2z"/><linearGradient id="am" gradientUnits="userSpaceOnUse" x1="-1033.383" y1="887.549" x2="-1031.467" y2="887.549" gradientTransform="rotate(-105.861 -801.377 34.473)"><stop offset=".016" stop-color="#4e4e4e"/><stop offset="1" stop-color="#010101"/></linearGradient><path fill="url(#am)" d="M83.464 24.22c0 .1 0 .1-.1 0-.101-.1-1.101-.9-1.4-1-.3-.1-.4-.1-.5-.2-.1 0-.3-.1-.1-.1.199 0 .8.1 1.199.3.301.2.5.3.7.5.001.199.201.5.201.5z"/><linearGradient id="an" gradientUnits="userSpaceOnUse" x1="-288.155" y1="324.69" x2="-277.739" y2="324.69" gradientTransform="matrix(1 0 0 -1 379.04 354.34)"><stop offset="0" stop-color="#fff" stop-opacity="0"/><stop offset="1" stop-color="#fff"/></linearGradient><path opacity=".2" fill="url(#an)" d="M94.664 23.319c1.6 2 3 3 4 4.3 1 1.3 1.399 2.1 1.8 3.7 1.2 4.8 1 7.9-.1 5.1-1.301-3.2-3.7-3.6-9.5-5 7.5.9 10.1.3 4.1-4.3 2.8 2.3 2.5 1.1 2.7 1.1s-4.601-5.8-4.8-6.4c4.699 5.801 1.8 1.5 1.8 1.5z"/><linearGradient id="ao" gradientUnits="userSpaceOnUse" x1="-330.324" y1="277.769" x2="-323.092" y2="277.769" gradientTransform="matrix(1 0 0 -1 379.04 354.34)"><stop offset=".005" stop-color="#f3f3f3"/><stop offset="1" stop-color="#010101" stop-opacity="0"/></linearGradient><path fill="url(#ao)" d="M48.764 88.619c5.2-3 2.2-11.899 1.601-16.7-.601-4.4 1.3-9.4 2.8-12.2-4 13.3 1.6 22.399 2.1 24.7.5 2.3.801 7.899.7 9-.3-3.801-.899-5-2.3-5.801-1.401-.799-4.901 1.001-4.901 1.001z"/><linearGradient id="ap" gradientUnits="userSpaceOnUse" x1="-305.739" y1="335.774" x2="-297.331" y2="335.774" gradientTransform="matrix(1 0 0 -1 379.04 354.34)"><stop offset="0" stop-color="#fff"/><stop offset="1" stop-color="#010101"/></linearGradient><path opacity=".5" fill="url(#ap)" d="M76.264 18.62s-.1 0-.1.1c-1.9 1-4.5 2.2-1.4 1.3 3.101-.9 4-1 4.8-1.2.7-.2-.899-.2-1.1-.2-.2-.1.5-.6 2.4-1.3 1.899-.7.8-.7-1.101 0"/><linearGradient id="aq" gradientUnits="userSpaceOnUse" x1="-316.303" y1="326.434" x2="-301.974" y2="326.434" gradientTransform="matrix(1 0 0 -1 379.04 354.34)"><stop offset="0" stop-color="#fff"/><stop offset="1" stop-color="#010101"/></linearGradient><path opacity=".5" fill="url(#aq)" d="M74.164 21.22c-2.5 1.1-3.4 1.4-4.3 2.4-.9.9-2.601 3-2.2 2.9.3-.1 2.8-.2 1.1.4-2 .7-1.6 1.1-2.6 2.4-1 1.3-1.6 2-.8 2s-1 .6-1.601 1.5c-.6.8-.899 1.5-.8 1.6.101.1-.2.7-.2.7s5.7-1.9 7.301-2c1.699-.1-2.101-.2-3.9.2-1.8.4-.6-1.1-.1-1.5.5-.4.399-.7.199-1-.3-.3 1.801-2.6 1.801-2.6s.899-1.1 4.8-1.5c3.899-.4 3.399-.3 3.5-.6.1-.3-.301-.3-2-.1-1.7.2-2.601-.1-3.101-.3-.5-.2 1.2-.9 1.4-1.3.2-.3-.2-.4-.5-.7-.3-.4.4-.8.9-.8.399-.1.699.3 2.999-.3 2.2-.6.5-.2-1.1-.1-1.6.2-.899-.3-1.6-.2-.8.2.899-.6 1.2-.9.3-.3.5-.3.899-.6.4-.3-.3 0-.5.2-.197 0-.797.2-.797.2z"/><linearGradient id="ar" gradientUnits="userSpaceOnUse" x1="-307.876" y1="296.363" x2="-282.673" y2="296.363" gradientTransform="matrix(1 0 0 -1 379.04 354.34)"><stop offset="0" stop-color="#b4b4b4"/><stop offset=".495" stop-color="#676767"/><stop offset="1" stop-color="#010101"/></linearGradient><path opacity=".25" fill="url(#ar)" d="M71.164 59.62c3.3-1.3 6-2.2 6-2.2l3.2-1.1s-.2-.2 1.3-.8 1.6-.4 2 .1c.399.5 8.7 1.8 10.5 2.4s2.899 1.4 1.7 1.3c-1.301-.1-10.5-2.4-11.7-2.8-1.2-.5-1-1-2.101-.2-1.1.8-9.1 3-8.899 3s7.5-1.4 8.5-1.6c1-.3 2.6 0 4 .4 1.399.5 5.2 1.6 6.1 1.6.9 0-5.1.4-6.7 0-1.6-.4-4.8.2-6.5.9-1.6.7.9-.8 1.9-1.1s5.6 0 6.8.1c1.3 0-1.8-.9-3-1.2-1.2-.3-3.1 0-4.6.3-1.5.3-6.1 1.1-7.2 1.2-1.1.1-1.3-.3-1.3-.3z"/><linearGradient id="as" gradientUnits="userSpaceOnUse" x1="-306.824" y1="288.684" x2="-289.247" y2="288.684" gradientTransform="matrix(1 0 0 -1 379.04 354.34)"><stop offset="0" stop-color="#010101"/><stop offset="1" stop-color="#4e4e4e" stop-opacity="0"/></linearGradient><path fill="url(#as)" d="M83.364 65.72c-6.801 0-10.2-2.4-11.2-2.6.8.9 4.6 3.7 8.1 4.4 2.601.6 4.3.8 6.2.6 2-.2 4.6-2.6 2.5-2.6-2.3 0-2.1.2-5.6.2z"/><linearGradient id="at" gradientUnits="userSpaceOnUse" x1="-306.776" y1="288.147" x2="-289.53" y2="288.147" gradientTransform="matrix(1 0 0 -1 379.04 354.34)"><stop offset="0" stop-color="#989898"/><stop offset="1" stop-color="#010101" stop-opacity="0"/></linearGradient><path fill="url(#at)" d="M72.264 63.12c.301.3 5.2 5.6 14.9 5 0 0 1.6-.3 1.8-.3s.7.7.5.7c-12.401 3.299-17.2-5.4-17.2-5.4z"/><radialGradient id="au" cx="-242.327" cy="250.718" r="12.646" gradientTransform="scale(.6667 -.6667) rotate(4.284 4160.13 4781.847)" gradientUnits="userSpaceOnUse"><stop offset="0" stop-color="#efc7b1"/><stop offset=".994" stop-color="#cfa38c" stop-opacity="0"/></radialGradient><path fill="url(#au)" d="M81.063 48.819c.5-1.9.7-5.1-1.1-7.2-1.8-2-5.6-4.4-9-3.3-3.3 1.1-7.399 4.8-7.899 7.7s-1.101 5.1-.601 7 .3 3.2 2.4 3.5c2.1.3 9-.7 11.3-2.7s2.6-2.5 3.3-3.3 1.6-1.7 1.6-1.7z"/><path fill="#FFF" d="M72.364 43.919c-1.601.3-3.7 2.2-5.101 4.3-1.3 2.1-1.8 6.6 3.601 6.5 2.6-.1 6.3-.6 7.8-4.6.399-1.099-1.8-7.099-6.3-6.2z"/><ellipse transform="rotate(-88.865 72.662 49.32)" fill="#8DC641" cx="72.665" cy="49.319" rx="4.8" ry="3.6"/><path fill="#8BD7F5" d="M72.064 49.22s-.2 0-.4-.1h-.2c.2 0 .5.1.6.1zm.1.099s-.1 0 0 0zm.1 1.701s0 .1 0 0v-.1.1zm.3-1.701c-.1 0-.1 0 0 0-.1 0-.1 0 0 0-.1 0-.1 0 0 0zm-.3 0zm1.1.5zm-.8-1.799c0-.101 0-.101 0 0 0-.101 0-.101 0 0 0-.101 0-.101 0 0zm-.2-.601zm-.1.601s0-.101 0 0c0-.101 0-.101 0 0 0-.101 0-.101 0 0zm.1.299s0-.099 0 0c0-.099 0 0 0 0zm-.1 2zm.1.901c0 .1 0 .1-.101.1l.101-.1c-.1.099-.1 0 0 0zm.1-.2zm-.5.7v-.1s0-.1.101-.1v.1c-.001 0-.001.1-.101.1zm1.2-1.5h.1-.1z"/><ellipse transform="rotate(-88.848 72.667 49.119)" fill="#FFF" cx="72.664" cy="49.119" rx="3.7" ry="2.8"/><ellipse transform="rotate(-88.865 72.865 48.82)" fill="#010101" cx="72.864" cy="48.819" rx="3.7" ry="2.799"/><path fill="#FFF" d="M71.664 47.919c.5-.5.9-1 1.4-1.3.5-.5-.2-.9-.601-.8-.899.1-1.3.9-1.6 1.7.001.001.101 1.101.801.4z"/><path opacity=".25" fill="#FFF" d="M76.063 46.62c.4-.1.9-.2 1.301-.2-1.101-1.6-2.8-2.9-5.101-2.4-1.6.3-3.699 2.2-5.1 4.3-.2.3-.3.5-.4.8.5-.2 1.101-.4 1.7-.5 2.401-1.201 5.201-1.6 7.6-2z"/><path fill="#FFF" d="M78.364 49.22c.6-.2.8 0 1 .2.199.2.199.4-.2.7-.4.4-.9.8-1 .4 0-.5.2-1.3.2-1.3z"/><linearGradient id="av" gradientUnits="userSpaceOnUse" x1="-340.508" y1="328.086" x2="-351.475" y2="325.144" gradientTransform="scale(1 -1) rotate(4.284 4956.097 5722.349)"><stop offset="0" stop-color="#efc7b1"/><stop offset="1" stop-color="#cfa38c" stop-opacity="0"/></linearGradient><path fill="url(#av)" d="M78.664 50.12c-.601.7-1.601 4.5-7.8 4.6-6.2.1-6-.2-6.601 0-.6.2.101 0 2.101.4s8.3.9 9.699.1c1.4-.9 2.7-2.4 3-3.2.901-2.701-.399-1.9-.399-1.9z"/><radialGradient id="aw" cx="295.144" cy="210.458" r="12.646" gradientTransform="matrix(-.6648 -.0498 .0498 -.6648 278.853 198.268)" gradientUnits="userSpaceOnUse"><stop offset="0" stop-color="#efc7b1"/><stop offset=".994" stop-color="#cfa38c" stop-opacity="0"/></radialGradient><path fill="url(#aw)" d="M84.364 48.819c-.5-1.9-.7-5.1 1.1-7.2 1.8-2 5.6-4.4 9-3.3 3.3 1.1 7.4 4.8 7.9 7.7s1.1 5.1.6 7-.3 3.2-2.4 3.5c-2.1.3-9-.7-11.3-2.7s-2.6-2.5-3.3-3.3-1.6-1.7-1.6-1.7z"/><path fill="#FFF" d="M93.063 43.919c1.601.3 3.7 2.2 5.101 4.3 1.3 2.1 1.8 6.6-3.5 6.5-2.601-.1-6.3-.6-7.8-4.6-.5-1.099 1.699-7.099 6.199-6.2z"/><ellipse transform="rotate(88.865 92.727 49.409)" fill="#8DC641" cx="92.727" cy="49.411" rx="4.8" ry="3.6"/><path fill="#8BD7F5" d="M93.364 49.22s.199 0 .399-.1h.2c-.199 0-.499.1-.599.1zm-.1.099s.1 0 0 0zm-.201 1.701c.101 0 .101.1 0 0v-.1.1zm-.199-1.701c.1 0 .1 0 0 0 .1 0 .1 0 0 0 .1 0 0 0 0 0zm.3 0zm-1.101.5zm.801-1.799c0-.101 0-.101 0 0 0-.101 0-.101 0 0 0-.101 0-.101 0 0zm.199-.601zm.101.601s0-.101 0 0c0-.101 0-.101 0 0 0-.101 0-.101 0 0zm-.101.299s0-.099 0 0c0-.099 0 0 0 0zm.101 2zm-.101.901c0 .1 0 .1.101.1l-.101-.1c.101.099.101 0 0 0zm-.099-.2zm.4.7v-.1s0-.1-.101-.1v.1c.101 0 .101.1.101.1zm-1.1-1.5h-.1.1z"/><ellipse transform="rotate(88.848 92.726 49.089)" fill="#FFF" cx="92.726" cy="49.086" rx="3.7" ry="2.799"/><ellipse transform="rotate(88.865 92.573 48.876)" fill="#010101" cx="92.572" cy="48.876" rx="3.7" ry="2.8"/><path fill="#FFF" d="M92.664 46.52c-.5.5-1 .9-1.3 1.4-.5.5-.9-.2-.801-.6.101-.9.9-1.3 1.7-1.6.101 0 1.101.199.401.8z"/><path opacity=".25" fill="#FFF" d="M89.264 46.62c-.399-.1-.899-.2-1.3-.2 1.1-1.6 2.8-2.9 5.1-2.4 1.601.3 3.7 2.2 5.101 4.3.2.3.3.5.399.8-.5-.2-1.1-.4-1.699-.5-2.302-1.201-5.201-1.6-7.601-2z"/><path fill="#FFF" d="M87.063 49.22c-.6-.2-.8 0-1 .2-.199.2-.199.4.2.7.4.4.9.8 1 .4.001-.5-.2-1.3-.2-1.3z"/><linearGradient id="ax" gradientUnits="userSpaceOnUse" x1="424" y1="270.819" x2="413.033" y2="267.877" gradientTransform="rotate(-175.711 252.005 167.939)"><stop offset="0" stop-color="#efc7b1"/><stop offset="1" stop-color="#cfa38c" stop-opacity="0"/></linearGradient><path fill="url(#ax)" d="M86.764 50.12c.601.7 1.601 4.5 7.8 4.6 6.2.1 6-.2 6.601 0 .6.2-.101 0-2.101.4s-8.3.9-9.699.1c-1.4-.9-2.7-2.4-3-3.2-.901-2.701.399-1.9.399-1.9z"/><linearGradient id="ay" gradientUnits="userSpaceOnUse" x1="-319.134" y1="220.514" x2="-329.635" y2="219.887" gradientTransform="matrix(1 0 0 -1 379.04 354.34)"><stop offset="0" stop-color="#676767"/><stop offset="1" stop-color="#010101"/></linearGradient><path opacity=".25" fill="url(#ay)" d="M60.564 133.72c-.4.6-.4 1.1-.9 1.2-.5.1-8.3.5-10.2.1-1.899-.4-.5-.5-.2-.7.301-.3 1.4-.399 1.9-.3.6.1 1.4 0 2-.2.8-.3 1.6-.6 2.2-.3.6.3 1.5-.1 2.2-.3.5-.2.8-.7 1.699-.2.801.5.9.6 1 .4.901-1.101.301.3.301.3z"/><linearGradient id="az" gradientUnits="userSpaceOnUse" x1="-291.776" y1="245.565" x2="-284.092" y2="245.565" gradientTransform="matrix(1 0 0 -1 379.04 354.34)"><stop offset="0" stop-color="#333"/><stop offset="1" stop-color="#010101"/></linearGradient><path fill="url(#az)" d="M90.864 105.22c-.101 0-3.601 5.1-3.601 5.1s.101.5.4.601c.3.1 3.899 1.199 4.1 1.399.3.2 2.8-2.8 3.101-3.399.3-.601-1-2-1.9-2.801-.901-.7-2.1-.9-2.1-.9z"/><linearGradient id="aA" gradientUnits="userSpaceOnUse" x1="-288.2" y1="244.815" x2="-281.75" y2="244.815" gradientTransform="matrix(1 0 0 -1 379.04 354.34)"><stop offset="0" stop-color="#333"/><stop offset="1" stop-color="#010101"/></linearGradient><path fill="url(#aA)" d="M93.864 106.52c-.101 0-3 4.3-3 4.3s.1.5.3.5c.2.101 3.2 1 3.5 1.2s2.3-2.4 2.6-2.9-.8-1.699-1.6-2.3c-.8-.6-1.8-.8-1.8-.8z"/><linearGradient id="aB" gradientUnits="userSpaceOnUse" x1="-284.644" y1="244.368" x2="-279.389" y2="244.368" gradientTransform="matrix(1 0 0 -1 379.04 354.34)"><stop offset="0" stop-color="#333"/><stop offset="1" stop-color="#010101"/></linearGradient><path fill="url(#aB)" d="M96.864 107.52c-.101 0-2.4 3.5-2.4 3.5s0 .4.2.4c.2.1 2.6.8 2.8 1 .2.1 1.9-1.9 2.1-2.301.2-.399-.699-1.399-1.3-1.899-.6-.601-1.4-.7-1.4-.7z"/><linearGradient id="aC" gradientUnits="userSpaceOnUse" x1="-347.327" y1="1098.813" x2="-343.227" y2="1098.813" gradientTransform="scale(1 -1) rotate(-22.172 -3210.686 -641.448)"><stop offset="0" stop-color="#333"/><stop offset="1" stop-color="#010101"/></linearGradient><path fill="url(#aC)" d="M100.164 109.42c-.101 0-2.8 1.8-2.8 1.8s-.101.3.1.399c.1.101 1.7 1.4 1.8 1.5.101.2 1.9-.8 2.2-1.1.3-.2-.1-1.2-.4-1.8-.3-.4-.9-.799-.9-.799z"/><path fill="#8DC641" d="M106.164 94.72c.7.1 1.399.8 1.399 2.7.101 1.899-.399 1.1-.399 1.1l-.601-3.1-.399-.7z"/><path fill="#8DC641" d="M107.563 97.22c0-.5-.1-.9-.199-1.3-.2-.101-.5-.101-.7-.101l.2 1.2c.199.001.4.1.699.201zm-.099.399c-.2-.1-.3-.1-.5-.199l.2 1.199s.399.801.399-.899c0-.101-.099-.101-.099-.101z"/><radialGradient id="aD" cx="-144.695" cy="149.423" r="2.31" gradientTransform="matrix(.6667 0 0 -.6667 204.663 198.627)" gradientUnits="userSpaceOnUse"><stop offset="0" stop-color="#8dc641"/><stop offset=".995" stop-color="#587b37"/></radialGradient><circle fill="url(#aD)" cx="107.464" cy="99.72" r="1.5"/><path fill="#8DC641" d="M106.764 100.819c-.5.5-.7 6.7-.8 8 0 1.3.4 1.2.6 1.601.2.399.4-.301.5.1 0 .4.601-.3.601.1.1.4.5-.8.5-.1.1.7.5-.6.6-.1.101.5.3-1.101.4-.601.1.5 0-1.2.2-.6.1.5-.9-7.4-1.101-8.101-.201-.698-1.5-.299-1.5-.299z"/><path opacity=".5" fill="#8DC641" d="M106.563 108.52c-.1-1.6 0-3.3.4-4.9.2-.8.6-2 1.2-2.8-.4-.3-1.4 0-1.4 0-.5.5-.7 6.7-.8 8 0 1.3.4 1.2.6 1.601.101.1.101.1.2.1-.099-.702-.2-1.402-.2-2.001z"/><path fill="#8DC641" d="M108.364 101.119c-.101-.199-.2-.3-.4-.3.7 3.101 1.1 6.3 1.1 9.5.101-.3.2-.8.301-.5.1.5 0-1.2.199-.6-.001.4-1.001-7.499-1.2-8.1z"/><path fill="#989898" d="M83.964 97.319l-1 1.601 2.8 6.199 4.4 8.801 1.5.699z"/><linearGradient id="aE" gradientUnits="userSpaceOnUse" x1="-268.587" y1="342.493" x2="-269.757" y2="344.259" gradientTransform="scale(1 -1) rotate(-2.315 -11094.92 -8956.534)"><stop offset="0" stop-color="#010101"/><stop offset="1" stop-color="#4e4e4e"/></linearGradient><path fill="url(#aE)" d="M88.563 107.52c6.101-2.8 12.4-7.1 18.7-11.2l-1.7-2.1s-8.1 6-18.3 10.899c.3.5 1.001 1.7 1.3 2.401z"/><linearGradient id="aF" gradientUnits="userSpaceOnUse" x1="-288.508" y1="248.17" x2="-289.127" y2="249.192" gradientTransform="matrix(1 0 0 -1 379.04 354.34)"><stop offset="0" stop-color="#818181"/><stop offset="1" stop-color="#f3f3f3"/></linearGradient><path fill="url(#aF)" d="M88.964 104.819c0 .2.9.9 1.4 1.101.5.1.6-.101.6-.301 0-.1-1-.5-1.3-.8-.4-.299-.7 0-.7 0z"/><linearGradient id="aG" gradientUnits="userSpaceOnUse" x1="-287.406" y1="248.667" x2="-288.026" y2="249.691" gradientTransform="matrix(1 0 0 -1 379.04 354.34)"><stop offset="0" stop-color="#818181"/><stop offset="1" stop-color="#f3f3f3"/></linearGradient><path fill="url(#aG)" d="M90.063 104.319c0 .2.9.9 1.4 1.101.5.1.6-.101.6-.301 0-.1-1-.5-1.3-.8-.399-.299-.7 0-.7 0z"/><linearGradient id="aH" gradientUnits="userSpaceOnUse" x1="-286.303" y1="249.165" x2="-286.923" y2="250.189" gradientTransform="matrix(1 0 0 -1 379.04 354.34)"><stop offset="0" stop-color="#818181"/><stop offset="1" stop-color="#f3f3f3"/></linearGradient><path fill="url(#aH)" d="M91.164 103.819c0 .2.899.9 1.399 1.101.5.1.601-.101.601-.301 0-.199-1-.5-1.3-.8-.301-.299-.7 0-.7 0z"/><linearGradient id="aI" gradientUnits="userSpaceOnUse" x1="-285.189" y1="249.938" x2="-285.809" y2="250.961" gradientTransform="matrix(1 0 0 -1 379.04 354.34)"><stop offset="0" stop-color="#818181"/><stop offset="1" stop-color="#f3f3f3"/></linearGradient><path fill="url(#aI)" d="M92.264 103.02c0 .2.9.9 1.4 1.1.5.101.6-.1.6-.3 0-.1-1-.5-1.3-.8-.401-.201-.7 0-.7 0z"/><linearGradient id="aJ" gradientUnits="userSpaceOnUse" x1="-283.985" y1="250.537" x2="-284.605" y2="251.561" gradientTransform="matrix(1 0 0 -1 379.04 354.34)"><stop offset="0" stop-color="#818181"/><stop offset="1" stop-color="#f3f3f3"/></linearGradient><path fill="url(#aJ)" d="M93.464 102.42c0 .199.9.899 1.4 1.1.5.1.6-.1.6-.3s-1-.5-1.3-.8c-.4-.2-.7 0-.7 0z"/><linearGradient id="aK" gradientUnits="userSpaceOnUse" x1="-282.888" y1="251.234" x2="-283.507" y2="252.257" gradientTransform="matrix(1 0 0 -1 379.04 354.34)"><stop offset="0" stop-color="#818181"/><stop offset="1" stop-color="#f3f3f3"/></linearGradient><path fill="url(#aK)" d="M94.563 101.72c0 .2.9.899 1.4 1.1.5.101.6-.1.6-.3 0-.1-1-.5-1.3-.8-.399-.2-.7 0-.7 0z"/><linearGradient id="aL" gradientUnits="userSpaceOnUse" x1="-281.687" y1="251.934" x2="-282.307" y2="252.958" gradientTransform="matrix(1 0 0 -1 379.04 354.34)"><stop offset="0" stop-color="#818181"/><stop offset="1" stop-color="#f3f3f3"/></linearGradient><path fill="url(#aL)" d="M95.764 101.02c0 .2.9.9 1.4 1.1.5.101.6-.1.6-.3 0-.1-1-.5-1.3-.8-.3-.201-.7 0-.7 0z"/><linearGradient id="aM" gradientUnits="userSpaceOnUse" x1="-280.587" y1="252.635" x2="-281.207" y2="253.658" gradientTransform="matrix(1 0 0 -1 379.04 354.34)"><stop offset="0" stop-color="#818181"/><stop offset="1" stop-color="#f3f3f3"/></linearGradient><path fill="url(#aM)" d="M96.864 100.319c0 .2.899.9 1.399 1.101.5.1.601-.101.601-.301 0-.1-1-.5-1.301-.8-.299-.2-.699 0-.699 0z"/><linearGradient id="aN" gradientUnits="userSpaceOnUse" x1="-279.516" y1="253.381" x2="-280.136" y2="254.405" gradientTransform="matrix(1 0 0 -1 379.04 354.34)"><stop offset="0" stop-color="#818181"/><stop offset="1" stop-color="#f3f3f3"/></linearGradient><path fill="url(#aN)" d="M97.964 99.619c0 .2.9.9 1.4 1.101.5.1.6-.101.6-.3 0-.101-1-.5-1.3-.801-.4-.3-.7 0-.7 0z"/><linearGradient id="aO" gradientUnits="userSpaceOnUse" x1="-278.417" y1="254.082" x2="-279.036" y2="255.105" gradientTransform="matrix(1 0 0 -1 379.04 354.34)"><stop offset="0" stop-color="#818181"/><stop offset="1" stop-color="#f3f3f3"/></linearGradient><path fill="url(#aO)" d="M99.063 98.92c0 .199.9.899 1.4 1.1s.6-.1.6-.3c0-.101-1-.5-1.3-.8-.399-.301-.7 0-.7 0z"/><linearGradient id="aP" gradientUnits="userSpaceOnUse" x1="-277.216" y1="254.681" x2="-277.835" y2="255.703" gradientTransform="matrix(1 0 0 -1 379.04 354.34)"><stop offset="0" stop-color="#818181"/><stop offset="1" stop-color="#f3f3f3"/></linearGradient><path fill="url(#aP)" d="M100.264 98.319c0 .2.9.9 1.4 1.101.5.1.6-.101.6-.301 0-.1-1-.5-1.3-.8-.401-.299-.7 0-.7 0z"/><linearGradient id="aQ" gradientUnits="userSpaceOnUse" x1="-276.168" y1="255.41" x2="-276.788" y2="256.433" gradientTransform="matrix(1 0 0 -1 379.04 354.34)"><stop offset="0" stop-color="#818181"/><stop offset="1" stop-color="#f3f3f3"/></linearGradient><path fill="url(#aQ)" d="M101.264 97.52c0 .2.9.9 1.4 1.1.5.101.6-.1.6-.3s-1-.5-1.3-.8c-.3-.201-.7 0-.7 0z"/><linearGradient id="aR" gradientUnits="userSpaceOnUse" x1="-275" y1="256.254" x2="-275.62" y2="257.277" gradientTransform="matrix(1 0 0 -1 379.04 354.34)"><stop offset="0" stop-color="#818181"/><stop offset="1" stop-color="#f3f3f3"/></linearGradient><path fill="url(#aR)" d="M102.464 96.72c0 .2.9.899 1.4 1.1s.6-.1.6-.3c0-.1-1-.5-1.3-.8s-.7 0-.7 0z"/><linearGradient id="aS" gradientUnits="userSpaceOnUse" x1="-273.901" y1="256.955" x2="-274.521" y2="257.979" gradientTransform="matrix(1 0 0 -1 379.04 354.34)"><stop offset="0" stop-color="#818181"/><stop offset="1" stop-color="#f3f3f3"/></linearGradient><path fill="url(#aS)" d="M103.563 96.02c0 .2.9.9 1.4 1.1.5.101.6-.1.6-.3 0-.1-1-.5-1.3-.8-.399-.201-.7 0-.7 0z"/><linearGradient id="aT" gradientUnits="userSpaceOnUse" x1="-272.902" y1="257.756" x2="-273.523" y2="258.78" gradientTransform="matrix(1 0 0 -1 379.04 354.34)"><stop offset="0" stop-color="#818181"/><stop offset="1" stop-color="#f3f3f3"/></linearGradient><path fill="url(#aT)" d="M104.563 95.22c0 .2.9.899 1.4 1.1.5.101.6-.1.6-.3 0-.1-1-.5-1.3-.8-.399-.2-.7 0-.7 0z"/><path fill="#010101" d="M87.063 104.319s-9.699 6-24.999 8.601c-15.9 2.699-31 2.199-31 2.199s-1.5.101-2 .601-.601 1-.101 1.7c.5.6 1.2.8 2 .899.8.101 45.3 1.4 57.9-10l-1.8-4z"/><pattern id="aV" xlink:href="#aU" patternTransform="matrix(.3803 0 0 -.3803 -9530.643 -5399.805)"/><path fill="url(#aV)" d="M87.063 104.319s-9.699 6-24.999 8.601c-15.9 2.699-31 2.199-31 2.199s-1.5.101-2 .601-.601 1-.101 1.7c.5.6 1.2.8 2 .899.8.101 45.3 1.4 57.9-10l-1.8-4z"/><linearGradient id="aW" gradientUnits="userSpaceOnUse" x1="-294.366" y1="237.221" x2="-292.341" y2="237.221" gradientTransform="matrix(1 0 0 -1 379.04 354.34)"><stop offset=".005" stop-color="#587b37"/><stop offset=".478" stop-color="#8dc641"/><stop offset=".763" stop-color="#9ec63e"/><stop offset=".989" stop-color="#8dc641"/></linearGradient><path fill="url(#aW)" d="M85.563 109.52l-.899 15.1s1.899.301 2 .301c.1 0-.3-15.601-.3-15.601l-.801.2z"/><path fill="#8DC641" d="M85.264 123.22c.2.5.3 1 .4 1.5.2.1.399.1.5.3-.101-6.7-.601-15.5-.601-15.5l-.399.1-.5 13.101c.3-.001.5.199.6.499z"/><linearGradient id="aX" gradientUnits="userSpaceOnUse" x1="-294.069" y1="243.351" x2="-294.069" y2="221.893" gradientTransform="matrix(1 0 0 -1 379.04 354.34)"><stop offset=".005" stop-color="#587b37"/><stop offset=".478" stop-color="#8dc641"/><stop offset=".763" stop-color="#9ec63e"/><stop offset=".989" stop-color="#8dc641"/></linearGradient><path fill="url(#aX)" d="M84.864 109.52l-.801 22s1.7.4 1.801.5c.1.1-.301-22.7-.301-22.7l-.699.2z"/><linearGradient id="aY" gradientUnits="userSpaceOnUse" x1="-340.208" y1="337.554" x2="-333.322" y2="334.661" gradientTransform="scale(1 -1) rotate(-2.201 -11938.612 -9606.573)"><stop offset="0" stop-color="#8dc641"/><stop offset=".5" stop-color="#bad642"/><stop offset="1" stop-color="#415a29"/></linearGradient><path fill="url(#aY)" d="M31.164 115.02h2.7l8.1 3.5h-3.2z"/><linearGradient id="aZ" gradientUnits="userSpaceOnUse" x1="-330.462" y1="337.886" x2="-329.712" y2="335.142" gradientTransform="scale(1 -1) rotate(-2.201 -11938.612 -9606.573)"><stop offset="0" stop-color="#8dc641"/><stop offset=".5" stop-color="#bad642"/><stop offset="1" stop-color="#415a29"/></linearGradient><path fill="url(#aZ)" d="M42.164 114.819l1.2-.099.7 3.899-1.1-.099z"/><linearGradient id="ba" gradientUnits="userSpaceOnUse" x1="-322.808" y1="338.565" x2="-322.865" y2="335.59" gradientTransform="scale(1 -1) rotate(-2.201 -11938.612 -9606.573)"><stop offset="0" stop-color="#8dc641"/><stop offset=".5" stop-color="#bad642"/><stop offset="1" stop-color="#415a29"/></linearGradient><path fill="url(#ba)" d="M49.764 114.319c.101 0 1.2-.1 1.2-.1s.2 4 .101 4c-.101 0-1.301.1-1.301.1v-4z"/><linearGradient id="bb" gradientUnits="userSpaceOnUse" x1="-316.576" y1="339.573" x2="-314.871" y2="336.251" gradientTransform="scale(1 -1) rotate(-2.201 -11938.612 -9606.573)"><stop offset="0" stop-color="#8dc641"/><stop offset=".5" stop-color="#bad642"/><stop offset="1" stop-color="#415a29"/></linearGradient><path fill="url(#bb)" d="M55.864 113.72c.1 0 1.399-.2 1.399-.2l2 4.2c-.1 0-1.6-.101-1.6-.101l-1.799-3.899z"/><linearGradient id="bc" gradientUnits="userSpaceOnUse" x1="-309.051" y1="341.138" x2="-306.711" y2="337.642" gradientTransform="scale(1 -1) rotate(-2.201 -11938.612 -9606.573)"><stop offset="0" stop-color="#8dc641"/><stop offset=".5" stop-color="#bad642"/><stop offset="1" stop-color="#415a29"/></linearGradient><path fill="url(#bc)" d="M63.464 112.52c.101 0 1.5-.3 1.5-.3l2.8 4.3s-1.699.4-1.699.3c0-.1-2.9-4.2-2.9-4.2l.299-.1z"/><path fill="#8DC641" d="M82.563 106.52l2-1s2.801 2.7 2.601 4.6c0 0-1.5.9-1.601.9-.1.1-2.699-4.1-2.8-4.2-.099-.3-.2-.3-.2-.3z"/><path opacity=".5" fill="#010101" d="M84.563 105.72c.101 0 .4.1.4.2 0 0 .7.5.6.899-.1.4-.899 1-1 1.2-.1.2-.199 1-.199 1s.199 1.4.1 1.6c-.1.101-1.1 1.2-1.1 1.2s-1.301.7-1.301.601c.101-.101 1.801-2.601 1.9-2.801.1-.199-.1-1.399-.2-1.5-.1-.1-.8-1.6-.8-1.6m-51.699 8.701l4.7 3.2h2.5l-7-3.2z"/><path fill="#010101" d="M43.364 115.02h.3l2 3.2-1.7.099-.6-3.299"/><path opacity=".5" fill="#010101" d="M50.964 114.42h.4l.8 3.5-1.1.1zm6.4-.7l.399-.101 3.2 3.5-1.899.2-1.7-3.599zm7.7-1.3l1-.2 4.6 3.399-3.1.601z"/><linearGradient id="bd" gradientUnits="userSpaceOnUse" x1="-295.862" y1="258.975" x2="-290.398" y2="247.348" gradientTransform="matrix(1 0 0 -1 379.04 354.34)"><stop offset="0" stop-color="#989898"/><stop offset=".425" stop-color="#cdcccc"/><stop offset=".521" stop-color="#a9a8a8"/><stop offset=".715" stop-color="#010101"/><stop offset="1" stop-color="#4e4e4e"/></linearGradient><path fill="url(#bd)" d="M84.464 97.119l-.5.2s7.7 17.3 7.7 17.2.8-.5.8-.5l-8-16.9z"/><linearGradient id="be" gradientUnits="userSpaceOnUse" x1="-292.468" y1="243.959" x2="-293.455" y2="245.822" gradientTransform="matrix(1 0 0 -1 379.04 354.34)"><stop offset="0" stop-color="#010101"/><stop offset="1" stop-color="#8dc641"/></linearGradient><path opacity=".5" fill="url(#be)" d="M86.364 108.02c.3.8.699 1.3.699 1.6 0 .301-.1.4-.699.7-.601.3-.7.3-.9-.1-.2-.4-.3-.601-.6-1.101-.301-.5.699-.5 1-.6l.5-.499z"/><linearGradient id="bf" gradientUnits="userSpaceOnUse" x1="-268.401" y1="342.617" x2="-269.57" y2="344.383" gradientTransform="scale(1 -1) rotate(-2.315 -11094.92 -8956.534)"><stop offset="0" stop-color="#010101"/><stop offset="1" stop-color="#4e4e4e"/></linearGradient><path opacity=".5" fill="url(#bf)" d="M100.864 98.72c-.5.3-1 .6-1.4.899-1.9 1.101-3.7 2.4-5.6 3.5-.9.601-1.9 1.101-2.9 1.601-1 .399-2 .899-3.1.899h-.101c.4.601.8 1.4 1 1.801 6.101-2.801 12.4-7.101 18.7-11.2l-.8-.9c-1.999 1.2-3.899 2.299-5.799 3.4z"/><linearGradient id="bg" gradientUnits="userSpaceOnUse" x1="-300.742" y1="249.49" x2="-294.425" y2="249.49" gradientTransform="matrix(1 0 0 -1 379.04 354.34)"><stop offset="0" stop-color="#4e4e4e"/><stop offset="1" stop-color="#010101"/></linearGradient><path fill="url(#bg)" d="M78.264 104.22c1.7-.601 2.601-1 3.101-1s.399.5 1.3.7c1 .199 1.1.3 1.5.3.399 0 .399.399.399 1.1s-.5.8-1.6 1.101c-1 .3-2.6-.601-3.2-1-.6-.401-1.5-1.201-1.5-1.201z"/><linearGradient id="bh" gradientUnits="userSpaceOnUse" x1="-314.51" y1="252.195" x2="-302.229" y2="252.195" gradientTransform="matrix(1 0 0 -1 379.04 354.34)"><stop offset="0" stop-color="#676767"/><stop offset="1" stop-color="#010101"/></linearGradient><path fill="url(#bh)" d="M64.564 93.119c-.101 1.2-.5 12.4 4.5 16.301 3.699 2.8 2.399 1.399 2.399 1.399s2.3-5.1 3.8-5.899c1.601-.801 1.5-1 1.5-1s-6.3-2.9-5.399-10.7h-6.8v-.101z"/><linearGradient id="bi" gradientUnits="userSpaceOnUse" x1="-314.52" y1="254.02" x2="-302.24" y2="254.02" gradientTransform="matrix(1 0 0 -1 379.04 354.34)"><stop offset="0" stop-color="#676767"/><stop offset="1" stop-color="#010101"/></linearGradient><path opacity=".5" fill="url(#bi)" d="M76.764 103.819s-6.3-2.899-5.399-10.7h-6.8c0 .4-.101 1.801 0 3.601.1 0 .199.1.3.3.899 1 1.899 1.8 2.8 2.7.8.8 1.6 1.7 2.4 2.5 1.3 1.6 2.399 3.3 3 5.3.699-1.2 1.5-2.3 2.199-2.7 1.6-.8 1.5-1.001 1.5-1.001z"/><linearGradient id="bj" gradientUnits="userSpaceOnUse" x1="-314.51" y1="258.721" x2="-302.23" y2="258.721" gradientTransform="matrix(1 0 0 -1 379.04 354.34)"><stop offset="0" stop-color="#676767"/><stop offset="1" stop-color="#010101"/></linearGradient><path opacity=".5" fill="url(#bj)" d="M71.764 98.02c-.399-1.3-.6-2.9-.399-4.8h-6.8v1.8c2.599.4 5.099 1.4 7.199 3z"/><linearGradient id="bk" gradientUnits="userSpaceOnUse" x1="-1884.904" y1="3016.577" x2="-1882.763" y2="3016.577" gradientTransform="scale(1 -1) rotate(-77.59 -2845.385 246.822)"><stop offset="0" stop-color="#676767"/><stop offset="1" stop-color="#010101"/></linearGradient><path fill="url(#bk)" d="M66.864 95.819c-.2-.1-1 .8-1.4 1.5-.399.7.3.8.4.9.2.1.6-.9 1-1.3.8-.999 0-1.1 0-1.1z"/><linearGradient id="bl" gradientUnits="userSpaceOnUse" x1="-313.711" y1="257.369" x2="-311.572" y2="257.369" gradientTransform="matrix(1 0 0 -1 379.04 354.34)"><stop offset="0" stop-color="#676767"/><stop offset="1" stop-color="#010101"/></linearGradient><path fill="url(#bl)" d="M65.364 96.119c-.101.2.6 1.101 1.2 1.7.6.601.899-.1 1-.2.1-.1-.7-.8-1.101-1.199-.799-1-1.099-.301-1.099-.301z"/><linearGradient id="bm" gradientUnits="userSpaceOnUse" x1="-314.266" y1="257.708" x2="-313.048" y2="257.767" gradientTransform="matrix(1 0 0 -1 379.04 354.34)"><stop offset="0" stop-color="#fff"/><stop offset="1" stop-color="#fff" stop-opacity="0"/></linearGradient><path opacity=".5" fill="url(#bm)" d="M65.464 95.92c-.1.1-.3.1.101.6 1.399 1.8 0 .1 0-.2s.199-.5.1-.5-.201.1-.201.1z"/><linearGradient id="bn" gradientUnits="userSpaceOnUse" x1="-313.444" y1="257.737" x2="-312.037" y2="257.805" gradientTransform="matrix(1 0 0 -1 379.04 354.34)"><stop offset="0" stop-color="#010101"/><stop offset="1" stop-color="#010101" stop-opacity="0"/></linearGradient><path fill="url(#bn)" d="M66.264 96.22s.1-.101 0 0c.101-.101.301.3.5.3.2 0 .4-.1.4-.1s-.2.399-.2.5c0 .1-.6-.601-.7-.7.1 0 0 0 0 0z"/><linearGradient id="bo" gradientUnits="userSpaceOnUse" x1="-1602.352" y1="2890.816" x2="-1600.21" y2="2890.816" gradientTransform="scale(1 -1) rotate(-70.646 -2878.029 217.915)"><stop offset="0" stop-color="#676767"/><stop offset="1" stop-color="#010101"/></linearGradient><path fill="url(#bo)" d="M67.364 99.619c-.2-.1-.9.9-1.2 1.601s.4.8.5.8c.2.1.5-.9.8-1.4.6-.9-.1-1.001-.1-1.001z"/><linearGradient id="bp" gradientUnits="userSpaceOnUse" x1="-376.369" y1="-45.684" x2="-374.228" y2="-45.684" gradientTransform="scale(1 -1) rotate(6.944 299.797 3571.834)"><stop offset="0" stop-color="#676767"/><stop offset="1" stop-color="#010101"/></linearGradient><path fill="url(#bp)" d="M65.864 100.119c-.101.2.7 1 1.3 1.5.7.5.8-.199.9-.399.1-.101-.801-.7-1.2-1.101-.8-.8-1 0-1 0z"/><linearGradient id="bq" gradientUnits="userSpaceOnUse" x1="-376.922" y1="-45.452" x2="-375.703" y2="-45.393" gradientTransform="scale(1 -1) rotate(6.944 299.797 3571.834)"><stop offset="0" stop-color="#fff"/><stop offset="1" stop-color="#fff" stop-opacity="0"/></linearGradient><path opacity=".5" fill="url(#bq)" d="M65.964 99.92c-.1.1-.3.199.2.6 1.6 1.6 0 .1 0-.2-.1-.3.1-.5.1-.5-.1-.001-.3.1-.3.1z"/><linearGradient id="br" gradientUnits="userSpaceOnUse" x1="-376.106" y1="-45.327" x2="-374.696" y2="-45.259" gradientTransform="scale(1 -1) rotate(6.944 299.797 3571.834)"><stop offset="0" stop-color="#010101"/><stop offset="1" stop-color="#010101" stop-opacity="0"/></linearGradient><path fill="url(#br)" d="M66.864 100.119l.1-.1s.3.3.4.3c.1 0 .399-.2.399-.2s-.199.4-.199.5c-.1.101-.7-.399-.7-.5z"/><linearGradient id="bs" gradientUnits="userSpaceOnUse" x1="-1033.972" y1="2501.666" x2="-1031.831" y2="2501.666" gradientTransform="scale(1 -1) rotate(-54.935 -2988.827 139.498)"><stop offset="0" stop-color="#676767"/><stop offset="1" stop-color="#010101"/></linearGradient><path fill="url(#bs)" d="M68.364 103.02c-.2 0-.601 1.1-.7 1.9-.1.8.6.6.7.699.2 0 .2-1.1.399-1.6.301-1.099-.399-.999-.399-.999z"/><linearGradient id="bt" gradientUnits="userSpaceOnUse" x1="-633.249" y1="-683.923" x2="-631.107" y2="-683.923" gradientTransform="scale(1 -1) rotate(22.649 -1729.206 1354.757)"><stop offset="0" stop-color="#676767"/><stop offset="1" stop-color="#010101"/></linearGradient><path fill="url(#bt)" d="M66.964 103.92c-.1.199.9.8 1.7 1.1s.7-.4.8-.6c.101-.2-1-.5-1.5-.7-1-.601-1 .2-1 .2z"/><linearGradient id="bu" gradientUnits="userSpaceOnUse" x1="-633.805" y1="-683.626" x2="-632.585" y2="-683.567" gradientTransform="scale(1 -1) rotate(22.649 -1729.206 1354.757)"><stop offset="0" stop-color="#fff"/><stop offset="1" stop-color="#fff" stop-opacity="0"/></linearGradient><path opacity=".5" fill="url(#bu)" d="M67.064 103.72c0 .1-.2.2.3.5 1.899 1.1 0 .1-.101-.2-.1-.3 0-.5-.1-.5.101.099-.099.2-.099.2z"/><linearGradient id="bv" gradientUnits="userSpaceOnUse" x1="-632.987" y1="-683.498" x2="-631.578" y2="-683.43" gradientTransform="scale(1 -1) rotate(22.649 -1729.206 1354.757)"><stop offset="0" stop-color="#010101"/><stop offset="1" stop-color="#010101" stop-opacity="0"/></linearGradient><path fill="url(#bv)" d="M67.964 103.619v-.1s.3.2.5.2c.2-.101.3-.3.3-.3s0 .399-.1.5c-.1.101-.7-.199-.7-.3z"/><linearGradient id="bw" gradientUnits="userSpaceOnUse" x1="-216.88" y1="679.412" x2="-208.264" y2="679.412" gradientTransform="scale(1 -1) rotate(-33.622 -1321.498 -177.142)"><stop offset="0" stop-color="#676767"/><stop offset="1" stop-color="#010101"/></linearGradient><path fill="url(#bw)" d="M75.764 74.12l-.6-.4s-2.8 1.899-3.1 2.6c-.4.7-.4.8-.301 1.2.801 2.2 4.601 3.7 5.9 4.2 1.399.5 2.2-2.101 2.5-2.4s-3.9-2.2-4.7-4.3c-.099-.4.301-.9.301-.9z"/><path fill="#010101" d="M75.664 74.12c-.101-.1-.5-.3-.5-.3s-2.4 1.601 4.3 5.3c0 0 .4.101.3 0-.1-.1-5.6-3.6-4.1-5z"/><linearGradient id="bx" gradientUnits="userSpaceOnUse" x1="-244.394" y1="664.764" x2="-233.776" y2="664.764" gradientTransform="scale(1 -1) rotate(-22.737 -1936.825 -485.22)"><stop offset="0" stop-color="#676767"/><stop offset="1" stop-color="#010101"/></linearGradient><path fill="url(#bx)" d="M72.064 76.22l-.801-.3s-2.899 3-3.199 3.899c-.301.9-.301 1.101 0 1.601 1.5 2.5 6.399 3.5 8.199 3.699 1.8.301 2.2-3.1 2.5-3.5.3-.399-5.199-1.699-6.699-4.199-.3-.5 0-1.2 0-1.2z"/><path fill="#010101" d="M72.064 76.22c-.101-.101-.801-.3-.801-.3s-2.5 2.6 6.5 5.5c0 0 .5 0 .4-.101-.1 0-7.599-3.099-6.099-5.099z"/><linearGradient id="by" gradientUnits="userSpaceOnUse" x1="-252.958" y1="656.846" x2="-240.376" y2="656.846" gradientTransform="scale(1 -1) rotate(-19.64 -2230.175 -629.712)"><stop offset="0" stop-color="#676767"/><stop offset="1" stop-color="#010101"/></linearGradient><path fill="url(#by)" d="M68.364 79.319l-.9-.1s-3.2 3.7-3.5 4.8-.3 1.3.101 1.8c1.899 2.9 7.8 3.7 9.899 3.9s2.4-3.8 2.7-4.3c.399-.5-6.2-1.7-8.2-4.5-.4-.6-.1-1.6-.1-1.6z"/><path fill="#010101" d="M68.364 79.319c-.2-.1-.9-.1-.9-.1s-2.8 3.3 8 6.1c0 0 .6 0 .5-.1-.2-.1-9.3-3.499-7.6-5.9z"/><linearGradient id="bz" gradientUnits="userSpaceOnUse" x1="-272.418" y1="642.643" x2="-257.83" y2="642.643" gradientTransform="scale(1 -1) rotate(-8.656 -4933.747 -1922.787)"><stop offset="0" stop-color="#676767"/><stop offset="1" stop-color="#010101"/></linearGradient><path fill="url(#bz)" d="M64.064 83.52l-.9.1s-2.8 4.9-2.9 6.2c-.1 1.3-.1 1.5.5 2.101 2.801 2.8 9.7 2.5 12.101 2.199 2.399-.199 1.899-4.8 2.2-5.5.3-.699-7.5-.6-10.301-3.3-.6-.501-.7-1.8-.7-1.8z"/><path fill="#010101" d="M64.064 83.52c-.2-.1-.801.1-.801.1s-2.6 4.4 10.4 5.301c0 0 .7-.101.5-.2-.199-.102-11.399-2.001-10.099-5.201z"/><path opacity=".5" fill="#010101" d="M77.964 78.02v.4l-1.5 2.199v.5l-2.7 3.301v.6l-2.699 2.9v.899s-.5 4-4 5.5c0 0 5.8.3 6.5-.3.699-.7 1.3-4.5 1.3-4.5s.5-.3.899-1.6c.4-1.301.601-2.5.601-2.5v-.301s-.301.801.6-.3c.9-1.1 1.3-2.6 1.3-2.7 0-.1.2-.399.8-1.1.601-.7 1-1.5.9-1.5s-2.1-1.5-2.1-1.5h.099z"/><path opacity=".25" fill="#FFF" d="M75.164 73.819s-2.9 2.2-3 2.4-.9-.3-.9-.3l-3 3.5-.899-.2s-3.3 4.399-3.4 4.5c-.1.1-.8.1-.8.1s-3 5.601-3 6.101.1 1.8.1 1.8 1.5 2.399 3.9-2.3c.7-1.4 1.3-1.801 1.3-1.801l.8-.899 2.4-3.7 1.1-.6 2.301-3.301.899-.399 1.9-2.7.699-.1-.1-1.601-.3-.5z"/><linearGradient id="bA" gradientUnits="userSpaceOnUse" x1="-307.804" y1="244.269" x2="-294.997" y2="244.269" gradientTransform="matrix(1 0 0 -1 379.04 354.34)"><stop offset="0" stop-color="#efc7b1"/><stop offset="1" stop-color="#cfa38c"/></linearGradient><path fill="url(#bA)" d="M71.364 111.02c.899.7 1.2.7 1.8.8.5.101.6.2.7 1.101.1.899.3 1.5 0 1.6s-1 .4-1 .6c0 .2.8.5 1.399.7.7.2 1.5.2 2.101-.2.6-.399.699-.6 1.399-.8.101 0 .2-.1.4-.1 1-.3 1-.601 1-.7.1-.2.1-.3.8-.3.6 0 .8-.2 1.1-.5.301-.3.601-.3 1-.9.5-.6 1.5-2.2 1.801-2.8.399-.6-.801-2.9-1.5-3.8-.7-.8-2.801-1.3-3.7-1.5-2.101-.4-6.6 3.6-6.9 4.1-.3.5-.699 1.4-.5 1.8.2.399.1.899.1.899z"/><linearGradient id="bB" gradientUnits="userSpaceOnUse" x1="-301.762" y1="240.971" x2="-301.219" y2="240.971" gradientTransform="matrix(1 0 0 -1 379.04 354.34)"><stop offset="0" stop-color="#efc7b1"/><stop offset="1" stop-color="#cfa38c"/></linearGradient><path fill="url(#bB)" d="M77.664 111.72c-.101.1-.2.1-.3.2.1 1.1.199 2.199.1 2.5v.6l.4-.2-.101-2.399c.001-.201-.099-.501-.099-.701z"/><linearGradient id="bC" gradientUnits="userSpaceOnUse" x1="-299.926" y1="242.17" x2="-299.381" y2="242.17" gradientTransform="matrix(1 0 0 -1 379.04 354.34)"><stop offset="0" stop-color="#efc7b1"/><stop offset="1" stop-color="#cfa38c"/></linearGradient><path fill="url(#bC)" d="M79.464 110.42c-.1 0-.2.1-.2.1.101 1.2.2 2.5.2 2.8v.601l.4-.2-.101-2.4c-.2-.202-.299-.601-.299-.901z"/><linearGradient id="bD" gradientUnits="userSpaceOnUse" x1="-296.968" y1="244.07" x2="-296.424" y2="244.07" gradientTransform="matrix(1 0 0 -1 379.04 354.34)"><stop offset="0" stop-color="#efc7b1"/><stop offset="1" stop-color="#cfa38c"/></linearGradient><path fill="url(#bD)" d="M82.364 108.52c-.101.1-.2.1-.301.2.101 1.2.2 2.399.2 2.7v.6l.4-.2-.101-2.399a2.367 2.367 0 0 0-.198-.901z"/><linearGradient id="bE" gradientUnits="userSpaceOnUse" x1="-307.805" y1="242.57" x2="-294.998" y2="242.57" gradientTransform="matrix(1 0 0 -1 379.04 354.34)"><stop offset="0" stop-color="#efc7b1"/><stop offset="1" stop-color="#cfa38c"/></linearGradient><path opacity=".8" fill="url(#bE)" d="M83.464 107.52c-1.1.9-2.2 1.7-3.4 2.5-.8.6-1.699 1.1-2.5 1.7-.6.5-1.199.899-1.899 1.2v.3c.1.899.1 1.899-.101 2.8.301 0 .601-.1.9-.3.7-.4.8-.7 1.7-1 .899-.3 1-.601 1-.7.1-.2.1-.3.8-.3.6 0 .8-.2 1.1-.5.301-.3.601-.3 1-.9.5-.6 1.5-2.2 1.801-2.8.299-.3-.001-1.201-.401-2z"/><linearGradient id="bF" gradientUnits="userSpaceOnUse" x1="-307.805" y1="241.82" x2="-294.996" y2="241.82" gradientTransform="matrix(1 0 0 -1 379.04 354.34)"><stop offset="0" stop-color="#efc7b1"/><stop offset="1" stop-color="#cfa38c"/></linearGradient><path fill="url(#bF)" d="M75.563 116.02c.101-1.1.2-2.4.101-3.6-.4-.5-.9-1-1.4-1.4-.8-.6-1.8-1-2.6-1.7-.1-.1-.2-.2-.2-.3-.2.5-.3.9-.2 1.2.2.3.101.899.101.899.899.7 1.2.7 1.8.801.5.1.6.199.7 1.1.1.9.3 1.5 0 1.6-.3.101-1 .4-1 .601s.8.5 1.399.7c.5.099.9.099 1.299.099z"/><linearGradient id="bG" gradientUnits="userSpaceOnUse" x1="-309.766" y1="246.964" x2="-300.736" y2="246.964" gradientTransform="matrix(1 0 0 -1 379.04 354.34)"><stop offset="0" stop-color="#010101"/><stop offset="1" stop-color="#1a1a1a"/></linearGradient><path fill="url(#bG)" d="M69.264 109.819c-.1 0 1.301-5.5 6.3-6.2 2.801-.399 2.7.7 2.7.7s-6.399 3-7.1 6.9l-1.9-1.4z"/><linearGradient id="bH" gradientUnits="userSpaceOnUse" x1="-307.08" y1="245.375" x2="-297.379" y2="245.375" gradientTransform="matrix(1 0 0 -1 379.04 354.34)"><stop offset="0" stop-color="#010101"/><stop offset="1" stop-color="#1a1a1a"/></linearGradient><path opacity=".25" fill="url(#bH)" d="M72.164 109.42c2.4-.801 4.6-1.5 5.899-1 1.301.399 1.601 1 1.801 1.699.199.7.1 2.801.1 3.301s.7.199 1 .199.5-1.1.6-2.1c.101-1 .2-2.5-.5-3.6-.5-.801-1.5-1.4-.8-2.101.7-.8 1.7-.7 1.4-.899-.3-.2-2.8-.7-3-.7s-3.4 1.1-4.5 2.2-2 2.1-2.1 2.6c-.1.501.1.401.1.401z"/><linearGradient id="bI" gradientUnits="userSpaceOnUse" x1="-307.389" y1="245.275" x2="-297.688" y2="245.275" gradientTransform="matrix(1 0 0 -1 379.04 354.34)"><stop offset="0" stop-color="#4e4e4e"/><stop offset="1" stop-color="#1a1a1a"/></linearGradient><path fill="url(#bI)" d="M71.864 109.52c2.399-.8 4.6-1.5 5.899-1s1.601 1 1.8 1.7c.2.7.101 2.8.101 3.3-.101.5.7.2 1 .2s.5-1.101.6-2.101c.101-1.1.2-2.5-.5-3.6-.5-.8-1.5-1.4-.8-2.1.7-.801 1.7-.7 1.4-.9-.301-.2-2.801-.7-3-.7-.2 0-3.4 1.101-4.5 2.2-1.101 1.1-2 2.1-2.101 2.6-.199.401.101.401.101.401z"/><linearGradient id="bJ" gradientUnits="userSpaceOnUse" x1="-316.833" y1="265.317" x2="-315.758" y2="265.317" gradientTransform="matrix(1 0 0 -1 379.04 354.34)"><stop offset="0" stop-color="#676767"/><stop offset="1" stop-color="#010101"/></linearGradient><path fill="url(#bJ)" d="M63.064 88.22c.199.1.199.5 0 1-.2.5-.5.7-.801.6-.199-.1-.199-.5 0-1 .301-.4.601-.701.801-.6z"/><radialGradient id="bK" cx="-214.186" cy="164.924" r="1.607" gradientTransform="matrix(.6667 0 0 -.6667 204.663 198.627)" gradientUnits="userSpaceOnUse"><stop offset="0" stop-color="#8dc641"/><stop offset=".5" stop-color="#bad642"/><stop offset="1" stop-color="#415a29"/></radialGradient><path fill="url(#bK)" d="M62.964 88.319c.2.101.2.4 0 .8-.2.301-.399.5-.6.5-.2-.1-.2-.399 0-.8.1-.399.4-.599.6-.5z"/><linearGradient id="bL" gradientUnits="userSpaceOnUse" x1="-315.509" y1="257.128" x2="-314.558" y2="257.128" gradientTransform="scale(1 -1) rotate(.315 61875.76 69460.08)"><stop offset="0" stop-color="#676767"/><stop offset="1" stop-color="#010101"/></linearGradient><path fill="url(#bL)" d="M66.864 83.22c.2.1.2.5 0 .8-.2.4-.5.6-.7.5s-.2-.5 0-.8c.2-.401.5-.601.7-.5z"/><radialGradient id="bM" cx="-211.859" cy="158.182" r="1.423" gradientTransform="matrix(.6667 -.0037 -.0037 -.6667 207.57 188.288)" gradientUnits="userSpaceOnUse"><stop offset="0" stop-color="#8dc641"/><stop offset=".5" stop-color="#bad642"/><stop offset="1" stop-color="#415a29"/></radialGradient><path fill="url(#bM)" d="M66.664 83.22c.2.1.2.399 0 .7-.1.3-.4.5-.5.399-.2-.1-.2-.399 0-.7.1-.199.4-.399.5-.399z"/><linearGradient id="bN" gradientUnits="userSpaceOnUse" x1="-254.003" y1="741.001" x2="-253.124" y2="741.001" gradientTransform="matrix(.9826 .1857 .1857 -.9826 181.94 855.32)"><stop offset="0" stop-color="#676767"/><stop offset="1" stop-color="#010101"/></linearGradient><path fill="url(#bN)" d="M70.764 79.52c.2.1.101.5-.1.8s-.5.5-.7.4c-.2-.101-.1-.5.101-.8.299-.301.599-.5.699-.4z"/><radialGradient id="bO" cx="-131.342" cy="666.502" r="1.315" gradientTransform="matrix(.6551 .1238 .1238 -.6551 73.263 532.612)" gradientUnits="userSpaceOnUse"><stop offset="0" stop-color="#8dc641"/><stop offset=".5" stop-color="#bad642"/><stop offset="1" stop-color="#415a29"/></radialGradient><path fill="url(#bO)" d="M70.664 79.619c.1.101.1.4-.1.601-.2.2-.4.399-.601.3-.1-.1-.1-.4.101-.6.2-.301.5-.4.6-.301z"/><linearGradient id="bP" gradientUnits="userSpaceOnUse" x1="-251.691" y1="956.984" x2="-250.927" y2="956.984" gradientTransform="scale(1 -1) rotate(-15.569 -3870.388 -749.972)"><stop offset="0" stop-color="#676767"/><stop offset="1" stop-color="#010101"/></linearGradient><path fill="url(#bP)" d="M74.464 76.52c.101.1.101.4-.2.7-.3.3-.5.399-.6.3s-.1-.4.2-.7c.2-.3.5-.4.6-.3z"/><radialGradient id="bQ" cx="-121.432" cy="894.451" r="1.142" gradientTransform="matrix(.6422 .1789 .1789 -.6422 -8.513 672.709)" gradientUnits="userSpaceOnUse"><stop offset="0" stop-color="#8dc641"/><stop offset=".5" stop-color="#bad642"/><stop offset="1" stop-color="#415a29"/></radialGradient><path fill="url(#bQ)" d="M74.364 76.52c.1.1 0 .3-.101.5-.1.2-.399.3-.5.2-.1-.101 0-.3.101-.5.1-.2.4-.3.5-.2z"/><linearGradient id="bR" gradientUnits="userSpaceOnUse" x1="-308.897" y1="244.238" x2="-308.593" y2="244.607" gradientTransform="matrix(1 0 0 -1 379.04 354.34)"><stop offset="0" stop-color="#818181"/><stop offset="1" stop-color="#1a1a1a"/></linearGradient><path fill="url(#bR)" d="M69.664 109.02c-.1.3-.2.4-.1.5.1.1 1.399 1.1 1.5 1.1.1 0 .1-.3.199-.5.101-.1-1.599-1.1-1.599-1.1z"/><linearGradient id="bS" gradientUnits="userSpaceOnUse" x1="-308.483" y1="245.154" x2="-308.181" y2="245.522" gradientTransform="matrix(1 0 0 -1 379.04 354.34)"><stop offset="0" stop-color="#818181"/><stop offset="1" stop-color="#1a1a1a"/></linearGradient><path fill="url(#bS)" d="M70.064 108.119c-.101.301-.2.4-.101.5.101.101 1.4 1.101 1.5 1.101.101 0 .101-.3.2-.5.101-.101-1.599-1.101-1.599-1.101z"/><linearGradient id="bT" gradientUnits="userSpaceOnUse" x1="-308.037" y1="246.275" x2="-307.774" y2="246.595" gradientTransform="matrix(1 0 0 -1 379.04 354.34)"><stop offset="0" stop-color="#818181"/><stop offset="1" stop-color="#1a1a1a"/></linearGradient><path fill="url(#bT)" d="M70.564 107.119c-.101.301-.2.4-.101.5.101.101 1.3 1 1.3 1s.101-.3.2-.399c.101-.2-1.399-1.101-1.399-1.101z"/><linearGradient id="bU" gradientUnits="userSpaceOnUse" x1="-307.479" y1="247.06" x2="-307.212" y2="247.385" gradientTransform="matrix(1 0 0 -1 379.04 354.34)"><stop offset="0" stop-color="#818181"/><stop offset="1" stop-color="#1a1a1a"/></linearGradient><path fill="url(#bU)" d="M71.164 106.319c-.1.3-.2.4-.1.4.1.1 1.3 1 1.3 1 .1 0 .1-.3.2-.4.1-.099-1.4-1-1.4-1z"/><linearGradient id="bV" gradientUnits="userSpaceOnUse" x1="-306.705" y1="247.829" x2="-306.442" y2="248.147" gradientTransform="matrix(1 0 0 -1 379.04 354.34)"><stop offset="0" stop-color="#818181"/><stop offset="1" stop-color="#1a1a1a"/></linearGradient><path fill="url(#bV)" d="M71.964 105.52c-.1.3-.2.4-.1.4.1.1 1.2 1 1.3 1s.1-.301.2-.4c0-.1-1.4-1-1.4-1z"/><linearGradient id="bW" gradientUnits="userSpaceOnUse" x1="-305.939" y1="248.514" x2="-305.697" y2="248.808" gradientTransform="matrix(1 0 0 -1 379.04 354.34)"><stop offset="0" stop-color="#818181"/><stop offset="1" stop-color="#1a1a1a"/></linearGradient><path fill="url(#bW)" d="M72.764 104.92c-.1.199-.199.3-.1.399.1.101 1.2.9 1.2.9s.1-.3.2-.4c0-.099-1.3-.899-1.3-.899z"/><linearGradient id="bX" gradientUnits="userSpaceOnUse" x1="-305.021" y1="249.121" x2="-304.785" y2="249.407" gradientTransform="matrix(1 0 0 -1 379.04 354.34)"><stop offset="0" stop-color="#818181"/><stop offset="1" stop-color="#1a1a1a"/></linearGradient><path fill="url(#bX)" d="M73.664 104.319c-.1.2-.2.3-.1.4.1.1 1.1.899 1.199.899.101 0 .101-.3.2-.399l-1.299-.9z"/><linearGradient id="bY" gradientUnits="userSpaceOnUse" x1="-303.909" y1="249.636" x2="-303.667" y2="249.93" gradientTransform="matrix(1 0 0 -1 379.04 354.34)"><stop offset="0" stop-color="#818181"/><stop offset="1" stop-color="#1a1a1a"/></linearGradient><path fill="url(#bY)" d="M74.764 103.819c-.1.2-.199.3-.1.4.1.1 1.2.899 1.2.899.1 0 .1-.3.199-.399 0-.1-1.299-.9-1.299-.9z"/><linearGradient id="bZ" gradientUnits="userSpaceOnUse" x1="-302.778" y1="250.067" x2="-302.545" y2="250.351" gradientTransform="matrix(1 0 0 -1 379.04 354.34)"><stop offset="0" stop-color="#818181"/><stop offset="1" stop-color="#1a1a1a"/></linearGradient><path fill="url(#bZ)" d="M75.864 103.42c-.101.199-.2.3-.101.399.101.101 1.101.9 1.2.9s.1-.2.1-.4c.101-.099-1.199-.899-1.199-.899z"/><linearGradient id="ca" gradientUnits="userSpaceOnUse" x1="-289.33" y1="228.594" x2="-269.858" y2="228.594" gradientTransform="matrix(1 0 0 -1 379.04 354.34)"><stop offset="0" stop-color="#1a1a1a"/><stop offset="1" stop-color="#010101"/></linearGradient><path fill="url(#ca)" d="M92.264 117.92c2.2-1.5 4.5-1.101 6.7-1.2 2.2-.101 2.3-.101 3.1.7.801.8-.6 5.8-1.399 7.699-.8 1.9-.4 2.601-.3 3.2.199.601 6.399.5 8.399 3.4.8 1.2.5 1.8 0 2.3s-1 .8-1 .8h-16.8s-1-.6-1.1-1.399c-.101-.801-.101-1.9.3-2.5.399-.601 2.3-8.801 1.5-11.801-.2-.399.6-1.199.6-1.199z"/><linearGradient id="cb" gradientUnits="userSpaceOnUse" x1="-288.877" y1="228.57" x2="-273.376" y2="228.57" gradientTransform="matrix(1 0 0 -1 379.04 354.34)"><stop offset="0" stop-color="#676767"/><stop offset="1" stop-color="#010101"/></linearGradient><path opacity=".5" fill="url(#cb)" d="M92.464 118.22c-.2.3-.9-.101-.5 1.2.8 2.399-.5 7.6-.6 8.3-.101.6-.9 3.2-1.101 3.7s-.1 2.5.3 2.8c.4.399 15.101 0 15.101 0s-6.4-1.7-7.8-3.601c-1.301-1.899-1.7-6.6-1.101-9.3.601-2.6 1-4.6-1.5-4.1-1.2.201-2.799 1.001-2.799 1.001z"/><linearGradient id="cc" gradientUnits="userSpaceOnUse" x1="-287.603" y1="231.051" x2="-277.988" y2="231.051" gradientTransform="matrix(1 0 0 -1 379.04 354.34)"><stop offset="0" stop-color="#b4b4b4"/><stop offset=".495" stop-color="#676767"/><stop offset="1" stop-color="#010101"/></linearGradient><path fill="url(#cc)" d="M91.664 121.52c-.2.3 8.6 3.8 8.8 4 .3.2.8 0 .4-.4-.4-.399-8.9-4-9-4.1-.101-.1-.4 0-.4.1s.2.4.2.4z"/><linearGradient id="cd" gradientUnits="userSpaceOnUse" x1="-287.603" y1="231.352" x2="-277.988" y2="231.352" gradientTransform="matrix(1 0 0 -1 379.04 354.34)"><stop offset="0" stop-color="#b4b4b4"/><stop offset=".495" stop-color="#676767"/><stop offset="1" stop-color="#010101"/></linearGradient><path fill="url(#cd)" d="M91.664 121.22c-.2.3 8.6 3.8 8.8 4 .3.2.8 0 .4-.4-.4-.399-8.9-4-9-4.1-.101-.101-.4 0-.4.1s.2.4.2.4z"/><linearGradient id="ce" gradientUnits="userSpaceOnUse" x1="-878.091" y1="-1188.817" x2="-868.479" y2="-1188.817" gradientTransform="scale(1 -1) rotate(39.746 -1855.836 681.037)"><stop offset="0" stop-color="#b4b4b4"/><stop offset=".495" stop-color="#676767"/><stop offset="1" stop-color="#010101"/></linearGradient><path fill="url(#ce)" d="M90.563 130.02c.101.4 9-2.6 9.301-2.6.3 0 .6-.5 0-.601-.5-.1-9.4 2.601-9.5 2.7-.101 0-.301.3-.2.4.1.101.399.101.399.101z"/><linearGradient id="cf" gradientUnits="userSpaceOnUse" x1="-877.831" y1="-1188.52" x2="-868.217" y2="-1188.52" gradientTransform="scale(1 -1) rotate(39.746 -1855.836 681.037)"><stop offset="0" stop-color="#b4b4b4"/><stop offset=".495" stop-color="#676767"/><stop offset="1" stop-color="#010101"/></linearGradient><path fill="url(#cf)" d="M90.563 129.619c.101.4 9-2.6 9.301-2.6.3 0 .6-.5 0-.6-.5-.101-9.4 2.6-9.5 2.699-.101.101-.301.301-.2.4.1.101.399.101.399.101z"/><linearGradient id="cg" gradientUnits="userSpaceOnUse" x1="-1138.017" y1="-1266.743" x2="-1128.404" y2="-1266.743" gradientTransform="matrix(.9045 -.7521 -.6089 -.7323 348.856 -1649.438)"><stop offset="0" stop-color="#b4b4b4"/><stop offset=".495" stop-color="#676767"/><stop offset="1" stop-color="#010101"/></linearGradient><path fill="url(#cg)" d="M89.964 132.619c.1.4 10.1-3.699 10.4-3.699.399-.101.699-.601.1-.601s-10.5 3.8-10.6 3.8c-.2.101-.4.301-.301.4 0 .1.401.1.401.1z"/><linearGradient id="ch" gradientUnits="userSpaceOnUse" x1="-1137.949" y1="-1266.396" x2="-1128.142" y2="-1266.396" gradientTransform="matrix(.9045 -.7521 -.6089 -.7323 348.856 -1649.438)"><stop offset="0" stop-color="#b4b4b4"/><stop offset=".495" stop-color="#676767"/><stop offset="1" stop-color="#010101"/></linearGradient><path fill="url(#ch)" d="M89.563 132.52c.101.4 10.5-4 10.9-4 .4-.1.7-.6.1-.6s-10.699 3.8-10.899 3.8c-.2.1-.2.399-.101.5v.3z"/><linearGradient id="ci" gradientUnits="userSpaceOnUse" x1="-288.315" y1="221.006" x2="-270.147" y2="221.006" gradientTransform="matrix(1 0 0 -1 379.04 354.34)"><stop offset="0" stop-color="#b4b4b4"/><stop offset=".495" stop-color="#676767"/><stop offset="1" stop-color="#010101"/></linearGradient><path fill="url(#ci)" d="M108.464 131.92c.4.5.5 1.199.3 1.6s-1 1-1.1 1.2c-.101.1-16.9-.101-16.9-.2 8.7.2 9.9-.2 12.9-.3 1.899-.101 3.8 1.2 4.899-.9.201-.501-.099-1.4-.099-1.4z"/><linearGradient id="cj" gradientUnits="userSpaceOnUse" x1="-285.337" y1="264.849" x2="-290.025" y2="264.319" gradientTransform="matrix(1 0 0 -1 379.04 354.34)"><stop offset="0" stop-color="#676767"/><stop offset="1" stop-color="#010101"/></linearGradient><path fill="url(#cj)" d="M93.364 79.72v8.7c0 .5-2.601 10.6-2.9 11.399s-2.6.9-2.7.8c-.1 0 7.601-11.1 4.3-13.8.4 0 1.601-5 .4-5.7-1.2-.699-2.1-.699-1.6-1 .5-.3 2.1-1.1 2.199-1.1 0-.099.301.701.301.701z"/><g fill="#1A1A1A"><path d="M76.964 86.619c-.5.9 2.4 2.4 10.1 2.601 7.7.2-1.399-.8-4.3-1.601-2.701-.699-5.8-1-5.8-1zm-.5 1.601c-.4.899 2.4 2.399 10.1 2.6 7.7.2-1.399-.8-4.3-1.6-2.9-.8-5.8-1-5.8-1z"/><path d="M76.864 89.819c-.4.9 2.399 2.4 10.1 2.601 7.7.199-1.4-.801-4.3-1.601-2.9-.799-5.8-1-5.8-1z"/><path d="M76.464 91.02c-.5.9 2.4 2.4 10.1 2.6 7.7.2-1.399-.8-4.3-1.6-2.8-.701-5.8-1-5.8-1zm-.2 2c-.5.9 2.4 2.4 10.101 2.6 7.699.2-1.4-.8-4.301-1.6-2.8-.8-5.8-1-5.8-1z"/><path opacity=".5" d="M76.264 94.52c-.5.9 2.4 2.4 10.101 2.6 7.699.2-1.4-.8-4.301-1.6-2.8-.8-5.8-1-5.8-1z"/></g><g opacity=".25" fill="#FFF"><path opacity=".5" d="M90.563 89.22c1.7 0 2.4-1.3 2.4-2.3 0 0-.7.199-1.4.8-.599.8-2.699 1.5-1 1.5zm0 1.599c1.7 0 2.4-1.3 2.4-2.3 0 0-.7.2-1.4.8-.599.701-2.699 1.5-1 1.5z"/><path opacity=".5" d="M92.764 90.119s-.7.2-1.399.801c-.7.699-2.7 1.399-1 1.399.399 0 .699-.1 1-.2-.7.7-2.7 1.4-1 1.4 1.699 0 2.399-1.3 2.399-2.3 0 0-.2 0-.5.2.299-.3.5-.8.5-1.3zm-2.5 5.401c1.7 0 2.4-1.3 2.4-2.3 0 0-.7.2-1.4.8-.701.799-2.701 1.5-1 1.5z"/><path opacity=".5" d="M90.063 97.119c1.7 0 2.4-1.3 2.4-2.3 0 0-.7.2-1.4.8-.599.7-2.599 1.401-1 1.5z"/></g></svg>